<svg width="18" height="20" viewBox="0 0 18 20" fill="none" xmlns="http://www.w3.org/2000/svg">
<g clip-path="url(#clip0_520_3733)">
<path d="M17.1347 15.5001C16.8248 16.1994 16.4485 16.8351 16.0168 17.4178C15.4301 18.223 14.9431 18.7739 14.5778 19.0812C14.0022 19.5897 13.3824 19.844 12.7293 19.8652C12.2533 19.8652 11.6888 19.738 11.0247 19.4732C10.3605 19.2083 9.74067 19.0812 9.18722 19.0812C8.60057 19.0812 7.96964 19.2083 7.29444 19.4732C6.61923 19.738 6.07685 19.8758 5.65623 19.8864C5.0253 19.9076 4.39437 19.6427 3.76344 19.0812C3.36496 18.7421 2.85579 18.17 2.25806 17.3542C1.61607 16.4854 1.08476 15.4789 0.664137 14.3241C0.221379 13.0951 0 11.8979 0 10.7325C0 9.39755 0.298862 8.25332 0.907653 7.28919C1.38362 6.51578 2.01455 5.90128 2.80044 5.4563C3.58634 5.01132 4.43865 4.77824 5.35737 4.76764C5.85547 4.76764 6.51961 4.91597 7.33871 5.21262C8.15781 5.50927 8.67805 5.6576 8.9105 5.6576C9.0876 5.6576 9.66319 5.48809 10.6483 5.13846C11.5781 4.82062 12.364 4.68288 13.0171 4.73586C14.766 4.87359 16.0832 5.53046 16.9576 6.71708C15.3969 7.62823 14.6221 8.889 14.6331 10.5206C14.6442 11.792 15.1312 12.8408 16.0721 13.6884C16.5038 14.0804 16.9798 14.3771 17.5111 14.589C17.3893 14.8962 17.2676 15.2035 17.1347 15.5001ZM13.1278 0.402601C13.1278 1.39851 12.7514 2.33085 11.9877 3.18902C11.0689 4.20612 9.97312 4.79943 8.7666 4.70407C8.75554 4.57694 8.75554 4.46039 8.75554 4.32266C8.75554 3.36913 9.18722 2.34144 9.96205 1.51505C10.3495 1.09126 10.8365 0.741633 11.4342 0.455575C12.0319 0.180111 12.5854 0.0211895 13.1167 0C13.1167 0.137732 13.1278 0.264869 13.1278 0.402601Z" fill="white"/>
</g>
<defs>
<clipPath id="clip0_520_3733">
<rect width="17.5" height="19.8864" fill="white"/>
</clipPath>
</defs>
</svg>
