<svg width="22" height="22" viewBox="0 0 22 22" fill="none" xmlns="http://www.w3.org/2000/svg">
<path d="M14.3331 11.0517C14.332 11.1614 14.3093 11.2698 14.2662 11.3707C14.2232 11.4715 14.1607 11.5629 14.0822 11.6396L9.00528 16.5614C8.84595 16.7159 8.63178 16.8007 8.40988 16.7973C8.18799 16.7938 7.97656 16.7024 7.82209 16.5431C7.66762 16.3837 7.58278 16.1696 7.58622 15.9477C7.58966 15.7258 7.68111 15.5143 7.84045 15.3599L12.325 11.0206L7.98555 6.54439C7.85152 6.38287 7.78337 6.17673 7.79472 5.96715C7.80608 5.75757 7.8961 5.55999 8.04679 5.4139C8.19749 5.26781 8.39776 5.18396 8.60759 5.17912C8.81742 5.17427 9.02136 5.24878 9.17864 5.38776L14.1005 10.4647C14.252 10.6223 14.3355 10.8331 14.3331 11.0517Z" fill="black"/>
</svg>
