<svg width="20" height="20" viewBox="0 0 20 20" fill="none" xmlns="http://www.w3.org/2000/svg">
<path d="M6.66586 10.0001C6.66523 9.8904 6.68625 9.78168 6.72772 9.68015C6.76919 9.57862 6.83029 9.48627 6.90753 9.40841L11.9075 4.40841C12.0644 4.25149 12.2773 4.16333 12.4992 4.16333C12.7211 4.16333 12.9339 4.25149 13.0909 4.40841C13.2478 4.56533 13.3359 4.77816 13.3359 5.00007C13.3359 5.22199 13.2478 5.43482 13.0909 5.59174L8.67419 10.0001L13.0825 14.4084C13.219 14.5678 13.2904 14.7729 13.2823 14.9826C13.2742 15.1923 13.1872 15.3913 13.0388 15.5397C12.8904 15.6881 12.6915 15.7751 12.4817 15.7832C12.272 15.7913 12.0669 15.7199 11.9075 15.5834L6.90753 10.5834C6.75357 10.4282 6.66678 10.2187 6.66586 10.0001Z" fill="#8F8F8F"/>
</svg>
