<svg width="20" height="20" viewBox="0 0 20 20" fill="none" xmlns="http://www.w3.org/2000/svg">
<path d="M10.0002 6.66659C10.1098 6.66596 10.2186 6.68698 10.3201 6.72845C10.4216 6.76992 10.514 6.83102 10.5918 6.90826L15.5918 11.9083C15.7488 12.0652 15.8369 12.278 15.8369 12.4999C15.8369 12.7218 15.7488 12.9347 15.5918 13.0916C15.4349 13.2485 15.2221 13.3367 15.0002 13.3367C14.7783 13.3367 14.5654 13.2485 14.4085 13.0916L10.0002 8.67493L5.59184 13.0833C5.43242 13.2198 5.22736 13.2911 5.01763 13.283C4.8079 13.2749 4.60895 13.188 4.46054 13.0396C4.31212 12.8911 4.22518 12.6922 4.21708 12.4825C4.20898 12.2727 4.28032 12.0677 4.41684 11.9083L9.41684 6.90826C9.57206 6.75431 9.78156 6.66751 10.0002 6.66659Z" fill="black"/>
</svg>
