<svg width="20" height="20" viewBox="0 0 20 20" fill="none" xmlns="http://www.w3.org/2000/svg">
<path d="M13.3341 9.99993C13.3348 10.1096 13.3138 10.2183 13.2723 10.3198C13.2308 10.4214 13.1697 10.5137 13.0925 10.5916L8.09247 15.5916C7.93555 15.7485 7.72272 15.8367 7.50081 15.8367C7.27889 15.8367 7.06606 15.7485 6.90914 15.5916C6.75222 15.4347 6.66406 15.2218 6.66406 14.9999C6.66406 14.778 6.75222 14.5652 6.90914 14.4083L11.3258 9.99993L6.91747 5.59159C6.78095 5.43218 6.70961 5.22711 6.71771 5.01738C6.72582 4.80765 6.81276 4.6087 6.96117 4.46029C7.10958 4.31188 7.30853 4.22494 7.51826 4.21684C7.72799 4.20873 7.93306 4.28007 8.09247 4.41659L13.0925 9.41659C13.2464 9.57181 13.3332 9.78131 13.3341 9.99993Z" fill="#8F8F8F"/>
</svg>
