<svg width="25" height="25" viewBox="0 0 25 25" fill="none" xmlns="http://www.w3.org/2000/svg">
<g clip-path="url(#clip0_526_12712)">
<path d="M9.88398 24.0935C8.51133 24.0935 7.39453 22.9767 7.39453 21.6041C7.39453 20.2314 8.51133 19.115 9.88398 19.115C11.2566 19.115 12.3734 20.2314 12.3734 21.6041C12.3734 22.9767 11.2566 24.0935 9.88398 24.0935ZM9.88398 20.6775C9.37305 20.6775 8.95703 21.0931 8.95703 21.6041C8.95703 22.1154 9.37266 22.531 9.88398 22.531C10.3953 22.531 10.8109 22.1154 10.8109 21.6041C10.8109 21.0931 10.3953 20.6775 9.88398 20.6775Z" fill="#1E3D65"/>
<path d="M18.5359 24.0935C17.1633 24.0935 16.0469 22.9767 16.0469 21.6041C16.0469 20.2314 17.1633 19.115 18.5359 19.115C19.9086 19.115 21.0254 20.2314 21.0254 21.6041C21.0254 22.9767 19.9082 24.0935 18.5359 24.0935ZM18.5359 20.6775C18.025 20.6775 17.6094 21.0931 17.6094 21.6041C17.6094 22.1154 18.025 22.531 18.5359 22.531C19.0473 22.531 19.4629 22.1154 19.4629 21.6041C19.4629 21.0931 19.0469 20.6775 18.5359 20.6775Z" fill="#1E3D65"/>
<path d="M20.3609 17.1853H8.08789C6.89375 17.1853 5.87383 16.3724 5.60742 15.2083L3.06015 4.08447C3.02656 3.9376 2.925 3.81182 2.78828 3.74853L0.675389 2.76924C0.186327 2.54267 -0.0265639 1.96221 0.199999 1.47275C0.426561 0.98369 1.00742 0.770799 1.49648 0.997362L3.60937 1.97666C4.29023 2.29189 4.79687 2.91689 4.96406 3.64853L7.51133 14.7731C7.57305 15.0435 7.81015 15.2325 8.08789 15.2325H20.3609C20.6375 15.2325 20.8742 15.0446 20.9375 14.7751L22.918 6.25439C22.9746 6.01221 22.8715 5.83603 22.8055 5.75283C22.7391 5.66924 22.5906 5.52939 22.3422 5.52939H7.88906C7.34961 5.52939 6.9125 5.09228 6.9125 4.55283C6.9125 4.01338 7.34961 3.57627 7.88906 3.57627H22.3422C23.123 3.57627 23.8488 3.92666 24.3348 4.53799C24.8207 5.14931 24.9973 5.93603 24.8207 6.69658L22.8398 15.2177C22.5699 16.3759 21.5508 17.1853 20.3609 17.1853Z" fill="#1E3D65"/>
</g>
<defs>
<clipPath id="clip0_526_12712">
<rect width="25" height="25" fill="white"/>
</clipPath>
</defs>
</svg>
