<svg width="20" height="20" viewBox="0 0 20 20" fill="none" xmlns="http://www.w3.org/2000/svg">
<path d="M13.2 18.5416H6.8C6.15968 18.5324 5.54646 18.2818 5.08295 17.8399C4.61945 17.398 4.33983 16.7975 4.3 16.1583L3.54167 4.62498C3.53778 4.54136 3.55051 4.4578 3.57911 4.37913C3.60772 4.30046 3.65164 4.22824 3.70833 4.16665C3.76674 4.10282 3.83745 4.05145 3.91621 4.01565C3.99498 3.97985 4.08017 3.96035 4.16667 3.95831H15.8333C15.919 3.95812 16.0039 3.97556 16.0825 4.00954C16.1612 4.04353 16.2321 4.09333 16.2907 4.15585C16.3493 4.21837 16.3944 4.29228 16.4233 4.37299C16.4521 4.45369 16.464 4.53947 16.4583 4.62498L15.7333 16.1583C15.6931 16.8032 15.4088 17.4085 14.9382 17.8512C14.4676 18.2939 13.8461 18.5408 13.2 18.5416ZM4.86667 5.20831L5.50833 16.0833C5.52953 16.4112 5.67492 16.7188 5.9149 16.9433C6.15487 17.1677 6.47139 17.2923 6.8 17.2916H13.2C13.528 17.2904 13.8435 17.1651 14.083 16.941C14.3226 16.7169 14.4685 16.4105 14.4917 16.0833L15.1667 5.24998L4.86667 5.20831Z" fill="white"/>
<path d="M17.5 5.20831H2.5C2.33424 5.20831 2.17527 5.14246 2.05806 5.02525C1.94085 4.90804 1.875 4.74907 1.875 4.58331C1.875 4.41755 1.94085 4.25858 2.05806 4.14137C2.17527 4.02416 2.33424 3.95831 2.5 3.95831H17.5C17.6658 3.95831 17.8247 4.02416 17.9419 4.14137C18.0592 4.25858 18.125 4.41755 18.125 4.58331C18.125 4.74907 18.0592 4.90804 17.9419 5.02525C17.8247 5.14246 17.6658 5.20831 17.5 5.20831Z" fill="white"/>
<path d="M12.5 5.20831H7.5C7.33491 5.20615 7.17719 5.13961 7.06045 5.02287C6.9437 4.90612 6.87716 4.7484 6.875 4.58331V3.08331C6.88556 2.65566 7.06016 2.24845 7.36265 1.94596C7.66513 1.64347 8.07235 1.46888 8.5 1.45831H11.5C11.9348 1.46919 12.3481 1.64957 12.6517 1.96096C12.9553 2.27235 13.1251 2.69008 13.125 3.12498V4.58331C13.1228 4.7484 13.0563 4.90612 12.9396 5.02287C12.8228 5.13961 12.6651 5.20615 12.5 5.20831ZM8.125 3.95831H11.875V3.12498C11.875 3.02552 11.8355 2.93014 11.7652 2.85981C11.6948 2.78949 11.5995 2.74998 11.5 2.74998H8.5C8.40054 2.74998 8.30516 2.78949 8.23483 2.85981C8.16451 2.93014 8.125 3.02552 8.125 3.12498V3.95831Z" fill="white"/>
<path d="M12.5 15.2084C12.3349 15.2062 12.1772 15.1397 12.0604 15.0229C11.9437 14.9062 11.8772 14.7484 11.875 14.5834V7.91669C11.875 7.75093 11.9408 7.59196 12.0581 7.47475C12.1753 7.35754 12.3342 7.29169 12.5 7.29169C12.6658 7.29169 12.8247 7.35754 12.9419 7.47475C13.0592 7.59196 13.125 7.75093 13.125 7.91669V14.5834C13.1228 14.7484 13.0563 14.9062 12.9396 15.0229C12.8228 15.1397 12.6651 15.2062 12.5 15.2084Z" fill="white"/>
<path d="M7.5 15.2084C7.33491 15.2062 7.17719 15.1397 7.06045 15.0229C6.9437 14.9062 6.87716 14.7484 6.875 14.5834V7.91669C6.875 7.75093 6.94085 7.59196 7.05806 7.47475C7.17527 7.35754 7.33424 7.29169 7.5 7.29169C7.66576 7.29169 7.82473 7.35754 7.94194 7.47475C8.05915 7.59196 8.125 7.75093 8.125 7.91669V14.5834C8.12284 14.7484 8.0563 14.9062 7.93955 15.0229C7.82281 15.1397 7.66509 15.2062 7.5 15.2084Z" fill="white"/>
<path d="M10 15.2084C9.83491 15.2062 9.67719 15.1397 9.56045 15.0229C9.4437 14.9062 9.37716 14.7484 9.375 14.5834V7.91669C9.375 7.75093 9.44085 7.59196 9.55806 7.47475C9.67527 7.35754 9.83424 7.29169 10 7.29169C10.1658 7.29169 10.3247 7.35754 10.4419 7.47475C10.5592 7.59196 10.625 7.75093 10.625 7.91669V14.5834C10.6228 14.7484 10.5563 14.9062 10.4396 15.0229C10.3228 15.1397 10.1651 15.2062 10 15.2084Z" fill="white"/>
</svg>
