<svg width="20" height="20" viewBox="0 0 20 20" fill="none" xmlns="http://www.w3.org/2000/svg">
<path d="M10.1752 3.09537C9.78094 3.09537 9.46094 2.77537 9.46094 2.38109V1.6668C9.46094 1.27251 9.78094 0.952515 10.1752 0.952515C10.5695 0.952515 10.8895 1.27251 10.8895 1.6668V2.38109C10.8895 2.77537 10.5695 3.09537 10.1752 3.09537Z" fill="white"/>
<path d="M16.4123 9.32842C16.018 9.32842 15.698 9.00842 15.698 8.61414C15.698 5.71128 13.3408 3.23771 10.4437 3.10057C7.54297 2.96664 4.9569 5.20057 4.68368 8.08664C4.66726 8.25914 4.65904 8.43628 4.65904 8.61414C4.65904 9.00842 4.33904 9.32842 3.94476 9.32842C3.55047 9.32842 3.23047 9.00842 3.23047 8.61414C3.23047 8.39128 3.24083 8.16842 3.26154 7.95199C3.60547 4.31771 6.86154 1.502 10.5112 1.67378C14.1591 1.84628 17.1266 4.95985 17.1266 8.61414C17.1266 9.00878 16.8066 9.32842 16.4123 9.32842V9.32842Z" fill="white"/>
<path d="M17.7489 14.2015C17.5728 14.2015 17.396 14.1365 17.2578 14.0061C16.265 13.0661 15.6953 11.7426 15.6953 10.3751C15.6953 9.98077 16.0153 9.66077 16.4096 9.66077C16.8039 9.66077 17.1239 9.98077 17.1239 10.3751C17.1239 11.3518 17.5307 12.2976 18.24 12.9686C18.5264 13.2397 18.5389 13.6918 18.2678 13.9786C18.1275 14.1265 17.9382 14.2015 17.7489 14.2015V14.2015Z" fill="white"/>
<path d="M2.60496 14.2015C2.41532 14.2015 2.22639 14.1268 2.08603 13.9783C1.81496 13.6918 1.82746 13.2397 2.11389 12.9686C2.82317 12.2976 3.22996 11.3522 3.22996 10.3751C3.22996 9.98077 3.54996 9.66077 3.94424 9.66077C4.33853 9.66077 4.65853 9.98077 4.65853 10.3751C4.65853 11.7433 4.08889 13.0668 3.09603 14.0061C2.95746 14.1365 2.78103 14.2015 2.60496 14.2015V14.2015Z" fill="white"/>
<path d="M10.1769 19.5233C8.24118 19.5233 6.60547 17.8875 6.60547 15.9518C6.60547 15.5575 6.92547 15.2375 7.31975 15.2375C7.71404 15.2375 8.03404 15.5575 8.03404 15.9518C8.03404 17.1133 9.01547 18.0947 10.1769 18.0947C11.3383 18.0947 12.3198 17.1133 12.3198 15.9518C12.3198 15.5575 12.6398 15.2375 13.034 15.2375C13.4283 15.2375 13.7483 15.5575 13.7483 15.9518C13.7483 17.8875 12.1126 19.5233 10.1769 19.5233Z" fill="white"/>
<path d="M3.58705 16.6661C2.7167 16.6661 1.94241 16.1339 1.6142 15.3104C1.28563 14.4857 1.4817 13.5661 2.11384 12.9675C2.40027 12.6961 2.85205 12.7086 3.12384 12.995C3.39491 13.2814 3.38277 13.7336 3.09634 14.005C2.78348 14.3014 2.89848 14.6746 2.94134 14.7818C2.98384 14.8882 3.15634 15.2375 3.58705 15.2375C3.98134 15.2375 4.30134 15.5575 4.30134 15.9518C4.30134 16.3461 3.9817 16.6661 3.58705 16.6661Z" fill="white"/>
<path d="M16.7651 16.6654C16.3708 16.6654 16.0508 16.3454 16.0508 15.9511C16.0508 15.5569 16.3708 15.2369 16.7651 15.2369C17.1961 15.2369 17.369 14.8862 17.4118 14.7787C17.4543 14.6719 17.569 14.3001 17.2561 14.004C16.9697 13.7326 16.9572 13.2808 17.2283 12.994C17.4997 12.7076 17.9515 12.6951 18.2383 12.9662C18.8704 13.5647 19.0668 14.4837 18.739 15.3069C18.4104 16.1322 17.6354 16.6654 16.7651 16.6654Z" fill="white"/>
<path d="M3.94085 11.0881C3.54656 11.0881 3.22656 10.7681 3.22656 10.3738V8.61449C3.22656 8.22021 3.54656 7.90021 3.94085 7.90021C4.33513 7.90021 4.65513 8.22021 4.65513 8.61449V10.3738C4.65513 10.7681 4.33549 11.0881 3.94085 11.0881Z" fill="white"/>
<path d="M16.4096 11.0881C16.0153 11.0881 15.6953 10.7681 15.6953 10.3738V8.61449C15.6953 8.22021 16.0153 7.90021 16.4096 7.90021C16.8039 7.90021 17.1239 8.22021 17.1239 8.61449V10.3738C17.1239 10.7681 16.8039 11.0881 16.4096 11.0881Z" fill="white"/>
<path d="M16.7675 16.6663H3.58538C3.19109 16.6663 2.87109 16.3463 2.87109 15.952C2.87109 15.5577 3.19109 15.2377 3.58538 15.2377H16.7672C17.1615 15.2377 17.4815 15.5577 17.4815 15.952C17.4815 16.3463 17.1618 16.6663 16.7675 16.6663Z" fill="white"/>
</svg>
