<svg width="20" height="20" viewBox="0 0 20 20" fill="none" xmlns="http://www.w3.org/2000/svg">
<path d="M16.5625 6.5625H3.4375C2.90625 6.5625 2.5 6.15625 2.5 5.625C2.5 5.09375 2.90625 4.6875 3.4375 4.6875H16.5625C17.0938 4.6875 17.5 5.09375 17.5 5.625C17.5 6.15625 17.0938 6.5625 16.5625 6.5625Z" fill="#393939"/>
<path d="M16.5625 10.9375H3.4375C2.90625 10.9375 2.5 10.5313 2.5 10C2.5 9.46875 2.90625 9.0625 3.4375 9.0625H16.5625C17.0938 9.0625 17.5 9.46875 17.5 10C17.5 10.5313 17.0938 10.9375 16.5625 10.9375Z" fill="#393939"/>
<path d="M16.5625 15.3125H3.4375C2.90625 15.3125 2.5 14.9063 2.5 14.375C2.5 13.8437 2.90625 13.4375 3.4375 13.4375H16.5625C17.0938 13.4375 17.5 13.8437 17.5 14.375C17.5 14.9063 17.0938 15.3125 16.5625 15.3125Z" fill="#393939"/>
</svg>
