<svg width="19" height="18" viewBox="0 0 19 18" fill="none" xmlns="http://www.w3.org/2000/svg">
<g clip-path="url(#clip0_2039_142301)">
<path d="M5.74365 2.67188C5.74365 1.79956 5.03394 1.08984 4.16162 1.08984H0.927246C0.635696 1.08984 0.399902 1.32578 0.399902 1.61719C0.399902 1.9086 0.635696 2.14453 0.927246 2.14453H4.16162C4.45262 2.14453 4.68896 2.38087 4.69199 2.7301L5.69421 11.7492C5.10699 11.9806 4.68896 12.5504 4.68896 13.2188C4.68896 14.0911 5.39854 14.8004 6.271 14.8004H6.89543C6.83638 14.9661 6.79834 15.1423 6.79834 15.3281C6.79834 16.2004 7.50792 16.9102 8.38037 16.9102C9.25269 16.9102 9.9624 16.2004 9.9624 15.3281C9.9624 15.1423 9.92436 14.9661 9.86517 14.8004H13.2236C13.1645 14.9661 13.1265 15.1423 13.1265 15.3281C13.1265 16.2004 13.836 16.9102 14.7085 16.9102C15.5808 16.9102 16.2905 16.2004 16.2905 15.3281C16.2905 14.4557 15.5808 13.7461 14.7085 13.7461H6.271C5.98 13.7461 5.74365 13.5096 5.74365 13.2188C5.74365 12.9277 5.98 12.6914 6.271 12.6914H15.9243C16.7014 12.6914 17.3576 12.1352 17.4847 11.3693L18.3926 5.92245C18.4183 5.76947 18.3752 5.61346 18.2747 5.49495C18.1748 5.37657 18.0275 5.30859 17.8726 5.30859H6.03767L5.74365 2.67188ZM14.1812 7.94531C14.1812 7.65376 14.4169 7.41797 14.7085 7.41797C14.9999 7.41797 15.2358 7.65376 15.2358 7.94531V10.0547C15.2358 10.3461 14.9999 10.582 14.7085 10.582C14.4169 10.582 14.1812 10.3461 14.1812 10.0547V7.94531ZM11.0171 7.94531C11.0171 7.65376 11.2529 7.41797 11.5444 7.41797C11.8358 7.41797 12.0718 7.65376 12.0718 7.94531V10.0547C12.0718 10.3461 11.8358 10.582 11.5444 10.582C11.2529 10.582 11.0171 10.3461 11.0171 10.0547V7.94531ZM7.85303 7.94531C7.85303 7.65376 8.08882 7.41797 8.38037 7.41797C8.67178 7.41797 8.90771 7.65376 8.90771 7.94531V10.0547C8.90771 10.3461 8.67178 10.582 8.38037 10.582C8.08882 10.582 7.85303 10.3461 7.85303 10.0547V7.94531Z" fill="#C8C8C8"/>
<path d="M16.8179 1.08984H12.5991C12.3076 1.08984 12.0718 1.32578 12.0718 1.61719V4.25391H17.3452V1.61719C17.3452 1.32578 17.1093 1.08984 16.8179 1.08984Z" fill="#C8C8C8"/>
<path d="M8.38037 2.14453C8.08882 2.14453 7.85303 2.38033 7.85303 2.67188V4.25391H11.0171V2.14453H8.38037Z" fill="#C8C8C8"/>
</g>
<defs>
<clipPath id="clip0_2039_142301">
<rect width="18" height="18" fill="white" transform="translate(0.399902)"/>
</clipPath>
</defs>
</svg>
