<svg width="19" height="20" viewBox="0 0 19 20" fill="none" xmlns="http://www.w3.org/2000/svg">
<path d="M9.42089 20C4.44697 20 0.400391 15.9535 0.400391 10.9797C0.400391 6.00595 4.44702 1.95947 9.42089 1.95947C14.3949 1.95947 18.4415 6.00595 18.4415 10.9797C18.4415 15.9535 14.3949 20 9.42089 20ZM9.42089 3.52054C5.30771 3.52054 1.96141 6.86674 1.96141 10.9798C1.96141 15.0928 5.30777 18.439 9.42089 18.439C13.5341 18.439 16.8805 15.0928 16.8805 10.9798C16.8805 6.86669 13.5341 3.52054 9.42089 3.52054Z" fill="white"/>
<path d="M7.11836 14.1064C6.921 14.1064 6.72353 14.0321 6.57154 13.8829C6.26396 13.5809 6.25949 13.0867 6.56149 12.7791L8.64171 10.6606V6.94439C8.64171 6.51334 8.99117 6.16388 9.42222 6.16388C9.85327 6.16388 10.2027 6.51334 10.2027 6.94439V11.2989L7.67533 13.8728C7.52251 14.0284 7.32046 14.1064 7.11836 14.1064Z" fill="white"/>
<path d="M0.780908 4.20025C0.560961 4.20025 0.342366 4.10779 0.187981 3.92775C-0.0925859 3.60051 -0.0547572 3.10775 0.272484 2.82718L3.35071 0.188015C3.67795 -0.092604 4.17076 -0.0547753 4.45128 0.27257C4.73185 0.599812 4.69402 1.09257 4.36678 1.37314L1.28855 4.0123C1.1414 4.13843 0.960685 4.20025 0.780908 4.20025Z" fill="white"/>
<path d="M18.0615 4.20024C17.8817 4.20024 17.701 4.13843 17.5538 4.01224L14.4756 1.37308C14.1484 1.09251 14.1105 0.599752 14.3911 0.27251C14.6718 -0.0547832 15.1645 -0.0925598 15.4917 0.187955L18.5699 2.82712C18.8971 3.10769 18.935 3.60045 18.6544 3.92769C18.5 4.10778 18.2814 4.20024 18.0615 4.20024Z" fill="white"/>
</svg>
