<svg width="21" height="20" viewBox="0 0 21 20" fill="none" xmlns="http://www.w3.org/2000/svg">
<path d="M10.0123 0.833252C8.19706 0.833252 6.4226 1.37087 4.9133 2.37811C3.404 3.38536 2.22764 4.817 1.53298 6.49199C0.838327 8.16698 0.656574 10.0101 1.01071 11.7882C1.36484 13.5664 2.23895 15.1998 3.52251 16.4817C4.80606 17.7637 6.44141 18.6368 8.22176 18.9904C10.0021 19.3441 11.8475 19.1626 13.5245 18.4688C15.2016 17.775 16.635 16.6001 17.6435 15.0926C18.6519 13.5852 19.1902 11.8129 19.1902 9.99992C19.1873 7.56965 18.2195 5.23974 16.4989 3.52127C14.7783 1.80281 12.4455 0.836119 10.0123 0.833252ZM13.1052 13.0891C12.9488 13.2453 12.7366 13.3331 12.5154 13.3331C12.2941 13.3331 12.0819 13.2453 11.9255 13.0891L9.42239 10.5891C9.26591 10.4328 9.17797 10.2209 9.17793 9.99992V4.99992C9.17793 4.77891 9.26583 4.56694 9.4223 4.41066C9.57878 4.25438 9.791 4.16659 10.0123 4.16659C10.2336 4.16659 10.4458 4.25438 10.6023 4.41066C10.7587 4.56694 10.8466 4.77891 10.8466 4.99992V9.65492L13.1052 11.9108C13.2617 12.067 13.3495 12.2789 13.3495 12.4999C13.3495 12.7209 13.2617 12.9328 13.1052 13.0891Z" fill="#868686"/>
</svg>
