<svg width="20" height="20" viewBox="0 0 20 20" fill="none" xmlns="http://www.w3.org/2000/svg">
<g clip-path="url(#clip0_1202_54524)">
<mask id="mask0_1202_54524" style="mask-type:luminance" maskUnits="userSpaceOnUse" x="0" y="0" width="20" height="20">
<path d="M20 0H0V20H20V0Z" fill="white"/>
</mask>
<g mask="url(#mask0_1202_54524)">
<mask id="mask1_1202_54524" style="mask-type:luminance" maskUnits="userSpaceOnUse" x="0" y="0" width="20" height="20">
<path d="M0 1.90735e-06H20V20H0V1.90735e-06Z" fill="white"/>
</mask>
<g mask="url(#mask1_1202_54524)">
<path fill-rule="evenodd" clip-rule="evenodd" d="M0 16.875C0 18.6009 1.39911 20 3.125 20H10.9766C12.7024 20 14.1016 18.6009 14.1016 16.875V15.3125C14.1016 14.881 13.7518 14.5313 13.3203 14.5313C12.8888 14.5313 12.5391 14.881 12.5391 15.3125V16.875C12.5391 17.7379 11.8395 18.4375 10.9766 18.4375H3.125C2.26206 18.4375 1.5625 17.7379 1.5625 16.875V3.125C1.5625 2.26206 2.26206 1.5625 3.125 1.5625H10.9766C11.8395 1.5625 12.5391 2.26206 12.5391 3.125V4.6875C12.5391 5.11897 12.8888 5.46875 13.3203 5.46875C13.7518 5.46875 14.1016 5.11897 14.1016 4.6875V3.125C14.1016 1.39912 12.7024 1.90735e-06 10.9766 1.90735e-06H3.125C1.39911 1.90735e-06 0 1.39912 0 3.125V16.875Z" fill="white"/>
<path fill-rule="evenodd" clip-rule="evenodd" d="M7.65625 10.0391C7.65625 10.4705 8.00603 10.8203 8.4375 10.8203H19.0234C19.4549 10.8203 19.8047 10.4705 19.8047 10.0391C19.8047 9.60759 19.4549 9.25781 19.0234 9.25781H8.4375C8.00603 9.25781 7.65625 9.60759 7.65625 10.0391Z" fill="white"/>
<path fill-rule="evenodd" clip-rule="evenodd" d="M16.5736 13.1696C16.8787 13.4747 17.3733 13.4747 17.6784 13.1696L19.4279 11.4201C19.4279 11.4201 19.4279 11.4201 19.4279 11.4201C20.1906 10.6574 20.1906 9.42076 19.4279 8.65801C19.4279 8.65801 19.4279 8.65801 19.4279 8.65801L17.6784 6.90852C17.3733 6.60342 16.8787 6.60341 16.5736 6.9085C16.2685 7.2136 16.2684 7.70826 16.5735 8.01336L18.323 9.76285C18.4756 9.91541 18.4756 10.1627 18.323 10.3153L16.5735 12.0648C16.2684 12.3699 16.2685 12.8645 16.5736 13.1696Z" fill="white"/>
</g>
</g>
</g>
<defs>
<clipPath id="clip0_1202_54524">
<rect width="20" height="20" fill="white"/>
</clipPath>
</defs>
</svg>
