<svg width="16" height="16" viewBox="0 0 16 16" fill="none" xmlns="http://www.w3.org/2000/svg">
<g clip-path="url(#clip0_1340_133738)">
<path d="M15.4995 7.50046H9.16637C8.89037 7.50046 8.66638 7.27647 8.66638 7.00047C8.66638 6.72448 8.89037 6.50049 9.16637 6.50049H15.4995C15.7755 6.50049 15.9995 6.72448 15.9995 7.00047C15.9995 7.27647 15.7755 7.50046 15.4995 7.50046Z" fill="#B21628"/>
<path d="M12.9996 10C12.8716 10 12.7436 9.95132 12.6462 9.85342C12.4509 9.658 12.4509 9.34136 12.6462 9.14605L14.7929 6.99951L12.6462 4.85285C12.4509 4.65754 12.4509 4.3409 12.6462 4.14559C12.8417 3.95017 13.1583 3.95017 13.3536 4.14559L15.8535 6.64552C16.0488 6.84082 16.0488 7.15746 15.8535 7.35277L13.3536 9.85269C13.2556 9.95132 13.1277 10 12.9996 10Z" fill="#B21628"/>
<path d="M5.33321 16C5.19051 16 5.05514 15.98 4.91989 15.938L0.907931 14.6013C0.362049 14.4107 0 13.902 0 13.3334V1.33382C0 0.598492 0.598004 0.000488281 1.33333 0.000488281C1.47591 0.000488281 1.61128 0.0205072 1.74665 0.0624981L5.75849 1.39913C6.30449 1.58979 6.66642 2.09845 6.66642 2.66703V14.6667C6.66642 15.402 6.06854 16 5.33321 16ZM1.33333 1.00046C1.14999 1.00046 0.999969 1.15048 0.999969 1.33382V13.3334C0.999969 13.4754 1.0953 13.6074 1.23128 13.6547L5.22445 14.9854C5.25313 14.9946 5.29048 15 5.33321 15C5.51655 15 5.66645 14.85 5.66645 14.6667V2.66703C5.66645 2.52507 5.57111 2.39311 5.43513 2.34575L1.44197 1.0151C1.41329 1.00583 1.37593 1.00046 1.33333 1.00046Z" fill="#B21628"/>
<path d="M10.1663 5.3337C9.89034 5.3337 9.66635 5.1097 9.66635 4.83371V1.8338C9.66635 1.37447 9.29246 1.00046 8.83312 1.00046H1.33336C1.05737 1.00046 0.833374 0.776465 0.833374 0.500473C0.833374 0.22448 1.05737 0.000488281 1.33336 0.000488281H8.83312C9.84444 0.000488281 10.6663 0.822484 10.6663 1.8338V4.83371C10.6663 5.1097 10.4423 5.3337 10.1663 5.3337Z" fill="#B21628"/>
<path d="M8.83309 14.0002H6.16643C5.89043 14.0002 5.66644 13.7762 5.66644 13.5002C5.66644 13.2242 5.89043 13.0002 6.16643 13.0002H8.83309C9.29243 13.0002 9.66632 12.6262 9.66632 12.1669V9.16698C9.66632 8.89098 9.89031 8.66699 10.1663 8.66699C10.4423 8.66699 10.6663 8.89098 10.6663 9.16698V12.1669C10.6663 13.1782 9.84441 14.0002 8.83309 14.0002Z" fill="#B21628"/>
</g>
<defs>
<clipPath id="clip0_1340_133738">
<rect width="16" height="16" fill="white"/>
</clipPath>
</defs>
</svg>
