<svg width="27" height="24" viewBox="0 0 27 24" fill="none" xmlns="http://www.w3.org/2000/svg">
<path d="M13.5 23.242C13.1441 23.242 12.8009 23.113 12.5335 22.8788C11.5236 21.9957 10.5499 21.1658 9.69082 20.4338L9.68643 20.43C7.16778 18.2836 4.99284 16.4301 3.47955 14.6042C1.78792 12.5629 1 10.6275 1 8.51324C1 6.45902 1.70438 4.56388 2.98326 3.17667C4.27739 1.77305 6.05313 1 7.98393 1C9.42703 1 10.7486 1.45624 11.9119 2.35593C12.499 2.81007 13.0312 3.36588 13.5 4.01418C13.969 3.36588 14.501 2.81007 15.0882 2.35593C16.2515 1.45624 17.5731 1 19.0162 1C20.9468 1 22.7228 1.77305 24.0169 3.17667C25.2958 4.56388 26 6.45902 26 8.51324C26 10.6275 25.2122 12.5629 23.5206 14.604C22.0073 16.4301 19.8326 18.2834 17.3143 20.4296C16.4537 21.1628 15.4785 21.994 14.4662 22.8792C14.199 23.113 13.8557 23.242 13.5 23.242ZM7.98393 2.46446C6.46702 2.46446 5.07352 3.06985 4.05976 4.16925C3.03094 5.28524 2.46427 6.8279 2.46427 8.51324C2.46427 10.2915 3.12516 11.8818 4.60698 13.6698C6.03921 15.398 8.16952 17.2134 10.6361 19.3155L10.6407 19.3193C11.503 20.0542 12.4805 20.8874 13.4979 21.7769C14.5214 20.8856 15.5004 20.0512 16.3644 19.3151C18.8308 17.213 20.9609 15.398 22.3932 13.6698C23.8748 11.8818 24.5357 10.2915 24.5357 8.51324C24.5357 6.8279 23.969 5.28524 22.9402 4.16925C21.9266 3.06985 20.5329 2.46446 19.0162 2.46446C17.905 2.46446 16.8848 2.8177 15.9839 3.51427C15.1811 4.1353 14.6219 4.92036 14.294 5.46968C14.1254 5.75216 13.8286 5.92077 13.5 5.92077C13.1713 5.92077 12.8746 5.75216 12.7059 5.46968C12.3783 4.92036 11.819 4.1353 11.016 3.51427C10.1152 2.8177 9.09496 2.46446 7.98393 2.46446Z" fill="#1E3D65" stroke="#1E3D65" stroke-width="0.4"/>
</svg>
