<svg width="20" height="20" viewBox="0 0 20 20" fill="none" xmlns="http://www.w3.org/2000/svg">
<g clip-path="url(#clip0_769_95451)">
<path d="M0.625 3.52579H10.1408C10.4276 4.83122 11.5934 5.81125 12.9837 5.81125C14.374 5.81125 15.5398 4.83125 15.8266 3.52579H19.375C19.7202 3.52579 20 3.24594 20 2.90079C20 2.55563 19.7202 2.27579 19.375 2.27579H15.8263C15.5389 0.97102 14.3716 -0.00964355 12.9837 -0.00964355C11.5951 -0.00964355 10.4283 0.970864 10.1411 2.27579H0.625C0.279844 2.27579 0 2.55563 0 2.90079C0 3.24594 0.279844 3.52579 0.625 3.52579ZM11.3233 2.90243C11.3233 2.9002 11.3234 2.89793 11.3234 2.89571C11.3261 1.98293 12.0709 1.2404 12.9837 1.2404C13.8952 1.2404 14.6401 1.98192 14.644 2.89426L14.6441 2.90344C14.6427 3.81778 13.8984 4.56129 12.9837 4.56129C12.0694 4.56129 11.3254 3.81852 11.3233 2.90473L11.3233 2.90243ZM19.375 16.4743H15.8263C15.5389 15.1695 14.3716 14.1888 12.9837 14.1888C11.5951 14.1888 10.4283 15.1694 10.1411 16.4743H0.625C0.279844 16.4743 0 16.7541 0 17.0993C0 17.4445 0.279844 17.7243 0.625 17.7243H10.1408C10.4276 19.0297 11.5934 20.0097 12.9837 20.0097C14.374 20.0097 15.5398 19.0297 15.8266 17.7243H19.375C19.7202 17.7243 20 17.4445 20 17.0993C20 16.7541 19.7202 16.4743 19.375 16.4743ZM12.9837 18.7597C12.0694 18.7597 11.3254 18.017 11.3233 17.1032L11.3233 17.1009C11.3233 17.0986 11.3234 17.0964 11.3234 17.0942C11.3261 16.1814 12.0709 15.4388 12.9837 15.4388C13.8952 15.4388 14.6401 16.1804 14.644 17.0927L14.6441 17.1018C14.6428 18.0163 13.8985 18.7597 12.9837 18.7597ZM19.375 9.37504H9.85918C9.57238 8.06961 8.4066 7.08961 7.01629 7.08961C5.62598 7.08961 4.4602 8.06961 4.1734 9.37504H0.625C0.279844 9.37504 0 9.65489 0 10C0 10.3452 0.279844 10.625 0.625 10.625H4.17371C4.46109 11.9298 5.62844 12.9105 7.01629 12.9105C8.40488 12.9105 9.57172 11.9299 9.85895 10.625H19.375C19.7202 10.625 20 10.3452 20 10C20 9.65489 19.7202 9.37504 19.375 9.37504ZM8.67668 9.9984C8.67668 10.0007 8.67664 10.0029 8.67664 10.0051C8.67391 10.9179 7.9291 11.6604 7.01629 11.6604C6.10477 11.6604 5.35992 10.9189 5.35598 10.0066L5.35586 9.99747C5.35723 9.08301 6.10156 8.33961 7.01629 8.33961C7.93059 8.33961 8.67465 9.08235 8.67672 9.99618L8.67668 9.9984Z" fill="#1E3D65"/>
</g>
<defs>
<clipPath id="clip0_769_95451">
<rect width="20" height="20" fill="white"/>
</clipPath>
</defs>
</svg>
