<svg width="20" height="20" viewBox="0 0 20 20" fill="none" xmlns="http://www.w3.org/2000/svg">
<g clip-path="url(#clip0_520_3723)">
<path fill-rule="evenodd" clip-rule="evenodd" d="M0.395429 19.3511L9.9555 10.017L0.395429 0.660156C0.162824 1.02441 0 1.62771 0 2.49283V10.0056V17.4957C0 18.3722 0.162824 18.9755 0.395429 19.3511Z" fill="white"/>
<path fill-rule="evenodd" clip-rule="evenodd" d="M1.55859 0L10.8628 9.1292L13.9913 6.04439L4.23355 0.865111C3.12868 0.284576 2.44249 0 1.65164 0C1.61674 0 1.57022 0 1.55859 0Z" fill="white"/>
<path fill-rule="evenodd" clip-rule="evenodd" d="M15.1772 6.65894L11.7695 10.0055L15.1772 13.3408L17.2474 12.2366C18.0033 11.8268 19.1664 11.0869 19.1664 10.0055C19.1664 8.90139 18.0033 8.1615 17.2474 7.75171L15.1772 6.65894Z" fill="white"/>
<path fill-rule="evenodd" clip-rule="evenodd" d="M14.003 13.9669L10.8628 10.8821L1.55859 20.0113C1.58185 20.0113 1.61674 20.0113 1.65164 20.0113C2.45412 20.0113 3.14031 19.7267 4.24518 19.1462L14.003 13.9669Z" fill="white"/>
</g>
<defs>
<clipPath id="clip0_520_3723">
<rect width="19.1667" height="20" fill="white"/>
</clipPath>
</defs>
</svg>
