<svg width="20" height="20" viewBox="0 0 20 20" fill="none" xmlns="http://www.w3.org/2000/svg">
<g clip-path="url(#clip0_209_37643)">
<path d="M18.1015 3.512C15.9977 1.40872 12.5752 1.40872 10.4719 3.512L9.98337 4.00024L9.49512 3.512C7.39185 1.40844 3.96905 1.40844 1.86577 3.512C-0.1948 5.57257 -0.20818 8.83879 1.83474 11.1097C3.69802 13.1803 9.19336 17.6536 9.42652 17.8429C9.5848 17.9716 9.77526 18.0342 9.96458 18.0342C9.97084 18.0342 9.9771 18.0342 9.98308 18.0339C10.1789 18.043 10.3762 17.9759 10.5396 17.8429C10.7728 17.6536 16.2687 13.1803 18.1326 11.1095C20.1752 8.83879 20.1618 5.57257 18.1015 3.512ZM16.8629 9.96701C15.4101 11.5809 11.4168 14.9095 9.98308 16.0907C8.54939 14.9098 4.55693 11.5815 3.10445 9.9673C1.6793 8.38329 1.66592 6.12742 3.07342 4.71993C3.79226 4.00137 4.73628 3.64181 5.68031 3.64181C6.62433 3.64181 7.56836 4.00109 8.28719 4.71993L9.36104 5.79377C9.48886 5.92159 9.65 5.99789 9.8191 6.02465C10.0935 6.08358 10.3913 6.007 10.6048 5.79405L11.6793 4.71993C13.1172 3.28254 15.4562 3.28282 16.8933 4.71993C18.3008 6.12742 18.2874 8.38329 16.8629 9.96701Z" fill="#393939"/>
</g>
<defs>
<clipPath id="clip0_209_37643">
<rect width="19.3443" height="19.3443" fill="white" transform="translate(0.311401 0.312378)"/>
</clipPath>
</defs>
</svg>
