<svg width="20" height="20" viewBox="0 0 20 20" fill="none" xmlns="http://www.w3.org/2000/svg">
<g clip-path="url(#clip0_2524_12266)">
<path d="M14.2088 10.7785H11.4912C10.7474 10.7785 10.1426 11.3833 10.1426 12.1271V14.2113C10.1426 14.955 10.7474 15.5599 11.4912 15.5599H14.2088C14.9526 15.5599 15.5574 14.955 15.5574 14.2113V12.1271C15.5574 11.3833 14.9526 10.7785 14.2088 10.7785ZM14.5766 14.2113C14.5766 14.4156 14.409 14.5791 14.2088 14.5791H11.4912C11.2868 14.5791 11.1234 14.4115 11.1234 14.2113V12.1271C11.1234 11.9228 11.2909 11.7593 11.4912 11.7593H14.2088C14.4131 11.7593 14.5766 11.9268 14.5766 12.1271V14.2113Z" fill="white"/>
<path d="M20 6.99021C20 6.90439 19.9796 6.82266 19.9346 6.7491L16.9595 1.51821C16.8737 1.367 16.7103 1.26892 16.5345 1.26892H3.46138C3.28566 1.26892 3.12219 1.36291 3.03637 1.51821L0.0653862 6.7491C0.0245198 6.82266 0 6.90439 0 6.99021C0 8.16308 0.706988 9.16839 1.71639 9.61383V18.2407C1.71639 18.5104 1.93707 18.7311 2.20678 18.7311H4.91622C4.92031 18.7311 4.9244 18.7311 4.92848 18.7311H8.72906C8.73314 18.7311 8.73723 18.7311 8.74132 18.7311H17.7891C18.0588 18.7311 18.2795 18.5104 18.2795 18.2407V9.67513C18.2795 9.6547 18.2795 9.63835 18.2754 9.62201C19.2889 9.17656 20 8.16716 20 6.99021ZM3.74745 2.2538H16.2485L18.5738 6.34452H1.42624L3.74745 2.2538ZM14.2338 7.32123C14.0785 8.20394 13.3061 8.87415 12.3784 8.87415C11.4508 8.87415 10.6784 8.20394 10.5231 7.32123H14.2338ZM9.481 7.32123C9.32571 8.20394 8.55333 8.87415 7.62566 8.87415C6.698 8.87415 5.92562 8.20394 5.76624 7.32123H9.481ZM1.01349 7.32123H4.72824C4.57295 8.20394 3.79649 8.87415 2.86882 8.87415C1.94115 8.87824 1.16878 8.20394 1.01349 7.32123ZM8.23866 17.7503H5.41888V12.4581C5.41888 12.074 5.72946 11.7593 6.11769 11.7593H7.54393C7.92808 11.7593 8.24275 12.0699 8.24275 12.4581V17.7503H8.23866ZM17.2987 17.7503H9.21945V12.4581C9.21945 11.5346 8.46751 10.7785 7.53984 10.7785H6.11361C5.19003 10.7785 4.434 11.5305 4.434 12.4581V17.7544H2.69718V9.85494C2.75439 9.85903 2.81161 9.85903 2.86882 9.85903C3.85778 9.85903 4.73233 9.35637 5.24724 8.59217C5.76216 9.35637 6.6367 9.85903 7.62566 9.85903C8.61463 9.85903 9.48508 9.35637 10.0041 8.59217C10.519 9.35637 11.3935 9.85903 12.3784 9.85903C13.3674 9.85903 14.2378 9.35637 14.7528 8.59217C15.2677 9.35637 16.1422 9.85903 17.1312 9.85903C17.1884 9.85903 17.2415 9.85494 17.2987 9.85494V17.7503ZM17.1312 8.87824C16.2035 8.87824 15.4311 8.20803 15.2758 7.32532H18.9906C18.8312 8.20394 18.0588 8.87824 17.1312 8.87824Z" fill="white"/>
</g>
<defs>
<clipPath id="clip0_2524_12266">
<rect width="20" height="20" fill="white"/>
</clipPath>
</defs>
</svg>
