<svg width="18" height="18" viewBox="0 0 18 18" fill="none" xmlns="http://www.w3.org/2000/svg">
<path d="M2.44736 16.5725C2.44736 16.5725 2.43099 16.9749 2.82455 16.9749C3.31428 16.9749 7.36172 16.9695 7.36172 16.9695L7.36854 13.2515C7.36854 13.2515 7.30443 12.639 7.89852 12.639H9.78173C10.485 12.639 10.442 13.2515 10.442 13.2515L10.4338 16.9579C10.4338 16.9579 14.2725 16.9579 14.8755 16.9579C15.3748 16.9579 15.3522 16.4572 15.3522 16.4572V9.60099L9.09215 4.0332L2.44736 9.60168V16.5725Z" fill="#C8C8C8"/>
<path d="M0 9.08325C0 9.08325 0.563395 10.1227 1.79454 9.08325L9.14801 2.86203L16.0418 9.04437C17.4659 10.0716 18 9.04437 18 9.04437L9.14801 1.02588L0 9.08325Z" fill="#C8C8C8"/>
<path d="M15.8738 2.84766H14.1011L14.1086 4.99824L15.8738 6.49677V2.84766Z" fill="#C8C8C8"/>
</svg>
