<svg width="21" height="20" viewBox="0 0 21 20" fill="none" xmlns="http://www.w3.org/2000/svg">
<g clip-path="url(#clip0_329_12902)">
<path d="M10.0123 0C8.02154 0.00263755 6.11308 0.793661 4.7054 2.19961C3.29772 3.60556 2.50572 5.51169 2.50308 7.5C2.50308 12.8844 9.49917 19.6281 9.79641 19.9125C9.85422 19.9686 9.93167 20 10.0123 20C10.0929 20 10.1704 19.9686 10.2282 19.9125C10.5254 19.6281 17.5215 12.8844 17.5215 7.5C17.5189 5.51169 16.7269 3.60556 15.3192 2.19961C13.9115 0.793661 12.0031 0.00263755 10.0123 0ZM10.0123 10.9375C9.33159 10.9375 8.66617 10.7359 8.10018 10.3582C7.53419 9.98046 7.09305 9.4436 6.83256 8.81547C6.57206 8.18735 6.50391 7.49619 6.63671 6.82938C6.76951 6.16257 7.0973 5.55006 7.57863 5.06932C8.05996 4.58858 8.67322 4.26119 9.34085 4.12855C10.0085 3.99591 10.7005 4.06399 11.3294 4.32416C11.9583 4.58434 12.4958 5.02493 12.874 5.59023C13.2522 6.15552 13.454 6.82013 13.454 7.5C13.4535 8.41151 13.0907 9.28554 12.4454 9.93008C11.8 10.5746 10.9249 10.937 10.0123 10.9375Z" fill="#868686"/>
</g>
<defs>
<clipPath id="clip0_329_12902">
<rect width="20.0246" height="20" fill="white"/>
</clipPath>
</defs>
</svg>
