<svg width="27" height="27" viewBox="0 0 27 27" fill="none" xmlns="http://www.w3.org/2000/svg">
<path d="M25.7783 24.7251L19.7029 18.6497C21.3326 16.7761 22.3193 14.3315 22.3193 11.6596C22.3193 5.77827 17.5355 1 11.6596 1C5.77827 1 1 5.78381 1 11.6596C1 17.5355 5.78381 22.3193 11.6596 22.3193C14.3315 22.3193 16.7761 21.3326 18.6497 19.7029L24.7251 25.7783C24.8692 25.9224 25.0632 26 25.2517 26C25.4401 26 25.6341 25.9279 25.7783 25.7783C26.0665 25.49 26.0665 25.0133 25.7783 24.7251ZM2.49113 11.6596C2.49113 6.60421 6.60421 2.49667 11.6541 2.49667C16.7095 2.49667 20.8171 6.60976 20.8171 11.6596C20.8171 16.7095 16.7095 20.8282 11.6541 20.8282C6.60421 20.8282 2.49113 16.7151 2.49113 11.6596Z" fill="#1E3D65" stroke="#1E3D65" stroke-width="0.4"/>
</svg>
