<svg width="24" height="24" viewBox="0 0 24 24" fill="none" xmlns="http://www.w3.org/2000/svg">
<g clip-path="url(#clip0_458_81487)">
<path d="M23.2485 10.4992C22.8346 10.4992 22.4986 10.8352 22.4986 11.2492V19.7417L16.499 22.1415V14.249C16.499 13.835 16.163 13.499 15.749 13.499C15.335 13.499 14.9991 13.835 14.9991 14.249V22.14L8.99944 19.7402V7.8579L12.4747 9.24831C12.8542 9.4013 13.2952 9.21531 13.4497 8.82984C13.6041 8.44586 13.4167 8.00939 13.0312 7.8549L8.54197 6.05801C8.54197 6.05801 8.54197 6.05801 8.54047 6.05801L8.52847 6.05351C8.34998 5.98151 8.15049 5.98151 7.972 6.05351L7.9585 6.05801C7.9585 6.05801 7.9585 6.05801 7.957 6.05801L0.470971 9.05332C0.187488 9.16731 0 9.4418 0 9.74928V23.2484C0 23.4974 0.124492 23.7299 0.329979 23.8694C0.455972 23.9549 0.601462 23.9984 0.749953 23.9984C0.844447 23.9984 0.938941 23.9804 1.02894 23.9444L8.24949 21.0571L15.4565 23.9399C15.4565 23.9399 15.4565 23.9399 15.458 23.9399L15.4715 23.9459C15.65 24.0179 15.8495 24.0179 16.028 23.9459L16.0415 23.9399C16.0415 23.9399 16.0415 23.9399 16.043 23.9399L23.529 20.9461C23.811 20.8306 23.9985 20.5561 23.9985 20.2486V11.2492C23.9985 10.8352 23.6625 10.4992 23.2485 10.4992ZM7.49953 19.7402L1.49991 22.14V10.2562L7.49953 7.8564V19.7402Z" fill="#E8E8E8"/>
<path d="M18.7499 2.99976C17.5094 2.99976 16.5 4.00919 16.5 5.24962C16.5 6.49004 17.5094 7.49948 18.7499 7.49948C19.9903 7.49948 20.9997 6.49004 20.9997 5.24962C20.9997 4.00919 19.9903 2.99976 18.7499 2.99976ZM18.7499 5.99957C18.3359 5.99957 17.9999 5.66359 17.9999 5.24962C17.9999 4.83564 18.3359 4.49966 18.7499 4.49966C19.1638 4.49966 19.4998 4.83564 19.4998 5.24962C19.4998 5.66359 19.1638 5.99957 18.7499 5.99957Z" fill="#E8E8E8"/>
<path d="M18.7495 0C15.8547 0 13.4999 2.35485 13.4999 5.24967C13.4999 7.9435 17.7116 12.7147 18.1916 13.2502C18.3341 13.4077 18.5366 13.4992 18.7495 13.4992C18.9625 13.4992 19.165 13.4077 19.3075 13.2502C19.7875 12.7147 23.9992 7.9435 23.9992 5.24967C23.9992 2.35485 21.6444 0 18.7495 0ZM18.7495 11.6048C17.1117 9.6624 14.9998 6.68058 14.9998 5.24967C14.9998 3.1828 16.6827 1.49991 18.7495 1.49991C20.8164 1.49991 22.4993 3.1828 22.4993 5.24967C22.4993 6.67908 20.3874 9.6624 18.7495 11.6048Z" fill="#E8E8E8"/>
</g>
<defs>
<clipPath id="clip0_458_81487">
<rect width="24" height="24" fill="white"/>
</clipPath>
</defs>
</svg>
