<svg width="26" height="19" viewBox="0 0 26 19" fill="none" xmlns="http://www.w3.org/2000/svg">
<path d="M12.5155 0.0678711C5.60353 0.0678711 0 5.7177 0 12.6872C0 16.4662 1.63285 18.9308 1.63285 18.9308L23.3929 18.9319C23.3929 18.9319 25.0304 16.2383 25.0304 12.6869C25.0304 5.7177 19.4269 0.0678711 12.5155 0.0678711ZM22.475 17.3945L2.59562 17.3859C2.59562 17.3859 1.53634 15.3823 1.53634 12.6474C1.53634 6.53889 6.47057 1.58661 12.5574 1.58661C18.6441 1.58661 23.5786 6.53862 23.5786 12.6474C23.5788 15.4132 22.475 17.3945 22.475 17.3945Z" fill="#868686"/>
<path d="M16.0524 3.41885L15.8953 3.41859L12.557 9.9522L9.09848 3.36279L4.36331 15.2667H3.13959V16.2228H9.84357V15.2667H8.51337L9.84357 11.5464L12.557 16.2228L15.1641 11.5464L16.4941 15.2667H15.1641V16.2228H21.8146V15.2667H20.6625L16.0524 3.41885Z" fill="#868686"/>
</svg>
