<svg width="16" height="16" viewBox="0 0 16 16" fill="none" xmlns="http://www.w3.org/2000/svg">
<g clip-path="url(#clip0_520_114126)">
<path d="M3.14733 8.58731C2.73867 9.39064 3.20267 9.77464 4.26133 10.4306C5.16133 10.9866 6.40467 11.19 7.20333 11.2713C6.876 11.586 8.376 10.1433 4.056 14.2986C3.14 15.1766 4.61467 16.5853 5.53 15.726L8.008 13.336C8.95667 14.2486 9.866 15.1233 10.486 15.7293C11.402 16.592 12.876 15.1953 11.97 14.302C11.902 14.2373 8.612 11.0813 8.81267 11.2746C9.62133 11.1933 10.846 10.978 11.7353 10.434L11.7347 10.4333C12.7933 9.77398 13.2573 9.39064 12.8547 8.58731C12.6113 8.13131 11.9553 7.74998 11.082 8.40931C11.082 8.40931 9.90267 9.31264 8.00067 9.31264C6.098 9.31264 4.91933 8.40931 4.91933 8.40931C4.04667 7.74664 3.388 8.13131 3.14733 8.58731Z" fill="#1E3D65"/>
<path d="M7.99933 8.09467C10.318 8.09467 12.2113 6.28267 12.2113 4.052C12.2113 1.812 10.318 0 7.99933 0C5.68 0 3.78667 1.812 3.78667 4.052C3.78667 6.28267 5.68 8.09467 7.99933 8.09467ZM7.99933 2.05267C9.13867 2.05267 10.068 2.94667 10.068 4.052C10.068 5.148 9.13867 6.042 7.99933 6.042C6.86 6.042 5.93067 5.148 5.93067 4.052C5.93 2.946 6.85933 2.05267 7.99933 2.05267Z" fill="#1E3D65"/>
</g>
<defs>
<clipPath id="clip0_520_114126">
<rect width="16" height="16" fill="white"/>
</clipPath>
</defs>
</svg>
