<svg width="16" height="16" viewBox="0 0 16 16" fill="none" xmlns="http://www.w3.org/2000/svg">
<g clip-path="url(#clip0_1340_133663)">
<path d="M14.72 8.65038V5.59982C14.72 5.51262 14.6966 5.42734 14.6515 5.35278L12.0514 1.01822C11.7922 0.587504 11.3187 0.319824 10.8163 0.319824H4.22369C3.72113 0.319824 3.24769 0.587504 2.98849 1.0187L0.388487 5.35278C0.343367 5.42734 0.320007 5.51262 0.320007 5.59982V13.2798C0.320007 14.0739 0.965927 14.7198 1.76001 14.7198H8.65057C9.39233 15.319 10.3344 15.6798 11.36 15.6798C13.7422 15.6798 15.68 13.7421 15.68 11.3598C15.68 10.3342 15.3192 9.39214 14.72 8.65038ZM8.00001 1.27982H10.8163C10.9842 1.27982 11.1421 1.36942 11.2283 1.51278L13.3922 5.11982H8.00001V1.27982ZM3.81169 1.51326C3.89793 1.36942 4.05601 1.27982 4.22369 1.27982H7.04001V5.11982H1.64785L3.81169 1.51326ZM1.28001 13.2798V6.07982H13.76V7.77022C13.0731 7.30942 12.2475 7.03982 11.36 7.03982C8.97777 7.03982 7.04001 8.97758 7.04001 11.3598C7.04001 12.2473 7.30961 13.0729 7.77041 13.7598H1.76001C1.49521 13.7598 1.28001 13.5446 1.28001 13.2798ZM11.36 14.7198C9.50753 14.7198 8.00001 13.2123 8.00001 11.3598C8.00001 9.50734 9.50753 7.99982 11.36 7.99982C13.2125 7.99982 14.72 9.50734 14.72 11.3598C14.72 13.2123 13.2125 14.7198 11.36 14.7198ZM10.88 13.2798C10.7571 13.2798 10.6344 13.2329 10.5406 13.1392L9.10065 11.6992C8.91313 11.5117 8.91313 11.208 9.10065 11.0205C9.28817 10.8329 9.59185 10.8329 9.77937 11.0205L10.88 12.1211L12.9406 10.0605C13.1282 9.87294 13.4318 9.87294 13.6194 10.0605C13.8069 10.248 13.8069 10.5517 13.6194 10.7392L11.2194 13.1392C11.1256 13.2329 11.0029 13.2798 10.88 13.2798ZM5.12001 8.47982H3.20001C2.93473 8.47982 2.72001 8.2651 2.72001 7.99982C2.72001 7.73454 2.93473 7.51982 3.20001 7.51982H5.12001C5.38529 7.51982 5.60001 7.73454 5.60001 7.99982C5.60001 8.2651 5.38529 8.47982 5.12001 8.47982Z" fill="#393939"/>
</g>
<defs>
<clipPath id="clip0_1340_133663">
<rect width="16" height="16" fill="white"/>
</clipPath>
</defs>
</svg>
