<svg width="19" height="18" viewBox="0 0 19 18" fill="none" xmlns="http://www.w3.org/2000/svg">
<g clip-path="url(#clip0_2039_142418)">
<path d="M17.0034 9.2332C16.931 9.08502 16.931 8.91508 17.0034 8.76693L17.6747 7.39356C18.0485 6.62888 17.7523 5.71746 17.0005 5.31854L15.6502 4.60206C15.5045 4.52479 15.4046 4.38726 15.3761 4.22487L15.112 2.71918C14.9649 1.88084 14.1895 1.3175 13.3469 1.43672L11.8333 1.65082C11.6699 1.67388 11.5084 1.62136 11.3899 1.50671L10.2912 0.443876C9.67946 -0.147941 8.72111 -0.147976 8.1094 0.443876L7.0107 1.50682C6.89215 1.6215 6.73061 1.67392 6.56728 1.65092L5.0537 1.43682C4.21084 1.31754 3.43565 1.88095 3.28859 2.71928L3.0245 4.22491C2.99599 4.38733 2.89611 4.52483 2.75046 4.60213L1.40011 5.31861C0.648265 5.71749 0.352111 6.62898 0.72589 7.39366L1.39719 8.767C1.46962 8.91518 1.46962 9.08513 1.39719 9.23327L0.725855 10.6066C0.352076 11.3713 0.64823 12.2827 1.40008 12.6816L2.75042 13.3981C2.89611 13.4754 2.99599 13.6129 3.0245 13.7753L3.28859 15.281C3.42246 16.0442 4.07686 16.5794 4.82895 16.5793C4.90303 16.5793 4.97819 16.5741 5.05374 16.5634L6.56731 16.3493C6.73054 16.3261 6.89219 16.3788 7.01074 16.4934L8.1094 17.5563C8.41532 17.8522 8.80774 18.0001 9.20029 18.0001C9.59274 18.0001 9.98539 17.8521 10.2912 17.5563L11.3899 16.4934C11.5084 16.3788 11.67 16.3264 11.8333 16.3493L13.3469 16.5634C14.1898 16.6827 14.9649 16.1193 15.112 15.281L15.3761 13.7753C15.4046 13.6129 15.5045 13.4754 15.6502 13.3981L17.0005 12.6816C17.7523 12.2827 18.0485 11.3713 17.6747 10.6066L17.0034 9.2332ZM7.12394 4.32834C8.17342 4.32834 9.02725 5.18217 9.02725 6.23165C9.02725 7.28113 8.17342 8.13496 7.12394 8.13496C6.07446 8.13496 5.22062 7.28113 5.22062 6.23165C5.22062 5.18217 6.07446 4.32834 7.12394 4.32834ZM6.14154 12.7929C6.04018 12.8942 5.90733 12.9449 5.77451 12.9449C5.64169 12.9449 5.5088 12.8942 5.40748 12.7929C5.20477 12.5901 5.20477 12.2615 5.40748 12.0588L12.259 5.20724C12.4617 5.00453 12.7904 5.00453 12.9931 5.20724C13.1958 5.40995 13.1958 5.73862 12.9931 5.94133L6.14154 12.7929ZM11.2766 13.6718C10.2271 13.6718 9.37326 12.818 9.37326 11.7685C9.37326 10.719 10.2271 9.8652 11.2766 9.8652C12.326 9.8652 13.1799 10.719 13.1799 11.7685C13.1799 12.818 12.326 13.6718 11.2766 13.6718Z" fill="#C8C8C8"/>
<path d="M11.2763 10.9033C10.7993 10.9033 10.4111 11.2914 10.4111 11.7684C10.4111 12.2455 10.7992 12.6336 11.2763 12.6336C11.7533 12.6336 12.1414 12.2455 12.1414 11.7684C12.1414 11.2914 11.7533 10.9033 11.2763 10.9033Z" fill="#C8C8C8"/>
<path d="M7.12391 5.36646C6.64688 5.36646 6.25879 5.75454 6.25879 6.23158C6.25879 6.70861 6.64688 7.09673 7.12391 7.09673C7.60094 7.09673 7.98906 6.70864 7.98906 6.23158C7.98903 5.75458 7.60094 5.36646 7.12391 5.36646Z" fill="#C8C8C8"/>
</g>
<defs>
<clipPath id="clip0_2039_142418">
<rect width="18" height="18" fill="white" transform="translate(0.200195)"/>
</clipPath>
</defs>
</svg>
