<svg width="21" height="20" viewBox="0 0 21 20" fill="none" xmlns="http://www.w3.org/2000/svg">
<g clip-path="url(#clip0_329_12910)">
<path d="M19.4795 14.678L16.685 11.8869C15.687 10.8901 13.9904 11.2889 13.5911 12.5847C13.2917 13.4819 12.2937 13.9803 11.3955 13.7809C9.39941 13.2825 6.70472 10.6908 6.2057 8.59746C5.9063 7.7003 6.50511 6.70349 7.40334 6.40448C8.70078 6.00576 9.1 4.31119 8.10196 3.31438L5.30748 0.523324C4.50905 -0.174441 3.31141 -0.174441 2.61279 0.523324L0.716531 2.41726C-1.17973 4.41087 0.916138 9.69395 5.60689 14.3789C10.2976 19.0639 15.5872 21.2569 17.5833 19.2633L19.4795 17.3694C20.1782 16.5719 20.1782 15.3757 19.4795 14.678Z" fill="#868686"/>
</g>
<defs>
<clipPath id="clip0_329_12910">
<rect width="20.0246" height="20" fill="white"/>
</clipPath>
</defs>
</svg>
