<svg width="20" height="20" viewBox="0 0 20 20" fill="none" xmlns="http://www.w3.org/2000/svg">
<g clip-path="url(#clip0_2524_12241)">
<path d="M7.5 0H1.875C0.841063 0 0 0.841063 0 1.875V7.5C0 8.53394 0.841063 9.375 1.875 9.375H7.5C8.53394 9.375 9.375 8.53394 9.375 7.5V1.875C9.375 0.841063 8.53394 0 7.5 0ZM8.125 7.5C8.125 7.84454 7.84485 8.125 7.5 8.125H1.875C1.53015 8.125 1.25 7.84454 1.25 7.5V1.875C1.25 1.53046 1.53015 1.25 1.875 1.25H7.5C7.84485 1.25 8.125 1.53046 8.125 1.875V7.5Z" fill="white"/>
<path d="M18.125 0H12.5C11.4661 0 10.625 0.841063 10.625 1.875V7.5C10.625 8.53394 11.4661 9.375 12.5 9.375H18.125C19.1589 9.375 20 8.53394 20 7.5V1.875C20 0.841063 19.1589 0 18.125 0ZM18.75 7.5C18.75 7.84454 18.4699 8.125 18.125 8.125H12.5C12.1551 8.125 11.875 7.84454 11.875 7.5V1.875C11.875 1.53046 12.1551 1.25 12.5 1.25H18.125C18.4699 1.25 18.75 1.53046 18.75 1.875V7.5Z" fill="white"/>
<path d="M18.125 10.625H12.5C11.4661 10.625 10.625 11.4661 10.625 12.5V18.125C10.625 19.1589 11.4661 20 12.5 20H18.125C19.1589 20 20 19.1589 20 18.125V12.5C20 11.4661 19.1589 10.625 18.125 10.625ZM18.75 18.125C18.75 18.4695 18.4699 18.75 18.125 18.75H12.5C12.1551 18.75 11.875 18.4695 11.875 18.125V12.5C11.875 12.1555 12.1551 11.875 12.5 11.875H18.125C18.4699 11.875 18.75 12.1555 18.75 12.5V18.125Z" fill="white"/>
<path d="M7.5 10.625H1.875C0.841063 10.625 0 11.4661 0 12.5V18.125C0 19.1589 0.841063 20 1.875 20H7.5C8.53394 20 9.375 19.1589 9.375 18.125V12.5C9.375 11.4661 8.53394 10.625 7.5 10.625ZM8.125 18.125C8.125 18.4695 7.84485 18.75 7.5 18.75H1.875C1.53015 18.75 1.25 18.4695 1.25 18.125V12.5C1.25 12.1555 1.53015 11.875 1.875 11.875H7.5C7.84485 11.875 8.125 12.1555 8.125 12.5V18.125Z" fill="white"/>
</g>
<defs>
<clipPath id="clip0_2524_12241">
<rect width="20" height="20" fill="white"/>
</clipPath>
</defs>
</svg>
