<svg width="18" height="18" viewBox="0 0 18 18" fill="none" xmlns="http://www.w3.org/2000/svg">
<path d="M7.79974 1.80005H2.39974C2.06998 1.80005 1.7998 2.06951 1.7998 2.39999V7.79999C1.7998 8.12939 2.06998 8.40011 2.39974 8.40011H7.79974C8.12968 8.40011 8.39986 8.12939 8.39986 7.79999V2.39999C8.39986 2.06951 8.12968 1.80005 7.79974 1.80005Z" fill="#C8C8C8"/>
<path d="M15.6002 1.80005H10.2002C9.87028 1.80005 9.6001 2.06951 9.6001 2.39999V7.79999C9.6001 8.12939 9.87028 8.40011 10.2002 8.40011H15.6002C15.93 8.40011 16.2002 8.12939 16.2002 7.79999V2.39999C16.2002 2.06951 15.93 1.80005 15.6002 1.80005Z" fill="#C8C8C8"/>
<path d="M7.79974 9.59985H2.39974C2.06998 9.59985 1.7998 9.86949 1.7998 10.2V15.6C1.7998 15.9292 2.06998 16.1999 2.39974 16.1999H7.79974C8.12968 16.1999 8.39986 15.9292 8.39986 15.6V10.2C8.39986 9.86949 8.12968 9.59985 7.79974 9.59985Z" fill="#C8C8C8"/>
<path d="M15.6002 9.59985H10.2002C9.87028 9.59985 9.6001 9.86949 9.6001 10.2V15.6C9.6001 15.9292 9.87028 16.1999 10.2002 16.1999H15.6002C15.93 16.1999 16.2002 15.9292 16.2002 15.6V10.2C16.2002 9.86949 15.93 9.59985 15.6002 9.59985Z" fill="#C8C8C8"/>
</svg>
