<svg width="20" height="20" viewBox="0 0 20 20" fill="none" xmlns="http://www.w3.org/2000/svg">
<path d="M18.6292 5.5197L18.6144 5.49411C18.5939 5.45157 18.5702 5.41083 18.5438 5.37212L15.7614 0.56172C15.561 0.215235 15.1879 0 14.7876 0H5.21192C4.81102 0 4.43758 0.215743 4.23723 0.563165L1.40949 5.46888C1.38402 5.5131 1.36566 5.55935 1.3527 5.60634C1.31289 5.7138 1.29102 5.82993 1.29102 5.95111V18.6216C1.29102 19.3816 1.90934 20 2.66934 20H17.3297C18.0897 20 18.708 19.3816 18.708 18.6216V5.90466C18.708 5.88767 18.7075 5.87079 18.7066 5.854C18.7146 5.74122 18.6901 5.62493 18.6292 5.5197ZM10.6057 1.17231H14.7603L16.9491 4.95642H10.6057V1.17231ZM5.23923 1.17231H9.43342V4.95642H3.05797L5.23923 1.17231ZM17.5357 18.6217C17.5357 18.7353 17.4433 18.8277 17.3297 18.8277H2.66934C2.55574 18.8277 2.46332 18.7353 2.46332 18.6217V6.12872H17.5357V18.6217Z" fill="white"/>
<path d="M12.6603 10.5479C12.4314 10.319 12.0602 10.319 11.8313 10.5479L9.21407 13.1651L8.20766 12.1587C7.97879 11.9299 7.60762 11.9299 7.37871 12.1587C7.1498 12.3876 7.1498 12.7588 7.37871 12.9877L8.79965 14.4085C8.91411 14.523 9.06414 14.5803 9.21411 14.5803C9.36407 14.5803 9.51415 14.523 9.62856 14.4085L12.6603 11.3768C12.8892 11.1479 12.8892 10.7768 12.6603 10.5479Z" fill="white"/>
</svg>
