<svg width="19" height="18" viewBox="0 0 19 18" fill="none" xmlns="http://www.w3.org/2000/svg">
<g clip-path="url(#clip0_2039_142402)">
<path d="M9.79983 1.52124C4.82919 1.52124 0.799805 5.55063 0.799805 10.5213C0.799805 12.6872 1.56535 14.6745 2.84015 16.2274C3.03683 14.6526 4.6097 13.3208 6.81523 12.69C7.62099 13.4408 8.66179 13.8963 9.79978 13.8963C10.911 13.8963 11.9314 13.4637 12.729 12.7444C14.9536 13.4303 16.4926 14.84 16.5433 16.4786C17.9463 14.8913 18.7998 12.8065 18.7998 10.5213C18.7998 5.55063 14.7704 1.52124 9.79983 1.52124ZM9.79983 12.8305C9.2253 12.8305 8.68392 12.6726 8.20322 12.3992C7.04478 11.74 6.24716 10.3911 6.24716 8.83371C6.24716 6.62991 7.84084 4.83691 9.79983 4.83691C11.759 4.83691 13.3525 6.62991 13.3525 8.83371C13.3525 10.415 12.5299 11.7806 11.3427 12.4283C10.875 12.6834 10.3531 12.8305 9.79983 12.8305Z" fill="#C8C8C8"/>
</g>
<defs>
<clipPath id="clip0_2039_142402">
<rect width="18" height="18" fill="white" transform="translate(0.799805)"/>
</clipPath>
</defs>
</svg>
