<svg width="22" height="22" viewBox="0 0 22 22" fill="none" xmlns="http://www.w3.org/2000/svg">
<rect x="0.5" y="21" width="20" height="1" transform="rotate(-90 0.5 21)" fill="#E8E8E8"/>
<rect x="5.5" y="21" width="20" height="1" transform="rotate(-90 5.5 21)" fill="#E8E8E8"/>
<rect x="10.5" y="21" width="20" height="1" transform="rotate(-90 10.5 21)" fill="#E8E8E8"/>
<rect x="15.5" y="21" width="20" height="1" transform="rotate(-90 15.5 21)" fill="#E8E8E8"/>
<rect x="20.5" y="21" width="20" height="1" transform="rotate(-90 20.5 21)" fill="#E8E8E8"/>
<rect x="1" y="0.5" width="20" height="1" fill="#E8E8E8"/>
<rect x="1" y="5.5" width="20" height="1" fill="#E8E8E8"/>
<rect x="1" y="10.5" width="20" height="1" fill="#E8E8E8"/>
<rect x="1" y="15.5" width="20" height="1" fill="#E8E8E8"/>
<rect x="1" y="20.5" width="20" height="1" fill="#E8E8E8"/>
<rect x="1" y="1" width="20" height="20" stroke="#E8E8E8"/>
</svg>
