<svg width="404" height="416" viewBox="0 0 404 416" fill="none" xmlns="http://www.w3.org/2000/svg">
<g clip-path="url(#clip0_474_74937)">
<path fill-rule="evenodd" clip-rule="evenodd" d="M12.2917 -50.8582C64.3495 -30.9705 91.191 -20.3921 98.1044 -17.5885L81.0535 139.972L173.324 11.5741L259.458 44.9682L154.899 173.098C153.425 168.329 150.867 164.662 148.427 161.164C147.563 159.926 146.714 158.709 145.933 157.472C147.547 152.698 161.883 113.769 164.566 110.886C166.53 108.774 167.957 106.215 167.531 103.325C166.8 98.3422 162.628 96.8222 157.053 94.7914C156.088 94.4403 155.082 94.0737 154.044 93.6716C153.169 93.3321 152.289 92.9684 151.414 92.6052C146.093 90.4039 140.897 88.2532 137.308 91.9007C134.844 94.4063 134.825 96.3443 134.801 98.7742C134.796 99.2114 134.791 99.6658 134.773 100.141C134.718 101.512 128.57 117.208 123.531 130.072C120.526 137.745 117.916 144.411 117.228 146.428C116.769 146.507 116.332 146.582 115.914 146.653C109.472 147.757 107.634 148.071 102.083 150.893C88.9173 157.585 83.1061 174.031 77.4323 190.084C76.2607 193.4 75.0938 196.699 73.8712 199.893L53.8671 251.943L-3.10985 229.853L12.2917 -50.8582Z" fill="#F1F1F3"/>
<path fill-rule="evenodd" clip-rule="evenodd" d="M270.771 54.2602C301.059 101.114 316.484 125.534 320.411 131.888L213.782 248.945L363.922 199.932L413.747 277.85L253.848 319.376C255.471 314.655 255.568 310.181 255.66 305.915C255.693 304.406 255.725 302.92 255.824 301.46C259.94 298.562 294.454 275.631 298.319 274.893C301.149 274.35 303.808 273.129 305.168 270.546C307.515 266.092 305.044 262.397 301.742 257.458C301.171 256.604 300.575 255.713 299.975 254.775C299.468 253.982 298.973 253.168 298.48 252.357C295.484 247.432 292.558 242.622 287.513 243.442C284.047 244.006 282.89 245.558 281.438 247.505C281.176 247.855 280.904 248.219 280.61 248.591C279.757 249.665 265.545 258.694 253.896 266.093C246.949 270.506 240.914 274.341 239.169 275.562C238.752 275.354 238.355 275.156 237.976 274.966C232.127 272.045 230.458 271.21 224.315 270.203C209.747 267.813 195.364 277.645 181.323 287.242C178.423 289.225 175.537 291.197 172.668 293.05L125.846 323.216L92.8872 271.674L270.771 54.2602Z" fill="#F1F1F3"/>
<path fill-rule="evenodd" clip-rule="evenodd" d="M417.658 292.072C414.433 347.802 412.462 376.635 411.879 384.085L256.809 415.311L406.813 464.739L401.013 557.096L247.556 495.848C251.651 493.002 254.369 489.452 256.961 486.066C257.879 484.868 258.781 483.689 259.722 482.57C264.752 482.672 306.118 484.628 309.671 486.322C312.273 487.561 315.138 488.152 317.76 486.875C322.281 484.673 322.469 480.229 322.72 474.29C322.763 473.263 322.809 472.191 322.878 471.079C322.937 470.14 323.018 469.19 323.1 468.244C323.59 462.497 324.069 456.885 319.516 454.556C316.389 452.958 314.539 453.524 312.22 454.234C311.802 454.361 311.368 454.493 310.911 454.619C309.589 454.98 292.8 453.841 279.039 452.906C270.832 452.349 263.702 451.867 261.575 451.817C261.361 451.403 261.158 451.008 260.964 450.63C257.971 444.809 257.118 443.147 252.759 438.695C242.42 428.136 225.018 427.544 208.032 426.965C204.523 426.846 201.032 426.726 197.624 426.521L142.063 423.107L145.9 362.014L417.658 292.072Z" fill="#F1F1F3"/>
</g>
<defs>
<clipPath id="clip0_474_74937">
<path d="M0 0H389C397.284 0 404 6.71573 404 15V401C404 409.284 397.284 416 389 416H0V0Z" fill="white"/>
</clipPath>
</defs>
</svg>
