<svg width="1920" height="777" viewBox="0 0 1920 777" fill="none" xmlns="http://www.w3.org/2000/svg">
<path fill-rule="evenodd" clip-rule="evenodd" d="M-66.0419 332.745C-27.5113 333.591 -7.56952 334.239 -2.41492 334.457L22.9899 441.093L53.3576 335.959L117.223 337.677L78.7856 445.497C76.72 442.731 74.2029 440.937 71.8027 439.226C70.9531 438.62 70.1173 438.025 69.3219 437.401C69.267 433.914 69.5865 405.212 70.667 402.709C71.4573 400.876 71.7937 398.876 70.8469 397.092C69.2153 394.016 66.1449 393.996 62.041 393.97C61.3314 393.965 60.5904 393.961 59.8214 393.94C59.172 393.923 58.5146 393.89 57.8601 393.857C53.8827 393.661 49.9986 393.468 48.5055 396.68C47.4803 398.886 47.9172 400.153 48.4645 401.742C48.5627 402.028 48.6648 402.326 48.763 402.64C49.0451 403.546 48.6769 415.204 48.3747 424.759C48.1948 430.457 48.0391 435.408 48.058 436.883C47.7773 437.041 47.51 437.192 47.254 437.335C43.3122 439.553 42.1871 440.186 39.2238 443.316C32.1962 450.74 32.2209 462.808 32.2442 474.589C32.2493 477.023 32.2534 479.444 32.1969 481.809L31.2249 520.38L-11.0214 519.243L-66.0419 332.745Z" fill="white" fill-opacity="0.09"/>
<path fill-rule="evenodd" clip-rule="evenodd" d="M126.748 341.1C157.343 364.583 173.053 376.907 177.084 380.133L134.733 481.219L221.207 414.348L271.731 453.527L177.163 517.79C177.126 514.336 176.153 511.399 175.224 508.597C174.896 507.606 174.572 506.631 174.298 505.656C176.309 502.81 193.484 479.837 195.831 478.457C197.55 477.445 199 476.031 199.287 474.031C199.784 470.582 197.318 468.749 194.022 466.3C193.451 465.876 192.856 465.434 192.248 464.962C191.734 464.564 191.223 464.149 190.714 463.735C187.62 461.223 184.599 458.769 181.501 460.477C179.373 461.651 178.979 462.932 178.484 464.538C178.395 464.827 178.302 465.128 178.196 465.439C177.89 466.337 170.721 475.527 164.846 483.059C161.342 487.551 158.298 491.454 157.444 492.655C157.124 492.617 156.82 492.58 156.528 492.545C152.04 492.002 150.759 491.847 146.523 492.619C136.476 494.452 129.383 504.205 122.458 513.726C121.028 515.693 119.604 517.649 118.164 519.524L94.6455 550.075L61.2239 524.158L126.748 341.1Z" fill="white" fill-opacity="0.09"/>
<path fill-rule="evenodd" clip-rule="evenodd" d="M277.575 461.884C288.389 498.949 293.787 518.195 295.133 523.186L201.325 579.614L310.525 576.919L328.149 638.45L213.961 634.245C215.969 631.438 216.917 628.492 217.822 625.683C218.142 624.689 218.457 623.711 218.811 622.763C222.112 621.659 249.52 613.308 252.227 613.586C254.21 613.788 256.214 613.506 257.626 612.064C260.062 609.577 259.155 606.638 257.942 602.71C257.732 602.03 257.513 601.321 257.301 600.58C257.122 599.954 256.954 599.317 256.788 598.682C255.776 594.823 254.787 591.054 251.281 590.596C248.873 590.282 247.799 591.082 246.452 592.084C246.209 592.264 245.957 592.451 245.688 592.639C244.911 593.182 233.706 596.346 224.523 598.939C219.046 600.486 214.288 601.83 212.891 602.293C212.655 602.072 212.432 601.862 212.218 601.661C208.919 598.564 207.977 597.68 204.105 595.793C194.921 591.318 183.445 594.982 172.242 598.557C169.928 599.295 167.625 600.029 165.357 600.689L128.362 611.392L116.703 570.69L277.575 461.884Z" fill="white" fill-opacity="0.09"/>
<path fill-rule="evenodd" clip-rule="evenodd" d="M85.4972 64.1052C124.028 64.9517 143.97 65.5994 149.124 65.8177L174.529 172.453L204.897 67.3189L268.762 69.0379L230.325 176.857C228.259 174.092 225.742 172.298 223.342 170.586C222.492 169.981 221.656 169.385 220.861 168.761C220.806 165.274 221.126 136.572 222.206 134.07C222.996 132.236 223.333 130.237 222.386 128.453C220.754 125.376 217.684 125.356 213.58 125.33C212.87 125.326 212.13 125.321 211.36 125.3C210.711 125.283 210.054 125.251 209.399 125.218C205.422 125.021 201.538 124.829 200.045 128.04C199.019 130.247 199.456 131.514 200.004 133.103C200.102 133.389 200.204 133.686 200.302 134C200.584 134.906 200.216 146.564 199.914 156.119C199.734 161.818 199.578 166.769 199.597 168.243C199.316 168.401 199.049 168.552 198.793 168.696C194.851 170.914 193.726 171.546 190.763 174.676C183.735 182.101 183.76 194.169 183.783 205.95C183.788 208.383 183.792 210.804 183.736 213.169L182.764 251.74L140.518 250.603L85.4972 64.1052Z" fill="white" fill-opacity="0.09"/>
<path fill-rule="evenodd" clip-rule="evenodd" d="M278.287 72.4604C308.882 95.944 324.593 108.267 328.623 111.494L286.272 212.579L372.746 145.708L423.27 184.888L328.702 249.15C328.665 245.696 327.692 242.759 326.763 239.958C326.435 238.966 326.111 237.991 325.837 237.017C327.848 234.171 345.023 211.198 347.37 209.817C349.089 208.805 350.539 207.391 350.826 205.391C351.323 201.943 348.857 200.11 345.561 197.661C344.991 197.237 344.395 196.795 343.787 196.323C343.273 195.925 342.762 195.51 342.253 195.096C339.159 192.584 336.138 190.13 333.04 191.838C330.913 193.012 330.518 194.293 330.023 195.899C329.934 196.188 329.841 196.488 329.735 196.8C329.429 197.698 322.26 206.888 316.385 214.419C312.881 218.912 309.837 222.815 308.983 224.016C308.663 223.978 308.359 223.941 308.067 223.906C303.579 223.363 302.298 223.207 298.062 223.98C288.015 225.812 280.922 235.566 273.997 245.086C272.567 247.053 271.143 249.009 269.703 250.885L246.185 281.435L212.763 255.519L278.287 72.4604Z" fill="white" fill-opacity="0.09"/>
<path fill-rule="evenodd" clip-rule="evenodd" d="M429.114 193.245C439.928 230.309 445.326 249.556 446.673 254.546L352.864 310.974L462.064 308.28L479.688 369.81L365.5 365.606C367.508 362.799 368.456 359.853 369.361 357.044C369.681 356.049 369.996 355.071 370.35 354.123C373.651 353.019 401.059 344.669 403.766 344.946C405.749 345.148 407.753 344.867 409.165 343.424C411.601 340.938 410.694 337.998 409.481 334.07C409.271 333.391 409.052 332.681 408.84 331.94C408.661 331.315 408.493 330.677 408.327 330.042C407.315 326.183 406.327 322.414 402.82 321.956C400.412 321.642 399.338 322.442 397.991 323.444C397.748 323.624 397.496 323.811 397.227 324C396.45 324.543 385.245 327.706 376.062 330.299C370.585 331.846 365.827 333.19 364.43 333.653C364.195 333.433 363.971 333.223 363.757 333.021C360.458 329.925 359.516 329.04 355.644 327.154C346.46 322.679 334.984 326.342 323.781 329.917C321.467 330.656 319.164 331.39 316.896 332.049L279.901 342.752L268.242 302.05L429.114 193.245Z" fill="white" fill-opacity="0.09"/>
<path fill-rule="evenodd" clip-rule="evenodd" d="M481.481 427.621C511.688 451.603 527.196 464.182 531.174 467.474L487.178 567.852L574.732 502.407L624.61 542.409L529.006 605.113C529.025 601.659 528.099 598.706 527.217 595.89C526.905 594.894 526.597 593.913 526.339 592.934C528.396 590.122 545.944 567.433 548.313 566.092C550.048 565.108 551.521 563.718 551.841 561.723C552.394 558.283 549.958 556.41 546.702 553.907C546.139 553.474 545.551 553.022 544.95 552.54C544.443 552.134 543.939 551.71 543.437 551.288C540.384 548.726 537.404 546.223 534.278 547.88C532.132 549.019 531.717 550.293 531.196 551.891C531.102 552.178 531.004 552.477 530.893 552.787C530.572 553.68 523.254 562.751 517.257 570.185C513.68 574.619 510.572 578.472 509.699 579.659C509.38 579.616 509.076 579.574 508.785 579.534C504.307 578.917 503.029 578.741 498.78 579.444C488.705 581.112 481.453 590.748 474.374 600.154C472.912 602.097 471.456 604.029 469.986 605.881L445.972 636.042L412.978 609.581L481.481 427.621Z" fill="white" fill-opacity="0.09"/>
<path fill-rule="evenodd" clip-rule="evenodd" d="M630.141 550.9C640.382 588.127 645.482 607.455 646.752 612.466L552.084 667.434L661.312 666.431L677.985 728.227L563.875 722.255C565.927 719.479 566.92 716.548 567.868 713.753C568.204 712.764 568.533 711.791 568.902 710.849C572.22 709.796 599.753 701.871 602.456 702.19C604.436 702.423 606.444 702.173 607.878 700.752C610.352 698.304 609.49 695.351 608.338 691.404C608.139 690.722 607.93 690.009 607.73 689.265C607.56 688.636 607.403 687.996 607.246 687.359C606.293 683.484 605.363 679.701 601.865 679.189C599.461 678.837 598.375 679.62 597.013 680.601C596.767 680.778 596.512 680.961 596.241 681.145C595.455 681.676 584.203 684.666 574.981 687.116C569.481 688.578 564.703 689.848 563.299 690.289C563.066 690.065 562.846 689.852 562.635 689.647C559.384 686.5 558.457 685.601 554.614 683.655C545.5 679.038 533.969 682.523 522.712 685.924C520.387 686.627 518.073 687.325 515.795 687.949L478.639 698.078L467.61 657.201L630.141 550.9Z" fill="white" fill-opacity="0.09"/>
<path fill-rule="evenodd" clip-rule="evenodd" d="M625.083 121.039C661.094 134.796 679.662 142.113 684.444 144.053L672.649 253.045L736.478 164.226L796.061 187.327L723.732 275.961C722.713 272.661 720.943 270.125 719.255 267.705C718.658 266.849 718.07 266.007 717.53 265.151C718.646 261.849 728.563 234.92 730.419 232.926C731.778 231.464 732.765 229.694 732.471 227.695C731.964 224.248 729.079 223.197 725.222 221.792C724.555 221.549 723.858 221.295 723.141 221.017C722.535 220.782 721.927 220.531 721.321 220.28C717.64 218.757 714.046 217.269 711.564 219.792C709.859 221.526 709.846 222.866 709.829 224.547C709.826 224.849 709.822 225.164 709.81 225.492C709.772 226.441 705.519 237.299 702.033 246.197C699.955 251.505 698.149 256.116 697.673 257.511C697.356 257.566 697.053 257.618 696.764 257.668C692.308 258.431 691.036 258.648 687.196 260.6C678.089 265.23 674.069 276.606 670.144 287.711C669.334 290.005 668.527 292.287 667.681 294.496L653.843 330.502L614.429 315.221L625.083 121.039Z" fill="white" fill-opacity="0.09"/>
<path fill-rule="evenodd" clip-rule="evenodd" d="M803.888 193.754C824.84 226.165 835.51 243.058 838.226 247.453L764.466 328.428L868.326 294.523L902.792 348.423L792.182 377.148C793.304 373.882 793.371 370.788 793.435 367.837C793.458 366.793 793.48 365.765 793.548 364.755C796.396 362.751 820.271 346.888 822.944 346.377C824.902 346.002 826.742 345.157 827.682 343.37C829.306 340.289 827.597 337.733 825.312 334.317C824.917 333.726 824.505 333.109 824.09 332.46C823.739 331.912 823.397 331.349 823.056 330.788C820.983 327.381 818.96 324.054 815.469 324.621C813.072 325.011 812.271 326.085 811.267 327.431C811.086 327.674 810.898 327.925 810.694 328.183C810.104 328.926 800.273 335.171 792.215 340.29C787.409 343.343 783.234 345.996 782.028 346.84C781.739 346.696 781.465 346.559 781.202 346.428C777.156 344.407 776.002 343.83 771.752 343.133C761.674 341.479 751.725 348.281 742.012 354.92C740.006 356.292 738.01 357.655 736.025 358.938L703.636 379.805L680.837 344.15L803.888 193.754Z" fill="white" fill-opacity="0.09"/>
<path fill-rule="evenodd" clip-rule="evenodd" d="M905.497 358.261C903.266 396.812 901.902 416.757 901.499 421.911L794.229 443.512L897.995 477.703L893.982 541.591L787.829 499.223C790.661 497.255 792.541 494.799 794.334 492.457C794.969 491.628 795.593 490.812 796.244 490.038C799.723 490.109 828.339 491.462 830.796 492.634C832.596 493.491 834.578 493.9 836.392 493.016C839.519 491.493 839.649 488.419 839.823 484.311C839.853 483.6 839.884 482.859 839.933 482.089C839.973 481.44 840.029 480.783 840.086 480.128C840.425 476.153 840.756 472.27 837.607 470.66C835.443 469.554 834.164 469.946 832.559 470.437C832.271 470.525 831.97 470.616 831.654 470.703C830.74 470.953 819.126 470.165 809.607 469.518C803.93 469.133 798.997 468.799 797.526 468.765C797.378 468.478 797.237 468.205 797.103 467.944C795.033 463.917 794.443 462.767 791.427 459.687C784.275 452.383 772.238 451.974 760.487 451.573C758.06 451.491 755.645 451.408 753.288 451.266L714.853 448.905L717.508 406.643L905.497 358.261Z" fill="white" fill-opacity="0.09"/>
<path fill-rule="evenodd" clip-rule="evenodd" d="M1946.64 443.749C1908.11 442.903 1888.17 442.255 1883.02 442.037L1857.61 335.401L1827.24 440.536L1763.38 438.817L1801.82 330.997C1803.88 333.763 1806.4 335.557 1808.8 337.268C1809.65 337.874 1810.48 338.469 1811.28 339.094C1811.33 342.58 1811.02 371.282 1809.93 373.785C1809.14 375.618 1808.81 377.618 1809.75 379.402C1811.39 382.478 1814.46 382.498 1818.56 382.524C1819.27 382.529 1820.01 382.533 1820.78 382.554C1821.43 382.572 1822.09 382.604 1822.74 382.637C1826.72 382.833 1830.6 383.026 1832.1 379.814C1833.12 377.608 1832.68 376.341 1832.14 374.752C1832.04 374.466 1831.94 374.168 1831.84 373.855C1831.56 372.948 1831.92 361.29 1832.23 351.735C1832.41 346.037 1832.56 341.086 1832.54 339.612C1832.82 339.453 1833.09 339.302 1833.35 339.159C1837.29 336.941 1838.41 336.308 1841.38 333.178C1848.41 325.754 1848.38 313.686 1848.36 301.905C1848.35 299.471 1848.35 297.051 1848.4 294.685L1849.38 256.114L1891.62 257.251L1946.64 443.749Z" fill="white" fill-opacity="0.09"/>
<path fill-rule="evenodd" clip-rule="evenodd" d="M1753.85 435.394C1723.26 411.911 1707.55 399.588 1703.52 396.361L1745.87 295.275L1659.39 362.146L1608.87 322.967L1703.44 258.704C1703.48 262.158 1704.45 265.096 1705.38 267.897C1705.71 268.888 1706.03 269.864 1706.3 270.838C1704.29 273.684 1687.12 296.657 1684.77 298.037C1683.05 299.049 1681.6 300.464 1681.31 302.464C1680.82 305.912 1683.28 307.745 1686.58 310.194C1687.15 310.618 1687.75 311.06 1688.35 311.532C1688.87 311.93 1689.38 312.345 1689.89 312.759C1692.98 315.271 1696 317.725 1699.1 316.017C1701.23 314.843 1701.62 313.562 1702.12 311.956C1702.21 311.667 1702.3 311.367 1702.41 311.055C1702.71 310.157 1709.88 300.967 1715.76 293.435C1719.26 288.943 1722.3 285.04 1723.16 283.839C1723.48 283.877 1723.78 283.914 1724.07 283.949C1728.56 284.492 1729.84 284.647 1734.08 283.875C1744.13 282.042 1751.22 272.289 1758.14 262.768C1759.57 260.802 1761 258.846 1762.44 256.97L1785.96 226.419L1819.38 252.336L1753.85 435.394Z" fill="white" fill-opacity="0.09"/>
<path fill-rule="evenodd" clip-rule="evenodd" d="M1603.03 314.61C1592.21 277.545 1586.81 258.299 1585.47 253.309L1679.28 196.88L1570.08 199.575L1552.45 138.044L1666.64 142.249C1664.63 145.056 1663.68 148.002 1662.78 150.811C1662.46 151.805 1662.15 152.783 1661.79 153.731C1658.49 154.835 1631.08 163.186 1628.37 162.908C1626.39 162.706 1624.39 162.988 1622.98 164.43C1620.54 166.917 1621.45 169.856 1622.66 173.785C1622.87 174.464 1623.09 175.173 1623.3 175.914C1623.48 176.54 1623.65 177.177 1623.81 177.813C1624.83 181.672 1625.81 185.44 1629.32 185.898C1631.73 186.212 1632.8 185.413 1634.15 184.411C1634.39 184.23 1634.64 184.043 1634.91 183.855C1635.69 183.312 1646.9 180.148 1656.08 177.555C1661.56 176.009 1666.31 174.664 1667.71 174.201C1667.95 174.422 1668.17 174.632 1668.38 174.833C1671.68 177.93 1672.62 178.814 1676.5 180.701C1685.68 185.176 1697.16 181.513 1708.36 177.938C1710.67 177.199 1712.98 176.465 1715.24 175.805L1752.24 165.102L1763.9 205.804L1603.03 314.61Z" fill="white" fill-opacity="0.09"/>
<path fill-rule="evenodd" clip-rule="evenodd" d="M1795.1 712.389C1756.57 711.542 1736.63 710.895 1731.48 710.676L1706.07 604.041L1675.7 709.175L1611.84 707.456L1650.28 599.637C1652.34 602.402 1654.86 604.196 1657.26 605.908C1658.11 606.514 1658.95 607.109 1659.74 607.733C1659.8 611.22 1659.48 639.922 1658.4 642.425C1657.61 644.258 1657.27 646.257 1658.22 648.041C1659.85 651.118 1662.92 651.138 1667.02 651.164C1667.73 651.168 1668.47 651.173 1669.24 651.194C1669.89 651.211 1670.55 651.244 1671.2 651.277C1675.18 651.473 1679.06 651.665 1680.56 648.454C1681.58 646.248 1681.15 644.98 1680.6 643.391C1680.5 643.105 1680.4 642.808 1680.3 642.494C1680.02 641.588 1680.39 629.93 1680.69 620.375C1680.87 614.677 1681.02 609.726 1681 608.251C1681.29 608.093 1681.55 607.942 1681.81 607.798C1685.75 605.581 1686.88 604.948 1689.84 601.818C1696.87 594.394 1696.84 582.325 1696.82 570.545C1696.81 568.111 1696.81 565.69 1696.87 563.325L1697.84 524.754L1740.08 525.891L1795.1 712.389Z" fill="white" fill-opacity="0.09"/>
<path fill-rule="evenodd" clip-rule="evenodd" d="M1602.31 704.034C1571.72 680.55 1556.01 668.227 1551.98 665.001L1594.33 563.915L1507.86 630.786L1457.33 591.607L1551.9 527.344C1551.94 530.798 1552.91 533.735 1553.84 536.537C1554.17 537.528 1554.49 538.503 1554.76 539.478C1552.75 542.323 1535.58 565.296 1533.23 566.677C1531.51 567.689 1530.06 569.103 1529.78 571.103C1529.28 574.551 1531.74 576.384 1535.04 578.834C1535.61 579.257 1536.21 579.699 1536.81 580.171C1537.33 580.569 1537.84 580.985 1538.35 581.398C1541.44 583.911 1544.46 586.364 1547.56 584.656C1549.69 583.482 1550.08 582.201 1550.58 580.595C1550.67 580.306 1550.76 580.006 1550.87 579.695C1551.17 578.796 1558.34 569.606 1564.22 562.075C1567.72 557.583 1570.76 553.679 1571.62 552.478C1571.94 552.516 1572.24 552.553 1572.53 552.589C1577.02 553.132 1578.3 553.287 1582.54 552.514C1592.59 550.682 1599.68 540.928 1606.6 531.408C1608.03 529.441 1609.46 527.485 1610.9 525.609L1634.42 495.059L1667.84 520.976L1602.31 704.034Z" fill="white" fill-opacity="0.09"/>
<path fill-rule="evenodd" clip-rule="evenodd" d="M1451.49 583.249C1440.67 546.184 1435.28 526.938 1433.93 521.948L1527.74 465.52L1418.54 468.214L1400.91 406.684L1515.1 410.888C1513.09 413.695 1512.15 416.641 1511.24 419.45C1510.92 420.445 1510.61 421.423 1510.25 422.371C1506.95 423.475 1479.54 431.825 1476.84 431.548C1474.85 431.346 1472.85 431.627 1471.44 433.07C1469 435.556 1469.91 438.496 1471.12 442.424C1471.33 443.103 1471.55 443.812 1471.76 444.553C1471.94 445.179 1472.11 445.817 1472.27 446.452C1473.29 450.311 1474.28 454.08 1477.78 454.537C1480.19 454.852 1481.26 454.052 1482.61 453.05C1482.85 452.87 1483.11 452.683 1483.37 452.494C1484.15 451.951 1495.36 448.787 1504.54 446.195C1510.02 444.648 1514.77 443.304 1516.17 442.841C1516.41 443.061 1516.63 443.271 1516.84 443.472C1520.14 446.569 1521.09 447.453 1524.96 449.34C1534.14 453.815 1545.62 450.152 1556.82 446.577C1559.13 445.838 1561.44 445.104 1563.71 444.445L1600.7 433.742L1612.36 474.444L1451.49 583.249Z" fill="white" fill-opacity="0.09"/>
<path fill-rule="evenodd" clip-rule="evenodd" d="M1399.12 348.873C1368.91 324.891 1353.41 312.312 1349.43 309.02L1393.42 208.642L1305.87 274.087L1255.99 234.085L1351.6 171.381C1351.58 174.835 1352.5 177.788 1353.38 180.604C1353.7 181.601 1354 182.581 1354.26 183.56C1352.21 186.372 1334.66 209.061 1332.29 210.402C1330.55 211.386 1329.08 212.777 1328.76 214.771C1328.21 218.211 1330.64 220.084 1333.9 222.587C1334.46 223.02 1335.05 223.472 1335.65 223.954C1336.16 224.361 1336.66 224.784 1337.16 225.206C1340.22 227.769 1343.2 230.272 1346.32 228.614C1348.47 227.476 1348.88 226.201 1349.41 224.603C1349.5 224.316 1349.6 224.017 1349.71 223.708C1350.03 222.814 1357.35 213.743 1363.35 206.309C1366.92 201.875 1370.03 198.022 1370.9 196.835C1371.22 196.878 1371.53 196.92 1371.82 196.96C1376.29 197.577 1377.57 197.753 1381.82 197.05C1391.9 195.382 1399.15 185.746 1406.23 176.341C1407.69 174.397 1409.15 172.465 1410.62 170.613L1434.63 140.452L1467.62 166.913L1399.12 348.873Z" fill="white" fill-opacity="0.09"/>
<path fill-rule="evenodd" clip-rule="evenodd" d="M1250.46 225.595C1240.22 188.367 1235.12 169.039 1233.85 164.029L1328.52 109.06L1219.29 110.063L1202.62 48.2671L1316.73 54.2396C1314.67 57.0154 1313.68 59.9461 1312.73 62.741C1312.4 63.7301 1312.07 64.7032 1311.7 65.6457C1308.38 66.6983 1280.85 74.6234 1278.15 74.304C1276.17 74.0713 1274.16 74.3218 1272.72 75.7423C1270.25 78.1908 1271.11 81.1437 1272.26 85.0904C1272.46 85.7728 1272.67 86.4854 1272.87 87.2296C1273.04 87.8579 1273.2 88.4982 1273.36 89.1359C1274.31 93.01 1275.24 96.7936 1278.74 97.3056C1281.14 97.657 1282.23 96.8742 1283.59 95.8931C1283.83 95.7168 1284.09 95.5336 1284.36 95.3494C1285.15 94.8186 1296.4 91.8286 1305.62 89.3782C1311.12 87.9166 1315.9 86.6461 1317.3 86.2051C1317.54 86.4291 1317.76 86.6425 1317.97 86.847C1321.22 89.9947 1322.14 90.8932 1325.99 92.8398C1335.1 97.4563 1346.63 93.9714 1357.89 90.5703C1360.21 89.8675 1362.53 89.1693 1364.81 88.545L1401.96 78.416L1412.99 119.294L1250.46 225.595Z" fill="white" fill-opacity="0.09"/>
<path fill-rule="evenodd" clip-rule="evenodd" d="M1255.52 655.456C1219.51 641.699 1200.94 634.381 1196.16 632.442L1207.95 523.449L1144.12 612.268L1084.54 589.168L1156.87 500.533C1157.89 503.833 1159.66 506.37 1161.35 508.789C1161.94 509.645 1162.53 510.487 1163.07 511.343C1161.96 514.646 1152.04 541.575 1150.18 543.569C1148.82 545.03 1147.84 546.8 1148.13 548.799C1148.64 552.246 1151.52 553.298 1155.38 554.702C1156.05 554.945 1156.74 555.199 1157.46 555.477C1158.07 555.712 1158.67 555.964 1159.28 556.215C1162.96 557.738 1166.56 559.225 1169.04 556.702C1170.74 554.969 1170.76 553.628 1170.77 551.947C1170.78 551.645 1170.78 551.331 1170.79 551.002C1170.83 550.053 1175.08 539.196 1178.57 530.297C1180.65 524.99 1182.45 520.378 1182.93 518.983C1183.25 518.928 1183.55 518.876 1183.84 518.827C1188.29 518.064 1189.57 517.846 1193.41 515.894C1202.51 511.265 1206.53 499.888 1210.46 488.783C1211.27 486.489 1212.07 484.208 1212.92 481.998L1226.76 445.993L1266.17 461.274L1255.52 655.456Z" fill="white" fill-opacity="0.09"/>
<path fill-rule="evenodd" clip-rule="evenodd" d="M1076.71 582.74C1055.76 550.329 1045.09 533.436 1042.38 529.041L1116.14 448.066L1012.28 481.971L977.809 428.071L1088.42 399.346C1087.3 402.612 1087.23 405.706 1087.17 408.657C1087.14 409.702 1087.12 410.729 1087.05 411.739C1084.21 413.744 1060.33 429.606 1057.66 430.117C1055.7 430.492 1053.86 431.337 1052.92 433.124C1051.3 436.205 1053 438.761 1055.29 442.177C1055.68 442.768 1056.1 443.385 1056.51 444.034C1056.86 444.582 1057.21 445.145 1057.55 445.706C1059.62 449.113 1061.64 452.44 1065.13 451.873C1067.53 451.483 1068.33 450.409 1069.33 449.063C1069.52 448.821 1069.7 448.569 1069.91 448.311C1070.5 447.568 1080.33 441.323 1088.39 436.204C1093.19 433.151 1097.37 430.499 1098.57 429.654C1098.86 429.798 1099.14 429.935 1099.4 430.066C1103.45 432.087 1104.6 432.664 1108.85 433.362C1118.93 435.015 1128.88 428.213 1138.59 421.574C1140.6 420.203 1142.59 418.839 1144.58 417.557L1176.97 396.689L1199.76 432.344L1076.71 582.74Z" fill="white" fill-opacity="0.09"/>
<path fill-rule="evenodd" clip-rule="evenodd" d="M975.105 418.233C977.336 379.682 978.699 359.737 979.103 354.583L1086.37 332.982L982.607 298.791L986.62 234.903L1092.77 277.271C1089.94 279.24 1088.06 281.695 1086.27 284.037C1085.63 284.866 1085.01 285.682 1084.36 286.456C1080.88 286.385 1052.26 285.032 1049.81 283.86C1048.01 283.003 1046.02 282.594 1044.21 283.478C1041.08 285.001 1040.95 288.075 1040.78 292.183C1040.75 292.894 1040.72 293.635 1040.67 294.405C1040.63 295.054 1040.57 295.712 1040.52 296.366C1040.18 300.341 1039.85 304.224 1042.99 305.834C1045.16 306.94 1046.44 306.548 1048.04 306.058C1048.33 305.97 1048.63 305.878 1048.95 305.791C1049.86 305.541 1061.48 306.329 1070.99 306.976C1076.67 307.361 1081.6 307.695 1083.08 307.729C1083.22 308.016 1083.36 308.289 1083.5 308.551C1085.57 312.577 1086.16 313.727 1089.17 316.807C1096.33 324.111 1108.36 324.52 1120.11 324.921C1122.54 325.003 1124.96 325.086 1127.31 325.228L1165.75 327.589L1163.09 369.851L975.105 418.233Z" fill="white" fill-opacity="0.09"/>
</svg>
