<svg width="540" height="489" viewBox="0 0 540 489" fill="none" xmlns="http://www.w3.org/2000/svg">
<mask id="mask0_381_83397" style="mask-type:alpha" maskUnits="userSpaceOnUse" x="0" y="0" width="540" height="810">
<rect width="540" height="810" fill="#1E3D65"/>
</mask>
<g mask="url(#mask0_381_83397)">
<path fill-rule="evenodd" clip-rule="evenodd" d="M-70.3152 -154.76C17.6367 -121.16 62.9856 -103.288 74.6658 -98.5512L45.8582 167.647L201.75 -49.2808L347.273 7.13865L170.62 223.615C168.131 215.557 163.808 209.361 159.686 203.452C158.227 201.361 156.791 199.304 155.472 197.214C158.199 189.148 182.419 123.378 186.953 118.508C190.272 114.938 192.681 110.615 191.963 105.733C190.727 97.3143 183.679 94.7463 174.259 91.3151C172.63 90.722 170.929 90.1027 169.177 89.4233C167.697 88.8496 166.211 88.2352 164.732 87.6217C155.742 83.9025 146.964 80.2688 140.901 86.4313C136.737 90.6646 136.705 93.9388 136.664 98.0442C136.656 98.7828 136.648 99.5505 136.617 100.353C136.524 102.67 126.138 129.188 117.625 150.922C112.548 163.885 108.138 175.147 106.976 178.555C106.2 178.689 105.462 178.816 104.755 178.936C93.872 180.8 90.7658 181.331 81.387 186.099C59.1442 197.406 49.3261 225.191 39.7403 252.313C37.7608 257.916 35.7893 263.488 33.7238 268.884L-0.073345 356.823L-96.3361 319.502L-70.3152 -154.76Z" fill="#324E73"/>
<path fill-rule="evenodd" clip-rule="evenodd" d="M366.386 22.8369C417.556 101.997 443.618 143.255 450.252 153.989L270.103 351.758L523.765 268.95L607.945 400.593L337.795 470.751C340.536 462.775 340.699 455.217 340.856 448.009C340.911 445.458 340.965 442.949 341.132 440.482C348.086 435.587 406.398 396.844 412.927 395.596C417.709 394.68 422.202 392.617 424.5 388.252C428.464 380.727 424.291 374.484 418.711 366.141C417.746 364.698 416.739 363.192 415.725 361.607C414.869 360.268 414.032 358.893 413.2 357.523C408.138 349.202 403.195 341.075 394.671 342.46C388.815 343.412 386.86 346.036 384.407 349.325C383.965 349.916 383.506 350.53 383.008 351.16C381.567 352.975 357.556 368.228 337.875 380.729C326.138 388.186 315.941 394.665 312.995 396.727C312.29 396.376 311.619 396.041 310.978 395.721C301.097 390.784 298.277 389.375 287.899 387.672C263.285 383.635 238.985 400.247 215.263 416.461C210.363 419.811 205.487 423.142 200.64 426.274L121.534 477.239L65.85 390.159L366.386 22.8369Z" fill="#324E73"/>
<path fill-rule="evenodd" clip-rule="evenodd" d="M614.553 424.623C609.104 518.778 605.774 567.491 604.789 580.078L342.797 632.836L596.23 716.344L586.43 872.381L327.165 768.903C334.082 764.095 338.674 758.096 343.054 752.377C344.604 750.352 346.128 748.36 347.719 746.47C356.216 746.642 426.106 749.946 432.107 752.809C436.504 754.903 441.345 755.901 445.774 753.742C453.412 750.022 453.73 742.515 454.154 732.481C454.227 730.746 454.303 728.934 454.422 727.055C454.521 725.469 454.658 723.864 454.796 722.266C455.624 712.556 456.434 703.074 448.741 699.141C443.457 696.439 440.332 697.396 436.413 698.595C435.708 698.81 434.975 699.034 434.202 699.246C431.969 699.857 403.604 697.932 380.355 696.353C366.489 695.412 354.442 694.596 350.849 694.513C350.488 693.812 350.145 693.145 349.817 692.507C344.761 682.672 343.319 679.864 335.954 672.342C318.487 654.503 289.087 653.503 260.387 652.524C254.459 652.323 248.562 652.12 242.804 651.774L148.933 646.007L155.416 542.789L614.553 424.623Z" fill="#324E73"/>
</g>
</svg>
