<svg width="50" height="50" viewBox="0 0 50 50" fill="none" xmlns="http://www.w3.org/2000/svg">
<path d="M37.5 37.5C37.0365 37.5 36.5833 37.6375 36.1979 37.895C35.8125 38.1525 35.5121 38.5186 35.3347 38.9468C35.1573 39.3751 35.1109 39.8463 35.2013 40.301C35.2917 40.7556 35.5149 41.1733 35.8427 41.501C36.1705 41.8288 36.5881 42.052 37.0428 42.1425C37.4974 42.2329 37.9686 42.1865 38.3969 42.0091C38.8252 41.8317 39.1912 41.5313 39.4488 41.1459C39.7063 40.7604 39.8438 40.3073 39.8438 39.8438C39.8431 39.2224 39.5959 38.6266 39.1565 38.1872C38.7171 37.7479 38.1214 37.5007 37.5 37.5ZM37.5 40.625C37.3455 40.625 37.1944 40.5792 37.066 40.4933C36.9375 40.4075 36.8374 40.2855 36.7782 40.1427C36.7191 40 36.7036 39.8429 36.7338 39.6913C36.7639 39.5398 36.8383 39.4006 36.9476 39.2913C37.0568 39.1821 37.196 39.1077 37.3476 39.0775C37.4991 39.0474 37.6562 39.0628 37.799 39.122C37.9417 39.1811 38.0637 39.2812 38.1496 39.4097C38.2354 39.5382 38.2813 39.6892 38.2813 39.8438C38.281 40.0509 38.1986 40.2495 38.0522 40.3959C37.9057 40.5424 37.7071 40.6248 37.5 40.625Z" fill="#FF5500"/>
<path d="M14.8438 36.7188C15.2752 36.7188 15.625 36.369 15.625 35.9375C15.625 35.506 15.2752 35.1562 14.8438 35.1562C14.4123 35.1562 14.0625 35.506 14.0625 35.9375C14.0625 36.369 14.4123 36.7188 14.8438 36.7188Z" fill="#FF5500"/>
<path d="M3.90625 44.7477V47.6562C3.90625 47.8634 3.98856 48.0622 4.13507 48.2087C4.28159 48.3552 4.4803 48.4375 4.6875 48.4375H44.5312C45.5669 48.4363 46.5598 48.0244 47.2921 47.2921C48.0244 46.5598 48.4363 45.5669 48.4375 44.5312C48.4375 44.3241 48.3552 44.1253 48.2087 43.9788C48.0622 43.8323 47.8634 43.75 47.6562 43.75H45.3125V40.625C45.3125 40.4178 45.2302 40.2191 45.0837 40.0726C44.9372 39.9261 44.7384 39.8438 44.5312 39.8438C44.1168 39.8438 43.7194 39.6791 43.4264 39.3861C43.1334 39.0931 42.9688 38.6957 42.9688 38.2812C42.9688 37.8668 43.1334 37.4694 43.4264 37.1764C43.7194 36.8834 44.1168 36.7188 44.5312 36.7188C44.7384 36.7188 44.9372 36.6364 45.0837 36.4899C45.2302 36.3434 45.3125 36.1447 45.3125 35.9375V30.4688C45.3125 30.2615 45.2302 30.0628 45.0837 29.9163C44.9372 29.7698 44.7384 29.6875 44.5312 29.6875H35.9025C35.9251 29.4336 35.9375 29.1731 35.9375 28.9062C35.9375 24.1319 33.6417 17.9551 33.544 17.6944C33.4882 17.5455 33.3882 17.4172 33.2575 17.3266C33.1268 17.236 32.9715 17.1875 32.8125 17.1875H27.7011C26.7346 16.0274 25.5519 15.0662 24.2188 14.3574V7.8125C24.426 7.8125 24.6247 7.73019 24.7712 7.58368C24.9177 7.43716 25 7.23845 25 7.03125V2.34375C25 2.13655 24.9177 1.93784 24.7712 1.79132C24.6247 1.64481 24.426 1.5625 24.2188 1.5625H17.9688C17.7615 1.5625 17.5628 1.64481 17.4163 1.79132C17.2698 1.93784 17.1875 2.13655 17.1875 2.34375V7.03125C17.1875 7.23845 17.2698 7.43716 17.4163 7.58368C17.5628 7.73019 17.7615 7.8125 17.9688 7.8125V14.3577C17.0685 14.8391 16.2336 15.4336 15.4841 16.1268C13.5318 17.9395 12.5 20.1974 12.5 22.6562V30.7422C12.4564 30.6951 12.4121 30.6484 12.3659 30.6026C10.843 29.0792 8.6126 28.8318 7.39414 30.0502C6.42285 31.0214 6.38428 32.6354 7.1793 34.0218C6.28261 34.195 5.46003 34.6374 4.82129 35.2901C3.96768 36.1437 3.49043 37.2499 3.49053 38.2811H2.34375C2.13655 38.2811 1.93784 38.3634 1.79132 38.5099C1.64481 38.6564 1.5625 38.8551 1.5625 39.0623C1.5625 41.1733 2.3918 43.1766 3.90625 44.7477ZM5.46875 46.875V45.3125H16.4062V46.875H5.46875ZM17.9688 44.7478C18.6901 44.0062 19.2691 43.1383 19.6768 42.1875H25.7812C25.9885 42.1875 26.1872 42.1052 26.3337 41.9587C26.4802 41.8122 26.5625 41.6134 26.5625 41.4062V36.1914C27.0619 36.4107 27.5868 36.5665 28.125 36.655V43.5574C26.8623 45.9207 24.5635 46.7347 24.1088 46.8754H17.9688V44.7478ZM11.7821 38.2812H10.2246C10.5031 37.6695 10.6128 36.9943 10.5423 36.3258C10.6728 36.3406 10.8041 36.3482 10.9355 36.3483C11.2622 36.35 11.587 36.2994 11.8976 36.1983C11.7782 36.6219 11.718 37.0599 11.7188 37.5C11.719 37.7617 11.7402 38.0229 11.7821 38.2812ZM13.3739 38.2812C13.3121 38.0254 13.281 37.7632 13.2812 37.5C13.2812 36.2296 13.9968 35.1562 14.8438 35.1562C15.6907 35.1562 16.4062 36.2296 16.4062 37.5C16.4065 37.7632 16.3754 38.0254 16.3136 38.2812H13.3739ZM17.1875 34.9204V28.125H21.8945C21.8819 28.3887 21.875 28.6496 21.875 28.9062C21.875 31.8188 23.2687 33.9775 25 35.2791V40.625H20.1585C20.261 40.1105 20.3126 39.5871 20.3125 39.0625C20.3125 38.8553 20.2302 38.6566 20.0837 38.5101C19.9372 38.3636 19.7385 38.2812 19.5312 38.2812H17.9054C17.9473 38.0229 17.9685 37.7617 17.9688 37.5C17.9789 36.5804 17.7062 35.6799 17.1875 34.9204ZM34.375 28.9062C34.375 31.2685 33.2902 32.7656 32.3803 33.6057C31.1403 34.7501 29.7339 35.1562 28.9062 35.1562C28.0786 35.1562 26.6722 34.7501 25.4322 33.6057C24.5223 32.7656 23.4375 31.2685 23.4375 28.9062C23.4422 28.178 23.4914 27.4507 23.5848 26.7285L24.5906 27.2317C25.2068 27.5388 25.8931 27.678 26.5803 27.6351C27.2674 27.5923 27.9311 27.3689 28.5044 26.9876L30.4807 25.6701C30.7631 25.4815 31.0833 25.3566 31.4189 25.3042C31.7545 25.2518 32.0975 25.2731 32.424 25.3666L34.1014 25.8457C34.2718 26.8573 34.3633 27.8805 34.375 28.9062ZM30.4653 46.875H27.3472C27.9379 46.4066 28.4624 45.8602 28.9062 45.2508V45.3125H28.9527C29.3866 45.8971 29.8951 46.4224 30.4653 46.875ZM29.6875 36.7188C30.1019 36.7188 30.4993 36.8834 30.7924 37.1764C31.0854 37.4694 31.25 37.8668 31.25 38.2812C31.25 38.6957 31.0854 39.0931 30.7924 39.3861C30.4993 39.6791 30.1019 39.8438 29.6875 39.8438V36.7188ZM44.5312 46.875H33.7042C32.7191 46.5476 31.8146 46.015 31.0504 45.3125H46.7411C46.579 45.7691 46.2796 46.1645 45.884 46.4442C45.4883 46.724 45.0158 46.8744 44.5312 46.875ZM43.75 31.25V35.2551C43.0792 35.4284 42.4849 35.8196 42.0606 36.3674C41.6364 36.9152 41.4062 37.5884 41.4062 38.2812C41.4062 38.9741 41.6364 39.6473 42.0606 40.1951C42.4849 40.7429 43.0792 41.1341 43.75 41.3074V43.75H29.7949C29.7583 43.6868 29.7225 43.6225 29.6875 43.557V41.4062C30.3214 41.4067 30.9404 41.2142 31.4623 40.8543C31.9841 40.4945 32.3841 39.9844 32.6092 39.3918C32.8342 38.7992 32.8735 38.1522 32.722 37.5367C32.5705 36.9211 32.2352 36.3663 31.7608 35.9459C32.808 35.3922 33.717 34.6097 34.4204 33.6566C34.9216 34.2971 35.6101 34.7652 36.3899 34.9958C37.1698 35.2264 38.0022 35.208 38.7711 34.9431C39.54 34.6783 40.2071 34.1801 40.6794 33.5181C41.1518 32.8561 41.4059 32.0632 41.4062 31.25H43.75ZM39.8438 31.25C39.8438 31.7975 39.6521 32.3277 39.302 32.7486C38.9518 33.1695 38.4654 33.4545 37.927 33.5542C37.3887 33.6538 36.8325 33.5619 36.3549 33.2942C35.8773 33.0265 35.5085 32.6001 35.3125 32.0889C35.4278 31.8152 35.5273 31.5351 35.6104 31.25H39.8438ZM33.7793 24.1286L32.8545 23.8649C32.3102 23.709 31.7384 23.6735 31.1789 23.7609C30.6195 23.8482 30.0858 24.0563 29.6148 24.3707L27.6386 25.6883C27.2946 25.917 26.8964 26.051 26.4841 26.0767C26.0718 26.1024 25.6601 26.019 25.2903 25.8348L23.8379 25.108C24.3411 22.3918 25.1833 19.811 25.551 18.75H32.2615C32.871 20.512 33.3778 22.3079 33.7793 24.1286ZM18.75 3.125H23.4375V6.25C23.2303 6.25 23.0316 6.33231 22.8851 6.47882C22.7386 6.62534 22.6562 6.82405 22.6562 7.03125V10.9375H19.5312V7.03125C19.5312 6.82405 19.4489 6.62534 19.3024 6.47882C19.1559 6.33231 18.9572 6.25 18.75 6.25V3.125ZM22.6562 14.0625H19.5312V12.5H22.6562V14.0625ZM16.5113 17.3053C17.2312 16.633 18.0435 16.0672 18.9235 15.625H23.2648C24.0935 16.0398 24.8619 16.5655 25.5488 17.1875H25C24.841 17.1875 24.6857 17.236 24.555 17.3266C24.4243 17.4172 24.3243 17.5455 24.2685 17.6944C24.1862 17.9138 22.5469 22.3246 22.0299 26.5625H16.4062C16.199 26.5625 16.0003 26.6448 15.8538 26.7913C15.7073 26.9378 15.625 27.1365 15.625 27.3438V33.7174C15.1172 33.5525 14.5703 33.5525 14.0625 33.7174V22.6562C14.0625 20.6299 14.8864 18.8296 16.5113 17.3053ZM8.42773 31.2392C8.30917 31.3973 8.25491 31.5944 8.2759 31.7909C8.2969 31.9874 8.39157 32.1686 8.54086 32.2981C8.69015 32.4276 8.88295 32.4957 9.08044 32.4887C9.27793 32.4817 9.46543 32.4001 9.60516 32.2603C9.7449 32.1206 9.82648 31.9331 9.83349 31.7356C9.8405 31.5381 9.77241 31.3453 9.64293 31.196C9.51346 31.0467 9.33222 30.9521 9.13572 30.9311C8.93922 30.9101 8.74207 30.9643 8.58398 31.0829C9.21064 30.5815 10.403 30.8485 11.2619 31.7072C12.1604 32.6057 12.4132 33.8705 11.8144 34.4694C11.2155 35.0684 9.95059 34.8153 9.05215 33.917C8.19238 33.0584 7.92559 31.8657 8.42773 31.2392ZM5.92686 36.3954C6.78623 35.5365 7.97852 35.2695 8.60508 35.7713C8.44702 35.6526 8.24986 35.5983 8.05332 35.6192C7.85679 35.6402 7.6755 35.7348 7.54597 35.8841C7.41644 36.0334 7.3483 36.2262 7.35529 36.4237C7.36228 36.6212 7.44387 36.8088 7.58362 36.9485C7.72338 37.0883 7.91091 37.1699 8.10843 37.1768C8.30595 37.1838 8.49878 37.1157 8.64806 36.9862C8.79734 36.8566 8.89198 36.6753 8.91291 36.4788C8.93384 36.2823 8.8795 36.0851 8.76084 35.9271C9.20205 36.4782 9.04814 37.4665 8.41982 38.2815H5.04951C5.04648 37.666 5.36963 36.9526 5.92686 36.3954ZM18.7025 39.8438C18.5106 41.327 17.8257 42.7028 16.7578 43.75H5.11719C4.05046 42.702 3.36579 41.3266 3.17256 39.8438H18.7025Z" fill="#1E3D65"/>
<path d="M23.5781 26.7346L23.8398 25.1016C24.1576 25.2422 24.85 25.5908 25.1875 25.7658C25.6094 25.9846 25.793 26.0744 26.5742 26.0588C27.3555 26.0432 28.2812 25.2033 29.2812 24.5627C30.2786 23.9238 30.9062 23.6914 31.9375 23.719C32.4998 23.734 33.3919 23.9805 33.7773 24.1211L34.1055 25.8555C33.4961 25.668 32.3748 25.3239 31.8438 25.3008C31.3945 25.2813 30.9375 25.4377 30.6875 25.5471C30.4875 25.6346 29.9688 26.021 29.7344 26.2033C29.1615 26.5523 28.3945 27.1174 27.7344 27.4065C27.0178 27.7202 26.3114 27.6625 25.7969 27.6252C25.043 27.5705 24.1458 27.0263 23.5781 26.7346Z" fill="#FF5500"/>
<path d="M9.05469 32.4844C9.48616 32.4844 9.83594 32.1346 9.83594 31.7031C9.83594 31.2717 9.48616 30.9219 9.05469 30.9219C8.62322 30.9219 8.27344 31.2717 8.27344 31.7031C8.27344 32.1346 8.62322 32.4844 9.05469 32.4844Z" fill="#FF5500"/>
</svg>
