<svg width="50" height="50" viewBox="0 0 50 50" fill="none" xmlns="http://www.w3.org/2000/svg">
<path d="M46.2027 47.245C46.2027 46.2408 46.2027 22.9765 46.2027 22.0611C46.2027 20.0319 45.3041 18.1268 43.7371 16.8341C42.9304 16.1686 42.4202 15.2523 42.2918 14.267C42.2917 14.2666 42.2918 14.2661 42.2917 14.2656C42.2451 13.9077 42.2587 14.5745 42.2587 5.05479C42.6937 4.83369 42.9931 4.38281 42.9931 3.8624V1.33789C42.9931 0.600195 42.3929 0 41.6552 0H37.202C36.4643 0 35.8642 0.600195 35.8642 1.33789V3.8623C35.8642 4.38281 36.1636 4.83369 36.5986 5.05479C36.5986 14.5698 36.6123 13.9065 36.5655 14.2652C36.5654 14.2662 36.5655 14.2673 36.5653 14.2684C36.4366 15.2531 35.9265 16.1688 35.1201 16.834C33.5531 18.1267 32.6545 20.0319 32.6545 22.0611V23.6285C32.2386 22.4177 31.7371 21.2362 31.1519 20.0973C29.3106 16.5139 28.6319 11.8618 28.4878 7.83809C28.9333 7.51016 29.2241 6.98379 29.2241 6.38945V1.79961C29.2242 0.807324 28.4169 0 27.4246 0H23.9681C22.9758 0 22.1685 0.807324 22.1685 1.79961V6.38945C22.1685 6.98379 22.4593 7.51016 22.9048 7.83809C22.7606 11.864 22.0814 16.5149 20.2407 20.0973C19.2015 22.1197 18.4249 24.2753 17.9271 26.4934C17.7666 25.6459 17.5835 24.8047 17.3758 23.9717C15.7132 17.3056 14.9162 11.4811 14.5376 7.6793C14.6845 7.44688 14.7708 7.17246 14.7708 6.87773V1.50664C14.771 0.675879 14.0951 0 13.2644 0H9.2708C8.44004 0 7.76416 0.675879 7.76416 1.50664V6.87773C7.76416 7.17236 7.85049 7.44668 7.99727 7.6791C7.61865 11.4809 6.82178 17.3055 5.15908 23.9716C4.23438 27.6792 3.79688 31.4914 3.79688 35.1862V48.216C3.79688 49.1997 4.59707 49.9999 5.58076 49.9999H16.9544C17.4249 49.9999 17.8521 49.8155 18.1712 49.5169C18.5615 49.8192 19.0508 49.9999 19.5816 49.9999H31.8111C32.4865 49.9999 33.0949 49.7084 33.5174 49.2445C34.0113 49.7122 34.6772 49.9999 35.4095 49.9999H43.4478C44.9669 50 46.2027 48.7641 46.2027 47.245ZM34.1193 24.5572H44.7379V42.2308H34.1193C34.1193 41.6109 34.1193 25.1745 34.1193 24.5572ZM40.798 13.9783C40.3786 14.2028 39.9119 14.3201 39.4286 14.3201C38.9453 14.3201 38.4786 14.2029 38.0593 13.9784C38.0654 13.8266 38.0635 14.427 38.0635 5.20029H40.7939C40.7938 14.4271 40.792 13.8269 40.798 13.9783ZM37.329 1.46484H41.5282V3.73535H41.5263H37.331H37.3289V1.46484H37.329ZM36.0522 17.964C36.8691 17.29 37.4621 16.4228 37.7846 15.4652C38.3023 15.6757 38.8577 15.7849 39.4286 15.7849C39.9995 15.7849 40.5549 15.6756 41.0728 15.4651C41.3952 16.4227 41.9881 17.2899 42.8051 17.9639C44.0334 18.9773 44.738 20.4707 44.738 22.061V23.0924H34.1193V22.061C34.1193 20.4707 34.8238 18.9773 36.0522 17.964ZM24.3587 8.18896H27.0341C27.1706 11.4863 27.6353 14.9418 28.6977 18.0375C27.3116 20.2503 24.0812 20.2506 22.695 18.0375C23.7574 14.9422 24.2222 11.4868 24.3587 8.18896ZM23.6334 1.79961C23.6334 1.61504 23.7836 1.46484 23.9682 1.46484H27.4247C27.6093 1.46484 27.7595 1.61504 27.7595 1.79961V6.38945C27.7595 6.5792 27.6019 6.72422 27.4247 6.72422H23.9682C23.7908 6.72422 23.6334 6.5791 23.6334 6.38945V1.79961ZM21.5437 20.7667C21.7328 20.3987 21.9121 20.0171 22.0826 19.6231C24.0465 21.676 27.3457 21.6764 29.31 19.6231C29.4805 20.0171 29.6598 20.3987 29.8488 20.7667C31.4078 23.8006 32.3421 27.1511 32.5883 30.5523H18.8043C19.0505 27.1511 19.9849 23.8006 21.5437 20.7667ZM5.26172 35.1863C5.26172 32.6062 5.47998 30.0283 5.92109 27.4601H16.6139C16.6156 27.4704 16.6176 27.4807 16.6193 27.491C17.0628 30.0665 17.2734 32.6706 17.2734 35.1863V45.1031H5.26172V35.1863ZM9.229 1.50664C9.229 1.48516 9.24932 1.46484 9.2708 1.46484H13.2645C13.2859 1.46484 13.3062 1.48516 13.3062 1.50664V6.87773C13.3062 6.88779 13.3016 6.89736 13.2946 6.90488C13.2935 6.90596 13.2921 6.90674 13.2909 6.90781C13.2851 6.91299 13.2802 6.91533 13.2759 6.91689C13.2722 6.91816 13.2685 6.91943 13.2646 6.91943H9.2708C9.2668 6.91943 9.26309 6.91807 9.25938 6.91689C9.25508 6.91523 9.2502 6.91299 9.24434 6.90781C9.24326 6.90684 9.24189 6.90605 9.24082 6.90508C9.23379 6.89746 9.2291 6.88779 9.2291 6.87773L9.229 1.50664ZM9.39756 8.38428H13.1374C13.542 12.2354 14.3507 17.8948 15.9546 24.3261C16.0925 24.8788 16.2184 25.4356 16.3348 25.9952H6.20029C6.3167 25.4356 6.44258 24.8789 6.58047 24.3261C8.18438 17.8949 8.99307 12.2355 9.39756 8.38428ZM17.2734 48.2161C17.2734 48.392 17.1303 48.5352 16.9543 48.5352H5.58066C5.40479 48.5352 5.26162 48.392 5.26162 48.2161V46.568H17.2733C17.2734 47.505 17.2734 47.2693 17.2734 48.2161ZM32.6545 47.6918C32.6545 48.1568 32.2762 48.5352 31.8111 48.5352H19.5816C19.1166 48.5352 18.7383 48.1568 18.7383 47.6918C18.7383 47.1959 18.7383 35.8643 18.7383 35.1862V32.3646C18.7383 32.2487 18.7393 32.1329 18.7409 32.0171H32.6519C32.6535 32.1329 32.6545 32.2488 32.6545 32.3646V47.6918ZM43.4478 48.5352H35.4095C34.698 48.5352 34.1192 47.9563 34.1192 47.245V43.6956H44.7378V47.245C44.7379 47.9563 44.1591 48.5352 43.4478 48.5352Z" fill="#1E3D65"/>
<path d="M14.3318 35.4839H8.20518C7.54922 35.4839 7.01562 36.0175 7.01562 36.6734V42.0456C7.01562 42.7015 7.54922 43.2351 8.20518 43.2351H14.3318C14.9878 43.2351 15.5214 42.7015 15.5214 42.0456V36.6734C15.5214 36.0176 14.9878 35.4839 14.3318 35.4839ZM14.0565 41.7702H8.48047V36.9487H14.0565V41.7702Z" fill="#FF5500"/>
<path d="M9.95117 33.6279H12.5879C12.9925 33.6279 13.3203 33.3 13.3203 32.8955C13.3203 32.491 12.9925 32.1631 12.5879 32.1631H9.95117C9.54658 32.1631 9.21875 32.491 9.21875 32.8955C9.21875 33.3 9.54658 33.6279 9.95117 33.6279Z" fill="#FF5500"/>
<path d="M29.9993 33.4819H27.4054C27.0008 33.4819 26.6729 33.8099 26.6729 34.2144C26.6729 34.6188 27.0008 34.9468 27.4054 34.9468H29.7248V39.7727H21.668V34.9468H23.9874C24.392 34.9468 24.7198 34.6188 24.7198 34.2144C24.7198 33.8099 24.392 33.4819 23.9874 33.4819H21.3935C20.737 33.4819 20.2031 34.0159 20.2031 34.6723V40.0471C20.2031 40.7034 20.7371 41.2374 21.3935 41.2374H29.9992C30.6557 41.2374 31.1896 40.7034 31.1896 40.0471V34.6723C31.1897 34.016 30.6558 33.4819 29.9993 33.4819Z" fill="#1E3D65"/>
<path d="M41.7819 29.3916H37.0739C36.3848 29.3916 35.8242 29.9522 35.8242 30.6413V39.1934C35.8242 39.8824 36.3848 40.4431 37.0739 40.4431H41.7819C42.4711 40.4431 43.0316 39.8824 43.0316 39.1934V36.6264C43.0316 36.2219 42.7038 35.8939 42.2992 35.8939C41.8946 35.8939 41.5668 36.2219 41.5668 36.6264V38.9782H37.2892V30.8564H41.5669V33.2084C41.5669 33.6129 41.8947 33.9408 42.2993 33.9408C42.7039 33.9408 43.0317 33.6129 43.0317 33.2084V30.6413C43.0316 29.9522 42.4711 29.3916 41.7819 29.3916Z" fill="#FF5500"/>
</svg>
