<svg width="50" height="50" viewBox="0 0 50 50" fill="none" xmlns="http://www.w3.org/2000/svg">
<path d="M19.7604 45.6496H25.4475C26.5862 45.6496 27.5126 44.7232 27.5126 43.5846C27.5126 42.4818 27.5126 33.6855 27.5126 32.4596C27.5126 31.0478 26.8874 29.7222 25.7973 28.8228C25.2215 28.3479 24.9139 27.6745 24.9139 27.0004V23.5433C25.206 23.3385 25.3978 22.9999 25.3978 22.6169V20.563C25.3978 19.9392 24.8902 19.4316 24.2663 19.4316H20.9415C20.3177 19.4316 19.8102 19.9392 19.8102 20.563V22.6169C19.8102 22.9999 20.002 23.3385 20.294 23.5433V27.0004C20.294 27.6696 19.9901 28.3447 19.4107 28.8228C18.3205 29.7221 17.6953 31.0478 17.6953 32.4596V43.5846C17.6954 44.7232 18.6218 45.6496 19.7604 45.6496ZM25.4476 44.1848H19.7605C19.4295 44.1848 19.1604 43.9155 19.1604 43.5846V41.4956H26.0479V43.5846C26.0479 43.9155 25.7785 44.1848 25.4476 44.1848ZM19.1603 34.3541H26.0479V40.0308H19.1603V34.3541ZM23.4491 26.9546C22.8849 27.1582 22.3235 27.1582 21.759 26.9546V23.7481H23.4491V26.9546ZM21.2751 20.8963H23.933V22.2833H21.2751V20.8963ZM20.3431 29.9525C20.8571 29.5283 21.2454 28.995 21.4843 28.4044C22.23 28.6237 22.9463 28.633 23.7237 28.4044C23.9626 28.995 24.3509 29.5284 24.865 29.9525C25.6167 30.5728 26.0478 31.4864 26.0478 32.4595V32.8892H19.1602V32.4595C19.1603 31.4864 19.5914 30.5727 20.3431 29.9525Z" fill="#1E3D65"/>
<path d="M8.44551 50H41.5586C43.9792 50 45.8888 47.8987 45.629 45.471L44.4814 34.7441C44.4386 34.3419 44.0784 34.0509 43.6753 34.0938C43.2731 34.1368 42.9818 34.4978 43.025 34.8999L44.1726 45.6267C44.3387 47.1812 43.1178 48.5352 41.5586 48.5352H39.9022C40.5924 47.7104 40.9555 46.6013 40.8346 45.471L38.0096 19.0631C39.0973 19.5088 40.323 19.3763 41.2934 18.7127L42.6593 31.482C42.7021 31.8843 43.0626 32.1751 43.4654 32.1324C43.8676 32.0895 44.1589 31.7284 44.1157 31.3263L42.5105 16.3212C42.3992 15.2801 41.5257 14.495 40.4786 14.495H38.4137V11.0146C38.4139 4.94111 33.4727 0 27.3993 0C26.5762 0 25.7741 0.0915039 25.0021 0.263477C24.2301 0.0915039 23.428 0 22.6049 0C16.5314 0 11.5903 4.94111 11.5903 11.0146V14.4949H9.52539C8.47832 14.4949 7.60488 15.28 7.49355 16.321L4.37519 45.471C4.1165 47.8887 6.01474 50 8.44551 50ZM41.0542 16.4769L41.0911 16.8222C40.4118 18.0373 38.7324 18.2229 37.8066 17.1662L37.7162 16.321C37.7041 16.2074 37.6802 16.0803 37.6447 15.9597H40.4788C40.7753 15.9598 41.0227 16.1821 41.0542 16.4769ZM36.949 11.0146V14.4949C34.4212 14.4949 38.1169 14.4949 33.6194 14.4949V11.0146C33.6194 6.95615 31.4128 3.40381 28.1366 1.49307C33.0592 1.8707 36.949 5.99697 36.949 11.0146ZM13.0552 11.0146C13.0552 5.99688 16.945 1.8707 21.8676 1.49307C18.5914 3.40381 16.3848 6.95615 16.3848 11.0146V14.4949H13.0552V11.0146ZM5.83174 45.6268L8.9501 16.4768C8.98164 16.182 9.2289 15.9598 9.52549 15.9598H11.5905V18.3035C11.5905 18.708 11.9184 19.0359 12.3229 19.0359C12.7275 19.0359 13.0554 18.708 13.0554 18.3035V15.9598H20.8961C21.3007 15.9598 21.6285 15.6318 21.6285 15.2273C21.6285 14.8229 21.3007 14.4949 20.8961 14.4949H17.8498V11.0146C17.8498 6.57647 20.8931 2.83584 25.0023 1.76963C29.1116 2.83584 32.1549 6.57647 32.1549 11.0146V14.4949H24.3142C23.9096 14.4949 23.5817 14.8229 23.5817 15.2273C23.5817 15.6318 23.9096 15.9598 24.3142 15.9598H32.1549V18.3035C32.1549 18.708 32.4827 19.0359 32.8873 19.0359C33.2919 19.0359 33.6197 18.708 33.6197 18.3035V15.9598H35.6847C35.9811 15.9598 36.2285 16.182 36.2602 16.4769L39.3785 45.6268C39.5443 47.1812 38.3234 48.5352 36.7643 48.5352H8.44551C6.88389 48.5352 5.66562 47.1787 5.83174 45.6268Z" fill="#1E3D65"/>
<path d="M19.168 34.3516V32.8945H26.043V34.3516H19.168Z" fill="#FF5500"/>
<path d="M19.168 41.4922V40.0352H26.043V41.4922H19.168Z" fill="#FF5500"/>
</svg>
