<svg width="50" height="50" viewBox="0 0 50 50" fill="none" xmlns="http://www.w3.org/2000/svg">
<g clip-path="url(#clip0_501_15910)">
<path d="M11.4502 2.92969C10.5988 2.92969 9.90625 3.62227 9.90625 4.47363V45.5264C9.90625 46.3777 10.5988 47.0703 11.4502 47.0703H38.5523C39.4036 47.0703 40.0962 46.3777 40.0962 45.5264V4.47363C40.0962 3.62227 39.4036 2.92969 38.5523 2.92969H11.4502ZM38.6313 4.47363V45.5264C38.6313 45.5699 38.596 45.6055 38.5523 45.6055H11.4502C11.4066 45.6055 11.3711 45.57 11.3711 45.5264V4.47363C11.3711 4.43008 11.4065 4.39453 11.4502 4.39453H38.5523C38.596 4.39453 38.6313 4.42998 38.6313 4.47363Z" fill="#1E3D65"/>
<path d="M23.5758 17.8101V14.9823C23.8216 14.7869 23.98 14.486 23.98 14.1483V12.4326C23.98 11.845 23.5019 11.3669 22.9143 11.3669H20.137C19.5493 11.3669 19.0713 11.8451 19.0713 12.4326V14.1483C19.0713 14.486 19.2297 14.7869 19.4755 14.9823V17.8101C19.4755 18.3353 19.2362 18.8643 18.7814 19.2395C17.843 20.0139 17.3047 21.155 17.3047 22.3707V31.664C17.3047 32.6817 18.1327 33.5096 19.1504 33.5096H23.901C24.9188 33.5096 25.7467 32.6816 25.7467 31.664C25.7467 30.6532 25.7467 23.2792 25.7467 22.3707C25.7467 21.1551 25.2084 20.0139 24.2699 19.2395H24.2698C23.8124 18.8621 23.5758 18.3317 23.5758 17.8101ZM22.1109 17.6864C21.7103 17.8105 21.3408 17.8105 20.9402 17.6864V15.214H22.1109V17.6864ZM20.536 12.8317H22.5151V13.7492H20.536V12.8317ZM24.2817 28.5747H18.7693V24.0737H24.2817V28.5747ZM23.9009 32.0448H19.1503C18.9403 32.0448 18.7694 31.874 18.7694 31.664V30.0396H24.2818V31.664C24.2817 31.874 24.1108 32.0448 23.9009 32.0448ZM24.2817 22.3706V22.6088H18.7693V22.3706C18.7693 21.5939 19.1135 20.8644 19.7135 20.3694C20.1292 20.0265 20.4492 19.6006 20.6585 19.1292C21.2389 19.2802 21.7938 19.285 22.3926 19.1292C22.6019 19.6007 22.9219 20.0265 23.3376 20.3694H23.3375C23.9376 20.8644 24.2817 21.5939 24.2817 22.3706Z" fill="#1E3D65"/>
<path d="M32.6826 26.423L32.1765 21.266C32.1284 20.7772 31.7219 20.4087 31.2308 20.4087H27.9237C27.4323 20.4087 27.0258 20.7775 26.9781 21.2661L26.6061 25.0567L26.472 26.423C26.3225 27.9466 27.3069 29.3868 28.8448 29.7594V31.6595C28.6563 31.6784 28.4689 31.7089 28.2848 31.7536L27.5277 31.9377C27.1347 32.0333 26.8935 32.4294 26.989 32.8225C27.0846 33.2153 27.4806 33.4566 27.8737 33.3612L28.6309 33.1771C28.8355 33.1273 29.046 33.1021 29.2566 33.1021H29.8979C30.1084 33.1021 30.3191 33.1273 30.5236 33.1771L31.2806 33.3612C31.6743 33.4567 32.0699 33.2151 32.1654 32.8226C32.261 32.4295 32.0198 32.0334 31.6268 31.9377L30.8698 31.7536C30.6856 31.7089 30.4982 31.6784 30.3097 31.6595V29.7594C31.8484 29.3867 32.832 27.9458 32.6826 26.423ZM30.7643 21.8735L31.0118 24.3959H28.1429L28.3904 21.8735H30.7643ZM27.9299 26.5661L27.9991 25.8607H31.1556L31.2248 26.5661C31.3203 27.5401 30.5583 28.3832 29.5774 28.3832C28.5986 28.3833 27.8342 27.5422 27.9299 26.5661Z" fill="#1E3D65"/>
<path d="M20.5586 36.5073C20.5586 36.9119 20.8864 37.2397 21.291 37.2397H28.7129C29.1175 37.2397 29.4453 36.9119 29.4453 36.5073C29.4453 36.1027 29.1175 35.7749 28.7129 35.7749H21.291C20.8864 35.7749 20.5586 36.1027 20.5586 36.5073Z" fill="#FF5500"/>
<path d="M22.8379 38.6394C22.4333 38.6394 22.1055 38.9672 22.1055 39.3718C22.1055 39.7764 22.4333 40.1042 22.8379 40.1042H27.1674C27.572 40.1042 27.8998 39.7764 27.8998 39.3718C27.8998 38.9672 27.572 38.6394 27.1674 38.6394H22.8379Z" fill="#FF5500"/>
<path d="M36.0938 9.53027C34.8777 9.11953 33.9064 8.14824 33.4957 6.93213C33.2789 6.29043 32.6762 5.85938 31.9958 5.85938H26.7102C26.3056 5.85938 25.9777 6.18721 25.9777 6.5918C25.9777 6.99639 26.3056 7.32422 26.7102 7.32422H31.9958C32.0473 7.32422 32.0924 7.35498 32.1078 7.40088C32.6639 9.04707 33.9787 10.3619 35.6251 10.9182C35.6709 10.9336 35.7016 10.9785 35.7016 11.0301V38.97C35.7016 39.0207 35.6701 39.0667 35.6249 39.0819C33.9788 39.638 32.664 40.9528 32.1078 42.5991C32.0924 42.645 32.0473 42.6758 31.9958 42.6758H18.0065C17.9551 42.6758 17.9102 42.6451 17.8946 42.5991C17.3386 40.9529 16.0237 39.6381 14.3772 39.0818C14.3314 39.0664 14.3008 39.0215 14.3008 38.9699V11.03C14.3008 10.9785 14.3314 10.9336 14.3774 10.9181C16.0235 10.3619 17.3384 9.04707 17.8947 7.40068C17.9102 7.35488 17.9551 7.32422 18.0066 7.32422H23.2922C23.6968 7.32422 24.0246 6.99639 24.0246 6.5918C24.0246 6.18721 23.6968 5.85938 23.2922 5.85938H18.0065C17.3261 5.85938 16.7233 6.29053 16.5068 6.93203C16.096 8.14805 15.1247 9.11934 13.9088 9.53008C13.2671 9.74678 12.8359 10.3495 12.8359 11.0299V38.9698C12.8359 39.6503 13.2671 40.253 13.9086 40.4695C15.1247 40.8803 16.096 41.8516 16.5066 43.0676C16.7233 43.7093 17.3261 44.1404 18.0064 44.1404H31.9957C32.6761 44.1404 33.2788 43.7094 33.4955 43.0678C33.9062 41.8517 34.8775 40.8804 36.0935 40.4697C36.7352 40.253 37.1663 39.6503 37.1663 38.9699V11.03C37.1664 10.3495 36.7353 9.74687 36.0938 9.53027Z" fill="#1E3D65"/>
<path d="M42.2934 24.0234C42.6979 24.0234 43.0258 23.6956 43.0258 23.291V2.06846C43.0258 0.92793 42.0979 0 40.9574 0H9.04492C7.90449 0 6.97656 0.92793 6.97656 2.06846V47.9316C6.97656 49.0722 7.90449 50.0001 9.04502 50.0001H40.9574C42.0979 50.0001 43.0259 49.0722 43.0259 47.9316V26.709C43.0259 26.3044 42.698 25.9766 42.2935 25.9766C41.8889 25.9766 41.561 26.3044 41.561 26.709V47.9315C41.561 48.2644 41.2903 48.5352 40.9574 48.5352H9.04492C8.71211 48.5352 8.44131 48.2645 8.44131 47.9315V2.06846C8.44131 1.73564 8.71201 1.46484 9.04492 1.46484H40.9573C41.2901 1.46484 41.5609 1.73555 41.5609 2.06846V23.291C41.5609 23.6956 41.8889 24.0234 42.2934 24.0234Z" fill="#1E3D65"/>
<path d="M28 25.875L28.1562 24.4062H31L31.1562 25.875H28Z" fill="#FF5500"/>
<path d="M21.5938 17.7812C21.4187 17.7812 21.0729 17.7188 20.9219 17.6875L20.6719 19.125C20.8281 19.1615 21.0312 19.2656 21.5156 19.2656C21.8781 19.2656 22.276 19.1615 22.3906 19.125L22.1094 17.6875C22.0104 17.7188 21.7687 17.7812 21.5938 17.7812Z" fill="#FF5500"/>
</g>
<defs>
<clipPath id="clip0_501_15910">
<rect width="50" height="50" fill="white"/>
</clipPath>
</defs>
</svg>
