<svg width="841" height="368" viewBox="0 0 841 368" fill="none" xmlns="http://www.w3.org/2000/svg">
<path d="M268.944 289.12H225.991V363.116H152.288V289.12H0V236.615L156.437 6.08016H225.991V230.51H268.944V289.12ZM152.288 230.51V169.945C152.288 164.247 152.369 157.491 152.532 149.676C152.857 141.861 153.183 134.046 153.508 126.232C153.834 118.417 154.159 111.498 154.484 105.474C154.972 99.2871 155.298 94.9727 155.461 92.5306H153.508C150.417 99.2057 147.163 105.718 143.746 112.067C140.329 118.254 136.343 124.766 131.788 131.604L66.3819 230.51H152.288Z" fill="#1E3D65" fill-opacity="0.1"/>
<path d="M544.966 184.598C544.966 213.415 542.688 239.138 538.133 261.768C533.74 284.399 526.581 303.61 516.656 319.402C506.894 335.194 494.041 347.242 478.096 355.545C462.151 363.848 442.79 368 420.012 368C391.377 368 367.866 360.755 349.481 346.265C331.096 331.613 317.51 310.611 308.725 283.259C299.939 255.745 295.546 222.858 295.546 184.598C295.546 146.013 299.532 113.044 307.504 85.6928C315.639 58.1784 328.818 37.0949 347.041 22.4423C365.263 7.78963 389.587 0.463318 420.012 0.463318C448.485 0.463318 471.913 7.78963 490.299 22.4423C508.846 36.9321 522.595 57.9342 531.543 85.4485C540.492 112.8 544.966 145.85 544.966 184.598ZM370.47 184.598C370.47 211.787 371.934 234.498 374.862 252.733C377.954 270.804 383.079 284.399 390.238 293.516C397.396 302.633 407.321 307.192 420.012 307.192C432.54 307.192 442.383 302.714 449.542 293.76C456.864 284.643 462.07 271.048 465.161 252.977C468.253 234.743 469.798 211.95 469.798 184.598C469.798 157.409 468.253 134.698 465.161 116.463C462.07 98.2289 456.864 84.5531 449.542 75.4359C442.383 66.1559 432.54 61.5159 420.012 61.5159C407.321 61.5159 397.396 66.1559 390.238 75.4359C383.079 84.5531 377.954 98.2289 374.862 116.463C371.934 134.698 370.47 157.409 370.47 184.598Z" fill="#1E3D65" fill-opacity="0.1"/>
<path d="M841 289.12H798.047V363.116H724.344V289.12H572.056V236.615L728.492 6.08016H798.047V230.51H841V289.12ZM724.344 230.51V169.945C724.344 164.247 724.425 157.491 724.588 149.676C724.913 141.861 725.238 134.046 725.564 126.232C725.889 118.417 726.215 111.498 726.54 105.474C727.028 99.2871 727.354 94.9727 727.516 92.5306H725.564C722.473 99.2057 719.219 105.718 715.802 112.067C712.385 118.254 708.399 124.766 703.843 131.604L638.438 230.51H724.344Z" fill="#1E3D65" fill-opacity="0.1"/>
</svg>
