<svg width="841" height="410" viewBox="0 0 841 410" fill="none" xmlns="http://www.w3.org/2000/svg">
<path d="M268.944 331.12H225.991V405.116H152.288V331.12H0V278.615L156.437 48.0802H225.991V272.51H268.944V331.12ZM152.288 272.51V211.945C152.288 206.247 152.369 199.491 152.532 191.676C152.857 183.861 153.183 176.046 153.508 168.232C153.834 160.417 154.159 153.498 154.484 147.474C154.972 141.287 155.298 136.973 155.461 134.531H153.508C150.417 141.206 147.163 147.718 143.746 154.067C140.329 160.254 136.343 166.766 131.788 173.604L66.3819 272.51H152.288Z" fill="#1E3D65" fill-opacity="0.1"/>
<path d="M544.966 226.598C544.966 255.415 542.688 281.138 538.133 303.768C533.74 326.399 526.581 345.61 516.656 361.402C506.894 377.194 494.041 389.242 478.096 397.545C462.151 405.848 442.79 410 420.012 410C391.377 410 367.866 402.755 349.481 388.265C331.096 373.613 317.51 352.611 308.725 325.259C299.939 297.745 295.546 264.858 295.546 226.598C295.546 188.013 299.532 155.044 307.504 127.693C315.639 100.178 328.818 79.0949 347.041 64.4423C365.263 49.7896 389.587 42.4633 420.012 42.4633C448.485 42.4633 471.913 49.7896 490.299 64.4423C508.846 78.9321 522.595 99.9342 531.543 127.449C540.492 154.8 544.966 187.85 544.966 226.598ZM370.47 226.598C370.47 253.787 371.934 276.498 374.862 294.733C377.954 312.804 383.079 326.399 390.238 335.516C397.396 344.633 407.321 349.192 420.012 349.192C432.54 349.192 442.383 344.714 449.542 335.76C456.864 326.643 462.07 313.048 465.161 294.977C468.253 276.743 469.798 253.95 469.798 226.598C469.798 199.409 468.253 176.698 465.161 158.463C462.07 140.229 456.864 126.553 449.542 117.436C442.383 108.156 432.54 103.516 420.012 103.516C407.321 103.516 397.396 108.156 390.238 117.436C383.079 126.553 377.954 140.229 374.862 158.463C371.934 176.698 370.47 199.409 370.47 226.598Z" fill="#1E3D65" fill-opacity="0.1"/>
<path d="M841 331.12H798.047V405.116H724.344V331.12H572.056V278.615L728.492 48.0802H798.047V272.51H841V331.12ZM724.344 272.51V211.945C724.344 206.247 724.425 199.491 724.588 191.676C724.913 183.861 725.238 176.046 725.564 168.232C725.889 160.417 726.215 153.498 726.54 147.474C727.028 141.287 727.354 136.973 727.516 134.531H725.564C722.473 141.206 719.219 147.718 715.802 154.067C712.385 160.254 708.399 166.766 703.843 173.604L638.438 272.51H724.344Z" fill="#1E3D65" fill-opacity="0.1"/>
<path d="M531.981 207.423C534.867 214.295 537.209 222.71 535.757 230.193C534.271 237.851 527.627 243.343 519.825 243.411C519.062 243.417 518.303 243.381 517.547 243.308C517.169 243.271 516.794 243.225 516.419 243.169C513.388 242.603 510.382 241.062 507.004 241.096C506.372 241.012 505.899 240.848 505.74 240.435C505.512 240.026 505.461 239.679 505.544 239.386C505.628 239.093 505.845 238.854 506.153 238.663C510.591 236.436 514.91 239.176 519.168 239.75C519.513 239.761 519.86 239.759 520.207 239.747C520.555 239.734 520.903 239.71 521.252 239.674C525.417 239.248 529.205 236.636 531.057 232.876C532.762 229.416 532.731 225.35 532.216 221.61C531.601 217.148 530.216 212.608 528.477 208.468C527.568 206.304 531.077 205.268 531.982 207.421L531.981 207.423Z" fill="#300000"/>
<path d="M556.327 60.5353C556.124 60.6252 555.922 60.7136 555.719 60.8036C555.236 60.9958 554.833 61.2904 554.511 61.6858C554.114 62.0316 553.829 62.4595 553.652 62.9696C553.438 63.4643 553.362 63.9744 553.423 64.4969C553.395 65.0055 553.494 65.4955 553.722 65.9637C553.894 66.249 554.067 66.5343 554.239 66.8196C554.681 67.37 555.23 67.7732 555.886 68.0306C556.226 68.1127 556.567 68.1934 556.906 68.2755C557.591 68.3422 558.248 68.2368 558.879 67.9608C559.082 67.8709 559.283 67.7825 559.486 67.6925C559.97 67.5003 560.372 67.2057 560.695 66.8103C561.091 66.4645 561.376 66.035 561.553 65.5265C561.767 65.0318 561.843 64.5217 561.782 63.9992C561.81 63.4906 561.711 63.0007 561.483 62.5324C561.311 62.2471 561.138 61.9618 560.966 61.6765C560.524 61.1261 559.976 60.7229 559.319 60.4655C558.979 60.3834 558.638 60.3027 558.299 60.2206C557.614 60.1539 556.957 60.2593 556.327 60.5353Z" fill="#1E3D65"/>
<path d="M564.806 20.1952C565.772 19.4696 566.575 18.485 567.125 17.4834C569.485 13.1915 574.512 9.56946 579.201 13.2101C583.536 16.8693 579.373 22.4249 576.252 25.6159C575.837 26.0252 575.412 26.4284 574.981 26.8237C571.966 29.5992 568.645 32.0971 565.862 35.0958C561.301 40.0094 558.254 46.2751 558.26 53.0618C558.462 55.1798 560.179 55.0976 561.776 54.617C562.974 54.2557 563.811 52.6974 564.37 51.657C566.123 45.9014 569.553 41.3832 573.935 38.0682C580.005 33.4755 587.097 28.6037 589.37 20.9116C590.712 16.3716 589.739 11.4379 587.16 7.52122C584.091 2.85879 579.944 1.41369 574.758 0.0941909C574.112 0.0244171 573.458 -0.00658964 572.8 0.001163C564.753 0.106599 553.042 8.40656 556.621 17.5903C557.486 19.8091 559.743 21.5907 562.109 21.3302C563.089 21.2217 564.004 20.7984 564.807 20.1952H564.806Z" fill="#1E3D65"/>
<path d="M565.632 86.6214C565.506 86.5981 565.381 86.5748 565.255 86.5531C564.962 86.488 564.674 86.4989 564.392 86.5826C564.091 86.6198 563.816 86.7314 563.568 86.9175C563.306 87.085 563.104 87.3036 562.963 87.5718C562.785 87.806 562.675 88.0711 562.632 88.3688C562.622 88.5611 562.612 88.7533 562.602 88.9456C562.635 89.3518 562.766 89.7224 562.997 90.0573C563.134 90.2062 563.269 90.355 563.405 90.5054C563.71 90.7582 564.059 90.921 564.448 90.9938C564.573 91.0171 564.699 91.0388 564.824 91.0621C565.117 91.1272 565.405 91.1163 565.687 91.0326C565.988 90.9954 566.264 90.8837 566.512 90.6977C566.774 90.5302 566.975 90.3116 567.116 90.0434C567.294 89.8092 567.404 89.5441 567.448 89.2464C567.457 89.0541 567.468 88.8619 567.477 88.6696C567.444 88.2634 567.313 87.8928 567.082 87.5579C566.946 87.409 566.811 87.2602 566.674 87.1098C566.369 86.857 566.02 86.6942 565.632 86.6214Z" fill="#FF5500"/>
<path d="M582.735 70.1083C583.431 70.0757 584.133 69.8648 584.72 69.5656C587.235 68.2818 590.808 68.181 591.868 71.4386C592.754 74.5908 588.969 75.8948 586.446 76.4065C586.115 76.467 585.783 76.5213 585.448 76.5724C583.112 76.9197 580.718 77.0376 578.418 77.5663C574.65 78.4346 571.168 80.4394 568.975 83.68C568.387 84.7561 569.233 85.274 570.15 85.5624C570.838 85.7779 571.743 85.305 572.346 84.9902C575.045 82.8102 578.145 81.7636 581.31 81.6008C585.693 81.3744 590.656 81.3465 594.231 78.4098C596.34 76.6763 597.473 74.0063 597.508 71.3006C597.552 68.0802 596.039 66.0459 593.991 63.7356C593.706 63.4922 593.404 63.2658 593.086 63.0565C589.211 60.4997 580.933 60.6671 579.67 66.2134C579.365 67.553 579.867 69.1361 581.08 69.7765C581.582 70.0416 582.157 70.1362 582.735 70.1083Z" fill="#FF5500"/>
<path d="M491.498 394.054C490.553 391.644 487.886 389.39 483.946 388.184C470.157 383.965 448.304 380.539 437.731 369.518C435.974 367.687 434.519 365.592 433.312 363.332C430.898 358.81 429.477 353.627 428.608 348.569C428.027 344.313 427.545 340.047 427.145 335.78C424.794 300.757 423.544 265.742 427.711 230.724C423.922 231.483 420.479 232.249 417.141 233.63C413.804 232.247 410.361 231.483 406.572 230.724C408.45 231.1 408.839 258.705 408.954 261.656C409.369 272.39 409.391 283.138 409.151 293.877C408.715 313.422 410.069 336.549 403.936 355.316C399.926 367.583 389.32 375.344 377.765 380.051C368.194 383.951 357.996 386.061 348.214 389.402C345.289 390.401 339.917 392.894 342.242 396.947C343.386 398.94 345.782 399.831 348.042 400.234C370.826 404.289 394.054 405.3 417.157 405.145C429.217 405.064 441.274 404.726 453.327 404.351C463.442 404.038 474.52 405.002 484.401 402.583C490.83 401.01 492.806 397.386 491.501 394.06L491.498 394.054Z" fill="#254A79"/>
<path d="M491.498 394.054C490.553 391.644 487.886 389.39 483.946 388.184C470.157 383.965 448.304 380.539 437.731 369.518C435.974 367.687 434.519 365.592 433.312 363.332C430.898 358.81 429.477 353.627 428.608 348.569C428.027 344.313 427.545 340.046 427.145 335.78C424.794 300.757 423.544 265.742 427.711 230.724C423.922 231.483 420.479 232.249 417.141 233.63C413.804 232.247 410.361 231.483 406.572 230.724C408.45 231.1 408.839 258.705 408.954 261.656C409.104 265.548 409.202 269.441 409.256 273.334C410.015 273.376 410.773 273.455 411.527 273.581C421.795 275.302 420.978 288.37 420.918 296.158C420.918 309.201 420.623 322.249 421.024 335.289C421.385 347.009 421.726 358.93 426.403 369.867C428.657 375.139 431.412 378.505 435.094 382.771C435.446 383.178 436.08 384.179 436.665 385.383C437.522 387.146 439.017 390.184 437.099 391.758C436.217 392.48 435.044 392.711 433.924 392.919C415.778 396.27 397.526 395.823 379.133 395.176C376.549 395.085 373.976 394.972 371.406 394.834C361.944 394.321 352.503 393.471 343.124 392.158C341.796 393.395 341.119 394.989 342.244 396.947C343.387 398.94 345.783 399.831 348.044 400.234C370.828 404.289 394.055 405.3 417.158 405.145C429.218 405.064 441.275 404.726 453.329 404.351C463.444 404.038 474.521 405.002 484.403 402.583C490.832 401.01 492.807 397.386 491.503 394.06L491.498 394.054Z" fill="#C3F9FC"/>
<path d="M427.709 230.721C423.921 231.479 420.477 232.245 417.14 233.627C413.802 232.244 410.359 231.479 406.571 230.721C408.449 231.096 408.838 258.702 408.952 261.653C409.093 265.289 409.186 268.926 409.24 272.565C413.258 273.437 417.403 273.928 421.587 274.13C421.967 274.148 422.348 274.164 422.729 274.178C423.375 274.333 424.526 274.621 424.526 274.333C425.103 272.029 425.103 270.012 425.132 267.835C425.146 267.408 425.157 266.98 425.169 266.554C425.501 254.61 426.29 242.666 427.712 230.723L427.709 230.721Z" fill="#254A79"/>
<path d="M424.24 274.598C423.933 274.598 423.453 274.499 422.765 274.333L422.693 274.316C422.34 274.307 421.959 274.29 421.578 274.272C417.193 274.06 413.031 273.533 409.208 272.705L409.096 272.68V272.565C409.037 268.791 408.94 265.121 408.807 261.657C408.791 261.27 408.772 260.459 408.745 259.341C408.653 255.576 408.483 248.568 408.129 242.383C407.545 232.155 406.823 230.92 406.541 230.862L406.597 230.58C410.207 231.303 413.731 232.069 417.138 233.472C420.546 232.067 424.069 231.303 427.68 230.58L427.875 230.541L427.852 230.738C426.494 242.15 425.662 253.866 425.31 266.557L425.304 266.762C425.295 267.12 425.284 267.48 425.273 267.838L425.27 268.132C425.244 270.195 425.219 272.144 424.667 274.353C424.661 274.418 424.63 274.476 424.577 274.517C424.508 274.573 424.396 274.598 424.24 274.598ZM409.381 272.447C413.159 273.258 417.265 273.776 421.593 273.986C421.973 274.004 422.352 274.02 422.734 274.034L422.833 274.055C423.206 274.145 424.182 274.381 424.385 274.3C424.931 272.116 424.956 270.179 424.982 268.131L424.987 267.835C424.997 267.473 425.008 267.115 425.018 266.757L425.024 266.552C425.374 253.925 426.198 242.263 427.543 230.904C423.996 231.616 420.535 232.38 417.196 233.763L417.14 233.787L417.084 233.763C413.818 232.41 410.432 231.65 406.964 230.951C407.959 232.818 408.605 241.767 409.033 259.338C409.061 260.454 409.079 261.264 409.095 261.651C409.228 265.083 409.324 268.717 409.381 272.452V272.447Z" fill="#254A79"/>
<path d="M491.498 394.054C490.553 391.644 487.886 389.39 483.946 388.184C470.156 383.965 448.304 380.539 437.731 369.518C435.974 367.687 434.519 365.592 433.312 363.332C430.898 358.81 429.477 353.627 428.608 348.569C428.027 344.313 427.545 340.046 427.145 335.78C425.768 315.264 424.771 294.749 425.016 274.235C419.673 274.17 414.355 273.676 409.24 272.568C409.243 272.824 409.25 273.08 409.253 273.334C410.012 273.376 410.77 273.455 411.524 273.581C421.791 275.302 420.975 288.37 420.914 296.158C420.914 309.201 420.62 322.249 421.021 335.289C421.382 347.009 421.723 358.93 426.4 369.867C428.654 375.139 431.409 378.505 435.091 382.771C435.443 383.178 436.076 384.179 436.662 385.383C437.519 387.146 439.014 390.184 437.096 391.758C436.214 392.48 435.041 392.711 433.921 392.919C415.775 396.27 397.523 395.823 379.13 395.176C376.546 395.085 373.973 394.972 371.403 394.834C361.941 394.321 352.5 393.471 343.121 392.158C341.793 393.395 341.116 394.989 342.241 396.947C343.384 398.94 345.78 399.831 348.041 400.234C370.825 404.289 394.052 405.3 417.155 405.145C429.215 405.064 441.272 404.726 453.326 404.351C463.441 404.038 474.518 405.002 484.4 402.583C490.827 401.01 492.804 397.386 491.5 394.06L491.498 394.054Z" fill="#1E3D65"/>
<path d="M518.582 23.9661C516.447 21.7427 513.94 19.8572 510.825 18.4695C503.493 15.2025 495.318 14.4474 487.444 13.4458C476.18 12.0131 464.826 11.4952 453.493 10.9091C440.849 10.2564 428.185 9.96796 415.524 9.96796C387.451 9.96796 359.623 11.4286 331.884 15.5623C329.161 15.9685 326.434 16.3732 323.761 17.0446C315.975 18.9998 310.687 23.5661 306.889 30.5404C301.741 39.9939 297.63 50.0134 293.716 60.0112C289.021 72.003 285.186 84.3421 282.374 96.9107C279.25 110.872 277.353 125.172 277.353 139.494C277.353 220.016 339.215 268.929 415.524 268.929C491.833 268.929 553.694 220.018 553.694 139.494C553.694 120.955 550.643 102.5 545.626 84.6832C541.062 68.4756 535.196 52.0617 527.261 37.1844C524.67 32.3281 522.144 27.675 518.582 23.9646V23.9661Z" fill="#254A79"/>
<path d="M544.417 84.4817C543.466 81.7078 542.593 78.875 541.754 76.0127C540.914 73.1504 540.106 70.2571 539.285 67.3623C534.218 49.325 527.884 29.4457 510.322 19.3626C506.866 17.3454 503.304 15.9592 499.669 14.9901C496.033 14.021 492.324 13.469 488.579 13.1233C472.94 12.4814 457.489 11.2425 442.051 10.706C438.192 10.5727 434.333 10.4812 430.472 10.4564C421.356 10.72 412.431 10.1432 403.241 10.0067C401.855 10.0284 400.466 10.0517 399.077 10.0796C397.689 10.106 396.304 10.137 394.92 10.1726C389.459 10.3943 383.856 10.3943 378.253 11.0161C381.236 11.275 384.273 11.427 387.309 11.5216C390.344 11.6162 393.378 11.6549 396.356 11.6875C404.945 12.1589 413.87 9.85477 422.221 13.024C425.964 14.4645 428.555 19.0742 426.827 23.1071C425.1 27.7169 419.918 29.7341 415.311 29.4457C402.931 29.1573 390.838 30.3093 378.459 31.1745C374.141 31.4629 369.534 31.1745 365.236 31.3032C362.148 31.2629 359.056 31.1652 355.956 30.9962C346.657 30.4892 337.298 29.3418 327.829 27.2129C325.962 26.9013 323.783 26.9013 322.226 28.1479C330.241 32.8196 338.703 36.4401 347.457 39.2512C350.374 40.1877 353.325 41.0359 356.301 41.8018C360.606 42.988 364.926 43.8516 369.244 44.4284C383.639 45.8689 397.236 47.3093 411.532 49.9173C414.407 50.4336 417.309 50.9965 420.278 51.6089C427.835 51.9035 435.561 52.485 443.121 53.7797C446.901 54.4262 450.64 55.2527 454.296 56.3117C470.014 60.5617 484.697 70.0695 491.607 85.0507C500.676 103.634 505.498 124.952 505.256 146.075C505.196 151.356 504.819 156.623 504.117 161.831C500.806 186.443 491.304 212.084 468.561 225.048C450.71 235.419 430.844 239.452 413.573 250.118C409.538 252.418 404.931 250.977 400.326 250.573C395.568 250.108 390.741 249.379 386.19 249.444C381.664 249.041 377.138 248.498 372.639 247.836C368.141 247.174 363.672 246.392 359.242 245.506C356.385 244.859 353.542 244.143 350.714 243.36C336.577 239.443 322.85 233.85 309.873 226.757C324.05 242.58 342.298 253.762 362.183 260.639C366.161 262.014 370.203 263.217 374.291 264.25C378.755 265.386 383.275 266.287 387.832 266.982C392.389 267.675 396.985 268.163 401.601 268.474C458.769 273.162 522.685 245.504 544.62 189.384C546.969 183.27 548.877 176.992 550.29 170.627C551.703 164.263 552.613 157.797 552.986 151.314C553.191 148.425 553.314 145.528 553.369 142.626C553.423 139.725 553.406 136.821 553.328 133.923C553.237 130.54 553.039 127.16 552.73 123.794C552.422 120.428 552.004 117.072 551.472 113.739C550.761 111.208 550.335 108.575 549.837 105.913C549.342 103.251 548.776 100.562 547.79 97.9201C547.285 95.6641 546.749 93.4158 546.185 91.1769C545.621 88.9379 545.029 86.7067 544.413 84.4863L544.417 84.4817Z" fill="#1E3D65"/>
<path d="M415.524 39.952C467.758 39.952 510.102 34.3776 510.102 27.5013C510.102 20.6249 467.758 15.0505 415.524 15.0505C363.29 15.0505 320.946 20.6249 320.946 27.5013C320.946 34.3776 363.29 39.952 415.524 39.952Z" fill="#255087"/>
<path d="M318.803 46.1045C317.594 46.3495 316.325 46.9062 315.059 47.8008C310.299 51.1639 307.312 57.0854 304.631 62.0858C299.71 71.2696 297.399 81.4659 294.722 91.4575C293.148 97.334 290.323 108.603 298.343 111.145C300.991 111.983 303.996 111.314 306.334 109.907C314.642 104.91 318.163 94.4391 320.96 85.7236C322.898 79.6843 333.985 43.036 318.803 46.103V46.1045Z" fill="#255087"/>
<path d="M303.032 126.47C300.723 144.974 301.298 163.99 307.69 181.49C308.499 183.681 309.386 185.816 310.349 187.894C326.71 223.22 364.63 242.2 402.489 245.383C445.158 248.971 496.773 234.103 516.608 192.397C516.947 191.685 517.274 190.967 517.592 190.245C520.965 182.853 523.074 174.992 524.129 166.947C524.481 164.264 524.715 161.563 524.842 158.851C525.194 148.184 525.194 137.359 522.75 126.534C500.764 125.485 479.826 133.168 458.355 134.573C456.065 134.652 453.778 134.651 451.494 134.596C440.073 134.32 428.702 132.671 417.1 132.671C398.003 132.671 378.407 128.145 359.36 126.575C353.225 126.07 347.006 125.895 340.75 125.884C339.187 125.881 337.62 125.889 336.054 125.904C326.344 125.958 316.556 125.67 306.896 126.431C305.595 126.448 304.307 126.461 303.029 126.468L303.032 126.47Z" fill="#BE1B28"/>
<path d="M412.89 139.02C473.565 139.02 522.752 133.556 522.752 126.816C522.752 120.076 473.565 114.612 412.89 114.612C352.214 114.612 303.027 120.076 303.027 126.816C303.027 133.556 352.214 139.02 412.89 139.02Z" fill="#DD3C3C"/>
<g opacity="0.43">
<path d="M522.533 126.149C522.354 125.848 522.116 125.585 521.864 125.34C520.95 124.451 519.876 124.034 518.715 123.583C517.426 123.082 516.126 122.6 514.795 122.222C513.5 121.854 512.159 121.911 510.844 121.631C509.579 121.361 508.347 120.959 507.103 120.612C505.712 120.224 504.289 119.908 502.839 119.908C507.734 154.769 503.127 195.391 474.91 219.592C472.29 221.81 469.582 223.832 466.796 225.671C441.718 242.215 410.398 243.836 381.702 239.04C377.372 238.215 373.076 237.162 368.86 235.878C360.424 233.312 352.299 229.827 344.793 225.414C339.785 222.465 335.053 219.105 330.686 215.318C325.591 210.495 321.011 205.215 316.922 199.58C335.556 227.428 369.046 242.57 402.492 245.383C434.493 248.073 471.528 240.383 496.412 218.774C499.176 216.374 501.791 213.8 504.232 211.051C522.992 190.493 527.599 161.394 524.159 134.649C524.095 134.142 524.027 133.635 523.956 133.128C523.875 131.542 523.491 130.118 523.175 128.528C523.02 127.746 522.963 126.895 522.558 126.191C522.55 126.177 522.541 126.163 522.533 126.149Z" fill="#B21628"/>
</g>
<path d="M460.49 394.635C457.566 394.751 454.646 394.872 451.719 394.993C427.978 395.91 404.658 396.198 381.048 396.773C402.642 398.502 424.523 398.502 445.975 396.834C449.339 396.628 452.625 396.397 455.905 396.145C459.169 395.894 462.432 395.621 465.695 395.333C465.119 395.044 464.544 395.044 464.078 394.618C463.239 394.53 462.041 394.527 460.49 394.634V394.635Z" fill="#254A79"/>
<path d="M460.491 393.916C439.902 394.738 419.312 395.234 398.713 395.663C392.825 395.786 386.937 395.913 381.05 396.056C380.114 396.079 380.136 397.423 381.05 397.496C392.149 398.377 403.281 398.814 414.416 398.8C425.43 398.785 436.386 398.169 447.374 397.47C453.488 397.081 459.595 396.594 465.697 396.057C466.529 395.984 466.645 394.947 465.888 394.643C465.04 394.302 464.378 393.905 463.466 393.857C462.474 393.806 461.479 393.857 460.491 393.919C459.57 393.976 459.564 395.417 460.491 395.359C461.386 395.304 462.4 395.166 463.292 395.291C464.034 395.395 464.787 395.744 465.503 396.032L465.694 394.618C443.83 396.542 421.928 397.865 399.974 397.13C393.658 396.919 387.347 396.558 381.049 396.059V397.499C401.739 396.997 422.435 396.705 443.121 396.025C448.911 395.834 454.7 395.59 460.491 395.359C461.414 395.322 461.419 393.882 460.491 393.919V393.916Z" fill="#254A79"/>
<path d="M375.498 173.011C375.005 167.598 378.501 162.352 383.622 160.785C387.564 159.603 391.551 160.83 394.438 163.8C397.233 166.883 398.391 171.113 397.331 175.161C396.197 179.634 392.699 183.202 388.227 183.892C383.455 184.601 378.679 181.953 376.646 177.512C376 176.149 375.597 174.629 375.497 173.011H375.498Z" fill="#300000"/>
<path d="M385.255 169.768C385.144 168.049 386.259 166.576 387.722 165.886C390.267 164.828 393.105 166.967 392.868 169.691C392.753 171.103 391.926 172.358 390.657 172.936C389.293 173.622 387.577 173.423 386.497 172.397C385.778 171.752 385.307 170.824 385.255 169.768Z" fill="white"/>
<path d="M454.888 167.08C454.395 161.667 457.891 156.422 463.012 154.854C466.954 153.672 470.941 154.899 473.827 157.87C476.621 160.952 477.78 165.182 476.72 169.23C475.586 173.704 472.089 177.271 467.617 177.961C462.844 178.67 458.069 176.022 456.036 171.581C455.39 170.218 454.987 168.699 454.886 167.08H454.888Z" fill="#300000"/>
<path d="M464.645 163.836C464.533 162.117 465.649 160.644 467.112 159.954C469.656 158.896 472.495 161.034 472.258 163.759C472.143 165.171 471.316 166.426 470.047 167.004C468.683 167.689 466.966 167.491 465.886 166.464C465.167 165.819 464.696 164.892 464.645 163.836Z" fill="white"/>
<path d="M386.346 185.926C386.325 185.931 386.304 185.937 386.284 185.945C386.264 185.947 386.244 185.947 386.222 185.951C382.857 186.647 378.51 188.807 377.737 192.533C376.947 196.348 380.965 198.79 384.172 199.408C387.525 200.056 391.106 199.36 394.072 197.7C396.792 196.177 399.22 193.186 397.431 190.031C395.284 186.24 390.305 185.201 386.346 185.925V185.926Z" fill="#FF5500"/>
<path d="M477.994 187.827C477.855 183.377 472.21 181.28 468.533 180.973C468.511 180.971 468.491 180.973 468.469 180.973C468.447 180.969 468.427 180.963 468.406 180.962C464.637 180.734 460.681 182.028 458.495 185.281C457.613 186.593 457.198 188.215 457.793 189.735C458.369 191.208 459.632 192.281 460.986 193.025C463.931 194.644 467.594 195.106 470.865 194.428C473.962 193.788 478.109 191.496 477.994 187.826V187.827Z" fill="#FF5500"/>
<path d="M433.156 174.657C433.016 174.671 432.877 174.69 432.737 174.707C428.518 175.253 424.334 175.75 420.071 175.764C419.12 175.767 418.472 176.392 418.138 177.223C417.97 177.639 417.882 178.106 417.885 178.565C417.91 181.349 420.789 181.647 422.966 181.52C425.994 181.345 429.062 181.273 432.009 180.478C433.275 180.137 434.975 179.631 435.7 178.425C436.473 177.14 435.67 174.933 434.126 174.667C433.805 174.611 433.479 174.623 433.154 174.657H433.156Z" fill="#300000"/>
<path d="M364.272 211.679C367.362 217.995 373.625 221.511 380.416 222.541C387.772 223.654 395.275 222.124 401.57 218.146C405.534 215.642 408.957 212.281 411.653 208.456C412.256 207.6 412.301 206.482 411.469 205.739C410.754 205.102 409.35 205.076 408.754 205.924C404.545 211.895 398.538 216.67 391.342 218.373C385.872 219.668 379.637 219.271 374.562 216.765C371.762 215.383 369.295 213.247 367.907 210.406C367.451 209.476 366.517 208.848 365.454 209.225C364.565 209.541 363.812 210.736 364.273 211.679H364.272Z" fill="#300000"/>
<path d="M413.853 193.98C411.403 194.228 409.49 196.033 408.301 198.089C407.97 197.988 407.623 197.938 407.3 197.943C406.515 197.956 405.743 198.137 405.133 198.666C404.476 199.235 404.232 200.05 404.152 200.892C404.017 202.323 404.483 203.72 405.195 204.947C407.991 209.761 414.416 210.741 418.42 206.829C420.666 204.634 421.695 201.243 420.612 198.239C419.603 195.439 416.796 193.684 413.853 193.982V193.98Z" fill="#300000"/>
<path d="M512.138 238.229C512.781 242.888 510.04 249.104 505.702 251.236C505.182 251.374 504.639 251.439 504.096 251.425C502.083 251.359 500.419 250.264 499.745 248.667C499.576 248.269 499.469 247.838 499.433 247.383C499.221 243.933 501.251 241.198 504.108 239.55C504.516 239.314 504.942 239.102 505.379 238.911C507.064 238.079 509.049 237.618 510.982 237.82C511.392 237.902 511.78 238.041 512.139 238.23L512.138 238.229Z" fill="#300000"/>
</svg>
