<svg width="183" height="80" viewBox="0 0 183 80" fill="none" xmlns="http://www.w3.org/2000/svg">
<path fill-rule="evenodd" clip-rule="evenodd" d="M66.3604 94.9752L70.6604 95.9658L76.1615 72.088C77.0486 68.2374 80.0753 65.4383 83.697 64.6525L86.3709 53.0381C86.5621 52.1966 86.6736 51.5918 86.7047 51.2227C86.4252 49.5552 86.852 48.0845 88.8718 48.081C89.4092 48.0872 90.3427 48.3041 91.7279 48.6537C93.1562 48.9522 94.0596 49.1595 94.5458 49.3882C96.3612 50.2753 96.0988 51.7847 95.1206 53.1616C94.9854 53.5067 94.821 54.0994 94.6256 54.9399L91.9401 66.5848C93.341 67.7042 94.4081 69.185 95.0319 70.851L118.834 31.2046L93.6877 25.4113L73.4651 64.1328L72.2242 20.4665L47.0781 14.6732L53.8961 92.1036L66.3595 94.975L66.3604 94.9752Z" fill="white" fill-opacity="0.53"/>
<path fill-rule="evenodd" clip-rule="evenodd" d="M36.0527 97.6062L40.1136 95.8807L30.5289 73.3294C28.983 69.6934 29.7863 65.6493 32.2552 62.8852L27.5918 51.9172C27.2519 51.124 26.9864 50.5689 26.7945 50.2517C25.5892 49.0669 25.0689 47.6259 26.701 46.4356C27.1398 46.1254 28.0218 45.7511 29.3486 45.2197C30.6798 44.622 31.5316 44.2579 32.0603 44.1578C34.0511 43.8082 34.7257 45.1841 34.7434 46.873C34.8369 47.2314 35.0524 47.8082 35.3886 48.6024L40.0609 59.602C41.8525 59.6842 43.5857 60.2542 45.0703 61.2365L41.0231 15.1715L17.275 25.2654L23.6749 68.4786L-2.9954 33.8812L-26.7443 43.9749L24.2835 102.609L36.0544 97.6066L36.0527 97.6062Z" fill="white" fill-opacity="0.53"/>
<path fill-rule="evenodd" clip-rule="evenodd" d="M92.2737 110.657L95.1703 113.986L113.656 97.9016C116.637 95.3084 120.731 94.8219 124.122 96.3154L133.113 88.4903C133.762 87.9223 134.208 87.4979 134.45 87.2178C135.205 85.705 136.415 84.7659 138.05 85.9492C138.481 86.2703 139.109 86.9934 140.025 88.0917C141.005 89.1724 141.614 89.8714 141.873 90.3424C142.821 92.127 141.721 93.1938 140.12 93.733C139.808 93.9324 139.326 94.3163 138.675 94.881L129.657 102.723C130.132 104.452 130.125 106.277 129.65 107.992L172.211 89.9079L155.273 70.4406L116.152 89.8809L140.814 53.8248L123.876 34.3573L83.8796 101.007L92.275 110.656L92.2737 110.657Z" fill="white" fill-opacity="0.53"/>
</svg>
