<svg width="557" height="560" viewBox="0 0 557 560" fill="none" xmlns="http://www.w3.org/2000/svg">
<path fill-rule="evenodd" clip-rule="evenodd" d="M0.695312 0.318356C117.64 -0.257935 178.183 0.0777069 193.837 0.318356L279.57 320.825L363.135 0.318356H556.999L449.175 329.604C442.685 321.407 434.903 316.185 427.483 311.203C424.857 309.44 422.273 307.707 419.81 305.883C419.36 295.341 417.995 208.49 421.069 200.832C423.317 195.221 424.175 189.145 421.158 183.826C415.958 174.652 406.643 174.842 394.193 175.097C392.04 175.141 389.792 175.188 387.457 175.188C385.486 175.188 383.49 175.143 381.501 175.097C369.421 174.827 357.623 174.561 353.355 184.398C350.425 191.155 351.853 194.953 353.643 199.715C353.964 200.572 354.298 201.463 354.621 202.404C355.551 205.123 355.382 240.418 355.242 269.347C355.16 286.6 355.09 301.59 355.267 306.048C354.429 306.55 353.63 307.028 352.865 307.483C341.089 314.513 337.727 316.518 328.993 326.229C308.28 349.259 309.336 385.764 310.365 421.399C310.579 428.76 310.788 436.083 310.809 443.243L310.997 560H182.757L0.695312 0.318356Z" fill="#FF6E26"/>
</svg>
