<svg width="502" height="609" viewBox="0 0 502 609" fill="none" xmlns="http://www.w3.org/2000/svg">
<path fill-rule="evenodd" clip-rule="evenodd" d="M96.291 0.141834C148.349 20.0295 175.19 30.6079 182.104 33.4115L165.053 190.972L257.323 62.5741L343.457 95.9682L238.898 224.098C237.425 219.329 234.866 215.662 232.426 212.164C231.563 210.926 230.713 209.709 229.932 208.472C231.546 203.698 245.882 164.769 248.565 161.886C250.53 159.774 251.956 157.215 251.531 154.325C250.799 149.342 246.628 147.822 241.052 145.791C240.088 145.44 239.081 145.074 238.044 144.672C237.168 144.332 236.288 143.968 235.413 143.605C230.092 141.404 224.896 139.253 221.308 142.901C218.843 145.406 218.824 147.344 218.8 149.774C218.795 150.211 218.79 150.666 218.772 151.141C218.717 152.512 212.57 168.208 207.531 181.072C204.526 188.745 201.916 195.411 201.228 197.428C200.768 197.507 200.332 197.582 199.913 197.653C193.472 198.757 191.633 199.071 186.082 201.893C172.917 208.585 167.105 225.031 161.432 241.084C160.26 244.4 159.093 247.699 157.871 250.893L137.866 302.943L80.8895 280.853L96.291 0.141834Z" fill="white" fill-opacity="0.09"/>
<path fill-rule="evenodd" clip-rule="evenodd" d="M354.771 105.26C385.058 152.114 400.484 176.534 404.41 182.888L297.782 299.946L447.922 250.932L497.747 328.85L337.848 370.376C339.47 365.655 339.567 361.182 339.66 356.915C339.693 355.406 339.724 353.92 339.823 352.46C343.94 349.563 378.454 326.631 382.318 325.893C385.148 325.35 387.808 324.129 389.168 321.546C391.514 317.092 389.044 313.397 385.742 308.458C385.17 307.605 384.574 306.713 383.974 305.775C383.467 304.982 382.972 304.169 382.48 303.357C379.483 298.432 376.558 293.622 371.512 294.442C368.047 295.006 366.889 296.558 365.437 298.505C365.176 298.855 364.904 299.219 364.609 299.591C363.757 300.666 349.544 309.694 337.896 317.093C330.949 321.506 324.913 325.341 323.169 326.562C322.752 326.354 322.355 326.156 321.975 325.966C316.127 323.045 314.458 322.21 308.315 321.203C293.746 318.813 279.363 328.645 265.323 338.243C262.423 340.225 259.537 342.197 256.668 344.05L209.846 374.216L176.887 322.674L354.771 105.26Z" fill="white" fill-opacity="0.09"/>
<path fill-rule="evenodd" clip-rule="evenodd" d="M501.659 343.072C498.434 398.802 496.463 427.635 495.88 435.085L340.81 466.311L490.814 515.739L485.013 608.096L331.557 546.848C335.652 544.002 338.37 540.452 340.962 537.066C341.879 535.868 342.781 534.689 343.723 533.57C348.753 533.672 390.119 535.628 393.671 537.322C396.274 538.561 399.139 539.152 401.761 537.875C406.281 535.673 406.47 531.229 406.721 525.29C406.764 524.263 406.809 523.191 406.879 522.079C406.938 521.14 407.019 520.19 407.101 519.244C407.591 513.497 408.07 507.885 403.517 505.556C400.39 503.958 398.54 504.524 396.22 505.234C395.803 505.361 395.369 505.493 394.911 505.619C393.59 505.98 376.801 504.841 363.04 503.906C354.833 503.349 347.702 502.866 345.576 502.817C345.362 502.403 345.159 502.008 344.965 501.63C341.972 495.809 341.119 494.147 336.759 489.695C326.421 479.136 309.019 478.544 292.032 477.965C288.524 477.846 285.033 477.725 281.625 477.521L226.064 474.107L229.901 413.014L501.659 343.072Z" fill="white" fill-opacity="0.09"/>
</svg>
