<svg width="479" height="482" viewBox="0 0 479 482" fill="none" xmlns="http://www.w3.org/2000/svg">
<path fill-rule="evenodd" clip-rule="evenodd" d="M0.559118 0.274013C101.087 -0.222008 153.133 0.0668834 166.589 0.274013L240.816 276.138L312.123 0.274013H478.774L386.628 283.695C381.035 276.64 374.337 272.145 367.951 267.857C365.69 266.34 363.466 264.848 361.345 263.278C360.941 254.204 359.625 179.45 362.255 172.859C364.178 168.029 364.906 162.8 362.303 158.221C357.819 150.325 349.811 150.489 339.109 150.708C337.258 150.747 335.326 150.787 333.319 150.787C331.625 150.787 329.908 150.748 328.199 150.708C317.814 150.476 307.672 150.247 304.019 158.714C301.511 164.53 302.745 167.798 304.291 171.897C304.569 172.635 304.857 173.402 305.137 174.212C305.94 176.552 305.853 206.932 305.781 231.831C305.739 246.68 305.703 259.582 305.863 263.42C305.143 263.852 304.457 264.263 303.801 264.655C293.689 270.706 290.802 272.432 283.31 280.79C265.542 300.612 266.511 332.033 267.454 362.704C267.649 369.04 267.841 375.343 267.871 381.506L268.225 482H157.986L0.559118 0.274013Z" fill="#324E73"/>
</svg>
