<svg width="402" height="456" viewBox="0 0 402 456" fill="none" xmlns="http://www.w3.org/2000/svg">
<g clip-path="url(#clip0_381_83065)">
<path fill-rule="evenodd" clip-rule="evenodd" d="M12.2929 -118.858C64.3507 -98.9705 91.1922 -88.3921 98.1056 -85.5885L81.0547 71.9716L173.325 -56.4259L259.459 -23.0318L154.9 105.098C153.426 100.329 150.868 96.6615 148.428 93.1639C147.565 91.9262 146.715 90.709 145.934 89.4721C147.548 84.6978 161.884 45.7688 164.567 42.8863C166.531 40.7737 167.958 38.2148 167.533 35.3251C166.801 30.3422 162.629 28.8222 157.054 26.7914C156.09 26.4403 155.083 26.0737 154.046 25.6716C153.17 25.3321 152.29 24.9684 151.415 24.6052C146.094 22.4039 140.898 20.2532 137.31 23.9007C134.845 26.4063 134.826 28.3443 134.802 30.7742C134.797 31.2114 134.792 31.6658 134.774 32.1409C134.719 33.5124 128.572 49.208 123.533 62.0722C120.528 69.7445 117.918 76.4108 117.229 78.4276C116.77 78.507 116.333 78.582 115.915 78.6534C109.474 79.7566 107.635 80.071 102.084 82.8927C88.9185 89.5853 83.1073 106.031 77.4336 122.084C76.262 125.4 75.095 128.699 73.8725 131.893L53.8683 183.943L-3.10863 161.853L12.2929 -118.858Z" fill="white" fill-opacity="0.09"/>
<path fill-rule="evenodd" clip-rule="evenodd" d="M270.771 -13.7397C301.058 33.1143 316.484 57.5343 320.41 63.8877L213.782 180.946L363.922 131.932L413.747 209.85L253.848 251.376C255.47 246.655 255.567 242.182 255.66 237.915C255.693 236.406 255.724 234.92 255.823 233.46C259.94 230.563 294.454 207.631 298.318 206.893C301.148 206.35 303.808 205.129 305.168 202.546C307.514 198.092 305.044 194.397 301.742 189.458C301.17 188.605 300.574 187.713 299.974 186.775C299.467 185.982 298.972 185.169 298.48 184.357C295.483 179.432 292.558 174.622 287.512 175.442C284.047 176.006 282.889 177.558 281.437 179.505C281.176 179.855 280.904 180.219 280.609 180.591C279.756 181.666 265.544 190.694 253.896 198.093C246.949 202.506 240.913 206.341 239.169 207.562C238.752 207.354 238.355 207.156 237.975 206.966C232.127 204.045 230.458 203.21 224.315 202.203C209.746 199.813 195.363 209.645 181.323 219.243C178.423 221.225 175.537 223.197 172.668 225.05L125.846 255.216L92.8867 203.674L270.771 -13.7397Z" fill="white" fill-opacity="0.09"/>
<path fill-rule="evenodd" clip-rule="evenodd" d="M417.657 224.072C414.432 279.802 412.461 308.635 411.878 316.085L256.808 347.311L406.812 396.739L401.011 489.096L247.555 427.848C251.65 425.002 254.368 421.452 256.96 418.066C257.877 416.868 258.779 415.689 259.721 414.57C264.751 414.672 306.117 416.628 309.669 418.322C312.272 419.561 315.137 420.152 317.759 418.875C322.279 416.673 322.468 412.229 322.719 406.29C322.762 405.263 322.807 404.191 322.877 403.079C322.936 402.14 323.017 401.19 323.099 400.244C323.589 394.497 324.068 388.885 319.515 386.556C316.388 384.958 314.538 385.524 312.218 386.234C311.801 386.361 311.367 386.493 310.909 386.619C309.588 386.98 292.799 385.841 279.038 384.906C270.831 384.349 263.7 383.866 261.574 383.817C261.36 383.403 261.157 383.008 260.963 382.63C257.97 376.809 257.117 375.147 252.757 370.695C242.419 360.136 225.017 359.544 208.03 358.965C204.522 358.846 201.031 358.725 197.623 358.521L142.062 355.107L145.899 294.014L417.657 224.072Z" fill="white" fill-opacity="0.09"/>
</g>
<defs>
<clipPath id="clip0_381_83065">
<rect width="402" height="456" fill="white"/>
</clipPath>
</defs>
</svg>
