<svg width="40" height="40" viewBox="0 0 40 40" fill="none" xmlns="http://www.w3.org/2000/svg">
<path d="M37.5 13.75C37.5006 13.311 37.3474 12.8856 37.067 12.5478C36.7866 12.21 36.3966 11.9812 35.965 11.9011C35.5334 11.8209 35.0873 11.8946 34.7043 12.1092C34.3213 12.3238 34.0256 12.6659 33.8687 13.0759C33.7117 13.4859 33.7033 13.9379 33.8451 14.3534C33.9868 14.7689 34.2696 15.1217 34.6444 15.3503C35.0192 15.5789 35.4623 15.669 35.8966 15.6048C36.3309 15.5407 36.729 15.3264 37.0217 14.9992C37.2632 15.2689 37.4215 15.6028 37.4774 15.9605C37.5333 16.3182 37.4844 16.6844 37.3367 17.0149C37.1891 17.3455 36.9488 17.6262 36.6451 17.8232C36.3413 18.0201 35.987 18.125 35.625 18.125C33.6524 18.125 32.3354 17.515 30.668 16.7427C29.7498 16.3175 28.7409 15.8505 27.5 15.4443V15C27.5 14.8342 27.4342 14.6753 27.3169 14.5581C27.1997 14.4408 27.0408 14.375 26.875 14.375C26.7092 14.375 26.5503 14.4408 26.4331 14.5581C26.3158 14.6753 26.25 14.8342 26.25 15V15.0807C24.6172 14.6645 22.6087 14.375 20 14.375C17.903 14.3764 15.8102 14.5616 13.7456 14.9285C13.7268 14.7705 13.6485 14.6255 13.5265 14.5233C13.4045 14.4211 13.2481 14.3692 13.0892 14.3783C12.9303 14.3874 12.7808 14.4568 12.6714 14.5724C12.5619 14.6879 12.5006 14.8408 12.5 15V15.1719C11.1354 15.4619 9.78942 15.8331 8.46914 16.2837C7.28369 16.6854 6.12497 17.1622 5 17.7109V8.125C5 7.95924 4.93415 7.80027 4.81694 7.68306C4.69973 7.56585 4.54076 7.5 4.375 7.5H1.875C1.70924 7.5 1.55027 7.56585 1.43306 7.68306C1.31585 7.80027 1.25 7.95924 1.25 8.125V24.375C1.25 24.5408 1.31585 24.6997 1.43306 24.8169C1.55027 24.9342 1.70924 25 1.875 25H4.375C4.54076 25 4.69973 24.9342 4.81694 24.8169C4.93415 24.6997 5 24.5408 5 24.375V19.1179C5.87023 18.6534 8.56289 17.3317 12.5 16.4538V20.363C11.0689 20.9837 9.69759 21.7341 8.40328 22.6048C8.31766 22.6619 8.24746 22.7393 8.19891 22.83C8.15036 22.9208 8.12498 23.0221 8.125 23.125V38.125C8.125 38.2908 8.19085 38.4497 8.30806 38.5669C8.42527 38.6842 8.58424 38.75 8.75 38.75H31.25C31.4158 38.75 31.5747 38.6842 31.6919 38.5669C31.8092 38.4497 31.875 38.2908 31.875 38.125V23.125C31.875 23.0221 31.8496 22.9208 31.8011 22.8301C31.7525 22.7394 31.6823 22.6621 31.5967 22.605C30.3024 21.7343 28.9311 20.9839 27.5 20.3632V16.7622C28.4896 17.112 29.3359 17.5032 30.1426 17.877C31.8059 18.6473 33.377 19.375 35.625 19.375C36.2809 19.375 36.9201 19.1686 37.4522 18.7851C37.9843 18.4016 38.3822 17.8604 38.5896 17.2382C38.797 16.616 38.8034 15.9443 38.6079 15.3182C38.4123 14.6922 38.0247 14.1435 37.5 13.75ZM35.625 14.375C35.5014 14.375 35.3806 14.3383 35.2778 14.2697C35.175 14.201 35.0949 14.1034 35.0476 13.9892C35.0003 13.875 34.9879 13.7493 35.012 13.6281C35.0361 13.5068 35.0956 13.3955 35.1831 13.3081C35.2705 13.2207 35.3818 13.1611 35.5031 13.137C35.6243 13.1129 35.75 13.1253 35.8642 13.1726C35.9784 13.2199 36.076 13.3 36.1447 13.4028C36.2133 13.5055 36.25 13.6264 36.25 13.75C36.2498 13.9157 36.1839 14.0746 36.0667 14.1917C35.9496 14.3089 35.7907 14.3748 35.625 14.375ZM3.75 23.75H2.5V8.75H3.75V23.75ZM30.625 37.5H9.375V23.4619C12.9121 21.1645 16.4854 20 20 20C23.5146 20 27.0879 21.1645 30.625 23.4619V37.5ZM26.25 19.872C22.089 18.3868 17.911 18.3868 13.75 19.872V16.1992C15.8115 15.818 17.9035 15.6257 20 15.625C22.6701 15.625 24.6498 15.9311 26.25 16.37V19.872Z" fill="#1E3D65"/>
<path d="M18.75 26.8767V23.125C18.75 22.9592 18.6842 22.8003 18.5669 22.6831C18.4497 22.5658 18.2908 22.5 18.125 22.5H15.625C15.4592 22.5 15.3003 22.5658 15.1831 22.6831C15.0658 22.8003 15 22.9592 15 23.125V26.8767C14.6119 27.1675 14.297 27.5446 14.08 27.9783C13.863 28.4119 13.75 28.8901 13.75 29.375V35.625C13.75 35.7908 13.8158 35.9497 13.9331 36.0669C14.0503 36.1842 14.2092 36.25 14.375 36.25H19.375C19.5408 36.25 19.6997 36.1842 19.8169 36.0669C19.9342 35.9497 20 35.7908 20 35.625V29.375C20 28.8901 19.887 28.4119 19.67 27.9783C19.453 27.5446 19.1381 27.1675 18.75 26.8767ZM16.25 23.75H17.5V26.3129C17.0876 26.229 16.6624 26.229 16.25 26.3129V23.75ZM16.875 27.5C17.3721 27.5006 17.8487 27.6983 18.2002 28.0498C18.5517 28.4013 18.7494 28.8779 18.75 29.375V30H15V29.375C15.0006 28.8779 15.1983 28.4013 15.5498 28.0498C15.9013 27.6983 16.3779 27.5006 16.875 27.5ZM18.75 31.25V32.5H15V31.25H18.75ZM15 35V33.75H18.75V35H15Z" fill="#1E3D65"/>
<path d="M19.5999 12.9802C19.7122 13.0737 19.8538 13.125 20 13.125C20.1462 13.125 20.2878 13.0737 20.4001 12.9802C23.3308 10.5379 24.375 7.57938 24.375 5.625C24.375 4.26758 23.9255 3.13602 23.075 2.35273C22.2917 1.63133 21.2284 1.25 20 1.25C18.7716 1.25 17.7083 1.63133 16.925 2.35273C16.0745 3.13602 15.625 4.26758 15.625 5.625C15.625 6.73187 15.9531 8.0007 16.5498 9.19781C17.2509 10.6053 18.2771 11.8779 19.5999 12.9802ZM17.7718 3.27227C18.3203 2.76703 19.0908 2.5 20 2.5C20.9092 2.5 21.6797 2.76703 22.2282 3.27227C22.8149 3.8125 23.125 4.62609 23.125 5.625C23.125 7.20758 22.2948 9.58477 20 11.6719C17.7052 9.58508 16.875 7.20789 16.875 5.625C16.875 4.62609 17.1851 3.8125 17.7718 3.27227Z" fill="#1E3D65"/>
<path d="M21.875 5.625C21.875 5.25416 21.765 4.89165 21.559 4.58331C21.353 4.27496 21.0601 4.03464 20.7175 3.89273C20.3749 3.75081 19.9979 3.71368 19.6342 3.78603C19.2705 3.85838 18.9364 4.03695 18.6742 4.29918C18.412 4.5614 18.2334 4.89549 18.161 5.25921C18.0887 5.62292 18.1258 5.99992 18.2677 6.34253C18.4096 6.68514 18.65 6.97798 18.9583 7.18401C19.2666 7.39003 19.6292 7.5 20 7.5C20.4971 7.49944 20.9737 7.30172 21.3252 6.95021C21.6767 6.5987 21.8744 6.12211 21.875 5.625ZM19.375 5.625C19.375 5.50139 19.4117 5.38055 19.4803 5.27777C19.549 5.17499 19.6466 5.09488 19.7608 5.04758C19.875 5.00027 20.0007 4.98789 20.1219 5.01201C20.2432 5.03613 20.3545 5.09565 20.4419 5.18306C20.5294 5.27047 20.5889 5.38183 20.613 5.50307C20.6371 5.62431 20.6247 5.74997 20.5774 5.86418C20.5301 5.97838 20.45 6.07599 20.3472 6.14467C20.2445 6.21335 20.1236 6.25 20 6.25C19.8343 6.24981 19.6754 6.18391 19.5583 6.06674C19.4411 5.94957 19.3752 5.7907 19.375 5.625Z" fill="#FF5500"/>
<path d="M23.1303 31.7969C23.1269 31.8228 23.1252 31.8489 23.125 31.875V35H22.5C22.3342 35 22.1753 35.0658 22.0581 35.1831C21.9408 35.3003 21.875 35.4592 21.875 35.625C21.875 35.7908 21.9408 35.9497 22.0581 36.0669C22.1753 36.1842 22.3342 36.25 22.5 36.25H25C25.1658 36.25 25.3247 36.1842 25.4419 36.0669C25.5592 35.9497 25.625 35.7908 25.625 35.625C25.625 35.4592 25.5592 35.3003 25.4419 35.1831C25.3247 35.0658 25.1658 35 25 35H24.375V31.875C24.3748 31.8489 24.3731 31.8228 24.3697 31.7969C24.9071 31.6586 25.3834 31.3457 25.7238 30.9073C26.0641 30.469 26.2492 29.93 26.25 29.375C26.25 29.3338 26.2459 29.2928 26.2379 29.2524L25.6129 26.1274C25.5846 25.9857 25.508 25.8583 25.3963 25.7666C25.2845 25.675 25.1445 25.625 25 25.625H22.5C22.3555 25.625 22.2155 25.675 22.1037 25.7666C21.992 25.8583 21.9154 25.9857 21.8871 26.1274L21.2621 29.2524C21.2541 29.2928 21.25 29.3338 21.25 29.375C21.2508 29.93 21.4359 30.469 21.7762 30.9073C22.1166 31.3457 22.5929 31.6586 23.1303 31.7969ZM23.75 30.625C23.4282 30.6246 23.119 30.5003 22.8865 30.2779C22.6539 30.0555 22.516 29.7521 22.5012 29.4307L22.5123 29.375H24.9877L24.9988 29.4307C24.984 29.7521 24.8461 30.0555 24.6135 30.2779C24.381 30.5003 24.0718 30.6246 23.75 30.625ZM24.4876 26.875L24.7376 28.125H22.7623L23.0123 26.875H24.4876Z" fill="#1E3D65"/>
<path d="M22.5078 29.3687L22.7641 28.125H24.7516L24.9891 29.3687H22.5078Z" fill="#FF5500"/>
<path d="M14.9922 33.7501V32.5063H18.7484V33.7501H14.9922Z" fill="#FF5500"/>
</svg>
