<svg width="40" height="40" viewBox="0 0 40 40" fill="none" xmlns="http://www.w3.org/2000/svg">
<path d="M15.8084 36.5195H20.358C21.269 36.5195 22.0101 35.7784 22.0101 34.8675C22.0101 33.9853 22.0101 26.9483 22.0101 25.9675C22.0101 24.8381 21.5099 23.7776 20.6378 23.0581C20.1772 22.6781 19.9311 22.1395 19.9311 21.6002V18.8345C20.1648 18.6706 20.3182 18.3998 20.3182 18.0934V16.4502C20.3182 15.9512 19.9122 15.5452 19.413 15.5452H16.7532C16.2541 15.5452 15.8481 15.9512 15.8481 16.4502V18.0934C15.8481 18.3998 16.0016 18.6706 16.2352 18.8345V21.6002C16.2352 22.1356 15.9921 22.6756 15.5286 23.0581C14.6564 23.7775 14.1562 24.8381 14.1562 25.9675V34.8675C14.1563 35.7784 14.8974 36.5195 15.8084 36.5195ZM20.358 35.3477H15.8084C15.5436 35.3477 15.3283 35.1323 15.3283 34.8675V33.1963H20.8384V34.8675C20.8383 35.1323 20.6228 35.3477 20.358 35.3477ZM15.3282 27.4831H20.8383V32.0245H15.3282V27.4831ZM18.7593 21.5635C18.3079 21.7264 17.8588 21.7264 17.4072 21.5635V18.9984H18.7593V21.5635ZM17.0201 16.7169H19.1464V17.8265H17.0201V16.7169ZM16.2745 23.9619C16.6857 23.6225 16.9963 23.1959 17.1874 22.7234C17.784 22.8988 18.357 22.9063 18.979 22.7234C19.1701 23.1959 19.4807 23.6226 19.892 23.9619C20.4934 24.4581 20.8382 25.189 20.8382 25.9674V26.3112H15.3281V25.9674C15.3282 25.189 15.6731 24.458 16.2745 23.9619Z" fill="#1E3D65"/>
<path d="M6.75562 40H33.2461C35.1826 40 36.7102 38.319 36.5024 36.3768L35.5844 27.7953C35.5501 27.4735 35.262 27.2407 34.9395 27.275C34.6177 27.3095 34.3847 27.5982 34.4192 27.9199L35.3373 36.5013C35.4702 37.745 34.4934 38.8281 33.2461 38.8281H31.921C32.4731 38.1684 32.7636 37.281 32.6669 36.3768L30.4069 15.2505C31.277 15.607 32.2577 15.501 33.0339 14.9702L34.1266 25.1856C34.1609 25.5074 34.4493 25.7401 34.7716 25.7059C35.0933 25.6716 35.3263 25.3827 35.2918 25.061L34.0077 13.057C33.9186 12.2241 33.2198 11.596 32.3821 11.596H30.7302V8.81172C30.7303 3.95289 26.7774 0 21.9187 0C21.2602 0 20.6185 0.0732031 20.0009 0.210781C19.3833 0.0732031 18.7416 0 18.0831 0C13.2244 0 9.27148 3.95289 9.27148 8.81164V11.5959H7.61953C6.78187 11.5959 6.08312 12.224 5.99406 13.0568L3.49937 36.3768C3.29242 38.3109 4.81101 40 6.75562 40ZM32.8426 13.1815L32.8721 13.4577C32.3287 14.4298 30.9852 14.5784 30.2445 13.733L30.1722 13.0568C30.1625 12.9659 30.1434 12.8642 30.115 12.7677H32.3823C32.6195 12.7678 32.8173 12.9457 32.8426 13.1815ZM29.5584 8.81164V11.5959C27.5362 11.5959 30.4927 11.5959 26.8948 11.5959V8.81164C26.8948 5.56492 25.1294 2.72305 22.5085 1.19445C26.4466 1.49656 29.5584 4.79758 29.5584 8.81164ZM10.4434 8.81164C10.4434 4.7975 13.5552 1.49656 17.4933 1.19445C14.8723 2.72305 13.107 5.56492 13.107 8.81164V11.5959H10.4434V8.81164ZM4.66461 36.5014L7.1593 13.1814C7.18453 12.9456 7.38234 12.7678 7.61961 12.7678H9.27164V14.6428C9.27164 14.9664 9.53391 15.2287 9.85758 15.2287C10.1812 15.2287 10.4435 14.9664 10.4435 14.6428V12.7678H16.7161C17.0398 12.7678 17.302 12.5055 17.302 12.1819C17.302 11.8583 17.0398 11.5959 16.7161 11.5959H14.2791V8.81164C14.2791 5.26117 16.7137 2.26867 20.0011 1.4157C23.2885 2.26867 25.7231 5.26117 25.7231 8.81164V11.5959H19.4505C19.1269 11.5959 18.8646 11.8583 18.8646 12.1819C18.8646 12.5055 19.1269 12.7678 19.4505 12.7678H25.7231V14.6428C25.7231 14.9664 25.9854 15.2287 26.3091 15.2287C26.6327 15.2287 26.895 14.9664 26.895 14.6428V12.7678H28.547C28.7841 12.7678 28.982 12.9456 29.0073 13.1815L31.502 36.5014C31.6347 37.745 30.658 38.8281 29.4106 38.8281H6.75562C5.50633 38.8281 4.53172 37.743 4.66461 36.5014Z" fill="#1E3D65"/>
<path d="M15.332 27.4813V26.3157H20.832V27.4813H15.332Z" fill="#FF5500"/>
<path d="M15.332 33.1937V32.0281H20.832V33.1937H15.332Z" fill="#FF5500"/>
</svg>
