<svg width="40" height="40" viewBox="0 0 40 40" fill="none" xmlns="http://www.w3.org/2000/svg">
<g clip-path="url(#clip0_453_76018)">
<path d="M3.52734 24.5132V31.3548C3.52734 31.9061 3.97578 32.3545 4.52711 32.3545H8.29352C8.84484 32.3545 9.29328 31.9061 9.29328 31.3548V24.5132C9.29328 23.9619 8.84484 23.5134 8.29352 23.5134H4.52711C3.97578 23.5134 3.52734 23.9619 3.52734 24.5132ZM4.69922 24.6853H8.12141V31.1826H4.69922V24.6853Z" fill="#FF5500"/>
<path d="M13.1953 24.5132V31.3548C13.1953 31.9061 13.6437 32.3545 14.1951 32.3545H17.9615C18.5128 32.3545 18.9613 31.9061 18.9613 31.3548V24.5132C18.9613 23.9619 18.5128 23.5134 17.9615 23.5134H14.1951C13.6437 23.5134 13.1953 23.9619 13.1953 24.5132ZM14.3672 24.6853H17.7894V31.1826H14.3672V24.6853Z" fill="#1E3D65"/>
<path d="M27.8955 4.0107C23.8382 4.0107 20.2824 6.19656 18.3423 9.45211V4.04375C18.6902 3.86687 18.9298 3.50617 18.9298 3.08984V1.07031C18.9298 0.480078 18.4496 0 17.8595 0H14.297C13.7067 0 13.2266 0.480156 13.2266 1.07031V3.08984C13.2266 3.50625 13.4662 3.86695 13.8142 4.04383V11.0205C13.8142 11.9205 13.4073 12.827 12.6314 13.4672C12.0455 13.9505 11.5784 14.5416 11.2448 15.1991C10.9113 14.5416 10.4441 13.9505 9.85828 13.4672C9.08734 12.8312 8.67555 11.9271 8.67555 11.0205V4.04375C9.02352 3.86687 9.26305 3.50617 9.26305 3.08984V1.07031C9.26305 0.480078 8.78289 0 8.19273 0H4.63023C4.04 0 3.55992 0.480156 3.55992 1.07031V3.08984C3.55992 3.50625 3.79945 3.86695 4.1475 4.04383V11.0205C4.1475 11.9205 3.74063 12.827 2.96469 13.4672C1.71109 14.5013 0.992188 16.0255 0.992188 17.6488V34.3705V37.7959C0.992031 39.0112 1.98086 40 3.19609 40H9.62672C10.2657 40 10.8419 39.7264 11.2448 39.2904C11.6477 39.7263 12.2238 40 12.8629 40H19.2935C20.5088 40 21.4975 39.0112 21.4975 37.7959V34.3705V24.2057C23.3077 25.4848 25.5153 26.2373 27.8955 26.2373C34.0234 26.2373 39.0088 21.2519 39.0088 15.124C39.0088 8.99609 34.0233 4.0107 27.8955 4.0107ZM14.9859 11.0205V4.16016H17.1703V11.0205C17.1703 11.074 17.1715 11.128 17.1737 11.1826C16.502 11.5422 15.6738 11.5526 14.9826 11.1827C14.9848 11.128 14.9859 11.074 14.9859 11.0205ZM14.3984 1.17188H17.7578V2.98828H17.7563H14.4H14.3984L14.3984 1.17188ZM13.377 14.3711C14.0305 13.832 14.5049 13.1381 14.7629 12.3721C15.5076 12.6748 16.3383 12.7087 17.102 12.4753C16.8886 13.344 16.7821 14.2437 16.7821 15.124C16.7821 16.291 16.9634 17.4163 17.2984 18.4739H11.8306V17.6488C11.8307 16.3765 12.3943 15.1818 13.377 14.3711ZM20.3255 23.2595V33.7846H11.8307V19.6458H17.7416C18.3324 20.9685 19.2097 22.2205 20.3255 23.2595ZM7.50359 11.0205C7.50359 11.074 7.50477 11.128 7.50695 11.1826C6.83531 11.5422 6.00703 11.5526 5.31586 11.1827C5.31805 11.128 5.31922 11.074 5.31922 11.0205V4.16016H7.50359V11.0205ZM4.73172 1.17188H8.09109V2.98828H8.08953H4.73328H4.73164L4.73172 1.17188ZM3.71023 14.3711C4.36375 13.832 4.83812 13.1381 5.09609 12.3721C5.91805 12.7062 6.86953 12.7204 7.72664 12.3721C7.98461 13.1381 8.45891 13.832 9.1125 14.3711C10.0952 15.1818 10.6588 16.3765 10.6588 17.6488V18.4739H7.77859C7.45492 18.4739 7.19266 18.7362 7.19266 19.0598C7.19266 19.3835 7.45492 19.6458 7.77859 19.6458H10.6588V33.7846H2.16391V19.6458H5.04414C5.36781 19.6458 5.63008 19.3835 5.63008 19.0598C5.63008 18.7362 5.36781 18.4739 5.04414 18.4739H2.16391V17.6488C2.16391 16.3765 2.7275 15.1818 3.71023 14.3711ZM9.62672 38.8281H3.19609C2.62695 38.8281 2.16391 38.3651 2.16391 37.7959V34.9564H10.6588V37.7959C10.6588 38.3651 10.1958 38.8281 9.62672 38.8281ZM19.2934 38.8281H12.8629C12.2938 38.8281 11.8307 38.3651 11.8307 37.7959V34.9564H20.3255V37.7959C20.3255 38.3651 19.8625 38.8281 19.2934 38.8281ZM27.8955 25.0654C22.4015 25.0654 17.9541 20.5941 17.9541 15.124C17.9541 9.645 22.4113 5.18258 27.8955 5.18258C33.3772 5.18258 37.8369 9.64227 37.8369 15.124C37.8369 20.6057 33.3772 25.0654 27.8955 25.0654Z" fill="#1E3D65"/>
<path d="M24.2406 19.9593C24.4986 20.1542 24.8662 20.1033 25.0614 19.845L31.6614 11.1096C31.8565 10.8514 31.8053 10.4839 31.5471 10.2888C31.2889 10.0938 30.9214 10.1451 30.7264 10.4031L24.1263 19.1385C23.9312 19.3966 23.9824 19.7641 24.2406 19.9593Z" fill="#FF5500"/>
<path d="M27.4017 12.7358C27.4017 11.4286 26.3382 10.365 25.0309 10.365C23.7237 10.365 22.6602 11.4285 22.6602 12.7358C22.6602 14.043 23.7237 15.1066 25.0309 15.1066C26.3382 15.1066 27.4017 14.043 27.4017 12.7358ZM23.832 12.7358C23.832 12.0747 24.3698 11.5369 25.0309 11.5369C25.692 11.5369 26.2298 12.0747 26.2298 12.7358C26.2298 13.3969 25.692 13.9347 25.0309 13.9347C24.3698 13.9347 23.832 13.3968 23.832 12.7358Z" fill="#FF5500"/>
<path d="M30.7575 19.8829C32.0647 19.8829 33.1283 18.8194 33.1283 17.5121C33.1283 16.2049 32.0648 15.1414 30.7575 15.1414C29.4502 15.1414 28.3867 16.2049 28.3867 17.5121C28.3867 18.8194 29.4503 19.8829 30.7575 19.8829ZM30.7575 16.3133C31.4186 16.3133 31.9564 16.8511 31.9564 17.5122C31.9564 18.1733 31.4186 18.7111 30.7575 18.7111C30.0964 18.7111 29.5586 18.1733 29.5586 17.5122C29.5586 16.8511 30.0964 16.3133 30.7575 16.3133Z" fill="#FF5500"/>
<path d="M27.8945 6.35449C23.059 6.35449 19.125 10.2885 19.125 15.124C19.125 19.9596 23.059 23.8936 27.8945 23.8936C32.2182 23.8936 35.8399 20.7397 36.5411 16.5888C36.5949 16.2697 36.3799 15.9674 36.0609 15.9134C35.742 15.8596 35.4396 16.0746 35.3855 16.3936C34.7662 20.0603 31.6159 22.7216 27.8945 22.7216C23.7052 22.7216 20.2969 19.3133 20.2969 15.1239C20.2969 10.9346 23.7052 7.52629 27.8945 7.52629C31.6159 7.52629 34.7662 10.1876 35.3855 13.8543C35.4395 14.1735 35.7417 14.3889 36.0609 14.3345C36.38 14.2806 36.595 13.9782 36.5411 13.6591C35.8389 9.50246 32.2127 6.35449 27.8945 6.35449Z" fill="#1E3D65"/>
</g>
<defs>
<clipPath id="clip0_453_76018">
<rect width="40" height="40" fill="white"/>
</clipPath>
</defs>
</svg>
