<svg width="40" height="40" viewBox="0 0 40 40" fill="none" xmlns="http://www.w3.org/2000/svg">
<path d="M38.125 21.25H37.5V18.125C37.5 14.1815 34.7429 12.125 33.75 11.5127V6.25C33.9158 6.25 34.0747 6.18415 34.1919 6.06694C34.3092 5.94973 34.375 5.79076 34.375 5.625V1.875C34.375 1.70924 34.3092 1.55027 34.1919 1.43306C34.0747 1.31585 33.9158 1.25 33.75 1.25H28.75C28.5842 1.25 28.4253 1.31585 28.3081 1.43306C28.1908 1.55027 28.125 1.70924 28.125 1.875V5.625C28.125 5.79076 28.1908 5.94973 28.3081 6.06694C28.4253 6.18415 28.5842 6.25 28.75 6.25V11.5127C28.0554 11.9412 26.4984 13.0774 25.625 15.0708C24.7516 13.0774 23.1946 11.9412 22.5 11.5127V6.25C22.6658 6.25 22.8247 6.18415 22.9419 6.06694C23.0592 5.94973 23.125 5.79076 23.125 5.625V1.875C23.125 1.70924 23.0592 1.55027 22.9419 1.43306C22.8247 1.31585 22.6658 1.25 22.5 1.25H17.5C17.3342 1.25 17.1753 1.31585 17.0581 1.43306C16.9408 1.55027 16.875 1.70924 16.875 1.875V5.625C16.875 5.79076 16.9408 5.94973 17.0581 6.06694C17.1753 6.18415 17.3342 6.25 17.5 6.25V11.5127C16.8054 11.9412 15.2484 13.0774 14.375 15.0708C13.5016 13.0774 11.9446 11.9412 11.25 11.5127V6.25C11.4158 6.25 11.5747 6.18415 11.6919 6.06694C11.8092 5.94973 11.875 5.79076 11.875 5.625V1.875C11.875 1.70924 11.8092 1.55027 11.6919 1.43306C11.5747 1.31585 11.4158 1.25 11.25 1.25H6.25C6.08424 1.25 5.92527 1.31585 5.80806 1.43306C5.69085 1.55027 5.625 1.70924 5.625 1.875V5.625C5.625 5.79076 5.69085 5.94973 5.80806 6.06694C5.92527 6.18415 6.08424 6.25 6.25 6.25V11.5127C5.25711 12.125 2.5 14.1815 2.5 18.125V21.25H1.875C1.70924 21.25 1.55027 21.3158 1.43306 21.4331C1.31585 21.5503 1.25 21.7092 1.25 21.875V38.125C1.25 38.2908 1.31585 38.4497 1.43306 38.5669C1.55027 38.6842 1.70924 38.75 1.875 38.75H38.125C38.2908 38.75 38.4497 38.6842 38.5669 38.5669C38.6842 38.4497 38.75 38.2908 38.75 38.125V21.875C38.75 21.7092 38.6842 21.5503 38.5669 21.4331C38.4497 21.3158 38.2908 21.25 38.125 21.25ZM29.375 2.5H33.125V5C32.9592 5 32.8003 5.06585 32.6831 5.18306C32.5658 5.30027 32.5 5.45924 32.5 5.625V8.75H30V5.625C30 5.45924 29.9342 5.30027 29.8169 5.18306C29.6997 5.06585 29.5408 5 29.375 5V2.5ZM32.5 11.25H30V10H32.5V11.25ZM29.5336 12.5H32.9662C33.5834 12.8532 36.25 14.5837 36.25 18.125V21.25H26.25V18.125C26.25 14.582 28.919 12.8516 29.5336 12.5ZM18.125 2.5H21.875V5C21.7092 5 21.5503 5.06585 21.4331 5.18306C21.3158 5.30027 21.25 5.45924 21.25 5.625V8.75H18.75V5.625C18.75 5.45924 18.6842 5.30027 18.5669 5.18306C18.4497 5.06585 18.2908 5 18.125 5V2.5ZM21.25 11.25H18.75V10H21.25V11.25ZM18.2836 12.5H21.7162C22.3334 12.8532 25 14.5837 25 18.125V21.25H15V18.125C15 14.582 17.669 12.8516 18.2836 12.5ZM6.875 2.5H10.625V5C10.4592 5 10.3003 5.06585 10.1831 5.18306C10.0658 5.30027 10 5.45924 10 5.625V8.75H7.5V5.625C7.5 5.45924 7.43415 5.30027 7.31694 5.18306C7.19973 5.06585 7.04076 5 6.875 5V2.5ZM10 11.25H7.5V10H10V11.25ZM3.75 18.125C3.75 14.582 6.41898 12.8516 7.03359 12.5H10.4663C11.0834 12.8532 13.75 14.5837 13.75 18.125V21.25H3.75V18.125ZM37.5 22.5V26.25H2.5V22.5H37.5ZM33.75 30H26.25V27.5H33.75V30ZM25 30H15V27.5H25V30ZM13.75 30H6.25V27.5H13.75V30ZM5 30H2.5V27.5H5V30ZM33.75 31.25H37.5V35H2.5V31.25H33.75ZM35 30V27.5H37.5V30H35ZM2.5 37.5V36.25H37.5V37.5H2.5Z" fill="#1E3D65"/>
<path d="M4.375 25C4.72018 25 5 24.7202 5 24.375C5 24.0298 4.72018 23.75 4.375 23.75C4.02982 23.75 3.75 24.0298 3.75 24.375C3.75 24.7202 4.02982 25 4.375 25Z" fill="#FF5500"/>
<path d="M4.375 33.75C4.72018 33.75 5 33.4702 5 33.125C5 32.7798 4.72018 32.5 4.375 32.5C4.02982 32.5 3.75 32.7798 3.75 33.125C3.75 33.4702 4.02982 33.75 4.375 33.75Z" fill="#FF5500"/>
<path d="M35.625 33.75C35.9702 33.75 36.25 33.4702 36.25 33.125C36.25 32.7798 35.9702 32.5 35.625 32.5C35.2798 32.5 35 32.7798 35 33.125C35 33.4702 35.2798 33.75 35.625 33.75Z" fill="#FF5500"/>
<path d="M35.625 25C35.9702 25 36.25 24.7202 36.25 24.375C36.25 24.0298 35.9702 23.75 35.625 23.75C35.2798 23.75 35 24.0298 35 24.375C35 24.7202 35.2798 25 35.625 25Z" fill="#FF5500"/>
<path d="M16.875 18.75C17.0408 18.75 17.1997 18.6842 17.3169 18.567C17.4342 18.4498 17.5 18.2908 17.5 18.125C17.5 16.396 18.5728 15.3489 19.2123 14.8785C19.3459 14.7803 19.4349 14.6331 19.4599 14.4692C19.4849 14.3053 19.4438 14.1383 19.3455 14.0047C19.2473 13.8712 19.1001 13.7821 18.9362 13.7571C18.7723 13.7322 18.6053 13.7733 18.4717 13.8715C17.642 14.4818 16.25 15.8459 16.25 18.125C16.25 18.2908 16.3158 18.4498 16.4331 18.567C16.5503 18.6842 16.7092 18.75 16.875 18.75Z" fill="#1E3D65"/>
<path d="M7.22172 13.8715C6.39195 14.4818 5 15.8459 5 18.125C5 18.2908 5.06585 18.4498 5.18306 18.567C5.30027 18.6842 5.45924 18.75 5.625 18.75C5.79076 18.75 5.94973 18.6842 6.06694 18.567C6.18415 18.4498 6.25 18.2908 6.25 18.125C6.25 16.396 7.32281 15.3489 7.96234 14.8785C8.09588 14.7803 8.18494 14.6331 8.20992 14.4692C8.2349 14.3053 8.19376 14.1383 8.09555 14.0047C7.99733 13.8712 7.85009 13.7821 7.68622 13.7571C7.52235 13.7322 7.35526 13.7733 7.22172 13.8715Z" fill="#1E3D65"/>
<path d="M28.125 18.75C28.2908 18.75 28.4497 18.6842 28.5669 18.567C28.6842 18.4498 28.75 18.2908 28.75 18.125C28.75 16.396 29.8228 15.3489 30.4623 14.8785C30.5959 14.7803 30.6849 14.6331 30.7099 14.4692C30.7349 14.3053 30.6938 14.1383 30.5955 14.0047C30.4973 13.8712 30.3501 13.7821 30.1862 13.7571C30.0223 13.7322 29.8553 13.7733 29.7217 13.8715C28.892 14.4818 27.5 15.8459 27.5 18.125C27.5 18.2908 27.5658 18.4498 27.6831 18.567C27.8003 18.6842 27.9592 18.75 28.125 18.75Z" fill="#1E3D65"/>
<path d="M18.7617 9.98755V8.73755H21.2367V9.98755H18.7617Z" fill="#FF5500"/>
</svg>
