<svg width="40" height="40" viewBox="0 0 40 40" fill="none" xmlns="http://www.w3.org/2000/svg">
<g clip-path="url(#clip0_453_76044)">
<path d="M38.49 30.3636L34.3306 17.4848L34.4536 17.449C35.0727 17.2684 35.4381 16.6362 35.2856 16.0095L34.8829 14.3554C34.8804 14.3451 34.8833 14.3343 34.8906 14.3266L36.0663 13.0945C36.5107 12.6288 36.5107 11.8992 36.0663 11.4335L34.8906 10.2013C34.8833 10.1937 34.8803 10.1827 34.8828 10.1726L35.2855 8.51844C35.438 7.89195 35.0726 7.25977 34.4536 7.07898L32.8197 6.60219C32.8094 6.59914 32.8015 6.59117 32.7985 6.58102L32.3216 4.94695C32.141 4.32797 31.5088 3.96281 30.8823 4.11516L29.2281 4.51773C29.2177 4.52016 29.2069 4.51727 29.1993 4.50992L27.9672 3.33438C27.5016 2.89 26.772 2.89 26.3062 3.3343L25.0739 4.51008C25.0662 4.51742 25.0553 4.52016 25.0453 4.51773L23.3912 4.11508C23.2996 4.09281 23.2081 4.08289 23.1177 4.08195L22.5888 1.16547C22.4662 0.490156 21.8791 0 21.1926 0H5.18501C4.4986 0 3.91142 0.490156 3.78892 1.16555C1.40938 14.2841 1.47423 13.6811 1.46157 14.7859C1.40923 19.3339 4.59931 23.0323 10.2886 24.8689C10.6486 24.9852 11.0125 25.0791 11.3788 25.1512V35.3207L5.82337 36.6717L5.7861 36.681C4.94462 36.8979 4.43352 37.6534 4.54329 38.5185C4.65392 39.3908 5.3429 40 6.21892 40H11.8216C12.1452 40 12.4075 39.7377 12.4075 39.4141C12.4075 39.0904 12.1452 38.8281 11.8216 38.8281H6.21892C5.78571 38.8281 5.71556 38.4473 5.70587 38.371C5.69267 38.2667 5.68048 37.9184 6.07548 37.8165L12.0349 36.3671H14.3425L20.2761 37.8101L20.2989 37.8158C20.697 37.9184 20.6848 38.2666 20.6716 38.3709C20.662 38.4473 20.5918 38.828 20.1586 38.828H14.5559C14.2323 38.828 13.97 39.0903 13.97 39.414C13.97 39.7377 14.2323 39.9999 14.5559 39.9999H20.1586C21.0346 39.9999 21.7237 39.3906 21.8342 38.5183C21.9438 37.6534 21.4327 36.8978 20.5934 36.6815L14.9987 35.3206V25.1511C15.365 25.079 15.729 24.9851 16.0891 24.8688C16.6668 24.6823 17.2249 24.4724 17.7602 24.2426L15.7834 30.3634C15.5351 31.1323 16.2747 31.8536 17.0373 31.5866L18.8209 30.9612L20.0055 30.546L21.8042 33.1261C22.2663 33.7889 23.2884 33.6358 23.5366 32.8674L27.1367 21.7202L30.7368 32.8673C30.9847 33.6353 32.0063 33.7902 32.4692 33.1261C33.0967 32.2261 33.652 31.4295 34.268 30.546C35.2841 30.9023 36.2024 31.2241 37.2362 31.5865C37.9988 31.854 38.7384 31.1323 38.49 30.3636ZM24.7681 5.65641C25.1681 5.75375 25.5853 5.64219 25.8831 5.35797L27.1152 4.18227C27.1272 4.17078 27.1461 4.17086 27.1581 4.18234L28.3902 5.35789C28.6882 5.64242 29.1051 5.75383 29.5052 5.65641L31.1594 5.25383C31.1756 5.25016 31.192 5.25938 31.1966 5.27523L31.6734 6.90938C31.7891 7.3057 32.0949 7.61141 32.4913 7.72719L34.1252 8.20399C34.1413 8.20875 34.1508 8.22516 34.1468 8.24133L33.7442 9.89539C33.6467 10.2955 33.7583 10.7124 34.0427 11.0104L35.2184 12.2425C35.2298 12.2545 35.2298 12.2734 35.2184 12.2855L34.0426 13.5177C33.7582 13.8157 33.6467 14.2325 33.7442 14.6326L34.1468 16.2867C34.1508 16.3029 34.1413 16.3192 34.1252 16.324C33.8909 16.3923 33.1467 16.6095 32.4913 16.8009C32.1023 16.9144 31.7909 17.216 31.6734 17.6187C31.6199 17.8023 31.2501 19.0692 31.1966 19.2527C31.1919 19.2688 31.1752 19.2779 31.1594 19.2742L29.5053 18.8716C29.1051 18.7742 28.6884 18.8858 28.3902 19.1701L27.1563 20.3465C27.1443 20.3565 27.1269 20.3567 27.1153 20.3459L25.883 19.1701C25.5862 18.8866 25.1681 18.7741 24.768 18.8716L23.1138 19.2742C23.1099 19.2752 23.1058 19.2753 23.102 19.2748C23.0903 19.273 23.0802 19.2647 23.0767 19.2527C23.0238 19.0713 22.6528 17.8002 22.5999 17.6187C22.4845 17.2232 22.1795 16.9168 21.782 16.8009C20.0395 16.2923 21.4789 16.7123 20.1481 16.324C20.132 16.3192 20.1225 16.3029 20.1265 16.2867C20.5497 14.5485 20.5656 14.5468 20.5635 14.3343L20.5636 14.3315C20.56 14.0314 20.4439 13.7411 20.2307 13.5177C20.1341 13.4163 19.164 12.3997 19.0549 12.2855C19.0435 12.2734 19.0435 12.2545 19.0549 12.2425L20.2306 11.0105C20.5102 10.7176 20.628 10.301 20.5292 9.89539L20.1266 8.24117C20.1226 8.225 20.132 8.20867 20.148 8.20399L21.7821 7.72711C22.1775 7.61164 22.4839 7.30664 22.5999 6.90922C22.992 5.56578 22.928 5.78508 23.0767 5.27539C23.0781 5.27047 23.0802 5.26703 23.0832 5.26375C23.0906 5.25508 23.1024 5.2507 23.1141 5.25367L24.7681 5.65641ZM4.94204 1.37477C4.96329 1.25719 5.06556 1.17188 5.18501 1.17188H21.1926C21.312 1.17188 21.4143 1.25719 21.4356 1.37477L22.0427 4.72227C22.0057 4.79273 21.9749 4.86773 21.9516 4.94703L21.4749 6.58094C21.4718 6.59125 21.4638 6.59914 21.4537 6.60211L19.8195 7.07898C19.2006 7.25969 18.8352 7.89187 18.9877 8.51828L19.3903 10.1725C19.3928 10.1828 19.39 10.1935 19.3826 10.2013L18.2069 11.4334C17.7625 11.8991 17.7625 12.6287 18.2069 13.0944L18.3151 13.2078C16.5668 13.217 14.9611 12.7073 13.5288 11.6854C10.4138 9.46305 6.61899 9.49367 3.18126 11.0805L4.94204 1.37477ZM2.78204 13.2829L2.91876 12.5294C3.3711 12.2729 4.51548 11.6838 6.0029 11.3543C8.55696 10.7884 10.8601 11.2209 12.8485 12.6394C14.7747 14.0136 16.9693 14.5782 19.3767 14.3201C19.387 14.3308 19.3946 14.3391 19.3906 14.3554L18.988 16.0095C18.8355 16.6356 19.2006 17.268 19.8199 17.4489L19.9428 17.4848C19.7206 18.1727 18.4925 21.9755 18.2518 22.7208C17.4746 23.1166 16.627 23.4637 15.7291 23.7537C15.2797 23.8988 14.8232 24.0032 14.3637 24.0698C14.353 24.0707 14.3424 24.071 14.3316 24.0726C13.5735 24.1784 12.8044 24.1784 12.0458 24.0726C12.0354 24.0711 12.0251 24.0709 12.0147 24.0699C11.5549 24.0033 11.0982 23.8988 10.6485 23.7537C7.87478 22.8583 1.55548 20.0455 2.78204 13.2829ZM12.5507 35.1953V25.3051C12.7632 25.3196 12.9759 25.3283 13.1888 25.3283C13.4016 25.3283 13.6143 25.3196 13.8268 25.3051V35.1953H12.5507ZM17.0189 30.3513L21.0682 17.8133L21.4538 17.9257C21.4641 17.9288 21.472 17.9367 21.4749 17.9469L21.7413 18.8595L18.1589 29.9516L17.0189 30.3513ZM19.7569 29.3914L19.5475 29.4648L22.5107 20.2899C22.7623 20.4331 23.0804 20.4884 23.3912 20.4128L24.1445 20.2295L21.0093 29.9369L20.8825 29.755C20.6325 29.3963 20.1699 29.2466 19.7569 29.3914ZM22.5418 32.1351L21.8509 31.1441L25.357 20.2878L26.1298 21.0252L22.5418 32.1351ZM31.7317 32.135L28.1436 21.0252L28.9164 20.2878L32.4226 31.144L31.7317 32.135ZM33.391 29.7549L33.2642 29.9368L30.129 20.2295L30.8823 20.4128C31.1882 20.487 31.5085 20.4346 31.7627 20.2899L34.7259 29.4648L34.5166 29.3915C34.1038 29.2465 33.6412 29.3963 33.391 29.7549ZM36.1145 29.9516L32.5322 18.8595L32.7985 17.947C32.8016 17.9368 32.8095 17.9289 32.8198 17.9259L33.2053 17.8134L37.2546 30.3513L36.1145 29.9516Z" fill="#1E3D65"/>
<path d="M21.3867 12.2641C21.3867 15.435 23.9665 18.0147 27.1373 18.0147C29.7204 18.0147 32.0009 16.2758 32.6828 13.786C32.7684 13.4739 32.5846 13.1516 32.2725 13.0661C31.9602 12.9805 31.638 13.1643 31.5526 13.4764C31.0097 15.4585 29.1941 16.8428 27.1373 16.8428C24.6126 16.8428 22.5585 14.7887 22.5585 12.2641C22.5585 9.73937 24.6126 7.6853 27.1373 7.6853C29.194 7.6853 31.0096 9.0696 31.5526 11.0517C31.638 11.3638 31.9602 11.5476 32.2725 11.462C32.5846 11.3766 32.7684 11.0542 32.6828 10.7421C32.0009 8.25233 29.7204 6.51343 27.1373 6.51343C23.9664 6.51343 21.3867 9.09319 21.3867 12.2641Z" fill="#FF5500"/>
<path d="M2.92578 12.5624L3.17578 11.0749C3.42578 10.9666 4.13828 10.6224 4.63828 10.4624C5.26328 10.2624 6.45078 10.0248 7.47578 9.91234C8.60651 9.78825 10.4508 10.1624 11.1258 10.3749C12.3334 10.7551 14.0723 12.1605 15.0508 12.5624C15.7508 12.8499 17.4424 13.0957 18.3258 13.2124L19.4133 14.3374C18.9799 14.3499 18.1383 14.4623 17.1383 14.3374C16.1701 14.2164 14.5073 13.7298 13.6258 13.2124C13.0508 12.8749 11.8508 11.9749 10.6633 11.5124C9.47578 11.0499 7.65078 11.0749 6.57578 11.2249C5.71578 11.3449 3.78411 12.1665 2.92578 12.5624Z" fill="#FF5500"/>
</g>
<defs>
<clipPath id="clip0_453_76044">
<rect width="40" height="40" fill="white"/>
</clipPath>
</defs>
</svg>
