<svg width="556" height="560" viewBox="0 0 556 560" fill="none" xmlns="http://www.w3.org/2000/svg">
<path fill-rule="evenodd" clip-rule="evenodd" d="M0 0.318356C116.881 -0.257935 177.391 0.0777069 193.036 0.318356L278.722 320.825L362.242 0.318356H556L448.235 329.604C441.748 321.407 433.971 316.185 426.555 311.203C423.93 309.44 421.348 307.707 418.886 305.883C418.436 295.341 417.072 208.49 420.144 200.832C422.391 195.221 423.248 189.145 420.233 183.826C415.036 174.652 405.726 174.842 393.283 175.097C391.131 175.141 388.884 175.188 386.551 175.188C384.581 175.188 382.585 175.143 380.598 175.097C368.524 174.827 356.733 174.561 352.467 184.398C349.539 191.155 350.966 194.953 352.755 199.715C353.076 200.572 353.409 201.463 353.732 202.404C354.661 205.123 354.493 240.418 354.353 269.347C354.271 286.6 354.201 301.59 354.378 306.048C353.54 306.55 352.742 307.028 351.978 307.483C340.208 314.513 336.848 316.518 328.119 326.229C307.417 349.259 308.472 385.764 309.501 421.399C309.714 428.76 309.923 436.083 309.944 443.243L310.132 560H181.963L0 0.318356Z" fill="#324E73"/>
</svg>
