<svg width="560" height="812" viewBox="0 0 560 812" fill="none" xmlns="http://www.w3.org/2000/svg">
<path fill-rule="evenodd" clip-rule="evenodd" d="M-370.382 -5.9094C-276.557 -20.9236 -227.904 -28.1865 -215.305 -29.9405L-106.158 217.253L-79.3722 -51.0051L76.2844 -75.1262L31.1248 203.214C24.8827 197.427 17.9781 194.193 11.3939 191.108C9.06369 190.017 6.77106 188.944 4.56372 187.783C2.87652 179.357 -9.14265 109.652 -7.63765 103.108C-6.5384 98.314 -6.61376 93.3194 -9.70522 89.4149C-15.0338 82.6808 -22.4892 83.9927 -32.4537 85.7473C-34.1767 86.0508 -35.9758 86.3679 -37.8503 86.6584C-39.433 86.9036 -41.0417 87.1164 -42.6438 87.3264C-52.3776 88.6121 -61.8835 89.866 -64.073 98.3113C-65.576 104.112 -63.9516 106.99 -61.9158 110.599C-61.5502 111.248 -61.1701 111.924 -60.7922 112.641C-59.7038 114.713 -55.4004 143.13 -51.874 166.422C-49.7703 180.313 -47.941 192.381 -47.2378 195.946C-47.8481 196.455 -48.4293 196.938 -48.986 197.4C-57.5574 204.521 -60.0041 206.552 -65.7956 215.451C-79.5302 236.558 -74.0908 265.796 -68.7829 294.338C-67.6857 300.233 -66.5968 306.099 -65.6793 311.857L-50.8438 405.769L-153.81 421.725L-370.382 -5.9094Z" fill="white" fill-opacity="0.09"/>
<path fill-rule="evenodd" clip-rule="evenodd" d="M100.912 -71.0507C185.58 -27.6859 229.176 -4.77745 240.391 1.25673L182.737 265.011L362.651 64.6382L502.651 137.216L301.943 334.852C300.314 326.498 296.643 319.81 293.143 313.432C291.904 311.174 290.685 308.954 289.586 306.714C293.194 298.926 324.609 235.64 329.686 231.255C333.402 228.041 336.288 223.971 336.094 218.997C335.761 210.419 328.964 207.069 319.877 202.593C318.306 201.819 316.665 201.011 314.979 200.137C313.556 199.399 312.13 198.619 310.712 197.842C302.089 193.124 293.668 188.515 286.916 194.027C282.279 197.814 281.894 201.093 281.41 205.205C281.322 205.945 281.231 206.714 281.113 207.515C280.77 209.829 267.481 235.276 256.588 256.133C250.092 268.572 244.45 279.381 242.915 282.67C242.122 282.719 241.367 282.765 240.644 282.808C229.518 283.48 226.342 283.671 216.412 287.42C192.862 296.311 180.007 323.092 167.456 349.233C164.864 354.634 162.283 360.005 159.627 365.188L116.206 449.649L23.5965 401.639L100.912 -71.0507Z" fill="white" fill-opacity="0.09"/>
<path fill-rule="evenodd" clip-rule="evenodd" d="M520.551 154.883C563.3 239.924 584.97 284.18 590.46 295.678L388.102 473.99L651.74 419.092L721.911 560.414L443.099 600.8C446.719 593.107 447.705 585.547 448.647 578.338C448.98 575.787 449.307 573.277 449.743 570.822C457.257 566.685 520.008 534.306 526.697 533.78C531.597 533.391 536.331 531.821 539.113 527.699C543.911 520.594 540.401 513.872 535.709 504.888C534.897 503.335 534.05 501.713 533.205 500.011C532.491 498.574 531.801 497.103 531.115 495.637C526.939 486.733 522.862 478.036 514.154 478.48C508.173 478.785 505.925 481.199 503.105 484.224C502.597 484.768 502.069 485.333 501.5 485.909C499.857 487.569 474.094 500.2 452.978 510.552C440.385 516.726 429.444 522.092 426.262 523.832C425.592 523.402 424.956 522.992 424.347 522.599C414.965 516.555 412.288 514.829 402.056 511.971C377.788 505.194 351.588 519.155 326.011 532.781C320.728 535.597 315.471 538.395 310.265 540.998L225.311 583.325L178.893 489.842L520.551 154.883Z" fill="white" fill-opacity="0.09"/>
</svg>
