<svg width="276" height="354" viewBox="0 0 276 354" fill="none" xmlns="http://www.w3.org/2000/svg">
<path d="M3.60764 169.272C4.14853 169.579 4.73393 169.806 5.34713 169.925C6.91976 170.232 8.53411 169.79 10.1081 170.082C10.6059 170.603 11.1134 171.111 11.6335 171.607C17.9796 177.671 26.1209 181.589 34.6821 183.371C41.0825 184.703 51.9547 186.224 56.514 180.124C52.9544 179.078 50.3931 180.779 46.8724 181.12C43.431 181.453 39.1163 180.957 35.7083 180.382C28.3623 179.143 21.5643 175.834 15.8814 171.05C15.3141 170.574 14.7593 170.082 14.2184 169.576C13.9305 169.308 13.6469 169.035 13.366 168.758C13.2339 168.628 13.1046 168.496 12.9725 168.365C12.9697 168.361 12.9669 168.36 12.9628 168.357C12.8863 168.278 12.8112 168.2 12.7361 168.121C12.6597 168.04 12.5776 167.967 12.49 167.897C12.7445 167.438 12.9822 166.963 13.188 166.483C14.4033 164.429 14.1141 161.714 12.814 159.88C11.2191 157.71 8.33803 155.768 5.3916 156.747C4.92857 156.883 4.48639 157.065 4.06647 157.287C2.38816 158.175 1.0825 159.705 0.320521 161.556C-0.587463 163.757 0.561081 166.588 2.16987 168.178C2.59814 168.601 3.08343 168.975 3.60903 169.272H3.60764Z" fill="#300000"/>
<path d="M8.64112 158.961C7.59548 155.232 6.18275 151.673 6.06873 147.769C6.05483 146.847 7.17972 145.854 8.21841 146.272C8.76626 146.589 9.21259 147.396 9.3864 148.044C9.87585 151.616 10.6392 155.349 10.8242 159.069C10.5461 159.499 9.93844 159.594 8.64112 158.961Z" fill="#300000"/>
<path d="M9.19456 158.869C8.57302 156.682 7.82909 154.525 7.29654 152.312C7.03095 151.211 6.81821 150.096 6.70697 148.968C6.6444 148.333 6.45392 147.519 7.00038 147.037C7.62749 146.486 8.27544 146.952 8.59386 147.555C9.06107 148.439 9.0541 149.654 9.20705 150.633C9.38365 151.761 9.56719 152.889 9.73127 154.019C9.89674 155.157 10.0455 156.299 10.1498 157.444C10.1721 157.683 10.3931 158.669 10.2193 158.849C10.0149 159.06 9.043 158.532 8.84277 158.44C8.18646 158.14 7.79155 159.187 8.44368 159.485C9.19871 159.829 10.3681 160.321 11.0898 159.619C11.4318 159.287 11.3804 159.003 11.354 158.55C11.3025 157.69 11.2191 156.83 11.119 155.975C10.9034 154.126 10.599 152.289 10.3111 150.451C10.097 149.08 10.097 147.548 9.1876 146.418C8.5313 145.601 7.54963 145.387 6.62913 145.932C5.63633 146.519 5.48059 147.451 5.55012 148.509C5.7865 152.143 7.10329 155.582 8.09053 159.054C8.2852 159.739 9.39201 159.562 9.19456 158.871V158.869Z" fill="#300000"/>
<path d="M220.188 344.052C219.339 341.893 216.946 339.874 213.41 338.793C201.036 335.014 181.427 331.946 171.939 322.074C170.362 320.433 169.057 318.557 167.974 316.532C165.807 312.482 164.532 307.839 163.752 303.308C163.231 299.495 162.798 295.675 162.439 291.852C160.33 260.479 159.208 229.114 162.947 197.746C159.547 198.426 156.458 199.112 153.463 200.349C150.467 199.11 147.378 198.426 143.978 197.746C145.663 198.083 146.012 222.811 146.115 225.454C146.488 235.069 146.507 244.697 146.292 254.317C145.901 271.824 147.116 292.541 141.613 309.351C138.014 320.34 128.496 327.292 118.128 331.508C109.539 335.002 100.388 336.892 91.6098 339.885C88.9846 340.779 84.1638 343.013 86.2509 346.643C87.2771 348.428 89.4267 349.227 91.4555 349.588C111.901 353.22 132.744 354.125 153.476 353.987C164.299 353.914 175.118 353.612 185.934 353.275C195.012 352.995 204.952 353.859 213.819 351.692C219.588 350.282 221.361 347.036 220.19 344.057L220.188 344.052Z" fill="#254A79"/>
<path d="M220.187 344.052C219.339 341.893 216.946 339.874 213.41 338.793C201.036 335.014 181.426 331.946 171.939 322.074C170.362 320.433 169.057 318.557 167.973 316.532C165.807 312.482 164.532 307.839 163.752 303.308C163.231 299.495 162.798 295.673 162.439 291.852C160.33 260.479 159.208 229.114 162.947 197.746C159.547 198.426 156.458 199.112 153.462 200.349C150.467 199.11 147.378 198.426 143.978 197.746C145.663 198.083 146.012 222.811 146.115 225.454C146.25 228.94 146.338 232.428 146.386 235.915C147.068 235.953 147.748 236.023 148.425 236.136C157.638 237.678 156.905 249.383 156.851 256.36C156.851 268.043 156.587 279.731 156.947 291.412C157.271 301.911 157.577 312.589 161.773 322.386C163.797 327.108 166.269 330.124 169.573 333.945C169.888 334.31 170.457 335.206 170.983 336.285C171.751 337.864 173.093 340.585 171.372 341.995C170.581 342.642 169.528 342.849 168.523 343.035C152.239 346.036 135.86 345.636 119.355 345.057C117.036 344.975 114.728 344.874 112.421 344.75C103.931 344.291 95.4585 343.529 87.0419 342.353C85.8503 343.461 85.2427 344.889 86.2522 346.643C87.2783 348.428 89.428 349.227 91.4567 349.588C111.902 353.22 132.746 354.125 153.478 353.987C164.3 353.914 175.119 353.612 185.936 353.275C195.013 352.995 204.953 353.859 213.82 351.692C219.59 350.282 221.362 347.036 220.192 344.057L220.187 344.052Z" fill="#C3F9FC"/>
<path d="M162.946 197.744C159.546 198.423 156.456 199.109 153.461 200.347C150.466 199.108 147.376 198.423 143.977 197.744C145.662 198.08 146.011 222.808 146.114 225.451C146.24 228.708 146.324 231.967 146.372 235.226C149.978 236.007 153.698 236.447 157.452 236.628C157.792 236.644 158.135 236.658 158.477 236.671C159.056 236.81 160.09 237.068 160.09 236.81C160.607 234.746 160.607 232.939 160.633 230.989C160.646 230.607 160.655 230.223 160.667 229.842C160.964 219.143 161.672 208.444 162.948 197.745L162.946 197.744Z" fill="#254A79"/>
<path d="M159.832 237.047C159.557 237.047 159.126 236.958 158.51 236.811L158.445 236.796C158.128 236.787 157.786 236.772 157.443 236.755C153.508 236.565 149.774 236.093 146.343 235.351L146.243 235.329V235.226C146.19 231.847 146.103 228.558 145.983 225.455C145.969 225.108 145.953 224.383 145.928 223.383C145.845 220.011 145.693 213.734 145.375 208.192C144.851 199.028 144.203 197.92 143.95 197.87L144 197.617C147.24 198.265 150.402 198.951 153.46 200.208C156.517 198.951 159.679 198.265 162.919 197.617L163.094 197.583L163.074 197.759C161.855 207.981 161.109 218.476 160.793 229.844L160.788 230.023C160.779 230.346 160.77 230.669 160.76 230.991L160.757 231.255C160.733 233.103 160.711 234.848 160.216 236.828C160.211 236.886 160.183 236.937 160.135 236.975C160.073 237.025 159.973 237.047 159.832 237.047ZM146.499 235.121C149.888 235.847 153.574 236.311 157.457 236.498C157.798 236.515 158.139 236.529 158.481 236.542L158.571 236.561C158.906 236.642 159.781 236.85 159.963 236.78C160.453 234.823 160.475 233.089 160.498 231.254L160.503 230.989C160.512 230.664 160.522 230.341 160.53 230.019L160.536 229.84C160.85 218.529 161.59 208.083 162.797 197.908C159.614 198.545 156.508 199.23 153.511 200.469L153.461 200.49L153.411 200.469C150.479 199.256 147.442 198.576 144.33 197.949C145.223 199.621 145.802 207.64 146.186 223.38C146.21 224.379 146.228 225.102 146.242 225.448C146.361 228.523 146.448 231.778 146.499 235.123V235.121Z" fill="#254A79"/>
<path d="M220.188 344.052C219.339 341.893 216.946 339.874 213.41 338.793C201.036 335.014 181.426 331.946 171.939 322.074C170.362 320.433 169.057 318.557 167.974 316.532C165.807 312.482 164.532 307.839 163.752 303.308C163.231 299.495 162.798 295.673 162.439 291.852C161.203 273.474 160.309 255.097 160.529 236.722C155.735 236.664 150.962 236.221 146.372 235.229C146.377 235.458 146.381 235.687 146.384 235.915C147.065 235.953 147.745 236.023 148.422 236.136C157.635 237.678 156.903 249.383 156.848 256.36C156.848 268.043 156.584 279.731 156.944 291.412C157.268 301.911 157.574 312.589 161.771 322.386C163.794 327.108 166.266 330.124 169.57 333.945C169.885 334.31 170.454 335.206 170.98 336.285C171.749 337.864 173.09 340.585 171.369 341.995C170.578 342.642 169.525 342.849 168.52 343.035C152.236 346.036 135.858 345.636 119.353 345.057C117.033 344.975 114.725 344.874 112.418 344.75C103.928 344.291 95.4558 343.529 87.0392 342.353C85.8476 343.461 85.2399 344.889 86.2494 346.643C87.2756 348.428 89.4253 349.227 91.454 349.588C111.9 353.22 132.743 354.125 153.475 353.987C164.297 353.914 175.116 353.612 185.933 353.275C195.01 352.995 204.951 353.859 213.818 351.692C219.585 350.282 221.36 347.036 220.189 344.057L220.188 344.052Z" fill="#1E3D65"/>
<path d="M239.336 200.094C241.195 201.771 242.929 203.516 244.522 205.412L244.447 205.342C246.579 208.013 248.57 210.834 249.849 213.972L249.844 213.827C252.149 219.17 252.953 225.077 252.134 230.872C252.042 231.609 251.932 232.346 251.803 233.078C251.735 233.466 251.66 233.855 251.58 234.243C251.543 234.425 251.502 234.607 251.465 234.789C251.427 234.973 251.477 234.735 251.483 234.714C251.452 234.85 251.42 234.986 251.388 235.122C251.191 235.957 251.448 236.942 252.367 237.233C253.133 237.476 254.27 237.153 254.481 236.255C255.146 233.443 255.549 230.584 255.684 227.722C256.533 216.252 250.111 205.562 241.643 198.28C240.897 197.728 239.797 197.409 239.106 198.303C238.693 198.898 238.796 199.691 239.336 200.094Z" fill="#300000"/>
<path d="M251.76 237.015C252.182 237.136 252.575 237.304 252.938 237.512C253.3 237.721 253.633 237.968 253.936 238.248C255.546 239.911 256.628 242.264 255.931 244.712C255.821 245.088 255.682 245.449 255.514 245.79C254.588 248.06 251.931 249.229 249.771 248.375C246.391 246.993 246.608 242.393 248.667 239.676C248.987 239.21 249.351 238.78 249.755 238.407C250.133 238.054 250.553 237.742 251.012 237.478C251.231 237.344 251.482 237.193 251.76 237.017V237.015Z" fill="#300000"/>
<path d="M251.251 238.401C251.558 238.494 251.865 238.6 252.15 238.75C251.907 238.624 252.345 238.878 252.344 238.876C252.473 238.961 252.6 239.051 252.722 239.147C252.754 239.172 253.106 239.512 252.868 239.262C252.949 239.349 253.029 239.436 253.107 239.525C253.263 239.704 253.413 239.889 253.555 240.079C253.626 240.175 253.695 240.272 253.762 240.371C253.794 240.418 254.003 240.758 253.818 240.446C253.939 240.651 254.053 240.86 254.156 241.075C254.24 241.254 254.32 241.436 254.389 241.621C254.431 241.732 254.47 241.844 254.506 241.957C254.393 241.613 254.536 242.103 254.552 242.168C254.603 242.401 254.641 242.638 254.663 242.874C254.67 242.953 254.677 243.033 254.681 243.113C254.662 242.764 254.674 243.165 254.673 243.218C254.664 243.464 254.641 243.711 254.6 243.954C254.592 244.004 254.488 244.396 254.58 244.076C254.528 244.258 254.474 244.439 254.41 244.617C254.328 244.843 254.228 245.06 254.129 245.279C254.079 245.39 254.032 245.501 253.978 245.611C254.146 245.272 253.959 245.621 253.923 245.678C253.794 245.878 253.647 246.061 253.492 246.24C253.744 245.949 253.488 246.235 253.434 246.285C253.348 246.363 253.259 246.439 253.167 246.51C253.075 246.582 252.979 246.646 252.885 246.714C252.58 246.935 253.156 246.593 252.815 246.752C252.605 246.849 252.398 246.942 252.185 247.033C251.843 247.179 252.473 246.982 252.11 247.058C252.017 247.078 251.925 247.102 251.832 247.12C251.739 247.138 251.646 247.152 251.551 247.164C251.476 247.174 251.401 247.181 251.324 247.186C251.514 247.182 251.526 247.181 251.362 247.182C251.133 247.171 250.912 247.15 250.683 247.12C250.319 247.071 250.957 247.228 250.613 247.099C250.522 247.065 250.429 247.04 250.34 247.006C250.25 246.971 250.163 246.929 250.074 246.893C249.73 246.75 250.333 247.075 250.031 246.868C249.898 246.776 249.485 246.588 249.435 246.426C249.481 246.47 249.528 246.513 249.574 246.556C249.525 246.507 249.478 246.458 249.433 246.407C249.365 246.332 249.3 246.253 249.239 246.172C249.198 246.118 249.161 246.063 249.121 246.008C248.912 245.736 249.261 246.299 249.109 245.99C249.019 245.807 248.927 245.629 248.855 245.439C248.82 245.347 248.663 245.088 248.836 245.413C248.777 245.301 248.763 245.132 248.738 245.011C248.703 244.84 248.678 244.667 248.66 244.493C248.649 244.388 248.642 244.282 248.637 244.175C248.66 244.558 248.642 244.196 248.644 244.124C248.652 243.683 248.712 243.251 248.792 242.819C248.723 243.194 248.792 242.829 248.81 242.761C248.849 242.618 248.893 242.475 248.938 242.335C249.02 242.088 249.115 241.844 249.221 241.607C249.251 241.539 249.282 241.472 249.315 241.406C249.347 241.339 249.381 241.272 249.415 241.207C249.317 241.393 249.307 241.413 249.389 241.265C249.525 241.047 249.659 240.831 249.809 240.621C250.009 240.34 250.215 240.069 250.436 239.806C250.461 239.775 250.639 239.599 250.473 239.761C250.618 239.618 250.767 239.478 250.921 239.346C251.541 238.818 251.96 238.624 252.694 238.162C253.35 237.75 253.399 236.632 252.912 236.085C252.327 235.426 251.536 235.425 250.834 235.867C250.766 235.91 250.699 235.951 250.631 235.993C250.412 236.13 250.785 235.9 250.583 236.022C250.426 236.118 250.269 236.211 250.112 236.307C249.744 236.533 249.389 236.769 249.059 237.049C248.455 237.565 247.932 238.169 247.467 238.812C246.821 239.711 246.299 240.719 246.018 241.796C245.447 243.985 245.56 246.607 247.202 248.34C248.983 250.221 251.85 250.665 254.122 249.389C256.56 248.02 257.819 245.186 257.586 242.447C257.334 239.489 255.14 236.493 252.273 235.625C251.534 235.401 250.626 235.711 250.375 236.503C250.144 237.229 250.461 238.158 251.254 238.399L251.251 238.401Z" fill="#300000"/>
<path d="M247.178 239.172C247.009 239.342 246.849 239.522 246.668 239.679C246.616 239.726 246.564 239.769 246.507 239.81C246.543 239.786 246.577 239.764 246.614 239.74C246.696 239.747 247.145 239.694 247.161 239.771C247.116 239.758 247.071 239.743 247.028 239.725C246.953 239.693 246.968 239.704 247.072 239.755C247.174 239.814 247.189 239.821 247.12 239.778C247.077 239.753 247.036 239.725 246.997 239.694C246.785 239.564 247.088 239.742 247.064 239.768C247.042 239.743 247.021 239.719 246.999 239.694C246.922 239.59 246.918 239.593 246.988 239.701C247.043 239.799 247.052 239.812 247.016 239.743C246.993 239.703 246.975 239.661 246.96 239.618C247.027 239.622 247.027 239.971 247.024 240.014C247.035 239.756 246.999 240.274 247.013 240.094C247.021 239.996 246.913 240.226 247.016 240.103C247.086 240.018 247.146 239.915 247.21 239.824C247.287 239.714 247.309 239.696 247.205 239.808C247.359 239.644 247.538 239.508 247.715 239.371C247.805 239.3 247.857 239.267 247.727 239.349C247.822 239.287 247.926 239.236 248.026 239.185C248.21 239.092 248.399 239.01 248.591 238.937C248.677 238.905 248.765 238.876 248.851 238.846C248.613 238.929 248.902 238.833 248.951 238.821C249.15 238.771 249.35 238.736 249.552 238.694C250.465 238.508 251.383 238.372 252.316 238.332C252.155 237.361 251.993 236.39 251.832 235.419C250.597 235.478 249.368 236.135 248.563 237.06C248.192 237.486 247.811 237.917 247.474 238.372C247.335 238.56 247.195 238.75 247.07 238.947C246.822 239.337 246.717 239.729 246.637 240.181C246.502 240.943 247.223 241.75 247.973 241.786C248.827 241.828 249.436 241.267 249.581 240.451C249.645 240.093 249.481 240.672 249.474 240.664C249.467 240.657 249.616 240.455 249.628 240.437C249.751 240.261 249.877 240.089 250.006 239.918C250.271 239.569 250.568 239.225 250.866 238.903C250.76 239.017 250.841 238.929 250.909 238.874C250.983 238.814 251.059 238.755 251.133 238.696C251.219 238.626 251.288 238.582 251.152 238.667C251.226 238.621 251.305 238.58 251.383 238.543C251.462 238.504 251.543 238.472 251.622 238.437C251.954 238.294 251.504 238.433 251.703 238.41C251.91 238.385 252.106 238.342 252.316 238.332C253.092 238.294 253.683 237.351 253.533 236.633C253.352 235.773 252.661 235.382 251.832 235.418C250.62 235.472 249.371 235.646 248.203 235.98C246.85 236.368 245.56 237.042 244.725 238.214C244.296 238.817 243.991 239.496 244.101 240.249C244.203 240.947 244.61 241.51 245.124 241.967C245.626 242.414 246.394 242.74 247.075 242.647C247.91 242.532 248.473 242.035 249.041 241.464C249.585 240.918 249.828 240.026 249.26 239.386C248.776 238.84 247.764 238.583 247.18 239.168L247.178 239.172Z" fill="#300000"/>
<path d="M244.492 12.5391C242.576 10.5474 240.326 8.85849 237.531 7.61541C230.951 4.68897 223.615 4.01257 216.55 3.11533C206.441 1.83197 196.253 1.36808 186.083 0.843071C174.737 0.258339 163.372 0 152.011 0C126.819 0 101.848 1.30836 76.9555 5.0112C74.5124 5.37509 72.0651 5.73761 69.6666 6.33901C62.6794 8.09043 57.9337 12.1808 54.5256 18.4281C49.9065 26.8963 46.2175 35.8715 42.7052 44.8272C38.492 55.569 35.0506 66.622 32.5268 77.8805C29.7236 90.3863 28.0217 103.196 28.0217 116.026C28.0217 188.155 83.5338 231.969 152.011 231.969C220.488 231.969 276 188.156 276 116.026C276 99.4184 273.262 82.8875 268.76 66.9275C264.665 52.4092 259.4 37.7062 252.28 24.3796C249.955 20.0295 247.688 15.8614 244.492 12.5377V12.5391Z" fill="#254A79"/>
<path d="M267.675 66.747C266.822 64.2622 266.039 61.7247 265.285 59.1607C264.531 56.5968 263.807 54.0051 263.07 51.412C258.523 35.2548 252.839 17.4475 237.079 8.41543C233.978 6.60845 230.782 5.36677 227.52 4.4987C224.258 3.63063 220.929 3.13618 217.568 2.82645C203.534 2.25144 189.669 1.14169 175.816 0.66113C172.352 0.541683 168.89 0.45974 165.425 0.437517C157.245 0.673632 149.235 0.156953 140.989 0.034729C139.745 0.0541738 138.498 0.0750119 137.252 0.100012C136.006 0.123624 134.763 0.151399 133.522 0.183344C128.622 0.381958 123.594 0.381958 118.566 0.938912C121.242 1.17086 123.968 1.30698 126.692 1.3917C129.416 1.47642 132.138 1.51115 134.811 1.54031C142.518 1.96254 150.527 -0.101381 158.021 2.73756C161.38 4.02786 163.705 8.1571 162.154 11.7697C160.604 15.8989 155.954 17.7059 151.82 17.4475C140.71 17.1892 129.859 18.2212 118.751 18.9962C114.875 19.2545 110.741 18.9962 106.884 19.1114C104.113 19.0753 101.339 18.9878 98.5566 18.8364C90.2123 18.3823 81.8138 17.3545 73.3166 15.4475C71.6411 15.1683 69.6861 15.1683 68.2886 16.285C75.4816 20.4698 83.075 23.7129 90.9299 26.231C93.5481 27.0699 96.1956 27.8296 98.8667 28.5158C102.729 29.5783 106.606 30.3519 110.481 30.8686C123.399 32.1589 135.6 33.4492 148.429 35.7853C151.008 36.2478 153.613 36.752 156.277 37.3006C163.058 37.5645 169.991 38.0854 176.775 39.2451C180.168 39.8243 183.523 40.5646 186.803 41.5132C200.909 45.3202 214.085 53.837 220.285 67.2567C236.562 100.548 237.595 143.645 217.512 175.524C215.621 178.214 213.501 180.766 211.127 183.149C206.379 187.917 200.617 192.016 193.674 195.259C180.239 201.71 166.546 205.066 153.369 213.84C148.977 216.937 143.551 216.162 138.373 215.523C134.103 215.106 129.772 214.454 125.688 214.512C121.626 214.151 117.564 213.665 113.528 213.072C109.491 212.479 105.481 211.779 101.506 210.984C98.9418 210.405 96.3902 209.763 93.8526 209.062C81.1673 205.553 68.849 200.544 57.2037 194.189C69.9252 208.363 86.3009 218.38 104.145 224.54C107.714 225.772 111.342 226.85 115.01 227.775C123.022 229.812 131.23 231.001 139.517 231.558C142.28 231.743 145.05 231.858 147.827 231.911C155.01 232.125 162.188 231.7 169.285 230.691C172.833 230.187 176.361 229.536 179.859 228.747C183.712 227.854 187.525 226.808 191.288 225.614C195.05 224.419 198.763 223.075 202.413 221.583C220.544 214.355 237.079 203.259 250.176 189.055C255.026 183.639 259.332 177.741 262.957 171.36C264.775 167.886 266.392 164.319 267.818 160.683C272.098 149.772 274.694 138.223 275.365 126.61C275.548 124.023 275.659 121.427 275.708 118.828C275.757 116.23 275.741 113.628 275.672 111.032C275.59 108.002 275.412 104.974 275.135 101.959C274.858 98.9434 274.483 95.9377 274.006 92.9516C273.368 90.6849 272.986 88.3265 272.539 85.9417C272.094 83.557 271.587 81.1486 270.702 78.7819C270.249 76.761 269.768 74.7471 269.262 72.7415C268.756 70.7359 268.224 68.7373 267.671 66.7484L267.675 66.747Z" fill="#1E3D65"/>
<path d="M152.011 26.8588C198.884 26.8588 236.882 21.8654 236.882 15.7058C236.882 9.54622 198.884 4.55286 152.011 4.55286C105.138 4.55286 67.1401 9.54622 67.1401 15.7058C67.1401 21.8654 105.138 26.8588 152.011 26.8588Z" fill="#255087"/>
<path d="M65.217 32.37C64.1324 32.5895 62.9936 33.0881 61.8576 33.8895C57.586 36.9021 54.9052 42.2063 52.4996 46.6856C48.0835 54.9121 46.0103 64.0456 43.6075 72.9957C42.1948 78.2597 39.6599 88.3543 46.8571 90.6307C49.2334 91.3821 51.9295 90.7821 54.0278 89.5224C61.4835 85.0459 64.6427 75.6666 67.1525 67.8595C68.892 62.4497 78.8409 29.6214 65.217 32.3686V32.37Z" fill="#255087"/>
<path d="M51.0647 104.359C48.9929 120.934 49.5088 137.968 55.2445 153.644C55.9704 155.607 56.7671 157.519 57.6306 159.38C72.3127 191.024 106.341 208.026 140.314 210.877C178.604 214.091 224.921 200.773 242.72 163.414C243.025 162.776 243.318 162.133 243.603 161.486C246.63 154.865 248.523 147.823 249.47 140.616C249.785 138.213 249.995 135.794 250.109 133.365C250.425 123.809 250.425 114.113 248.232 104.416C228.503 103.477 209.713 110.359 190.447 111.617C188.391 111.688 186.339 111.687 184.289 111.638C174.042 111.391 163.837 109.913 153.425 109.913C136.289 109.913 118.703 105.859 101.611 104.453C96.1066 104 90.5252 103.843 84.9118 103.834C83.5088 103.831 82.1031 103.838 80.6973 103.852C71.9845 103.9 63.2009 103.642 54.5326 104.324C53.3646 104.339 52.2091 104.35 51.0619 104.357L51.0647 104.359Z" fill="#BE1B28"/>
<path d="M149.646 115.601C204.094 115.601 248.232 110.706 248.232 104.668C248.232 98.6308 204.094 93.7363 149.646 93.7363C95.1979 93.7363 51.0593 98.6308 51.0593 104.668C51.0593 110.706 95.1979 115.601 149.646 115.601Z" fill="#DD3C3C"/>
<path d="M105.423 151.776C105.477 146.83 109.133 142.405 113.923 141.459C117.608 140.754 121.109 142.233 123.453 145.191C125.703 148.24 126.362 152.176 125.026 155.744C123.582 159.689 120.081 162.596 115.961 162.806C111.567 163.006 107.482 160.167 106.047 155.957C105.587 154.664 105.362 153.251 105.421 151.776H105.423Z" fill="#300000"/>
<path d="M110.533 150.651C110.591 149.084 111.738 147.854 113.13 147.364C115.536 146.641 117.912 148.84 117.445 151.285C117.21 152.553 116.344 153.612 115.138 154.018C113.838 154.512 112.299 154.175 111.414 153.146C110.822 152.494 110.481 151.612 110.533 150.651Z" fill="white"/>
<path d="M178.352 154.828C178.44 150.137 181.727 145.793 186.16 144.641C191.513 143.337 196.94 146.9 198.265 152.389C199.282 156.53 198.001 160.958 194.781 163.686C191.755 166.135 187.71 166.731 184.306 165.064C181.442 163.611 179.269 160.946 178.597 157.701C178.398 156.783 178.312 155.819 178.351 154.828H178.352Z" fill="#300000"/>
<path d="M183.272 153.773C183.282 152.366 184.338 151.133 185.547 150.636C187.219 149.975 189.101 150.875 189.861 152.366C190.618 153.95 190.078 155.935 188.486 156.874C187.085 157.637 185.168 157.558 184.176 156.25C183.579 155.603 183.232 154.726 183.272 153.773Z" fill="white"/>
<path d="M123.74 169.215C122.142 165.583 117.723 164.182 114.066 164.472C114.045 164.474 114.027 164.479 114.008 164.482C113.988 164.482 113.97 164.481 113.951 164.482C110.833 164.801 106.691 166.354 105.645 169.656C104.575 173.035 107.994 175.618 110.844 176.477C113.825 177.374 117.138 177.075 119.981 175.846C122.588 174.72 125.067 172.236 123.738 169.214L123.74 169.215Z" fill="#FF5500"/>
<path d="M189.064 167.593C189.045 167.589 189.027 167.589 189.007 167.588C188.989 167.582 188.971 167.575 188.95 167.572C185.553 167.017 181.846 167.824 179.562 170.565C178.641 171.671 178.113 173.102 178.514 174.532C178.9 175.918 179.946 177.007 181.105 177.807C183.625 179.545 186.905 180.302 189.935 179.992C192.803 179.699 196.776 178.007 197.011 174.674C197.297 170.632 192.371 168.21 189.064 167.592V167.593Z" fill="#FF5500"/>
<path d="M152.32 169.499C149.664 166.229 145.544 168.24 143.554 171.077C145.823 173.295 148.804 174.76 152.032 174.652C155.338 174.542 158.375 172.984 160.6 170.631C158.246 168.204 155.052 166.57 152.32 169.499Z" fill="#FF5500"/>
<path d="M163.944 163.053C163.678 161.975 162.794 161.211 161.449 161.167C159.611 161.106 157.944 162.157 156.191 162.524C153.148 163.16 149.957 163.103 146.945 162.325C145.309 161.903 143.32 160.917 141.617 161.535C139.316 162.369 139.823 165.5 140.712 167.226C141.435 168.632 142.404 169.95 143.554 171.075C145.544 168.239 149.664 166.228 152.32 169.497C155.052 166.567 158.246 168.202 160.6 170.629C162.174 168.965 163.343 166.903 163.911 164.671C164.058 164.092 164.065 163.539 163.944 163.051V163.053Z" fill="#300000"/>
<g opacity="0.43">
<path d="M248.036 104.071C247.875 103.802 247.662 103.566 247.435 103.346C246.615 102.55 245.651 102.177 244.61 101.773C243.453 101.324 242.286 100.892 241.092 100.553C239.929 100.224 238.727 100.275 237.546 100.024C236.412 99.7822 235.306 99.4225 234.19 99.1114C232.941 98.7642 231.664 98.4808 230.363 98.4808C234.755 129.708 230.622 166.096 205.302 187.774C202.951 189.762 200.52 191.573 198.02 193.22C175.517 208.04 147.411 209.491 121.661 205.195C117.774 204.456 113.92 203.513 110.136 202.363C102.567 200.065 95.275 196.942 88.5395 192.989C84.0455 190.348 79.7989 187.338 75.8805 183.946C71.3086 179.625 67.1984 174.896 63.5289 169.849C80.2509 194.794 110.303 208.358 140.317 210.877C169.033 213.287 202.267 206.398 224.597 187.042C227.077 184.892 229.424 182.586 231.614 180.124C248.449 161.708 252.583 135.643 249.496 111.685C249.439 111.231 249.378 110.777 249.314 110.323C249.242 108.902 248.897 107.627 248.613 106.202C248.474 105.502 248.423 104.739 248.06 104.109C248.053 104.096 248.044 104.084 248.037 104.071H248.036Z" fill="#B91828"/>
</g>
<path d="M192.363 344.573C189.739 344.677 187.118 344.785 184.491 344.893C163.188 345.714 142.261 345.973 121.074 346.488C140.452 348.036 160.087 348.037 179.337 346.542C182.355 346.357 185.305 346.15 188.248 345.925C191.177 345.7 194.105 345.456 197.033 345.198C196.516 344.939 196 344.939 195.582 344.557C194.829 344.478 193.754 344.475 192.363 344.571V344.573Z" fill="#254A79"/>
<path d="M192.363 343.928C173.887 344.664 155.411 345.109 136.926 345.493C131.642 345.603 126.358 345.717 121.076 345.845C120.236 345.866 120.255 347.07 121.076 347.135C131.036 347.924 141.025 348.316 151.017 348.303C160.9 348.289 170.732 347.738 180.592 347.111C186.079 346.763 191.559 346.327 197.035 345.846C197.781 345.781 197.886 344.852 197.206 344.58C196.445 344.274 195.851 343.918 195.032 343.875C194.143 343.829 193.25 343.875 192.363 343.931C191.537 343.982 191.531 345.273 192.363 345.221C193.166 345.171 194.076 345.048 194.877 345.16C195.543 345.253 196.219 345.566 196.861 345.824L197.032 344.557C177.412 346.281 157.758 347.466 138.058 346.807C132.39 346.618 126.726 346.295 121.074 345.848V347.138C139.641 346.688 158.213 346.427 176.775 345.817C181.972 345.646 187.166 345.428 192.363 345.221C193.191 345.188 193.196 343.898 192.363 343.931V343.928Z" fill="#254A79"/>
</svg>
