<svg width="1043" height="129" viewBox="0 0 1043 129" fill="none" xmlns="http://www.w3.org/2000/svg">
<path fill-rule="evenodd" clip-rule="evenodd" d="M529.904 43.8173L531.752 45.6659L542.017 35.4008C543.673 33.7455 546.072 33.2905 548.138 34.0337L553.13 29.0401C553.491 28.6775 553.737 28.4088 553.868 28.2332C554.252 27.3078 554.928 26.7032 555.944 27.336C556.212 27.508 556.612 27.9102 557.198 28.521C557.822 29.1197 558.211 29.5076 558.383 29.7752C559.016 30.7912 558.41 31.4669 557.486 31.8511C557.31 31.982 557.041 32.228 556.679 32.5888L551.671 37.5941C552.023 38.5964 552.094 39.6754 551.884 40.7082L576.295 28.2728L565.485 17.4626L543.162 30.558L556.258 8.23549L545.448 -2.57471L524.545 38.4589L529.903 43.8169L529.904 43.8173Z" fill="white" fill-opacity="0.13"/>
<path fill-rule="evenodd" clip-rule="evenodd" d="M513.854 35.6171L516.435 36.0262L518.706 21.6879C519.072 19.3759 520.746 17.597 522.855 16.9844L523.958 10.0103C524.037 9.50506 524.078 9.14282 524.081 8.92321C523.848 7.94943 524.039 7.06218 525.233 6.97712C525.551 6.95915 526.112 7.04824 526.945 7.1982C527.801 7.31625 528.344 7.40094 528.641 7.5168C529.75 7.96666 529.657 8.86968 529.135 9.72357C529.07 9.93292 528.997 10.2904 528.916 10.7949L527.807 17.7877C528.681 18.3919 529.372 19.2227 529.809 20.1825L542.249 -4.22647L527.15 -6.61766L516.788 17.098L514.262 -8.65871L499.162 -11.0503L506.37 34.4325L513.854 35.6178L513.854 35.6171Z" fill="white" fill-opacity="0.13"/>
<path fill-rule="evenodd" clip-rule="evenodd" d="M537.997 59.8391L538.406 62.421L552.745 60.15C555.057 59.7841 557.266 60.8261 558.5 62.6417L565.474 61.5359C565.979 61.4545 566.336 61.3816 566.546 61.317C567.4 60.7942 568.303 60.7026 568.753 61.8109C568.868 62.1075 568.957 62.6681 569.071 63.5073C569.224 64.3579 569.31 64.9005 569.292 65.2184C569.208 66.4125 568.32 66.6028 567.347 66.3707C567.127 66.3729 566.765 66.4143 566.26 66.4932L559.267 67.5989C558.962 68.6167 558.385 69.5311 557.608 70.2431L584.667 74.5316L582.276 59.4322L556.519 56.9057L580.234 46.5439L577.842 31.4441L536.813 52.3547L537.998 59.8388L537.997 59.8391Z" fill="white" fill-opacity="0.13"/>
<path fill-rule="evenodd" clip-rule="evenodd" d="M627.585 141.499L629.434 143.347L639.699 133.082C641.354 131.427 643.754 130.972 645.82 131.715L650.812 126.722C651.172 126.359 651.418 126.09 651.55 125.915C651.933 124.989 652.61 124.385 653.625 125.017C653.893 125.189 654.294 125.592 654.88 126.202C655.503 126.801 655.892 127.189 656.064 127.457C656.698 128.473 656.091 129.148 655.168 129.532C654.991 129.663 654.722 129.909 654.36 130.27L649.353 135.275C649.705 136.278 649.775 137.357 649.565 138.39L673.977 125.954L663.166 115.144L640.844 128.239L653.939 105.917L643.129 95.1067L622.227 136.14L627.585 141.498L627.585 141.499Z" fill="white" fill-opacity="0.13"/>
<path fill-rule="evenodd" clip-rule="evenodd" d="M611.535 133.298L614.117 133.707L616.388 119.369C616.754 117.057 618.428 115.278 620.536 114.666L621.64 107.691C621.718 107.186 621.76 106.824 621.763 106.604C621.53 105.631 621.721 104.743 622.915 104.658C623.233 104.64 623.793 104.729 624.627 104.879C625.483 104.997 626.025 105.082 626.322 105.198C627.432 105.648 627.339 106.551 626.817 107.405C626.751 107.614 626.678 107.972 626.598 108.476L625.489 115.469C626.363 116.073 627.054 116.904 627.491 117.864L639.931 93.4547L624.832 91.0635L614.469 114.779L611.943 89.0224L596.843 86.6309L604.052 132.114L611.536 133.299L611.535 133.298Z" fill="white" fill-opacity="0.13"/>
<path fill-rule="evenodd" clip-rule="evenodd" d="M635.679 157.521L636.088 160.102L650.427 157.831C652.739 157.466 654.948 158.508 656.182 160.323L663.156 159.217C663.661 159.136 664.018 159.063 664.228 158.998C665.082 158.476 665.985 158.384 666.435 159.492C666.55 159.789 666.638 160.349 666.753 161.189C666.906 162.039 666.992 162.582 666.974 162.9C666.89 164.094 666.002 164.284 665.029 164.052C664.809 164.054 664.447 164.096 663.942 164.175L656.949 165.28C656.644 166.298 656.067 167.212 655.29 167.924L682.349 172.213L679.958 157.114L654.2 154.587L677.916 144.225L675.524 129.125L634.495 150.036L635.68 157.52L635.679 157.521Z" fill="white" fill-opacity="0.13"/>
<path fill-rule="evenodd" clip-rule="evenodd" d="M332.228 46.1291L334.077 47.9776L344.342 37.7126C345.997 36.0573 348.397 35.6023 350.463 36.3454L355.455 31.3519C355.815 30.9893 356.061 30.7205 356.193 30.5449C356.576 29.6195 357.253 29.015 358.268 29.6478C358.536 29.8197 358.937 30.2219 359.523 30.8327C360.147 31.4314 360.535 31.8193 360.708 32.087C361.341 33.1029 360.735 33.7786 359.811 34.1629C359.635 34.2938 359.366 34.5398 359.004 34.9005L353.996 39.9058C354.348 40.9082 354.419 41.9872 354.209 43.02L378.62 30.5845L367.81 19.7743L345.487 32.8698L358.583 10.5473L347.772 -0.262939L326.87 40.7707L332.228 46.1287L332.228 46.1291Z" fill="white" fill-opacity="0.13"/>
<path fill-rule="evenodd" clip-rule="evenodd" d="M316.179 37.9288L318.761 38.338L321.032 23.9997C321.397 21.6877 323.071 19.9088 325.18 19.2961L326.284 12.322C326.362 11.8168 326.403 11.4546 326.406 11.235C326.173 10.2612 326.365 9.37395 327.558 9.28889C327.876 9.27092 328.437 9.36001 329.27 9.50997C330.127 9.62802 330.669 9.71271 330.966 9.82857C332.076 10.2784 331.982 11.1814 331.46 12.0353C331.395 12.2447 331.322 12.6022 331.241 13.1066L330.132 20.0994C331.006 20.7037 331.698 21.5344 332.135 22.4943L344.575 -1.91471L329.475 -4.30589L319.113 19.4098L316.587 -6.34694L301.487 -8.73849L308.695 36.7442L316.18 37.9296L316.179 37.9288Z" fill="white" fill-opacity="0.13"/>
<path fill-rule="evenodd" clip-rule="evenodd" d="M340.322 62.1509L340.732 64.7327L355.07 62.4618C357.382 62.0959 359.591 63.1379 360.825 64.9535L367.799 63.8477C368.304 63.7663 368.661 63.6933 368.871 63.6288C369.725 63.106 370.628 63.0143 371.078 64.1227C371.193 64.4193 371.282 64.9799 371.397 65.8191C371.549 66.6697 371.636 67.2123 371.618 67.5302C371.533 68.7243 370.645 68.9146 369.672 68.6825C369.453 68.6847 369.09 68.7261 368.585 68.8049L361.592 69.9107C361.288 70.9285 360.711 71.8429 359.933 72.5549L386.992 76.8434L384.601 61.744L358.844 59.2175L382.559 48.8557L380.167 33.7559L339.138 54.6664L340.324 62.1505L340.322 62.1509Z" fill="white" fill-opacity="0.13"/>
<path fill-rule="evenodd" clip-rule="evenodd" d="M429.91 143.811L431.759 145.659L442.024 135.394C443.679 133.739 446.079 133.284 448.145 134.027L453.137 129.034C453.497 128.671 453.743 128.402 453.875 128.227C454.258 127.301 454.935 126.697 455.95 127.329C456.218 127.501 456.619 127.904 457.205 128.514C457.829 129.113 458.217 129.501 458.39 129.769C459.023 130.785 458.417 131.46 457.493 131.845C457.316 131.975 457.048 132.221 456.685 132.582L451.678 137.587C452.03 138.59 452.101 139.669 451.891 140.702L476.302 128.266L465.492 117.456L443.169 130.551L456.265 108.229L445.454 97.4187L424.552 138.452L429.91 143.81L429.91 143.811Z" fill="white" fill-opacity="0.13"/>
<path fill-rule="evenodd" clip-rule="evenodd" d="M413.86 135.61L416.442 136.02L418.713 121.681C419.079 119.369 420.753 117.59 422.862 116.978L423.965 110.004C424.044 109.498 424.085 109.136 424.088 108.917C423.855 107.943 424.046 107.056 425.24 106.971C425.558 106.953 426.118 107.042 426.952 107.192C427.808 107.31 428.351 107.394 428.647 107.51C429.757 107.96 429.664 108.863 429.142 109.717C429.076 109.926 429.003 110.284 428.923 110.788L427.814 117.781C428.688 118.385 429.379 119.216 429.816 120.176L442.256 95.7669L427.157 93.3757L416.795 117.091L414.268 91.3347L399.169 88.9431L406.377 134.426L413.861 135.611L413.86 135.61Z" fill="white" fill-opacity="0.13"/>
<path fill-rule="evenodd" clip-rule="evenodd" d="M438.004 159.833L438.414 162.414L452.752 160.143C455.064 159.778 457.273 160.82 458.507 162.635L465.481 161.529C465.986 161.448 466.343 161.375 466.553 161.31C467.407 160.788 468.31 160.696 468.76 161.804C468.875 162.101 468.964 162.662 469.078 163.501C469.231 164.351 469.317 164.894 469.299 165.212C469.215 166.406 468.327 166.596 467.354 166.364C467.134 166.366 466.772 166.408 466.267 166.487L459.274 167.592C458.97 168.61 458.392 169.525 457.615 170.237L484.674 174.525L482.283 159.426L456.526 156.899L480.241 146.537L477.849 131.438L436.82 152.348L438.005 159.832L438.004 159.833Z" fill="white" fill-opacity="0.13"/>
<path fill-rule="evenodd" clip-rule="evenodd" d="M134.553 48.4411L136.402 50.2896L146.667 40.0246C148.322 38.3693 150.722 37.9143 152.788 38.6575L157.78 33.6639C158.141 33.3013 158.387 33.0326 158.518 32.8569C158.902 31.9316 159.578 31.327 160.594 31.9598C160.862 32.1317 161.262 32.5339 161.848 33.1447C162.472 33.7435 162.861 34.1314 163.033 34.399C163.666 35.4149 163.06 36.0906 162.136 36.4749C161.96 36.6058 161.691 36.8518 161.329 37.2125L156.321 42.2178C156.673 43.2202 156.744 44.2992 156.534 45.332L180.945 32.8965L170.135 22.0863L147.812 35.1818L160.908 12.8593L150.098 2.04907L129.195 43.0827L134.553 48.4407L134.553 48.4411Z" fill="white" fill-opacity="0.13"/>
<path fill-rule="evenodd" clip-rule="evenodd" d="M118.504 40.2408L121.086 40.65L123.357 26.3117C123.723 23.9997 125.397 22.2208 127.505 21.6082L128.609 14.6341C128.687 14.1288 128.728 13.7666 128.732 13.547C128.498 12.5732 128.69 11.686 129.884 11.6009C130.201 11.5829 130.762 11.672 131.595 11.822C132.452 11.94 132.994 12.0247 133.291 12.1406C134.401 12.5904 134.307 13.4935 133.786 14.3473C133.72 14.5567 133.647 14.9142 133.566 15.4187L132.457 22.4115C133.331 23.0157 134.023 23.8465 134.46 24.8063L146.9 0.397305L131.8 -1.99388L121.438 21.7218L118.912 -4.03493L103.812 -6.42648L111.021 39.0563L118.505 40.2416L118.504 40.2408Z" fill="white" fill-opacity="0.13"/>
<path fill-rule="evenodd" clip-rule="evenodd" d="M142.648 64.4629L143.057 67.0448L157.395 64.7738C159.707 64.4079 161.916 65.4499 163.151 67.2655L170.125 66.1597C170.629 66.0783 170.987 66.0054 171.196 65.9408C172.051 65.418 172.953 65.3263 173.403 66.4347C173.519 66.7313 173.607 67.2919 173.722 68.1311C173.874 68.9817 173.961 69.5243 173.943 69.8422C173.858 71.0363 172.97 71.2266 171.997 70.9945C171.778 70.9967 171.415 71.0381 170.91 71.117L163.917 72.2227C163.613 73.2405 163.036 74.1549 162.259 74.8669L189.317 79.1554L186.926 64.056L161.169 61.5295L184.884 51.1677L182.493 36.0679L141.463 56.9785L142.649 64.4626L142.648 64.4629Z" fill="white" fill-opacity="0.13"/>
<path fill-rule="evenodd" clip-rule="evenodd" d="M232.235 146.123L234.083 147.971L244.348 137.706C246.004 136.051 248.403 135.596 250.469 136.339L255.461 131.346C255.822 130.983 256.068 130.714 256.2 130.539C256.583 129.613 257.259 129.009 258.275 129.641C258.543 129.813 258.944 130.216 259.53 130.826C260.153 131.425 260.542 131.813 260.714 132.081C261.347 133.097 260.741 133.772 259.817 134.157C259.641 134.287 259.372 134.533 259.01 134.894L254.003 139.899C254.355 140.902 254.425 141.981 254.215 143.014L278.627 130.578L267.816 119.768L245.493 132.863L258.589 110.541L247.779 99.7307L226.877 140.764L232.235 146.122L232.235 146.123Z" fill="white" fill-opacity="0.13"/>
<path fill-rule="evenodd" clip-rule="evenodd" d="M216.185 137.922L218.767 138.332L221.038 123.993C221.404 121.681 223.078 119.902 225.186 119.29L226.29 112.316C226.368 111.81 226.409 111.448 226.413 111.229C226.18 110.255 226.371 109.368 227.565 109.283C227.883 109.265 228.443 109.354 229.277 109.504C230.133 109.622 230.675 109.706 230.972 109.822C232.082 110.272 231.988 111.175 231.467 112.029C231.401 112.238 231.328 112.596 231.248 113.1L230.138 120.093C231.013 120.697 231.704 121.528 232.141 122.488L244.581 98.0789L229.481 95.6878L219.119 119.403L216.593 93.6467L201.493 91.2552L208.702 136.738L216.186 137.923L216.185 137.922Z" fill="white" fill-opacity="0.13"/>
<path fill-rule="evenodd" clip-rule="evenodd" d="M240.329 162.145L240.738 164.726L255.077 162.455C257.389 162.09 259.598 163.132 260.832 164.947L267.806 163.841C268.311 163.76 268.668 163.687 268.878 163.622C269.732 163.1 270.635 163.008 271.084 164.116C271.2 164.413 271.288 164.974 271.403 165.813C271.556 166.663 271.642 167.206 271.624 167.524C271.539 168.718 270.652 168.908 269.678 168.676C269.459 168.678 269.097 168.72 268.592 168.799L261.599 169.904C261.294 170.922 260.717 171.837 259.94 172.549L286.999 176.837L284.607 161.738L258.85 159.211L282.566 148.849L280.174 133.75L239.145 154.66L240.33 162.144L240.329 162.145Z" fill="white" fill-opacity="0.13"/>
<path fill-rule="evenodd" clip-rule="evenodd" d="M-55.0271 66.7749L-54.618 69.3568L-40.2797 67.0858C-37.9677 66.7199 -35.7583 67.7619 -34.5243 69.5775L-27.5501 68.4717C-27.0457 68.3903 -26.6882 68.3174 -26.4785 68.2528C-25.6242 67.73 -24.7216 67.6384 -24.2717 68.7467C-24.1562 69.0433 -24.0679 69.6039 -23.9531 70.4431C-23.8006 71.2937 -23.7141 71.8363 -23.732 72.1542C-23.8167 73.3483 -24.7043 73.5386 -25.6777 73.3065C-25.897 73.3087 -26.2596 73.3501 -26.7644 73.429L-33.7576 74.5347C-34.0619 75.5525 -34.639 76.4669 -35.4163 77.1789L-8.35761 81.4674L-10.7488 66.368L-36.5059 63.8415L-12.7906 53.4797L-15.1821 38.3799L-56.2114 59.2905L-55.026 66.7746L-55.0271 66.7749Z" fill="white" fill-opacity="0.13"/>
<path fill-rule="evenodd" clip-rule="evenodd" d="M34.5606 148.435L36.4091 150.283L46.6741 140.018C48.3295 138.363 50.7291 137.908 52.7951 138.651L57.7872 133.658C58.1476 133.295 58.3936 133.026 58.5252 132.851C58.9087 131.925 59.5852 131.321 60.6007 131.953C60.8687 132.125 61.2695 132.528 61.8553 133.138C62.479 133.737 62.8676 134.125 63.0399 134.393C63.6731 135.409 63.0671 136.084 62.1432 136.469C61.9668 136.599 61.6981 136.845 61.3358 137.206L56.3283 142.211C56.6803 143.214 56.7511 144.293 56.541 145.326L80.9522 132.89L70.142 122.08L47.8191 135.175L60.9149 112.853L50.1047 102.043L29.2022 143.076L34.5602 148.434L34.5606 148.435Z" fill="white" fill-opacity="0.13"/>
<path fill-rule="evenodd" clip-rule="evenodd" d="M18.5108 140.234L21.0926 140.643L23.3636 126.305C23.7295 123.993 25.4035 122.214 27.512 121.602L28.6156 114.627C28.6941 114.122 28.7351 113.76 28.7384 113.54C28.5052 112.567 28.6966 111.679 29.8904 111.594C30.2083 111.576 30.7688 111.665 31.6022 111.815C32.4586 111.933 33.0009 112.018 33.2979 112.134C34.4077 112.584 34.3142 113.487 33.7925 114.341C33.7268 114.55 33.6539 114.908 33.5732 115.412L32.4641 122.405C33.3382 123.009 34.0297 123.84 34.4667 124.8L46.9066 100.391L31.8071 97.9995L21.445 121.715L18.9189 95.9585L3.81906 93.5669L11.0274 139.05L18.5115 140.235L18.5108 140.234Z" fill="white" fill-opacity="0.13"/>
<path fill-rule="evenodd" clip-rule="evenodd" d="M42.6545 164.457L43.0637 167.038L57.402 164.767C59.714 164.402 61.9233 165.444 63.1574 167.259L70.1315 166.153C70.636 166.072 70.9935 165.999 71.2032 165.934C72.0574 165.412 72.9601 165.32 73.4099 166.428C73.5254 166.725 73.6138 167.286 73.7285 168.125C73.8811 168.975 73.9676 169.518 73.9496 169.836C73.8649 171.03 72.9773 171.22 72.0039 170.988C71.7846 170.99 71.422 171.032 70.9172 171.111L63.924 172.216C63.6197 173.234 63.0426 174.149 62.2654 174.861L89.324 179.149L86.9329 164.05L61.1757 161.523L84.8911 151.161L82.4995 136.062L41.4703 156.972L42.6556 164.456L42.6545 164.457Z" fill="white" fill-opacity="0.13"/>
<path fill-rule="evenodd" clip-rule="evenodd" d="M430.203 44.1022L432.052 45.9508L442.317 35.6858C443.972 34.0304 446.372 33.5754 448.438 34.3186L453.43 29.325C453.79 28.9624 454.036 28.6937 454.168 28.5181C454.551 27.5927 455.228 26.9881 456.243 27.6209C456.511 27.7929 456.912 28.1951 457.498 28.8059C458.122 29.4046 458.51 29.7925 458.683 30.0601C459.316 31.0761 458.71 31.7518 457.786 32.136C457.609 32.2669 457.341 32.5129 456.978 32.8737L451.971 37.879C452.323 38.8813 452.394 39.9603 452.184 40.9931L476.595 28.5577L465.785 17.7475L443.462 30.8429L456.558 8.5204L445.747 -2.28979L424.845 38.7439L430.203 44.1018L430.203 44.1022Z" fill="white" fill-opacity="0.13"/>
<path fill-rule="evenodd" clip-rule="evenodd" d="M414.153 35.902L416.735 36.3111L419.006 21.9728C419.372 19.6608 421.046 17.8819 423.155 17.2693L424.258 10.2952C424.337 9.78997 424.378 9.42773 424.381 9.20812C424.148 8.23434 424.339 7.34709 425.533 7.26203C425.851 7.24407 426.411 7.33316 427.245 7.48311C428.101 7.60117 428.643 7.68586 428.94 7.80171C430.05 8.25157 429.957 9.15459 429.435 10.0085C429.369 10.2178 429.296 10.5753 429.216 11.0798L428.107 18.0726C428.981 18.6768 429.672 19.5076 430.109 20.4674L442.549 -3.94156L427.45 -6.33275L417.088 17.383L414.561 -8.3738L399.462 -10.7653L406.67 34.7174L414.154 35.9027L414.153 35.902Z" fill="white" fill-opacity="0.13"/>
<path fill-rule="evenodd" clip-rule="evenodd" d="M438.297 60.1241L438.706 62.7059L453.045 60.435C455.357 60.0691 457.566 61.111 458.8 62.9266L465.774 61.8208C466.279 61.7394 466.636 61.6665 466.846 61.602C467.7 61.0791 468.603 60.9875 469.053 62.0958C469.168 62.3924 469.257 62.953 469.371 63.7922C469.524 64.6428 469.61 65.1854 469.592 65.5033C469.508 66.6974 468.62 66.8877 467.647 66.6556C467.427 66.6578 467.065 66.6993 466.56 66.7781L459.567 67.8839C459.263 68.9016 458.685 69.816 457.908 70.528L484.967 74.8165L482.576 59.7171L456.819 57.1906L480.534 46.8288L478.142 31.729L437.113 52.6396L438.298 60.1237L438.297 60.1241Z" fill="white" fill-opacity="0.13"/>
<path fill-rule="evenodd" clip-rule="evenodd" d="M527.885 141.784L529.733 143.632L539.998 133.367C541.654 131.712 544.053 131.257 546.119 132L551.111 127.007C551.472 126.644 551.718 126.375 551.849 126.2C552.233 125.274 552.909 124.67 553.925 125.303C554.193 125.475 554.594 125.877 555.18 126.488C555.803 127.086 556.192 127.474 556.364 127.742C556.997 128.758 556.391 129.433 555.467 129.818C555.291 129.949 555.022 130.195 554.66 130.555L549.653 135.561C550.005 136.563 550.075 137.642 549.865 138.675L574.276 126.239L563.466 115.429L541.143 128.525L554.239 106.202L543.429 95.3918L522.526 136.425L527.884 141.783L527.885 141.784Z" fill="white" fill-opacity="0.13"/>
<path fill-rule="evenodd" clip-rule="evenodd" d="M511.835 133.584L514.417 133.993L516.688 119.654C517.054 117.342 518.728 115.564 520.836 114.951L521.94 107.977C522.018 107.472 522.059 107.109 522.063 106.89C521.829 105.916 522.021 105.029 523.215 104.944C523.532 104.926 524.093 105.015 524.926 105.165C525.783 105.283 526.325 105.367 526.622 105.483C527.732 105.933 527.638 106.836 527.117 107.69C527.051 107.899 526.978 108.257 526.897 108.761L525.788 115.754C526.662 116.358 527.354 117.189 527.791 118.149L540.231 93.7401L525.131 91.3489L514.769 115.065L512.243 89.3078L497.143 86.9163L504.352 132.399L511.836 133.584L511.835 133.584Z" fill="white" fill-opacity="0.13"/>
<path fill-rule="evenodd" clip-rule="evenodd" d="M535.979 157.806L536.388 160.388L550.726 158.117C553.038 157.751 555.248 158.793 556.482 160.608L563.456 159.502C563.96 159.421 564.318 159.348 564.528 159.284C565.382 158.761 566.285 158.669 566.734 159.777C566.85 160.074 566.938 160.635 567.053 161.474C567.206 162.324 567.292 162.867 567.274 163.185C567.189 164.379 566.302 164.569 565.328 164.337C565.109 164.339 564.747 164.381 564.242 164.46L557.248 165.565C556.944 166.583 556.367 167.498 555.59 168.21L582.648 172.498L580.257 157.399L554.5 154.872L578.216 144.51L575.824 129.411L534.795 150.321L535.98 157.805L535.979 157.806Z" fill="white" fill-opacity="0.13"/>
<path fill-rule="evenodd" clip-rule="evenodd" d="M232.524 46.4181L234.373 48.2667L244.638 38.0017C246.293 36.3463 248.693 35.8913 250.759 36.6345L255.751 31.6409C256.111 31.2783 256.357 31.0096 256.489 30.834C256.872 29.9086 257.549 29.304 258.564 29.9368C258.832 30.1088 259.233 30.511 259.819 31.1218C260.443 31.7205 260.831 32.1084 261.004 32.376C261.637 33.392 261.031 34.0677 260.107 34.4519C259.93 34.5828 259.662 34.8288 259.299 35.1896L254.292 40.1949C254.644 41.1973 254.715 42.2763 254.505 43.3091L278.916 30.8736L268.106 20.0634L245.783 33.1588L258.879 10.8363L248.068 0.026123L227.166 41.0598L232.524 46.4178L232.524 46.4181Z" fill="white" fill-opacity="0.13"/>
<path fill-rule="evenodd" clip-rule="evenodd" d="M216.474 38.2179L219.056 38.6271L221.327 24.2888C221.693 21.9768 223.367 20.1979 225.476 19.5852L226.579 12.6111C226.658 12.1059 226.699 11.7437 226.702 11.524C226.469 10.5503 226.66 9.66301 227.854 9.57795C228.172 9.55998 228.732 9.64907 229.566 9.79903C230.422 9.91708 230.965 10.0018 231.261 10.1176C232.371 10.5675 232.278 11.4705 231.756 12.3244C231.69 12.5337 231.617 12.8912 231.537 13.3957L230.428 20.3885C231.302 20.9927 231.993 21.8235 232.43 22.7834L244.87 -1.62564L229.771 -4.01683L219.409 19.6989L216.882 -6.05788L201.783 -8.44943L208.991 37.0333L216.475 38.2186L216.474 38.2179Z" fill="white" fill-opacity="0.13"/>
<path fill-rule="evenodd" clip-rule="evenodd" d="M240.618 62.44L241.028 65.0218L255.366 62.7509C257.678 62.385 259.887 63.4269 261.121 65.2425L268.095 64.1368C268.6 64.0554 268.957 63.9824 269.167 63.9179C270.021 63.3951 270.924 63.3034 271.374 64.4117C271.489 64.7083 271.578 65.2689 271.692 66.1081C271.845 66.9587 271.931 67.5013 271.913 67.8192C271.829 69.0133 270.941 69.2036 269.968 68.9715C269.749 68.9737 269.386 69.0152 268.881 69.094L261.888 70.1998C261.584 71.2175 261.006 72.1319 260.229 72.8439L287.288 77.1324L284.897 62.033L259.14 59.5065L282.855 49.1447L280.463 34.0449L239.434 54.9555L240.619 62.4396L240.618 62.44Z" fill="white" fill-opacity="0.13"/>
<path fill-rule="evenodd" clip-rule="evenodd" d="M330.206 144.1L332.054 145.948L342.319 135.683C343.975 134.028 346.374 133.573 348.44 134.316L353.432 129.322C353.793 128.96 354.039 128.691 354.17 128.515C354.554 127.59 355.23 126.985 356.246 127.618C356.514 127.79 356.914 128.192 357.5 128.803C358.124 129.402 358.513 129.79 358.685 130.057C359.318 131.073 358.712 131.749 357.788 132.133C357.612 132.264 357.343 132.51 356.981 132.871L351.973 137.876C352.325 138.879 352.396 139.958 352.186 140.99L376.597 128.555L365.787 117.745L343.464 130.84L356.56 108.518L345.75 97.7075L324.847 138.741L330.205 144.099L330.206 144.1Z" fill="white" fill-opacity="0.13"/>
<path fill-rule="evenodd" clip-rule="evenodd" d="M314.156 135.899L316.738 136.308L319.009 121.97C319.375 119.658 321.049 117.879 323.157 117.267L324.261 110.293C324.339 109.787 324.38 109.425 324.384 109.205C324.15 108.232 324.342 107.344 325.536 107.259C325.854 107.241 326.414 107.33 327.247 107.48C328.104 107.598 328.646 107.683 328.943 107.799C330.053 108.249 329.959 109.152 329.438 110.006C329.372 110.215 329.299 110.573 329.218 111.077L328.109 118.07C328.983 118.674 329.675 119.505 330.112 120.465L342.552 96.0558L327.452 93.6646L317.09 117.38L314.564 91.6235L299.464 89.232L306.673 134.715L314.157 135.9L314.156 135.899Z" fill="white" fill-opacity="0.13"/>
<path fill-rule="evenodd" clip-rule="evenodd" d="M338.3 160.121L338.709 162.703L353.047 160.432C355.359 160.066 357.569 161.108 358.803 162.924L365.777 161.818C366.281 161.737 366.639 161.664 366.848 161.599C367.703 161.076 368.605 160.985 369.055 162.093C369.171 162.39 369.259 162.95 369.374 163.79C369.526 164.64 369.613 165.183 369.595 165.501C369.51 166.695 368.623 166.885 367.649 166.653C367.43 166.655 367.067 166.697 366.562 166.775L359.569 167.881C359.265 168.899 358.688 169.813 357.911 170.525L384.969 174.814L382.578 159.714L356.821 157.188L380.536 146.826L378.145 131.726L337.116 152.637L338.301 160.121L338.3 160.121Z" fill="white" fill-opacity="0.13"/>
<path fill-rule="evenodd" clip-rule="evenodd" d="M34.8491 48.7301L36.6977 50.5787L46.9627 40.3137C48.6181 38.6583 51.0177 38.2033 53.0837 38.9465L58.0758 33.953C58.4362 33.5904 58.6822 33.3216 58.8138 33.146C59.1973 32.2206 59.8737 31.616 60.8893 32.2488C61.1573 32.4208 61.558 32.823 62.1439 33.4338C62.7676 34.0325 63.1562 34.4204 63.3285 34.6881C63.9617 35.704 63.3556 36.3797 62.4317 36.7639C62.2554 36.8948 61.9866 37.1408 61.6244 37.5016L56.6169 42.5069C56.9689 43.5093 57.0396 44.5883 56.8296 45.6211L81.2408 33.1856L70.4306 22.3754L48.1077 35.4708L61.2035 13.1483L50.3933 2.33813L29.4908 43.3718L34.8488 48.7298L34.8491 48.7301Z" fill="white" fill-opacity="0.13"/>
<path fill-rule="evenodd" clip-rule="evenodd" d="M18.7994 40.5297L21.3812 40.9388L23.6521 26.6005C24.018 24.2885 25.6921 22.5096 27.8006 21.897L28.9042 14.9229C28.9826 14.4177 29.0237 14.0554 29.027 13.8358C28.7938 12.862 28.9852 11.9748 30.179 11.8897C30.4968 11.8718 31.0574 11.9608 31.8908 12.1108C32.7472 12.2289 33.2895 12.3135 33.5864 12.4294C34.6962 12.8793 34.6028 13.7823 34.081 14.6362C34.0154 14.8455 33.9424 15.203 33.8618 15.7075L32.7527 22.7003C33.6268 23.3045 34.3182 24.1353 34.7553 25.0951L47.1952 0.686123L32.0957 -1.70506L21.7335 22.0106L19.2074 -3.74611L4.10763 -6.13766L11.316 39.3451L18.8001 40.5304L18.7994 40.5297Z" fill="white" fill-opacity="0.13"/>
<path fill-rule="evenodd" clip-rule="evenodd" d="M42.9433 64.7517L43.3525 67.3336L57.6908 65.0626C60.0028 64.6967 62.2121 65.7387 63.4462 67.5543L70.4203 66.4485C70.9248 66.3671 71.2823 66.2942 71.492 66.2296C72.3462 65.7068 73.2489 65.6152 73.6987 66.7235C73.8142 67.0201 73.9026 67.5807 74.0174 68.4199C74.1699 69.2705 74.2564 69.8131 74.2384 70.131C74.1537 71.3251 73.2661 71.5154 72.2927 71.2833C72.0735 71.2855 71.7109 71.3269 71.206 71.4058L64.2128 72.5115C63.9085 73.5293 63.3314 74.4437 62.5542 75.1557L89.6129 79.4442L87.2217 64.3448L61.4646 61.8183L85.1799 51.4565L82.7883 36.3567L41.7591 57.2673L42.9444 64.7514L42.9433 64.7517Z" fill="white" fill-opacity="0.13"/>
<path fill-rule="evenodd" clip-rule="evenodd" d="M132.531 146.412L134.379 148.26L144.644 137.995C146.299 136.34 148.699 135.885 150.765 136.628L155.757 131.634C156.118 131.272 156.364 131.003 156.495 130.827C156.879 129.902 157.555 129.297 158.571 129.93C158.839 130.102 159.239 130.504 159.825 131.115C160.449 131.714 160.838 132.102 161.01 132.369C161.643 133.385 161.037 134.061 160.113 134.445C159.937 134.576 159.668 134.822 159.306 135.183L154.298 140.188C154.65 141.191 154.721 142.27 154.511 143.302L178.922 130.867L168.112 120.057L145.789 133.152L158.885 110.83L148.075 100.02L127.172 141.053L132.53 146.411L132.531 146.412Z" fill="white" fill-opacity="0.13"/>
<path fill-rule="evenodd" clip-rule="evenodd" d="M116.481 138.211L119.063 138.62L121.334 124.282C121.699 121.97 123.373 120.191 125.482 119.579L126.586 112.605C126.664 112.099 126.705 111.737 126.708 111.517C126.475 110.544 126.667 109.656 127.86 109.571C128.178 109.553 128.739 109.642 129.572 109.792C130.429 109.91 130.971 109.995 131.268 110.111C132.378 110.561 132.284 111.464 131.762 112.318C131.697 112.527 131.624 112.885 131.543 113.389L130.434 120.382C131.308 120.986 132 121.817 132.437 122.777L144.877 98.3678L129.777 95.9766L119.415 119.692L116.889 93.9355L101.789 91.544L108.997 137.027L116.482 138.212L116.481 138.211Z" fill="white" fill-opacity="0.13"/>
<path fill-rule="evenodd" clip-rule="evenodd" d="M140.625 162.433L141.034 165.015L155.372 162.744C157.684 162.378 159.894 163.42 161.128 165.236L168.102 164.13C168.606 164.049 168.964 163.976 169.173 163.911C170.028 163.388 170.93 163.297 171.38 164.405C171.496 164.702 171.584 165.262 171.699 166.102C171.851 166.952 171.938 167.495 171.92 167.813C171.835 169.007 170.948 169.197 169.974 168.965C169.755 168.967 169.392 169.009 168.887 169.087L161.894 170.193C161.59 171.211 161.013 172.125 160.236 172.837L187.294 177.126L184.903 162.026L159.146 159.5L182.861 149.138L180.47 134.038L139.44 154.949L140.626 162.433L140.625 162.433Z" fill="white" fill-opacity="0.13"/>
</svg>
