<svg width="15" height="16" viewBox="0 0 15 16" fill="none" xmlns="http://www.w3.org/2000/svg">
<path d="M2.29312 2.27014C2.29271 2.27014 2.29226 2.27014 2.29185 2.27014C2.14999 2.27014 2.01655 2.32544 1.91579 2.42595C1.81392 2.52757 1.75781 2.66287 1.75781 2.80691V10.8557C1.75781 11.1508 1.99887 11.3915 2.29524 11.3923C3.54464 11.3953 5.63788 11.6557 7.08192 13.1668V4.74358C7.08192 4.64353 7.05637 4.54954 7.00813 4.47177C5.82293 2.56307 3.54534 2.27307 2.29312 2.27014Z" fill="#1E3D65"/>
<path d="M13.242 10.8557V2.80685C13.242 2.66281 13.1859 2.52751 13.084 2.42589C12.9833 2.32538 12.8498 2.27008 12.708 2.27008C12.7076 2.27008 12.7071 2.27008 12.7067 2.27008C11.4545 2.27306 9.17696 2.56306 7.99171 4.47175C7.94347 4.54953 7.91797 4.64352 7.91797 4.74357V13.1668C9.36201 11.6556 11.4553 11.3952 12.7047 11.3922C13.001 11.3915 13.242 11.1508 13.242 10.8557Z" fill="#1E3D65"/>
<path d="M14.4628 4.12628H14.0736V10.8556C14.0736 11.6092 13.4596 12.2237 12.7048 12.2256C11.6451 12.2281 9.89769 12.4353 8.66016 13.6066C10.8005 13.0826 13.0567 13.4232 14.3426 13.7163C14.5032 13.7528 14.6691 13.7151 14.7977 13.6125C14.9259 13.5103 14.9994 13.3574 14.9994 13.1933V4.66295C14.9995 4.36704 14.7587 4.12628 14.4628 4.12628Z" fill="#1E3D65"/>
<path d="M0.925862 10.8556V4.12628H0.536668C0.240809 4.12628 0 4.36704 0 4.66295V13.1931C0 13.3573 0.0735356 13.5101 0.201718 13.6124C0.330254 13.7148 0.496012 13.7528 0.65682 13.7161C1.94268 13.423 4.199 13.0824 6.33921 13.6065C5.10173 12.4352 3.35435 12.2281 2.2946 12.2256C1.5399 12.2237 0.925862 11.6092 0.925862 10.8556Z" fill="#1E3D65"/>
</svg>
