<svg width="20" height="20" viewBox="0 0 20 20" fill="none" xmlns="http://www.w3.org/2000/svg">
<g clip-path="url(#clip0_381_92878)">
<path d="M15.3412 19.9088L13.8505 19.0306V14.3936C13.8505 14.2269 13.7153 14.0917 13.5486 14.0917C13.3818 14.0917 13.2466 14.2269 13.2466 14.3936V19.0306L11.756 19.9088C11.713 19.9341 11.731 20.0001 11.7809 20.0001H15.3162C15.3662 20.0001 15.3842 19.9341 15.3412 19.9088Z" fill="#D1DCED"/>
<path d="M7.28199 5.46223V0.27875C7.28199 0.124805 7.15718 0 7.00323 0H5.50796C5.35402 0 5.22921 0.124805 5.22921 0.27875V5.46223C5.22921 5.75281 5.13245 6.03512 4.95417 6.26461L4.28878 7.12117C3.86948 7.6609 3.64191 8.32492 3.64191 9.00836V19.429C3.64191 19.7444 3.89753 20 4.21288 20H8.29831C8.61366 20 8.86929 19.7444 8.86929 19.429V9.00836C8.86929 8.32488 8.64167 7.6609 8.22241 7.12117L7.55702 6.26461C7.37874 6.03512 7.28199 5.75281 7.28199 5.46223Z" fill="#96223B"/>
<path d="M15.6979 8.66248H11.3992C11.3992 8.66248 10.395 11.1433 10.8647 12.7288C11.256 14.0494 12.4193 14.615 13.0787 14.8349C13.3837 14.9367 13.7134 14.9367 14.0182 14.8349C14.6777 14.615 15.841 14.0494 16.2323 12.7288C16.7021 11.1433 15.6979 8.66248 15.6979 8.66248Z" fill="#E5EBF6"/>
<path d="M15.6979 8.66248H13.8773C13.8773 8.66248 14.6776 11.0967 14.4117 12.7288C14.2786 13.546 13.9759 14.2906 13.6172 14.9095C13.7529 14.9032 13.8879 14.8785 14.0183 14.8349C14.6777 14.615 15.8411 14.0494 16.2323 12.7288C16.7022 11.1433 15.6979 8.66248 15.6979 8.66248Z" fill="#D1DCED"/>
<path d="M10.7607 11.2958C10.7193 11.7944 10.7375 12.2951 10.866 12.7289C11.2573 14.0494 12.4206 14.615 13.08 14.835C13.3849 14.9367 13.7146 14.9367 14.0195 14.835C14.6789 14.615 15.8423 14.0494 16.2335 12.7289C16.3621 12.2951 16.3803 11.7944 16.3389 11.2958H10.7607Z" fill="#96223B"/>
<path d="M16.2542 12.6501C16.2565 12.6413 16.2586 12.6324 16.2608 12.6235C16.2652 12.6057 16.2697 12.5879 16.2738 12.5699C16.2763 12.5594 16.2784 12.5487 16.2807 12.5381C16.2843 12.5216 16.2879 12.505 16.2912 12.4883C16.2935 12.4769 16.2955 12.4655 16.2977 12.4541C16.3007 12.438 16.3037 12.4218 16.3064 12.4056C16.3084 12.3938 16.3103 12.3819 16.3122 12.37C16.3147 12.3539 16.3172 12.3377 16.3195 12.3215C16.3212 12.3095 16.3229 12.2975 16.3245 12.2854C16.3266 12.269 16.3287 12.2526 16.3306 12.2361C16.332 12.2242 16.3334 12.2122 16.3346 12.2002C16.3364 12.1833 16.3381 12.1663 16.3397 12.1493C16.3408 12.1376 16.3419 12.126 16.3429 12.1143C16.3443 12.0964 16.3456 12.0786 16.3469 12.0607C16.3477 12.0496 16.3485 12.0386 16.3492 12.0276C16.3504 12.0079 16.3514 11.9882 16.3523 11.9685C16.3527 11.9591 16.3533 11.9498 16.3537 11.9405C16.3547 11.9156 16.3554 11.8907 16.356 11.8657C16.3561 11.8613 16.3563 11.857 16.3564 11.8527C16.357 11.8225 16.3574 11.7922 16.3574 11.7619C16.3574 11.7613 16.3574 11.7608 16.3574 11.7602C16.3575 11.731 16.3572 11.7017 16.3567 11.6723C16.3566 11.6656 16.3564 11.6589 16.3562 11.6521C16.3558 11.6289 16.3552 11.6057 16.3545 11.5824C16.3542 11.5738 16.3538 11.5653 16.3534 11.5567C16.3526 11.5351 16.3517 11.5134 16.3506 11.4918C16.3502 11.4827 16.3496 11.4736 16.3491 11.4644C16.348 11.4433 16.3468 11.4221 16.3454 11.4009C16.3447 11.3916 16.3441 11.3824 16.3434 11.3732C16.342 11.3518 16.3403 11.3304 16.3386 11.3091C16.3382 11.3046 16.3379 11.3002 16.3375 11.2958H14.4306C14.4775 11.7895 14.4835 12.2884 14.4117 12.7289C14.2786 13.5461 13.9759 14.2906 13.6172 14.9095H13.6173C13.651 14.9079 13.6846 14.9052 13.7182 14.9014C13.7184 14.9013 13.7187 14.9013 13.7189 14.9013C13.7504 14.8977 13.7817 14.8928 13.8129 14.8872C13.8171 14.8864 13.8213 14.8857 13.8254 14.8849C13.8552 14.8792 13.885 14.8727 13.9145 14.8652C13.9191 14.864 13.9236 14.8627 13.928 14.8616C13.9582 14.8536 13.9883 14.8449 14.0181 14.835L14.0182 14.8349C14.0801 14.8143 14.1463 14.7906 14.2159 14.7636C14.2391 14.7546 14.2627 14.7452 14.2866 14.7354C14.9564 14.4618 15.8899 13.8843 16.2323 12.7288C16.24 12.7028 16.2473 12.6766 16.2542 12.6501Z" fill="#841935"/>
<path d="M8.22205 7.12117L7.55666 6.26461C7.37838 6.03512 7.28162 5.75281 7.28162 5.46227V0.27875C7.28162 0.124805 7.15682 0 7.00287 0H6.25522V6.70797C6.25522 6.89902 6.30987 7.08566 6.41088 7.24781C6.62452 7.5907 6.98241 8.27465 6.98241 9.00836V19.429C6.98241 19.7444 6.72678 20 6.41143 20H8.29791C8.61327 20 8.86889 19.7444 8.86889 19.429V9.00836C8.86893 8.32492 8.64131 7.6609 8.22205 7.12117Z" fill="#841935"/>
<path d="M8.8687 15.0963H6.09752C5.82217 15.0963 5.59897 14.8731 5.59897 14.5977V11.0651C5.59897 10.7897 5.82217 10.5665 6.09752 10.5665H8.8687V15.0963Z" fill="#C8E8E5"/>
<path d="M8.86939 10.5664H6.98306V15.0961H8.86939V10.5664Z" fill="#B2D8D4"/>
<path d="M7.00324 0H5.50797C5.35402 0 5.22922 0.124805 5.22922 0.27875V4.84238H7.28203C7.28203 4.84238 7.28203 1.30898 7.28203 0.27875C7.28199 0.124805 7.15719 0 7.00324 0Z" fill="#FFDC6C"/>
<path d="M7.28162 4.84238V1.25098C7.28162 0.849258 7.28162 0.504102 7.28162 0.278711C7.28162 0.249844 7.27725 0.221992 7.26909 0.19582C7.26385 0.179023 7.25702 0.162969 7.24885 0.147695C7.24854 0.14707 7.2483 0.146445 7.24795 0.145859C7.2353 0.122539 7.21936 0.101289 7.20084 0.0826172C7.20053 0.0823047 7.20026 0.0819531 7.19994 0.0816406C7.17678 0.0584766 7.1494 0.0396094 7.11928 0.0257031C7.10842 0.0207031 7.09733 0.0160938 7.08577 0.0125C7.05955 0.004375 7.03174 0 7.00287 0H6.25522V4.84238H7.28162Z" fill="#F7CE5E"/>
<path d="M7.33379 1.89864H5.17648C5.11355 1.89864 5.0625 1.84762 5.0625 1.78465V1.00766C5.0625 0.944731 5.11352 0.893677 5.17648 0.893677H7.33379C7.39672 0.893677 7.44777 0.944692 7.44777 1.00766V1.78465C7.44773 1.84762 7.39672 1.89864 7.33379 1.89864Z" fill="#FFBF14"/>
<path d="M7.33373 0.893921H5.56119V1.89884H7.33373C7.39666 1.89884 7.44771 1.84783 7.44771 1.78486V1.00787C7.44767 0.944937 7.39666 0.893921 7.33373 0.893921Z" fill="#EDA60A"/>
</g>
<defs>
<clipPath id="clip0_381_92878">
<rect width="20" height="20" fill="white"/>
</clipPath>
</defs>
</svg>
