<svg width="18" height="18" viewBox="0 0 18 18" fill="none" xmlns="http://www.w3.org/2000/svg">
<path fill-rule="evenodd" clip-rule="evenodd" d="M0 0.0102329C3.78392 -0.00829076 5.74287 0.00249772 6.24936 0.0102329L9.02338 10.3122L11.7273 0.0102329H18L14.5112 10.5944C14.3012 10.3309 14.0494 10.1631 13.8093 10.0029C13.7244 9.94629 13.6408 9.89059 13.561 9.83196C13.5465 9.49311 13.5023 6.70147 13.6018 6.4553C13.6745 6.27495 13.7023 6.07967 13.6047 5.90869C13.4364 5.6138 13.135 5.61991 12.7322 5.62812C12.6625 5.62954 12.5898 5.63103 12.5142 5.63103C12.4505 5.63103 12.3859 5.62961 12.3215 5.62812C11.9306 5.61943 11.5489 5.61088 11.4108 5.92707C11.316 6.14427 11.3622 6.26633 11.4201 6.41941C11.4305 6.44696 11.4413 6.47559 11.4518 6.50585C11.4818 6.59325 11.4764 7.72773 11.4719 8.65758C11.4692 9.21213 11.4669 9.69395 11.4727 9.83725C11.4455 9.8534 11.4197 9.86874 11.395 9.88339C11.0139 10.1093 10.9052 10.1738 10.6225 10.4859C9.95234 11.2262 9.98652 12.3996 10.0198 13.545C10.0267 13.7816 10.0335 14.0169 10.0342 14.2471L10.0402 18H5.89087L0 0.0102329Z" fill="#FF5500"/>
</svg>
