<svg width="20" height="20" viewBox="0 0 20 20" fill="none" xmlns="http://www.w3.org/2000/svg">
<path d="M15.8332 4.16663H14.9998V2.49996C14.9998 2.27895 14.912 2.06698 14.7558 1.9107C14.5995 1.75442 14.3875 1.66663 14.1665 1.66663C13.9455 1.66663 13.7335 1.75442 13.5772 1.9107C13.421 2.06698 13.3332 2.27895 13.3332 2.49996V4.16663H6.6665V2.49996C6.6665 2.27895 6.57871 2.06698 6.42243 1.9107C6.26615 1.75442 6.05419 1.66663 5.83317 1.66663C5.61216 1.66663 5.4002 1.75442 5.24392 1.9107C5.08764 2.06698 4.99984 2.27895 4.99984 2.49996V4.16663H4.1665C3.50346 4.16663 2.86758 4.43002 2.39874 4.89886C1.9299 5.3677 1.6665 6.00358 1.6665 6.66663V7.49996H18.3332V6.66663C18.3332 6.00358 18.0698 5.3677 17.6009 4.89886C17.1321 4.43002 16.4962 4.16663 15.8332 4.16663Z" fill="#8F8F8F"/>
<path d="M1.6665 15.8333C1.6665 16.4963 1.9299 17.1322 2.39874 17.601C2.86758 18.0699 3.50346 18.3333 4.1665 18.3333H15.8332C16.4962 18.3333 17.1321 18.0699 17.6009 17.601C18.0698 17.1322 18.3332 16.4963 18.3332 15.8333V9.16663H1.6665V15.8333Z" fill="#8F8F8F"/>
</svg>
