<svg width="62" height="62" viewBox="0 0 62 62" fill="none" xmlns="http://www.w3.org/2000/svg">
<path d="M54.587 14.826H48.1174L44.5457 9.43473C43.1978 7.41299 40.8391 6.19995 38.413 6.19995H23.587C21.1609 6.19995 18.8022 7.41299 17.4543 9.43473L13.8826 14.826H7.41304C3.30217 14.826 0 18.1282 0 22.2391V48.3869C0 52.4978 3.30217 55.8 7.41304 55.8H54.587C58.6978 55.8 62 52.4978 62 48.3869V22.2391C62 18.1282 58.6978 14.826 54.587 14.826ZM31 49.7347C21.7674 49.7347 14.287 42.2543 14.287 33.0217C14.287 23.7891 21.7674 16.376 31 16.376C40.2326 16.376 47.713 23.8565 47.713 33.0891C47.713 42.2543 40.2326 49.7347 31 49.7347ZM53.6435 25.2717C53.5761 25.2717 53.5087 25.2717 53.3739 25.2717H50.6783C49.4652 25.2043 48.5217 24.1934 48.5891 22.9804C48.6565 21.8347 49.5326 20.9586 50.6783 20.8913H53.3739C54.587 20.8239 55.5978 21.7673 55.6652 22.9804C55.7326 24.1934 54.8565 25.2043 53.6435 25.2717Z" fill="#E7E7F0"/>
<path d="M31.0002 23.7892C25.8785 23.7892 21.7002 27.9674 21.7002 33.0892C21.7002 38.2109 25.8785 42.3218 31.0002 42.3218C36.1219 42.3218 40.3002 38.1435 40.3002 33.0218C40.3002 27.9001 36.1219 23.7892 31.0002 23.7892Z" fill="#E7E7F0"/>
</svg>
