<svg width="80" height="80" viewBox="0 0 80 80" fill="none" xmlns="http://www.w3.org/2000/svg">
<path d="M40 0C17.9446 0 0 17.9431 0 40C0 62.0569 17.9446 80 40 80C62.0554 80 80 62.0569 80 40C80 17.9431 62.0554 0 40 0ZM40 76.9231C19.6415 76.9231 3.07692 60.3585 3.07692 40C3.07692 19.6415 19.6415 3.07692 40 3.07692C60.3585 3.07692 76.9231 19.6415 76.9231 40C76.9231 60.3585 60.3585 76.9231 40 76.9231Z" fill="#FF5500"/>
<path d="M58.8491 23.5938L35.2045 50.1938L20.9599 38.7984C20.2983 38.2677 19.3276 38.3769 18.7983 39.0384C18.2676 39.7031 18.3753 40.6707 19.0383 41.2015L34.423 53.5092C34.706 53.7354 35.046 53.8461 35.3845 53.8461C35.8091 53.8461 36.2322 53.6708 36.5353 53.3292L61.1506 25.6369C61.7153 25.0031 61.6583 24.0292 61.023 23.4661C60.386 22.9 59.4153 22.9569 58.8491 23.5938Z" fill="#FF5500"/>
</svg>
