<svg width="20" height="20" viewBox="0 0 20 20" fill="none" xmlns="http://www.w3.org/2000/svg">
<g clip-path="url(#clip0_501_19275)">
<path d="M10 20C15.5228 20 20 15.5228 20 10C20 4.47715 15.5228 0 10 0C4.47715 0 0 4.47715 0 10C0 15.5228 4.47715 20 10 20Z" fill="#F0F0F0"/>
<path d="M19.9996 10.0001C19.9996 5.70043 17.2859 2.035 13.4778 0.62207V19.3781C17.2859 17.9652 19.9996 14.2997 19.9996 10.0001Z" fill="#D80027"/>
<path d="M0 9.99996C0 14.2996 2.71379 17.965 6.52176 19.378V0.621948C2.71379 2.03488 0 5.70031 0 9.99996Z" fill="#0052B4"/>
</g>
<defs>
<clipPath id="clip0_501_19275">
<rect width="20" height="20" fill="white"/>
</clipPath>
</defs>
</svg>
