<svg width="20" height="20" viewBox="0 0 20 20" fill="none" xmlns="http://www.w3.org/2000/svg">
<g clip-path="url(#clip0_381_92837)">
<path d="M7.02502 8.25625C7.25627 8.4875 7.4344 8.75 7.55627 9.03125C7.26877 9.15313 6.9969 9.3375 6.76252 9.57188C6.09065 10.2438 5.86252 11.1875 6.07815 12.0469C5.3719 11.8688 4.6094 11.9906 3.98752 12.4156C3.75627 12.2938 3.5344 12.1375 3.34065 11.9406C3.11252 11.7125 2.9344 11.4531 2.81252 11.175C2.3719 10.2156 2.55002 9.04688 3.34065 8.25625C3.82502 7.77188 4.4469 7.52188 5.07815 7.5C5.78127 7.46563 6.49065 7.72188 7.02502 8.25625Z" fill="#9D2888"/>
<path d="M7.55622 9.03122C7.43435 8.74997 7.25622 8.48747 7.02497 8.25622C6.9431 8.17435 6.85591 8.10122 6.76654 8.03247C5.56091 8.7981 5.22091 10.404 4.37497 11.25C4.11529 11.6397 3.63966 11.6515 3.10529 11.6668C3.17716 11.7618 3.25404 11.854 3.3406 11.9406C3.53435 12.1375 3.75622 12.2937 3.98747 12.4156C4.60935 11.9906 5.37185 11.8687 6.0781 12.0468C5.86247 11.1875 6.0906 10.2437 6.76247 9.57185C6.99685 9.33747 7.26872 9.1531 7.55622 9.03122Z" fill="#813990"/>
<path d="M3.46653 9.74717C3.52465 9.43936 3.70122 8.9228 4.23497 8.61655C4.49497 8.46749 4.83622 8.58155 4.95653 8.85592C5.06309 9.09967 5.14028 9.43936 5.04403 9.84624C5.01747 9.95842 4.9459 10.0544 4.85403 10.124C4.59715 10.3194 4.04903 10.6334 3.59684 10.194C3.47934 10.08 3.4359 9.90842 3.46653 9.74717Z" fill="#C47EB8"/>
<path d="M13.8653 6.1532V6.15632L13.3403 6.6782C13.231 6.5657 13.1153 6.47195 12.9935 6.38757C13.4841 6.27507 13.8247 6.1657 13.8653 6.1532Z" fill="#C47EB8"/>
<path d="M13.3411 6.67813L13.8661 6.15625C13.8505 6.20625 13.7443 6.54375 13.6349 7.025C13.5474 6.90312 13.4536 6.7875 13.3411 6.67813Z" fill="#9D2888"/>
<path d="M19.6871 9.06252L18.6058 9.3094C18.6058 9.3094 19.6871 10.625 19.659 14.0469C19.659 14.0469 18.0152 12.4031 15.8183 11.6594C15.5277 11.5594 15.2277 11.4781 14.9215 11.4156C14.1621 11.2625 13.7527 10.7594 13.5558 10.1188C13.2558 9.15002 13.4433 7.86877 13.634 7.02815V7.02502C13.7433 6.54377 13.8496 6.20627 13.8652 6.15627C13.8652 6.15627 13.8652 6.15627 13.8652 6.15315C13.8683 6.15002 13.8683 6.15002 13.8683 6.15002C13.8683 6.15002 17.8433 7.21877 19.6871 9.06252Z" fill="#80A53F"/>
<path d="M18.9255 13.4102C19.3883 13.7777 19.6589 14.0468 19.6589 14.0468C19.6871 10.6249 18.6058 9.30926 18.6058 9.30926L19.6871 9.06239C18.1608 7.53614 15.1758 6.54145 14.1927 6.24426C16.3183 8.19551 17.4774 10.933 18.9255 13.4102Z" fill="#24725F"/>
<path d="M15.7087 2.20312L16.4994 2.99375C16.4994 2.99375 15.4462 3.51875 14.9212 5.09687L14.9056 5.10312C14.5119 4.38125 14.5525 3.3625 15.7087 2.20312Z" fill="#80A53F"/>
<path d="M15.8182 11.6594C16.112 12.5594 15.9026 13.5906 15.1839 14.3094C14.462 15.0313 13.4245 15.2407 12.5214 14.9406H12.5182C12.5526 14.2375 12.2964 13.5282 11.762 12.9938C11.5307 12.7625 11.2714 12.5875 10.987 12.4625C11.1807 12.0344 11.2464 11.5625 11.187 11.1031C11.9526 11.2 12.7526 10.95 13.3401 10.3625C13.4214 10.2844 13.4901 10.2031 13.5557 10.1188C13.7526 10.7594 14.162 11.2625 14.9214 11.4156C15.2276 11.4781 15.5276 11.5594 15.8182 11.6594Z" fill="#813990"/>
<path d="M15.8193 11.6594C15.5287 11.5594 15.2287 11.4781 14.9225 11.4156C14.1631 11.2625 13.7537 10.7594 13.5568 10.1188C13.4912 10.2031 13.4225 10.2844 13.3412 10.3625C13.1659 10.5378 12.97 10.6794 12.7634 10.7944C12.7737 10.8406 12.7881 10.8878 12.8131 10.9375C13.4381 11.875 15.3131 12.1875 14.6881 13.4375C14.2206 14.1385 13.4037 14.3153 12.4987 14.4906C12.5178 14.6397 12.5265 14.7903 12.5193 14.9406H12.5225C13.4256 15.2407 14.4631 15.0313 15.185 14.3094C15.9037 13.5906 16.1131 12.5594 15.8193 11.6594Z" fill="#620774"/>
<path d="M12.9932 6.38749C12.1526 6.57499 10.8714 6.76249 9.90262 6.46562C9.262 6.26874 8.75575 5.85937 8.60262 5.09687C8.54012 4.79062 8.45887 4.49062 8.35887 4.19999C7.61512 2.00312 5.97137 0.359367 5.97137 0.359367C9.3745 0.312492 10.7089 1.41249 10.7089 1.41249L11.762 0.359367C13.6057 2.20312 13.8682 6.14999 13.8682 6.14999C13.8682 6.14999 13.8682 6.14999 13.8651 6.15312C13.8245 6.16562 13.4839 6.27499 12.9932 6.38749Z" fill="#80A53F"/>
<path d="M13.3609 6.29719C13.6481 6.22219 13.8362 6.16219 13.8656 6.15313C13.8687 6.15 13.8688 6.15 13.8688 6.15C13.8688 6.15 13.6062 2.20312 11.7625 0.359375L10.7094 1.4125C10.7094 1.4125 9.47469 0.402188 6.36719 0.361875C9.20094 1.46812 11.7197 3.7675 13.3609 6.29719Z" fill="#24725F"/>
<path d="M13.6349 7.02507V7.0282C13.4443 7.86882 13.2568 9.15007 13.5568 10.1188C13.4911 10.2032 13.4224 10.2844 13.3411 10.3626C12.7536 10.9501 11.9536 11.2001 11.188 11.1032C10.6286 11.0407 10.088 10.7938 9.65675 10.3626C9.2255 9.93132 8.97863 9.3907 8.91613 8.83132C8.81925 8.0657 9.06925 7.2657 9.65675 6.6782C9.738 6.59695 9.81925 6.5282 9.90363 6.4657C10.8724 6.76257 12.1536 6.57507 12.9943 6.38757C13.1161 6.47195 13.2318 6.5657 13.3411 6.6782C13.4536 6.78757 13.5474 6.9032 13.6349 7.02507Z" fill="#9D2888"/>
<path d="M13.635 7.0282V7.02507C13.5475 6.9032 13.4538 6.78757 13.3412 6.6782C13.2319 6.5657 13.1163 6.47195 12.9944 6.38757C12.1538 6.57507 10.8725 6.76257 9.90375 6.4657C9.81938 6.5282 9.73813 6.59695 9.65688 6.6782C9.51406 6.82101 9.39188 6.97695 9.28906 7.14132C10.0453 7.29382 10.8106 7.52789 11.5319 7.54976C11.8903 7.5607 12.1597 7.8757 12.0981 8.22882C12.0381 8.57414 12.0003 8.87476 12.1881 9.06257C12.4941 9.36851 12.9666 9.60539 13.4641 9.72414C13.3069 8.82226 13.4694 7.75882 13.635 7.0282Z" fill="#620774"/>
<path d="M8.82159 17.1969C8.55284 17.075 8.29972 16.9 8.07784 16.6781C7.88409 16.4844 7.72472 16.2625 7.60284 16.0313C8.02784 15.4094 8.14972 14.6469 7.97159 13.9406C8.83097 14.1563 9.77472 13.9281 10.4466 13.2563C10.6841 13.0188 10.8653 12.75 10.9872 12.4625C11.2716 12.5875 11.531 12.7625 11.7622 12.9938C12.2966 13.5281 12.5528 14.2375 12.5185 14.9406C12.4966 15.5719 12.2466 16.1938 11.7622 16.6781C10.9653 17.475 9.78722 17.6469 8.82159 17.1969Z" fill="#813990"/>
<path d="M11.7622 12.9937C11.6938 12.9253 11.6219 12.8631 11.5485 12.8043C11.9478 14.239 12.3266 15.5899 10.6247 16.5624C9.46722 17.0256 8.82378 15.6031 7.93284 15.3424C7.85816 15.5834 7.75003 15.8159 7.60284 16.0312C7.72472 16.2624 7.88409 16.4843 8.07784 16.6781C8.29972 16.8999 8.55284 17.0749 8.82159 17.1968C9.78722 17.6468 10.9653 17.4749 11.7622 16.6781C12.2466 16.1937 12.4966 15.5718 12.5185 14.9406C12.5528 14.2374 12.2966 13.5281 11.7622 12.9937Z" fill="#620774"/>
<path d="M11.188 11.1031C11.2473 11.5625 11.1817 12.0344 10.988 12.4625C10.8661 12.75 10.6848 13.0188 10.4473 13.2563C9.77546 13.9281 8.83171 14.1563 7.97233 13.9406C7.52858 13.8313 7.10983 13.6031 6.76296 13.2563C6.41608 12.9094 6.18796 12.4906 6.07858 12.0469C5.86296 11.1875 6.09108 10.2438 6.76296 9.57189C6.99733 9.33751 7.26921 9.15314 7.55671 9.03126C7.98483 8.84064 8.45671 8.77189 8.91608 8.83126C8.97858 9.39064 9.22546 9.93126 9.65671 10.3625C10.088 10.7938 10.6286 11.0406 11.188 11.1031Z" fill="#9D2888"/>
<path d="M11.187 11.1031C10.6277 11.0406 10.087 10.7938 9.65578 10.3625C9.22453 9.93126 8.97766 9.39064 8.91516 8.83126C8.45578 8.77189 7.98391 8.84064 7.55578 9.03126C7.26828 9.15314 6.99641 9.33751 6.76203 9.57189C6.67641 9.65751 6.59859 9.74751 6.52734 9.84095C7.92984 9.83251 8.99484 10.4997 9.88328 11.5191C10.2752 11.9688 10.1345 12.6559 9.61516 12.9494C9.12047 13.2284 8.65984 13.5853 8.31641 14.0019C9.07578 14.0869 9.86328 13.8391 10.4464 13.2563C10.6839 13.0188 10.8652 12.75 10.987 12.4625C11.1808 12.0344 11.2464 11.5625 11.187 11.1031Z" fill="#620774"/>
<path d="M9.90275 6.46551C9.81837 6.52801 9.73712 6.59676 9.65587 6.67801C9.06837 7.26551 8.81837 8.06551 8.91525 8.83114C8.45587 8.77176 7.984 8.84051 7.55587 9.03114C7.434 8.74989 7.25587 8.48739 7.02462 8.25614C6.49025 7.72176 5.78087 7.46551 5.07775 7.49989C4.77775 6.59364 4.98712 5.55614 5.709 4.83426C6.42775 4.11551 7.459 3.90614 8.359 4.19989C8.459 4.49051 8.54025 4.79051 8.60275 5.09676C8.75587 5.85926 9.26212 6.26864 9.90275 6.46551Z" fill="#9D2888"/>
<path d="M9.90312 6.46564C9.2625 6.26877 8.75625 5.85939 8.60312 5.09689C8.54062 4.79064 8.45937 4.49064 8.35937 4.20002C8.12468 4.12346 7.88094 4.08283 7.63625 4.07471C8.0525 5.75939 8.90844 7.99127 7.45844 8.83252C7.49406 8.89752 7.52687 8.96377 7.55594 9.03096C7.98406 8.84033 8.45593 8.77158 8.91531 8.83096C8.81843 8.06533 9.06844 7.26533 9.65594 6.67783C9.7375 6.59689 9.81875 6.52814 9.90312 6.46564Z" fill="#813990"/>
<path d="M8.07841 16.6781C8.30028 16.9 8.55341 17.075 8.82216 17.1969C8.40341 18.1125 7.47841 18.75 6.40653 18.75C5.97528 18.75 5.56903 18.6469 5.20966 18.4625C5.45028 18.0875 5.60028 17.6469 5.62216 17.1719C6.23153 17.1344 6.82528 16.8781 7.28778 16.4156C7.40653 16.2969 7.51278 16.1688 7.60341 16.0312C7.72528 16.2625 7.88466 16.4844 8.07841 16.6781Z" fill="#813990"/>
<path d="M7.97252 13.9406C8.15064 14.6469 8.02877 15.4094 7.60377 16.0313C7.51314 16.1688 7.40689 16.2969 7.28814 16.4156C6.82564 16.8781 6.23189 17.1344 5.62252 17.1719C4.90064 17.2219 4.16002 16.9719 3.60377 16.4156C3.04439 15.8563 2.79127 15.1063 2.84752 14.3781C2.89127 13.7781 3.14439 13.1906 3.60377 12.7313C3.72252 12.6125 3.85064 12.5063 3.98814 12.4156C4.61002 11.9906 5.37252 11.8688 6.07877 12.0469C6.18814 12.4906 6.41627 12.9094 6.76314 13.2563C7.11002 13.6031 7.52877 13.8313 7.97252 13.9406Z" fill="#9D2888"/>
<path d="M7.97231 13.9406C7.52856 13.8313 7.10981 13.6031 6.76294 13.2563C6.41606 12.9094 6.18794 12.4906 6.07856 12.0469C5.37231 11.8688 4.60981 11.9906 3.98794 12.4156C3.8595 12.5003 3.73981 12.6 3.62762 12.7094C4.75731 12.7713 5.812 13.1853 6.25044 14.0625C7.37856 16.0935 5.73731 16.3322 4.267 16.896C4.69106 17.1113 5.16044 17.2038 5.62231 17.1719C6.23169 17.1344 6.82544 16.8781 7.28794 16.4156C7.40669 16.2969 7.51294 16.1688 7.60356 16.0313C8.02856 15.4094 8.15044 14.6469 7.97231 13.9406Z" fill="#620774"/>
<path d="M3.60312 16.4157C4.15937 16.9719 4.9 17.2219 5.62187 17.1719C5.6 17.6469 5.45 18.0875 5.20937 18.4626H5.20625C4.73438 19.2 3.90625 19.6875 2.96875 19.6875C1.50312 19.6875 0.3125 18.4969 0.3125 17.0313C0.3125 16.0907 0.8 15.2657 1.5375 14.7938C1.91875 14.55 2.36875 14.4 2.84687 14.3782C2.79062 15.1063 3.04375 15.8563 3.60312 16.4157Z" fill="#9D2888"/>
<path d="M3.60266 16.4156C3.04328 15.8562 2.79016 15.1062 2.84641 14.3781C2.36828 14.3999 1.91828 14.5499 1.53703 14.7937C1.23547 14.9865 0.978906 15.2409 0.777344 15.5356C2.28266 15.5843 3.67484 17.0099 3.43703 18.4374C3.26609 19.1218 2.34547 19.0571 1.39359 19.1659C1.83484 19.4921 2.37828 19.6874 2.96828 19.6874C3.90578 19.6874 4.73391 19.1999 5.20578 18.4624H5.20891C5.44953 18.0874 5.59953 17.6468 5.62141 17.1718C4.89953 17.2218 4.15891 16.9718 3.60266 16.4156Z" fill="#620774"/>
<path d="M3.9875 12.4157C3.85 12.5063 3.72187 12.6125 3.60312 12.7313C3.14375 13.1907 2.89062 13.7782 2.84687 14.3782C2.36875 14.4 1.91875 14.55 1.5375 14.7938C1.35313 14.4344 1.25 14.025 1.25 13.5938C1.25 12.5188 1.89062 11.5907 2.8125 11.175C2.93438 11.4532 3.1125 11.7125 3.34062 11.9407C3.53437 12.1375 3.75625 12.2938 3.9875 12.4157Z" fill="#9D2888"/>
<path d="M5.96665 6.30967C6.02478 6.00186 6.20134 5.4853 6.73509 5.17905C6.99509 5.02999 7.33634 5.14405 7.45665 5.41842C7.56321 5.66217 7.6404 6.00186 7.54415 6.40874C7.51759 6.52092 7.44603 6.61686 7.35415 6.68655C7.09728 6.88186 6.54915 7.19592 6.09696 6.75655C5.97946 6.64249 5.93603 6.47092 5.96665 6.30967Z" fill="#C47EB8"/>
<path d="M1.89986 13.0697C1.93267 12.8963 2.03204 12.6056 2.33267 12.4331C2.47892 12.3491 2.67142 12.4135 2.73892 12.5681C2.79892 12.7053 2.84236 12.8966 2.78829 13.1256C2.77329 13.1888 2.73298 13.2428 2.68142 13.2822C2.53673 13.3922 2.22798 13.5691 1.97361 13.3216C1.90704 13.2569 1.88267 13.1603 1.89986 13.0697Z" fill="#C47EB8"/>
<path d="M7.22039 12.1966C7.11164 12.0372 6.96352 11.735 7.06258 11.3691C7.11102 11.191 7.30945 11.0919 7.48133 11.1591C7.63414 11.2188 7.81571 11.3331 7.95102 11.5525C7.98852 11.6128 7.99883 11.686 7.98946 11.7563C7.96258 11.9535 7.86071 12.3291 7.47227 12.3347C7.37102 12.336 7.27758 12.28 7.22039 12.1966Z" fill="#C47EB8"/>
<path d="M10.2184 9.38598C10.09 9.19785 9.91496 8.84129 10.0321 8.40941C10.089 8.1991 10.3234 8.08223 10.5262 8.1616C10.7065 8.23223 10.9206 8.36723 11.0806 8.62566C11.1246 8.69691 11.1371 8.78316 11.1259 8.86629C11.0943 9.09879 10.9737 9.54223 10.5156 9.54879C10.3962 9.55035 10.2856 9.48473 10.2184 9.38598Z" fill="#C47EB8"/>
<path d="M13.0309 13.4485C12.9025 13.2604 12.7275 12.9038 12.8446 12.4719C12.9015 12.2616 13.1359 12.1447 13.3387 12.2241C13.519 12.2947 13.7331 12.4297 13.8931 12.6882C13.9371 12.7594 13.9496 12.8457 13.9384 12.9288C13.9068 13.1613 13.7862 13.6047 13.3281 13.6113C13.2087 13.6129 13.0981 13.5472 13.0309 13.4485Z" fill="#C47EB8"/>
<path d="M9.90589 15.636C9.77745 15.4479 9.60246 15.0913 9.71964 14.6594C9.77652 14.4491 10.0109 14.3322 10.2137 14.4116C10.394 14.4822 10.6081 14.6172 10.7681 14.8757C10.8121 14.9469 10.8246 15.0332 10.8134 15.1163C10.7818 15.3488 10.6612 15.7922 10.2031 15.7988C10.0837 15.8004 9.97308 15.7347 9.90589 15.636Z" fill="#C47EB8"/>
<path d="M3.85354 14.8972C3.74916 14.744 3.60666 14.454 3.70198 14.1025C3.74823 13.9312 3.93885 13.8362 4.10416 13.9009C4.25073 13.9584 4.4251 14.0681 4.5551 14.2787C4.59104 14.3368 4.60104 14.4068 4.59198 14.4743C4.56635 14.6637 4.46823 15.0243 4.09541 15.0297C3.99791 15.0309 3.90823 14.9775 3.85354 14.8972Z" fill="#C47EB8"/>
<path d="M1.35354 17.3972C1.24916 17.244 1.10666 16.954 1.20198 16.6025C1.24823 16.4312 1.43885 16.3362 1.60416 16.4009C1.75073 16.4584 1.9251 16.5681 2.0551 16.7787C2.09104 16.8368 2.10104 16.9068 2.09198 16.9743C2.06635 17.1637 1.96823 17.5243 1.59541 17.5297C1.49791 17.5309 1.40823 17.4775 1.35354 17.3972Z" fill="#C47EB8"/>
<path d="M9.21126 1.74244C8.95126 1.60213 8.69751 1.48213 8.45689 1.38588C8.29626 1.32151 8.1147 1.40026 8.05095 1.56026C7.98689 1.72088 8.06501 1.90244 8.22533 1.96651C8.44345 2.05369 8.67533 2.16338 8.91408 2.29244C8.96126 2.31807 9.0122 2.32994 9.06251 2.32994C9.17345 2.32994 9.28126 2.27088 9.33783 2.16619C9.41939 2.01401 9.36283 1.82463 9.21126 1.74244Z" fill="#CCCB6A"/>
<path d="M18.6325 11.5622C17.7206 9.28252 15.151 6.87127 14.3253 6.13534L14.8469 5.61377C14.8535 5.61002 14.8606 5.60659 14.8675 5.60252C15.4519 6.32502 16.4456 6.71565 17.0916 6.44752C17.516 6.27159 17.7044 5.84221 17.596 5.29971C17.5278 4.95846 17.3391 4.70721 17.05 4.57409C16.5935 4.36252 15.9522 4.49409 15.4263 4.67815C15.9181 3.65315 16.6075 3.28815 16.6397 3.27159C16.7297 3.22659 16.7922 3.14127 16.8085 3.04221C16.8244 2.94315 16.7919 2.84221 16.721 2.77127L15.9313 1.9819C15.8091 1.85971 15.6116 1.85971 15.4894 1.9819C14.1506 3.32065 14.2756 4.4344 14.5444 5.06721C14.5278 5.07596 14.515 5.08315 14.5056 5.08815C14.4803 5.10221 14.4569 5.12002 14.4366 5.14034L13.8831 5.69377C13.3703 5.11877 12.0341 3.68721 10.4888 2.56002C10.3494 2.45815 10.1538 2.48877 10.0522 2.62846C9.95064 2.76752 9.98095 2.96315 10.1206 3.06471C11.6247 4.1619 12.961 5.59971 13.44 6.13659L13.1206 6.45596C12.9985 6.57815 12.9985 6.77565 13.1206 6.89784C13.1816 6.95877 13.2616 6.9894 13.3416 6.9894C13.4216 6.9894 13.5016 6.95877 13.5625 6.89784L13.8819 6.57846C14.64 7.25534 17.19 9.63815 18.0522 11.7938C18.1013 11.9163 18.2185 11.9903 18.3425 11.9903C18.3813 11.9903 18.4203 11.9835 18.4585 11.9681C18.6188 11.9044 18.6966 11.7225 18.6325 11.5622ZM16.7878 5.14159C16.8591 5.1744 16.9456 5.23627 16.9831 5.42252C17.0556 5.78596 16.9078 5.84721 16.8522 5.87065C16.5625 5.99065 15.9153 5.8069 15.4603 5.33159C15.9519 5.14034 16.4994 5.00752 16.7878 5.14159ZM15.7169 2.65127L16.01 2.9444C15.7322 3.16127 15.3363 3.54409 14.9963 4.15034C15.0216 3.67471 15.2641 3.16565 15.7169 2.65127Z" fill="#CCCB6A"/>
</g>
<defs>
<clipPath id="clip0_381_92837">
<rect width="20" height="20" fill="white"/>
</clipPath>
</defs>
</svg>
