<svg width="24" height="24" viewBox="0 0 24 24" fill="none" xmlns="http://www.w3.org/2000/svg">
<g clip-path="url(#clip0_456_76820)">
<path d="M12 0C5.36705 0 0 5.36752 0 12C0 18.633 5.36752 24 12 24C18.633 24 24 18.6325 24 12C24 5.36705 18.6325 0 12 0ZM12 22.125C6.40345 22.125 1.875 17.5962 1.875 12C1.875 6.40345 6.40383 1.875 12 1.875C17.5965 1.875 22.125 6.40383 22.125 12C22.125 17.5965 17.5962 22.125 12 22.125Z" fill="#1E3D65"/>
<path d="M12 6.04102C11.4822 6.04102 11.0625 6.46073 11.0625 6.97852V13.0157C11.0625 13.5335 11.4822 13.9532 12 13.9532C12.5178 13.9532 12.9375 13.5335 12.9375 13.0157V6.97852C12.9375 6.46073 12.5178 6.04102 12 6.04102Z" fill="#1E3D65"/>
<path d="M12 17.6326C12.699 17.6326 13.2656 17.0659 13.2656 16.3669C13.2656 15.668 12.699 15.1013 12 15.1013C11.301 15.1013 10.7344 15.668 10.7344 16.3669C10.7344 17.0659 11.301 17.6326 12 17.6326Z" fill="#1E3D65"/>
</g>
<defs>
<clipPath id="clip0_456_76820">
<rect width="24" height="24" fill="white"/>
</clipPath>
</defs>
</svg>
