<svg width="24" height="24" viewBox="0 0 24 24" fill="none" xmlns="http://www.w3.org/2000/svg">
<g clip-path="url(#clip0_446_68942)">
<path d="M12 24C18.6274 24 24 18.6274 24 12C24 5.37258 18.6274 0 12 0C5.37258 0 0 5.37258 0 12C0 18.6274 5.37258 24 12 24Z" fill="#B21628"/>
<path d="M11.9999 14.4C11.5653 14.4 11.1476 14.2318 10.8343 13.9307C10.5209 13.6296 10.3363 13.2189 10.319 12.7847L10.0972 7.18594C10.0883 6.95963 10.1252 6.73385 10.2057 6.52215C10.2862 6.31044 10.4085 6.11716 10.5655 5.95389C10.7225 5.79062 10.9108 5.66072 11.1192 5.57199C11.3276 5.48326 11.5517 5.43751 11.7782 5.4375H12.2216C12.4481 5.43751 12.6723 5.48326 12.8806 5.57199C13.089 5.66072 13.2773 5.79062 13.4343 5.95389C13.5913 6.11716 13.7136 6.31044 13.7941 6.52215C13.8746 6.73385 13.9115 6.95963 13.9026 7.18594L13.6808 12.7847C13.6635 13.2189 13.4789 13.6296 13.1655 13.9307C12.8522 14.2318 12.4345 14.4 11.9999 14.4Z" fill="white"/>
<path d="M13.6794 16.883C13.6794 15.9554 12.9274 15.2035 11.9998 15.2035C11.0723 15.2035 10.3203 15.9554 10.3203 16.883C10.3203 17.8106 11.0723 18.5626 11.9998 18.5626C12.9274 18.5626 13.6794 17.8106 13.6794 16.883Z" fill="white"/>
</g>
<defs>
<clipPath id="clip0_446_68942">
<rect width="24" height="24" fill="white"/>
</clipPath>
</defs>
</svg>
