<svg width="206" height="50" viewBox="0 0 206 50" fill="none" xmlns="http://www.w3.org/2000/svg">
<path d="M118.712 14.5526C121.087 14.5526 123.138 14.97 124.865 15.8045C126.592 16.6246 127.923 17.8621 128.859 19.5167C129.794 21.1715 130.262 23.2435 130.262 25.7327V29.4883H115.172C115.244 30.769 115.719 31.8192 116.596 32.6395C117.489 33.4596 118.799 33.8696 120.525 33.8696C122.051 33.8696 123.447 33.7186 124.713 33.4164C125.994 33.1145 127.311 32.6467 128.664 32.0135V38.0783C127.484 38.6971 126.196 39.1503 124.8 39.4382C123.404 39.726 121.641 39.8699 119.511 39.8699C117.05 39.8699 114.848 39.431 112.905 38.5534C110.962 37.6756 109.43 36.3159 108.307 34.474C107.199 32.6323 106.645 30.2652 106.645 27.3731C106.645 24.4379 107.148 22.0277 108.155 20.1427C109.163 18.2434 110.573 16.8406 112.387 15.9339C114.2 15.013 116.309 14.5526 118.712 14.5526ZM119.014 20.2938C118.022 20.2938 117.187 20.6103 116.51 21.2434C115.848 21.8621 115.46 22.8404 115.345 24.1786H122.598C122.584 23.4591 122.44 22.8044 122.166 22.2146C121.893 21.6246 121.49 21.157 120.957 20.8117C120.439 20.4662 119.791 20.2937 119.014 20.2937L119.014 20.2938Z" fill="white"/>
<path fill-rule="evenodd" clip-rule="evenodd" d="M0 0.0226238C8.30359 -0.01833 12.6024 0.00552221 13.7138 0.0226238L19.8013 22.7993L25.7348 0.0226238H39.4999L31.844 23.4232C31.3831 22.8407 30.8306 22.4695 30.3038 22.1155C30.1173 21.9902 29.9338 21.8671 29.7589 21.7375C29.727 20.9883 29.63 14.8163 29.8483 14.272C30.0079 13.8733 30.0688 13.4415 29.8546 13.0635C29.4854 12.4115 28.824 12.425 27.94 12.4432C27.7871 12.4463 27.6275 12.4496 27.4617 12.4496C27.3218 12.4496 27.18 12.4465 27.0389 12.4432C26.1811 12.424 25.3434 12.4051 25.0404 13.1042C24.8323 13.5844 24.9337 13.8542 25.0608 14.1927C25.0836 14.2536 25.1073 14.3169 25.1302 14.3838C25.1962 14.577 25.1842 17.0852 25.1743 19.141C25.1685 20.3671 25.1635 21.4323 25.1761 21.7492C25.1166 21.7849 25.0599 21.8188 25.0056 21.8512C24.1694 22.3507 23.9307 22.4932 23.3106 23.1833C21.8398 24.82 21.9148 27.4142 21.9879 29.9466C22.003 30.4697 22.0179 30.99 22.0194 31.4989L22.0327 39.7962H12.9272L0 0.0226238Z" fill="white"/>
<path d="M49.7456 5.74473C48.8533 5.24113 47.8026 4.98926 46.5935 4.98926C45.3562 4.98926 44.2983 5.24098 43.4202 5.74473C42.5569 6.24818 42.125 7.24832 42.125 8.74471C42.125 10.198 42.5569 11.1836 43.4202 11.7018C44.2984 12.2052 45.3562 12.4573 46.5935 12.4573C47.8026 12.4573 48.8533 12.2054 49.7456 11.7018C50.652 11.1836 51.1058 10.198 51.1058 8.74471C51.1058 7.24832 50.6521 6.24818 49.7456 5.74473Z" fill="white"/>
<path d="M50.8354 15.3409V39.7948H42.3945V15.3409H50.8354Z" fill="white"/>
<path d="M72.2077 14.9688C74.7261 14.9688 76.7843 15.681 78.3817 17.1056C79.9792 18.5301 80.7779 20.8106 80.7779 23.9475V39.8545H72.3375V26.5159C72.3375 24.8899 72.1 23.667 71.6247 22.8467C71.1645 22.0122 70.4161 21.595 69.3799 21.595C67.7826 21.595 66.7101 22.2495 66.1635 23.559C65.6162 24.8539 65.3432 26.7174 65.3432 29.1491V39.8545H56.9023V15.4006H63.2704L64.4148 18.6382H64.7386C65.2566 17.8612 65.8753 17.1993 66.5951 16.6525C67.3148 16.1059 68.1422 15.6884 69.0778 15.4006C70.0133 15.1129 71.0565 14.9689 72.2077 14.9689V14.9688Z" fill="white"/>
<path d="M98.5714 33.0942C99.334 33.0942 100.032 33.015 100.665 32.8567C101.299 32.6985 101.961 32.497 102.652 32.2523V38.4037C101.731 38.8066 100.752 39.1303 99.7158 39.375C98.6938 39.6339 97.384 39.7635 95.7866 39.7635C94.2037 39.7635 92.8074 39.5189 91.5989 39.0297C90.3897 38.5262 89.4472 37.6627 88.7706 36.4397C88.1088 35.2023 87.7778 33.4827 87.7778 31.2813V21.202H84.8203V17.7701L88.5765 15.1155L90.757 9.97852H96.2832V14.878H102.285V21.202H96.2832V30.7201C96.2832 31.5115 96.4848 32.1086 96.8878 32.5115C97.2907 32.9001 97.8517 33.0942 98.5714 33.0942Z" fill="white"/>
<path d="M143.888 50C140.419 50 137.742 49.4171 135.857 48.2516C133.986 47.1007 133.051 45.4388 133.051 43.2659C133.051 41.8127 133.504 40.6112 134.411 39.6615C135.318 38.7118 136.678 38.0283 138.491 37.611C137.742 37.2944 137.088 36.7836 136.526 36.0786C135.98 35.3735 135.706 34.6755 135.706 33.9848C135.706 33.2223 135.915 32.5532 136.332 31.9776C136.75 31.3876 137.621 30.6899 138.944 29.884C137.678 29.3228 136.678 28.4452 135.944 27.2508C135.224 26.0567 134.864 24.6034 134.864 22.8911C134.864 21.1212 135.267 19.6105 136.073 18.3586C136.894 17.1067 138.081 16.1499 139.635 15.4879C141.204 14.826 143.111 14.4951 145.356 14.4951C145.658 14.4951 146.119 14.5239 146.737 14.5815C147.356 14.6246 147.982 14.6822 148.615 14.754C149.249 14.8116 149.738 14.8693 150.083 14.9267H158.61V19.006L155.264 20.2363C155.495 20.6535 155.668 21.1067 155.783 21.5959C155.897 22.0851 155.955 22.6032 155.955 23.1499C155.955 25.7831 155.027 27.8263 153.17 29.2796C151.328 30.7328 148.572 31.4595 144.902 31.4595C143.996 31.4595 143.276 31.402 142.744 31.2868C142.643 31.474 142.563 31.6609 142.506 31.848C142.463 32.0207 142.441 32.1861 142.441 32.3444C142.441 32.6753 142.635 32.9416 143.024 33.1431C143.427 33.3301 143.909 33.4596 144.471 33.5316C145.046 33.6036 145.593 33.6396 146.111 33.6396H150.169C152.919 33.6396 154.976 34.2151 156.343 35.3663C157.711 36.5173 158.394 38.2512 158.394 40.5679C158.394 43.5464 157.121 45.8632 154.573 47.5176C152.04 49.1724 148.478 49.9999 143.888 49.9999L143.888 50ZM144.298 44.7335C145.32 44.7335 146.349 44.64 147.385 44.4529C148.421 44.2804 149.292 43.9927 149.997 43.5898C150.702 43.1868 151.055 42.6543 151.055 41.9924C151.055 41.489 150.846 41.1076 150.428 40.8487C150.011 40.604 149.471 40.4386 148.809 40.3522C148.147 40.2659 147.45 40.2228 146.715 40.2228H143.434C142.83 40.2228 142.275 40.3163 141.772 40.5034C141.283 40.7048 140.894 40.9711 140.606 41.3021C140.318 41.6328 140.175 42.007 140.175 42.4246C140.175 43.1151 140.548 43.6691 141.297 44.0865C142.045 44.5181 143.045 44.7338 144.297 44.7338L144.298 44.7335ZM145.442 26.6898C146.248 26.6898 146.867 26.3804 147.299 25.7618C147.745 25.143 147.968 24.215 147.968 22.9774C147.968 21.7112 147.759 20.7615 147.342 20.1284C146.924 19.4952 146.291 19.1789 145.442 19.1789C144.564 19.1789 143.909 19.4954 143.477 20.1284C143.046 20.7471 142.83 21.6824 142.83 22.9342C142.83 24.186 143.046 25.1286 143.477 25.7618C143.909 26.3804 144.564 26.6898 145.442 26.6898H145.442Z" fill="white"/>
<path d="M195.903 14.9141C198.998 14.9141 201.416 15.6839 203.157 17.2235C204.898 18.7489 205.769 20.9286 205.769 23.7632V39.7996H199.919L198.3 36.5622H198.127C197.436 37.4253 196.724 38.1306 195.99 38.6772C195.27 39.2096 194.443 39.5981 193.507 39.8428C192.572 40.1017 191.428 40.2314 190.075 40.2314C188.664 40.2314 187.398 39.9436 186.275 39.368C185.153 38.7926 184.268 37.9219 183.62 36.7566C182.972 35.591 182.648 34.1162 182.648 32.3319C182.648 29.7131 183.555 27.7707 185.368 26.5045C187.182 25.2382 189.808 24.5259 193.248 24.3677L197.328 24.2382V23.8927C197.328 22.7991 197.055 22.0222 196.508 21.5618C195.976 21.1014 195.256 20.8711 194.349 20.8711C193.385 20.8711 192.305 21.0438 191.111 21.3891C189.931 21.7201 188.744 22.1518 187.549 22.6842L185.11 17.1157C186.52 16.3962 188.118 15.8496 189.902 15.4754C191.687 15.1014 193.687 14.9142 195.904 14.9142L195.903 14.9141ZM197.371 28.8784L195.428 28.9648C193.874 29.0223 192.78 29.2958 192.147 29.785C191.528 30.2598 191.219 30.9434 191.219 31.8352C191.219 32.6699 191.442 33.2885 191.888 33.6915C192.334 34.08 192.924 34.2741 193.658 34.2741C194.68 34.2741 195.551 33.9504 196.27 33.303C197.004 32.6553 197.371 31.8136 197.371 30.7778V28.8783V28.8784Z" fill="white"/>
<path d="M179.004 14.9688C179.465 14.9688 179.947 15.0048 180.451 15.0768C180.954 15.1342 181.328 15.1848 181.573 15.2278L180.817 23.1921C180.544 23.1201 180.192 23.0626 179.76 23.0194C179.328 22.962 178.724 22.9332 177.946 22.9332C177.414 22.9332 176.845 22.9836 176.241 23.0842C175.637 23.1849 175.061 23.4009 174.514 23.7318C173.981 24.0484 173.542 24.5376 173.197 25.1994C172.852 25.8469 172.679 26.7248 172.679 27.8326V39.8545H164.238V15.4006H170.52L171.837 19.3072H172.247C172.693 18.5014 173.262 17.7748 173.953 17.1273C174.658 16.4654 175.442 15.9402 176.306 15.5517C177.184 15.163 178.083 14.9689 179.004 14.9689L179.004 14.9688Z" fill="white"/>
</svg>
