<svg width="148" height="36" viewBox="0 0 148 36" fill="none" xmlns="http://www.w3.org/2000/svg">
<path d="M85.1522 10.4779C86.8556 10.4779 88.3268 10.7784 89.5655 11.3793C90.8045 11.9697 91.7595 12.8607 92.4305 14.0521C93.1012 15.2435 93.4369 16.7354 93.4369 18.5276V21.2316H82.6127C82.6643 22.1537 83.0052 22.9099 83.6347 23.5005C84.2748 24.091 85.2143 24.3862 86.453 24.3862C87.5472 24.3862 88.5487 24.2774 89.4571 24.0599C90.3758 23.8424 91.3206 23.5057 92.2909 23.0498V27.4164C91.4445 27.8619 90.5205 28.1882 89.5193 28.3955C88.5177 28.6028 87.2532 28.7064 85.7252 28.7064C83.9598 28.7064 82.3807 28.3903 80.987 27.7585C79.5932 27.1265 78.4938 26.1475 77.6885 24.8213C76.8937 23.4953 76.4961 21.791 76.4961 19.7087C76.4961 17.5953 76.8572 15.8599 77.5799 14.5028C78.3026 13.1353 79.3143 12.1253 80.6153 11.4725C81.9159 10.8094 83.4283 10.4779 85.1522 10.4779ZM85.3692 14.6116C84.657 14.6116 84.0581 14.8395 83.5728 15.2953C83.098 15.7407 82.8194 16.4451 82.7368 17.4086H87.9397C87.9293 16.8906 87.826 16.4192 87.6298 15.9945C87.4338 15.5697 87.1448 15.2331 86.7628 14.9844C86.3911 14.7357 85.9266 14.6116 85.3692 14.6116Z" fill="white"/>
<path fill-rule="evenodd" clip-rule="evenodd" d="M0 0.0162892C5.95626 -0.0131976 9.03985 0.00397599 9.83711 0.0162892L14.2037 16.4155L18.4599 0.0162892H28.3338L22.8421 16.8647C22.5115 16.4453 22.1152 16.1781 21.7373 15.9232C21.6035 15.833 21.4719 15.7443 21.3464 15.651C21.3235 15.1116 21.254 10.6677 21.4106 10.2759C21.5251 9.98877 21.5687 9.67792 21.4151 9.40573C21.1503 8.93632 20.6758 8.94604 20.0417 8.95911C19.932 8.96138 19.8175 8.96375 19.6986 8.96375C19.5982 8.96375 19.4966 8.96148 19.3953 8.95911C18.78 8.94528 18.1791 8.93167 17.9618 9.435C17.8125 9.78074 17.8853 9.97505 17.9764 10.2187C17.9927 10.2626 18.0097 10.3082 18.0262 10.3563C18.0736 10.4954 18.065 12.3014 18.0579 13.7816C18.0537 14.6643 18.0501 15.4313 18.0591 15.6594C18.0164 15.6851 17.9757 15.7095 17.9368 15.7329C17.337 16.0925 17.1658 16.1952 16.7209 16.692C15.666 17.8704 15.7198 19.7382 15.7722 21.5615C15.783 21.9382 15.7937 22.3129 15.7948 22.6792L15.8043 28.6533H9.27282L0 0.0162892Z" fill="#FF5500"/>
<path d="M35.6831 4.13647C35.0431 3.77388 34.2894 3.59253 33.4221 3.59253C32.5345 3.59253 31.7757 3.77377 31.1459 4.13647C30.5266 4.49895 30.2168 5.21906 30.2168 6.29646C30.2168 7.34286 30.5266 8.05249 31.1459 8.42556C31.7758 8.78804 32.5345 8.9695 33.4221 8.9695C34.2894 8.9695 35.0431 8.78815 35.6831 8.42556C36.3333 8.05249 36.6588 7.34286 36.6588 6.29646C36.6588 5.21906 36.3334 4.49895 35.6831 4.13647Z" fill="#FF5500"/>
<path d="M36.4649 11.0457V28.6524H30.4102V11.0457H36.4649Z" fill="white"/>
<path d="M51.7971 10.7771C53.6036 10.7771 55.0799 11.2899 56.2257 12.3156C57.3716 13.3413 57.9445 14.9832 57.9445 17.2418V28.6948H51.8901V19.0911C51.8901 17.9204 51.7198 17.0399 51.3789 16.4493C51.0488 15.8484 50.5119 15.548 49.7687 15.548C48.6229 15.548 47.8536 16.0193 47.4615 16.9621C47.0689 17.8944 46.8731 19.2361 46.8731 20.987V28.6948H40.8184V11.0881H45.3863L46.2071 13.4191H46.4394C46.811 12.8596 47.2548 12.3831 47.7711 11.9894C48.2874 11.5958 48.8808 11.2952 49.552 11.0881C50.223 10.8809 50.9713 10.7772 51.7971 10.7772V10.7771Z" fill="white"/>
<path d="M70.7075 23.8282C71.2546 23.8282 71.7553 23.7712 72.2096 23.6573C72.6638 23.5433 73.1387 23.3983 73.6343 23.2221V27.6511C72.9737 27.9412 72.2716 28.1743 71.5285 28.3504C70.7953 28.5368 69.8558 28.6302 68.71 28.6302C67.5746 28.6302 66.573 28.454 65.7061 28.1018C64.8388 27.7393 64.1627 27.1176 63.6774 26.237C63.2026 25.3461 62.9652 24.108 62.9652 22.5229V15.2658H60.8438V12.7949L63.5381 10.8835L65.1022 7.18494H69.0662V10.7126H73.3711V15.2658H69.0662V22.1189C69.0662 22.6887 69.2108 23.1186 69.4999 23.4087C69.7889 23.6885 70.1914 23.8282 70.7075 23.8282Z" fill="white"/>
<path d="M103.213 36.0001C100.725 36.0001 98.8048 35.5803 97.4526 34.7412C96.1105 33.9126 95.4395 32.716 95.4395 31.1515C95.4395 30.1052 95.7645 29.2401 96.415 28.5563C97.0655 27.8725 98.0411 27.3804 99.3418 27.0799C98.8049 26.852 98.3352 26.4843 97.9325 25.9766C97.5404 25.469 97.3441 24.9664 97.3441 24.4691C97.3441 23.9201 97.4938 23.4384 97.7934 23.0239C98.0927 22.5991 98.7174 22.0968 99.6669 21.5165C98.7585 21.1125 98.0411 20.4806 97.5144 19.6206C96.9985 18.7609 96.7401 17.7145 96.7401 16.4816C96.7401 15.2073 97.0291 14.1196 97.6074 13.2182C98.1959 12.3169 99.0474 11.628 100.163 11.1513C101.288 10.6748 102.656 10.4365 104.266 10.4365C104.483 10.4365 104.813 10.4573 105.257 10.4987C105.701 10.5297 106.15 10.5712 106.604 10.6229C107.058 10.6644 107.409 10.7059 107.657 10.7473H113.774V13.6844L111.373 14.5702C111.539 14.8706 111.663 15.1969 111.745 15.5491C111.828 15.9013 111.869 16.2744 111.869 16.668C111.869 18.5639 111.203 20.035 109.871 21.0814C108.55 22.1277 106.573 22.6509 103.941 22.6509C103.29 22.6509 102.774 22.6095 102.392 22.5265C102.32 22.6613 102.263 22.7959 102.222 22.9306C102.191 23.0549 102.175 23.1741 102.175 23.288C102.175 23.5263 102.315 23.718 102.593 23.8631C102.882 23.9978 103.228 24.091 103.631 24.1428C104.044 24.1947 104.436 24.2206 104.808 24.2206H107.719C109.691 24.2206 111.167 24.6349 112.147 25.4638C113.128 26.2925 113.619 27.5409 113.619 29.2089C113.619 31.3535 112.705 33.0216 110.878 34.2127C109.061 35.4042 106.506 36 103.213 36L103.213 36.0001ZM103.507 32.2082C104.24 32.2082 104.978 32.1409 105.722 32.0062C106.465 31.882 107.089 31.6748 107.595 31.3847C108.101 31.0946 108.354 30.7111 108.354 30.2346C108.354 29.8721 108.204 29.5975 107.905 29.4111C107.605 29.235 107.218 29.1158 106.743 29.0536C106.268 28.9915 105.768 28.9605 105.241 28.9605H102.887C102.454 28.9605 102.056 29.0278 101.695 29.1625C101.344 29.3075 101.065 29.4993 100.859 29.7375C100.653 29.9757 100.549 30.2451 100.549 30.5458C100.549 31.0429 100.817 31.4418 101.354 31.7423C101.891 32.0531 102.609 32.2084 103.507 32.2084L103.507 32.2082ZM104.328 19.2167C104.906 19.2167 105.35 18.994 105.66 18.5485C105.98 18.103 106.14 17.4348 106.14 16.5437C106.14 15.6321 105.99 14.9483 105.691 14.4925C105.391 14.0366 104.937 13.8088 104.328 13.8088C103.698 13.8088 103.228 14.0367 102.919 14.4925C102.609 14.938 102.454 15.6114 102.454 16.5126C102.454 17.414 102.609 18.0926 102.919 18.5485C103.228 18.994 103.698 19.2167 104.328 19.2167H104.328Z" fill="white"/>
<path d="M140.524 10.7385C142.743 10.7385 144.477 11.2928 145.726 12.4013C146.976 13.4996 147.6 15.069 147.6 17.1099V28.6561H143.404L142.242 26.3252H142.119C141.623 26.9467 141.112 27.4544 140.585 27.848C140.069 28.2313 139.476 28.5111 138.805 28.6872C138.134 28.8737 137.313 28.967 136.342 28.967C135.331 28.967 134.422 28.7598 133.617 28.3454C132.812 27.9311 132.177 27.3042 131.712 26.4651C131.248 25.6259 131.016 24.5641 131.016 23.2794C131.016 21.3938 131.666 19.9953 132.967 19.0836C134.268 18.1719 136.152 17.6591 138.619 17.5451L141.545 17.4519V17.2032C141.545 16.4158 141.349 15.8564 140.957 15.5249C140.575 15.1934 140.059 15.0276 139.409 15.0276C138.717 15.0276 137.943 15.1519 137.086 15.4006C136.239 15.6388 135.388 15.9497 134.531 16.333L132.781 12.3237C133.793 11.8057 134.939 11.4121 136.219 11.1427C137.499 10.8734 138.934 10.7386 140.524 10.7386L140.524 10.7385ZM141.576 20.7929L140.183 20.8551C139.068 20.8965 138.283 21.0934 137.829 21.4456C137.385 21.7874 137.163 22.2796 137.163 22.9218C137.163 23.5227 137.323 23.9682 137.643 24.2583C137.963 24.538 138.387 24.6778 138.913 24.6778C139.646 24.6778 140.271 24.4447 140.787 23.9785C141.313 23.5123 141.576 22.9062 141.576 22.1604V20.7928V20.7929Z" fill="white"/>
<path d="M128.4 10.7771C128.731 10.7771 129.076 10.803 129.438 10.8549C129.799 10.8962 130.068 10.9326 130.243 10.9636L129.701 16.6979C129.505 16.6461 129.252 16.6047 128.942 16.5736C128.633 16.5322 128.199 16.5115 127.642 16.5115C127.26 16.5115 126.852 16.5478 126.418 16.6202C125.985 16.6927 125.572 16.8482 125.179 17.0865C124.797 17.3144 124.482 17.6666 124.235 18.1432C123.987 18.6094 123.863 19.2414 123.863 20.0391V28.6948H117.809V11.0881H122.315L123.26 13.9008H123.554C123.874 13.3206 124.282 12.7974 124.777 12.3313C125.283 11.8547 125.845 11.4766 126.465 11.1968C127.095 10.917 127.74 10.7772 128.4 10.7772L128.4 10.7771Z" fill="white"/>
</svg>
