<svg width="165" height="40" viewBox="0 0 165 40" fill="none" xmlns="http://www.w3.org/2000/svg">
<path d="M94.9704 11.6421C96.8701 11.6421 98.5109 11.976 99.8924 12.6436C101.274 13.2997 102.339 14.2897 103.088 15.6134C103.836 16.9372 104.21 18.5948 104.21 20.5862V23.5907H92.1381C92.1957 24.6152 92.5759 25.4554 93.278 26.1116C93.9918 26.7677 95.0396 27.0957 96.4211 27.0957C97.6415 27.0957 98.7584 26.9749 99.7715 26.7332C100.796 26.4916 101.85 26.1174 102.932 25.6108V30.4626C101.988 30.9577 100.957 31.3202 99.8409 31.5505C98.7238 31.7808 97.3136 31.8959 95.6094 31.8959C93.6405 31.8959 91.8794 31.5448 90.325 30.8427C88.7706 30.1405 87.5444 29.0527 86.6463 27.5792C85.7598 26.1059 85.3164 24.2122 85.3164 21.8985C85.3164 19.5504 85.7192 17.6221 86.5252 16.1142C87.3312 14.5947 88.4595 13.4725 89.9104 12.7472C91.361 12.0104 93.0478 11.6421 94.9704 11.6421ZM95.2123 16.235C94.4181 16.235 93.7501 16.4883 93.2088 16.9947C92.6793 17.4896 92.3686 18.2724 92.2765 19.3429H98.0791C98.0676 18.7673 97.9524 18.2436 97.7335 17.7717C97.515 17.2997 97.1926 16.9256 96.7666 16.6493C96.3521 16.3729 95.8338 16.2349 95.2122 16.2349L95.2123 16.235Z" fill="#1E3D65"/>
<path fill-rule="evenodd" clip-rule="evenodd" d="M0 0.0180991C6.64287 -0.014664 10.0819 0.00441777 10.9711 0.0180991L15.841 18.2394L20.5878 0.0180991H31.5999L25.4752 18.7385C25.1065 18.2725 24.6645 17.9756 24.243 17.6924C24.0938 17.5922 23.9471 17.4937 23.8071 17.39C23.7816 16.7906 23.704 11.853 23.8787 11.4176C24.0063 11.0986 24.0551 10.7532 23.8837 10.4508C23.5884 9.92923 23.0592 9.94003 22.352 9.95456C22.2297 9.95708 22.102 9.95972 21.9694 9.95972C21.8574 9.95972 21.744 9.9572 21.6311 9.95456C20.9449 9.93919 20.2747 9.92407 20.0323 10.4833C19.8658 10.8675 19.947 11.0834 20.0486 11.3541C20.0669 11.4029 20.0858 11.4535 20.1042 11.507C20.157 11.6616 20.1474 13.6682 20.1395 15.3128C20.1348 16.2937 20.1308 17.1459 20.1409 17.3993C20.0933 17.4279 20.0479 17.455 20.0045 17.4809C19.3355 17.8806 19.1446 17.9946 18.6484 18.5466C17.4719 19.856 17.5319 21.9313 17.5903 23.9572C17.6024 24.3757 17.6143 24.792 17.6155 25.1991L17.6262 31.8369H10.3417L0 0.0180991Z" fill="#FF5500"/>
<path d="M39.7957 4.59608C39.0818 4.1932 38.2413 3.9917 37.274 3.9917C36.2841 3.9917 35.4378 4.19308 34.7354 4.59608C34.0447 4.99883 33.6992 5.79895 33.6992 6.99606C33.6992 8.15873 34.0447 8.94721 34.7354 9.36173C35.4379 9.76448 36.2841 9.9661 37.274 9.9661C38.2413 9.9661 39.0818 9.7646 39.7957 9.36173C40.5208 8.94721 40.8838 8.15873 40.8838 6.99606C40.8838 5.79895 40.5209 4.99883 39.7957 4.59608Z" fill="#FF5500"/>
<path d="M40.6667 12.2729V31.836H33.9141V12.2729H40.6667Z" fill="#1E3D65"/>
<path d="M57.7677 11.9746C59.7825 11.9746 61.429 12.5444 62.7069 13.6841C63.9849 14.8237 64.6238 16.6481 64.6238 19.1576V31.8832H57.8715V21.2124C57.8715 19.9116 57.6815 18.9332 57.3013 18.277C56.9332 17.6094 56.3344 17.2756 55.5055 17.2756C54.2276 17.2756 53.3697 17.7992 52.9323 18.8468C52.4945 19.8828 52.2761 21.3735 52.2761 23.3189V31.8832H45.5234V12.3201H50.6179L51.5334 14.9102H51.7925C52.2069 14.2885 52.7018 13.7591 53.2776 13.3216C53.8534 12.8843 54.5153 12.5503 55.2638 12.3201C56.0122 12.0899 56.8467 11.9747 57.7677 11.9747V11.9746Z" fill="#1E3D65"/>
<path d="M78.8563 26.4757C79.4664 26.4757 80.0249 26.4123 80.5315 26.2857C81.0381 26.1591 81.5677 25.9979 82.1205 25.8022V30.7233C81.3837 31.0456 80.6007 31.3046 79.7719 31.5003C78.9542 31.7075 77.9064 31.8112 76.6285 31.8112C75.3622 31.8112 74.2451 31.6154 73.2783 31.2241C72.311 30.8213 71.557 30.1305 71.0157 29.1521C70.4862 28.1622 70.2215 26.7865 70.2215 25.0254V16.9619H67.8555V14.2164L70.8604 12.0927L72.6048 7.98315H77.0258V11.9027H81.827V16.9619H77.0258V24.5764C77.0258 25.2096 77.1871 25.6872 77.5094 26.0096C77.8318 26.3204 78.2806 26.4757 78.8563 26.4757Z" fill="#1E3D65"/>
<path d="M115.111 39.9999C112.336 39.9999 110.195 39.5335 108.687 38.6011C107.19 37.6804 106.441 36.3509 106.441 34.6126C106.441 33.45 106.804 32.4888 107.529 31.729C108.255 30.9693 109.343 30.4225 110.794 30.0886C110.195 29.8354 109.671 29.4268 109.222 28.8627C108.785 28.2986 108.566 27.7402 108.566 27.1877C108.566 26.5777 108.733 26.0424 109.067 25.5819C109.401 25.1099 110.097 24.5518 111.156 23.9071C110.143 23.4581 109.343 22.756 108.756 21.8005C108.18 20.8452 107.892 19.6826 107.892 18.3127C107.892 16.8968 108.214 15.6882 108.859 14.6867C109.516 13.6852 110.465 12.9198 111.709 12.3902C112.964 11.8607 114.489 11.5959 116.285 11.5959C116.527 11.5959 116.896 11.619 117.391 11.6651C117.886 11.6995 118.386 11.7456 118.893 11.8031C119.4 11.8492 119.791 11.8953 120.067 11.9412H126.889V15.2047L124.212 16.1889C124.396 16.5227 124.535 16.8852 124.627 17.2766C124.719 17.6679 124.765 18.0824 124.765 18.5198C124.765 20.6263 124.022 22.2609 122.537 23.4235C121.063 24.5861 118.858 25.1674 115.923 25.1674C115.197 25.1674 114.622 25.1215 114.196 25.0293C114.115 25.1791 114.052 25.3286 114.006 25.4783C113.971 25.6164 113.954 25.7488 113.954 25.8754C113.954 26.1401 114.109 26.3531 114.42 26.5143C114.742 26.664 115.128 26.7675 115.577 26.8251C116.038 26.8828 116.475 26.9116 116.889 26.9116H120.136C122.336 26.9116 123.982 27.3719 125.075 28.2929C126.169 29.2137 126.716 30.6008 126.716 32.4542C126.716 34.837 125.698 36.6904 123.66 38.0139C121.633 39.3378 118.783 39.9998 115.111 39.9998L115.111 39.9999ZM115.439 35.7866C116.257 35.7866 117.08 35.7119 117.909 35.5622C118.738 35.4242 119.434 35.194 119.998 34.8717C120.562 34.5493 120.844 34.1233 120.844 33.5938C120.844 33.191 120.678 32.886 120.343 32.6788C120.01 32.4831 119.578 32.3507 119.048 32.2816C118.519 32.2126 117.961 32.1781 117.373 32.1781H114.748C114.265 32.1781 113.821 32.2529 113.418 32.4026C113.027 32.5637 112.716 32.7767 112.486 33.0415C112.255 33.3061 112.14 33.6054 112.14 33.9395C112.14 34.492 112.439 34.9352 113.038 35.269C113.637 35.6143 114.437 35.7869 115.439 35.7869L115.439 35.7866ZM116.354 21.3517C116.999 21.3517 117.494 21.1042 117.84 20.6093C118.197 20.1142 118.375 19.3718 118.375 18.3817C118.375 17.3689 118.208 16.6091 117.874 16.1026C117.54 15.596 117.034 15.3429 116.354 15.3429C115.652 15.3429 115.128 15.5962 114.783 16.1026C114.437 16.5975 114.265 17.3458 114.265 18.3472C114.265 19.3487 114.437 20.1027 114.783 20.6093C115.128 21.1042 115.652 21.3517 116.354 21.3517H116.354Z" fill="#1E3D65"/>
<path d="M156.721 11.9316C159.197 11.9316 161.131 12.5475 162.524 13.7792C163.917 14.9995 164.614 16.7433 164.614 19.011V31.8401H159.933L158.638 29.2501H158.5C157.947 29.9407 157.377 30.5048 156.79 30.9422C156.215 31.3681 155.553 31.6789 154.804 31.8746C154.056 32.0818 153.14 32.1855 152.058 32.1855C150.93 32.1855 149.917 31.9553 149.019 31.4948C148.121 31.0344 147.412 30.3379 146.894 29.4057C146.376 28.4732 146.117 27.2933 146.117 25.8659C146.117 23.7709 146.843 22.217 148.293 21.204C149.744 20.1909 151.845 19.6211 154.597 19.4945L157.861 19.3909V19.1146C157.861 18.2397 157.642 17.6181 157.205 17.2498C156.779 16.8815 156.203 16.6973 155.478 16.6973C154.706 16.6973 153.843 16.8354 152.887 17.1117C151.943 17.3764 150.993 17.7218 150.038 18.1477L148.086 13.6929C149.215 13.1174 150.492 12.68 151.92 12.3807C153.348 12.0815 154.948 11.9318 156.721 11.9318L156.721 11.9316ZM157.895 23.1031L156.341 23.1723C155.098 23.2182 154.223 23.437 153.716 23.8284C153.221 24.2082 152.973 24.7551 152.973 25.4686C152.973 26.1363 153.152 26.6312 153.509 26.9536C153.866 27.2644 154.338 27.4197 154.925 27.4197C155.743 27.4197 156.439 27.1607 157.014 26.6428C157.602 26.1247 157.895 25.4513 157.895 24.6226V23.103V23.1031Z" fill="#1E3D65"/>
<path d="M143.203 11.9746C143.572 11.9746 143.957 12.0034 144.361 12.061C144.763 12.107 145.063 12.1474 145.259 12.1819L144.654 18.5533C144.435 18.4957 144.153 18.4497 143.808 18.4151C143.462 18.3692 142.979 18.3461 142.357 18.3461C141.931 18.3461 141.476 18.3865 140.993 18.467C140.509 18.5475 140.049 18.7203 139.611 18.9851C139.185 19.2383 138.834 19.6297 138.558 20.1591C138.281 20.6771 138.143 21.3794 138.143 22.2657V31.8832H131.391V12.3201H136.416L137.47 15.4453H137.798C138.155 14.8008 138.61 14.2194 139.162 13.7015C139.726 13.172 140.354 12.7518 141.045 12.441C141.747 12.13 142.467 11.9747 143.203 11.9747L143.203 11.9746Z" fill="#1E3D65"/>
</svg>
