<svg width="240" height="60" viewBox="0 0 240 60" fill="none" xmlns="http://www.w3.org/2000/svg">
<path fill-rule="evenodd" clip-rule="evenodd" d="M23.064 47.34H25.8281V31.6485C25.8281 29.1182 27.282 26.9359 29.3823 25.9254L29.381 18.2932C29.3795 17.7407 29.3624 17.347 29.3296 17.1122C28.9246 16.1122 28.9783 15.1324 30.2104 14.8399C30.5393 14.7667 31.1395 14.7675 32.0347 14.7865C32.9484 14.7677 33.5291 14.7667 33.8583 14.8399C35.0914 15.1324 35.1434 16.1122 34.7399 17.1122C34.706 17.3468 34.6891 17.7407 34.6879 18.2932L34.6862 25.946C35.699 26.4431 36.5585 27.2137 37.1738 28.1639L46.128 0.000976562H29.963L23.064 27.0718L16.1653 0.000976562H0L15.0515 47.34H23.064Z" fill="#FF5500"/>
<path d="M138.41 17.7163C141.181 17.7163 143.574 18.2142 145.589 19.2097C147.605 20.1879 149.159 21.6642 150.25 23.6379C151.342 25.6118 151.887 28.0833 151.887 31.0527V35.533H134.279C134.363 37.0604 134.917 38.3134 135.941 39.2918C136.983 40.27 138.511 40.7593 140.526 40.7593C142.306 40.7593 143.935 40.5791 145.413 40.2184C146.908 39.8581 148.444 39.3005 150.023 38.5452V45.7796C148.646 46.5179 147.143 47.0585 145.514 47.4018C143.885 47.7451 141.828 47.917 139.342 47.917C136.47 47.917 133.901 47.3932 131.634 46.3466C129.367 45.2993 127.578 43.6773 126.268 41.4803C124.975 39.2834 124.328 36.4599 124.328 33.0099C124.328 29.5086 124.916 26.6334 126.092 24.3848C127.267 22.1191 128.913 20.4458 131.03 19.3642C133.145 18.2655 135.606 17.7166 138.41 17.7166V17.7163ZM138.763 24.565C137.605 24.565 136.63 24.9426 135.841 25.6979C135.068 26.4357 134.615 27.603 134.48 29.199H142.945C142.929 28.341 142.76 27.5601 142.441 26.8563C142.122 26.1526 141.652 25.5948 141.031 25.183C140.426 24.7708 139.67 24.565 138.763 24.565V24.5652L138.763 24.565Z" fill="white"/>
<path d="M57.9354 6.72346C56.8942 6.12266 55.6682 5.82227 54.2573 5.82227C52.8133 5.82227 51.5789 6.12241 50.5543 6.72346C49.5469 7.324 49.043 8.51695 49.043 10.3018C49.043 12.0358 49.5469 13.2112 50.5543 13.8293C51.5792 14.4299 52.8133 14.7305 54.2573 14.7305C55.6682 14.7305 56.8945 14.4301 57.9354 13.8293C58.9933 13.2112 59.5226 12.0356 59.5226 10.3018C59.5226 8.5167 58.9933 7.324 57.9354 6.72346Z" fill="#FF5500"/>
<path d="M59.2059 18.1699V47.3405H49.3555V18.1699H59.2059Z" fill="white"/>
<path d="M84.1496 17.6453C87.0882 17.6453 89.4901 18.4949 91.3537 20.1943C93.218 21.8935 94.1503 24.6139 94.1503 28.3559V47.3313H84.3008V31.4198C84.3008 29.4802 84.0238 28.0214 83.4692 27.0432C82.9322 26.0478 82.059 25.5501 80.8495 25.5501C78.9859 25.5501 77.7342 26.3306 77.096 27.8928C76.4578 29.4373 76.1393 31.6603 76.1393 34.5611V47.3315H66.2891V18.1609H73.7203L75.0554 22.0231H75.434C76.0379 21.0963 76.7599 20.3069 77.6002 19.6545C78.4397 19.0024 79.4051 18.5045 80.4968 18.1612C81.5884 17.8181 82.8056 17.6463 84.1494 17.6463V17.646L84.1496 17.6453Z" fill="white"/>
<path d="M114.911 39.9051C115.8 39.9051 116.615 39.8106 117.354 39.622C118.093 39.4332 118.865 39.1927 119.672 38.901V46.2389C118.597 46.7197 117.455 47.1057 116.246 47.3978C115.053 47.7063 113.525 47.8613 111.661 47.8613C109.814 47.8613 108.184 47.5696 106.774 46.9858C105.363 46.3853 104.263 45.3555 103.473 43.8964C102.701 42.4206 102.315 40.3692 102.315 37.7431V25.7198H98.8633V21.6261L103.247 18.4592L105.791 12.3315H112.24V18.1758H119.244V25.7196H112.24V37.0734C112.24 38.0173 112.476 38.7297 112.946 39.2103C113.416 39.6738 114.071 39.9054 114.911 39.9054L114.911 39.9051Z" fill="white"/>
<path d="M167.79 60.0017C163.743 60.0017 160.619 59.3064 158.42 57.916C156.236 56.5433 155.145 54.5608 155.145 51.9688C155.145 50.235 155.674 48.8019 156.731 47.6692C157.79 46.5362 159.377 45.7209 161.493 45.223C160.619 44.8454 159.855 44.2362 159.2 43.395C158.562 42.5538 158.243 41.7212 158.243 40.8973C158.243 39.9877 158.487 39.1897 158.974 38.503C159.461 37.7992 160.477 36.9669 162.022 36.0055C160.544 35.3361 159.377 34.2893 158.52 32.8643C157.681 31.4398 157.261 29.706 157.261 27.6635C157.261 25.5523 157.731 23.7499 158.672 22.2568C159.629 20.7635 161.014 19.6219 162.828 18.8325C164.658 18.0429 166.884 17.6479 169.503 17.6479C169.856 17.6479 170.394 17.6823 171.116 17.7511C171.838 17.8025 172.569 17.8711 173.307 17.9567C174.046 18.0254 174.618 18.0942 175.02 18.1626H184.971V23.0289L181.066 24.4964C181.335 24.994 181.537 25.5348 181.671 26.118C181.805 26.7016 181.872 27.3196 181.872 27.9718C181.872 31.113 180.789 33.5502 178.622 35.284C176.473 37.0175 173.257 37.8844 168.974 37.8844C167.916 37.8844 167.077 37.8158 166.455 37.6785C166.338 37.9017 166.246 38.1248 166.178 38.3479C166.128 38.5538 166.103 38.7513 166.103 38.9401C166.103 39.335 166.33 39.6525 166.783 39.8926C167.253 40.1158 167.816 40.2705 168.471 40.3562C169.142 40.4421 169.781 40.485 170.385 40.485H175.121C178.329 40.485 180.73 41.1715 182.325 42.5449C183.921 43.918 184.719 45.9862 184.719 48.7498C184.719 52.3027 183.233 55.0663 180.261 57.0399C177.305 59.0139 173.148 60.0007 167.791 60.0007V60.001L167.79 60.0017ZM168.269 53.7193C169.462 53.7193 170.663 53.608 171.872 53.3849C173.08 53.1792 174.096 52.8359 174.92 52.3553C175.742 51.8747 176.154 51.2394 176.154 50.4497C176.154 49.8492 175.911 49.3943 175.423 49.0855C174.937 48.7937 174.306 48.5963 173.534 48.4931C172.761 48.3904 171.947 48.3391 171.09 48.3391H167.261C166.556 48.3391 165.909 48.4504 165.321 48.6735C164.75 48.9137 164.297 49.2316 163.961 49.6261C163.625 50.0208 163.457 50.467 163.457 50.9652C163.457 51.7888 163.894 52.4499 164.767 52.9477C165.64 53.4626 166.808 53.7198 168.269 53.7198V53.7193H168.269ZM169.604 32.1956C170.544 32.1956 171.267 31.8264 171.771 31.0886C172.292 30.3503 172.552 29.2432 172.552 27.7669C172.552 26.2566 172.308 25.1236 171.821 24.3685C171.334 23.6132 170.595 23.2355 169.605 23.2355C168.58 23.2355 167.816 23.6132 167.312 24.3685C166.808 25.1066 166.557 26.2222 166.557 27.7153C166.557 29.2087 166.808 30.3333 167.312 31.0886C167.816 31.8264 168.58 32.1956 169.605 32.1956H169.604Z" fill="white"/>
<path d="M228.487 17.7031C232.098 17.7031 234.92 18.6214 236.951 20.4581C238.983 22.2777 240 24.8776 240 28.259V47.3884H233.173L231.283 43.5264H231.082C230.276 44.5559 229.445 45.3974 228.588 46.0495C227.749 46.6847 226.783 47.1482 225.692 47.44C224.6 47.7488 223.264 47.9035 221.685 47.9035C220.04 47.9035 218.562 47.5604 217.252 46.874C215.942 46.1875 214.909 45.1486 214.153 43.7587C213.397 42.3683 213.02 40.6088 213.02 38.4804C213.02 35.3565 214.078 33.0394 216.194 31.5291C218.309 30.0184 221.375 29.1688 225.389 28.98L230.15 28.8255V28.4133C230.15 27.1087 229.83 26.1821 229.192 25.6329C228.572 25.0837 227.731 24.809 226.674 24.809C225.548 24.809 224.288 25.0148 222.895 25.4271C221.517 25.8218 220.132 26.3366 218.739 26.9718L215.892 20.3292C217.538 19.471 219.402 18.8188 221.484 18.3726C223.567 17.9263 225.901 17.7031 228.487 17.7031ZM230.2 34.3607L227.933 34.4639C226.119 34.5323 224.843 34.8588 224.104 35.4421C223.382 36.0086 223.02 36.8239 223.02 37.888C223.02 38.8835 223.281 39.6217 223.801 40.1021C224.322 40.5656 225.011 40.7972 225.867 40.7972C227.059 40.7972 228.075 40.4109 228.915 39.6385C229.772 38.8662 230.2 37.8618 230.2 36.6264V34.3607Z" fill="white"/>
<path d="M208.766 17.6553C209.304 17.6553 209.867 17.6982 210.454 17.7841C211.042 17.8525 211.479 17.913 211.764 17.9643L210.883 27.4647C210.564 27.3788 210.152 27.3102 209.648 27.2589C209.144 27.1902 208.438 27.1559 207.532 27.1559C206.911 27.1559 206.247 27.2159 205.542 27.3361C204.836 27.4561 204.165 27.714 203.526 28.1085C202.905 28.4864 202.392 29.0696 201.99 29.8592C201.587 30.6316 201.386 31.6789 201.386 33.0005V47.3413H191.535V18.1707H198.866L200.403 22.8309H200.882C201.402 21.8697 202.066 21.0029 202.872 20.2305C203.695 19.4411 204.61 18.8144 205.618 18.3509C206.642 17.8873 207.692 17.6558 208.766 17.6558V17.6555L208.766 17.6553Z" fill="white"/>
</svg>
