<svg width="289" height="70" viewBox="0 0 289 70" fill="none" xmlns="http://www.w3.org/2000/svg">
<path d="M166.195 20.374C169.52 20.374 172.391 20.9583 174.809 22.1266C177.227 23.2748 179.091 25.0073 180.401 27.3238C181.71 29.6405 182.365 32.5413 182.365 36.0262V41.284H161.239C161.34 43.077 162.005 44.5473 163.234 45.6957C164.483 46.8439 166.316 47.4179 168.734 47.4179C170.87 47.4179 172.824 47.2064 174.597 46.7834C176.39 46.3606 178.234 45.7058 180.128 44.8193V53.31C178.476 54.1763 176.673 54.8108 174.719 55.2138C172.764 55.6168 170.296 55.8182 167.314 55.8182C163.868 55.8182 160.786 55.2037 158.066 53.9751C155.346 52.7463 153.2 50.8426 151.628 48.264C150.077 45.6856 149.301 42.3717 149.301 38.3227C149.301 34.2135 150.006 30.8391 151.416 28.2002C152.827 25.5411 154.801 23.5772 157.34 22.3079C159.879 21.0186 162.831 20.374 166.195 20.374ZM166.619 28.4117C165.229 28.4117 164.06 28.8548 163.113 29.7411C162.186 30.6072 161.642 31.977 161.481 33.8504H171.636C171.615 32.8431 171.414 31.9266 171.031 31.1008C170.648 30.2748 170.084 29.6201 169.339 29.1367C168.613 28.653 167.706 28.4115 166.618 28.4115L166.619 28.4117Z" fill="white"/>
<path fill-rule="evenodd" clip-rule="evenodd" d="M0 0.0316734C11.625 -0.0256621 17.6433 0.00773109 19.1994 0.0316734L27.7218 31.919L36.0287 0.0316734H55.2999L44.5815 32.7925C43.9364 31.9769 43.1629 31.4574 42.4253 30.9617C42.1642 30.7863 41.9074 30.6139 41.6625 30.4325C41.6177 29.3836 41.4821 20.7428 41.7876 19.9808C42.0111 19.4226 42.0964 18.8182 41.7965 18.2889C41.2796 17.3762 40.3536 17.3951 39.116 17.4205C38.902 17.4249 38.6785 17.4295 38.4464 17.4295C38.2505 17.4295 38.052 17.4251 37.8544 17.4205C36.6535 17.3936 35.4807 17.3671 35.0565 18.3458C34.7652 19.0181 34.9072 19.3959 35.0851 19.8697C35.117 19.955 35.1502 20.0436 35.1823 20.1373C35.2747 20.4078 35.2579 23.9193 35.2441 26.7974C35.2359 28.5139 35.2289 30.0053 35.2466 30.4488C35.1632 30.4988 35.0838 30.5463 35.0078 30.5917C33.8371 31.291 33.503 31.4905 32.6348 32.4566C30.5757 34.748 30.6807 38.3798 30.783 41.9252C30.8042 42.6575 30.825 43.3861 30.8271 44.0985L30.8458 55.7146H18.098L0 0.0316734Z" fill="#FF5500"/>
<path d="M69.6454 8.04277C68.3962 7.33773 66.9252 6.98511 65.2324 6.98511C63.5002 6.98511 62.0191 7.33752 60.7899 8.04277C59.5812 8.74759 58.9766 10.1478 58.9766 12.2427C58.9766 14.2774 59.5812 15.6572 60.7899 16.3827C62.0193 17.0875 63.5002 17.4403 65.2324 17.4403C66.9252 17.4403 68.3962 17.0877 69.6454 16.3827C70.9143 15.6572 71.5496 14.2774 71.5496 12.2427C71.5496 10.1478 70.9145 8.74759 69.6454 8.04277Z" fill="#FF5500"/>
<path d="M71.1727 21.4773V55.7126H59.3555V21.4773H71.1727Z" fill="white"/>
<path d="M101.092 20.9558C104.617 20.9558 107.499 21.953 109.735 23.9473C111.972 25.9417 113.09 29.1344 113.09 33.5261V55.7958H101.273V37.1219C101.273 34.8455 100.941 33.1334 100.275 31.985C99.6311 30.8167 98.5833 30.2326 97.1327 30.2326C94.8964 30.2326 93.395 31.1489 92.6296 32.9822C91.8635 34.7951 91.4812 37.4039 91.4812 40.8084V55.7958H79.6641V21.5605H88.5794L90.1814 26.0931H90.6349C91.3601 25.0052 92.2262 24.0786 93.2339 23.3131C94.2415 22.5478 95.3998 21.9633 96.7097 21.5605C98.0194 21.1576 99.4799 20.956 101.092 20.956V20.9558Z" fill="white"/>
<path d="M138.001 46.3327C139.069 46.3327 140.046 46.2218 140.933 46.0002C141.82 45.7786 142.746 45.4966 143.714 45.154V53.7659C142.424 54.33 141.054 54.7832 139.604 55.1258C138.173 55.4883 136.339 55.6697 134.103 55.6697C131.887 55.6697 129.932 55.3272 128.24 54.6423C126.547 53.9375 125.228 52.7286 124.28 51.0163C123.354 49.2841 122.891 46.8766 122.891 43.7946V29.6835H118.75V24.8789L124.009 21.1624L127.061 13.9707H134.798V20.83H143.2V29.6835H134.798V43.0089C134.798 44.117 135.08 44.9528 135.644 45.5169C136.209 46.0609 136.994 46.3327 138.001 46.3327Z" fill="white"/>
<path d="M201.445 69.9998C196.589 69.9998 192.842 69.1837 190.202 67.552C187.583 65.9408 186.273 63.6142 186.273 60.572C186.273 58.5376 186.908 56.8555 188.177 55.5259C189.447 54.1963 191.351 53.2394 193.89 52.6551C192.842 52.212 191.925 51.4969 191.139 50.5098C190.374 49.5227 189.991 48.5455 189.991 47.5785C189.991 46.511 190.283 45.5743 190.868 44.7685C191.452 43.9425 192.671 42.9657 194.524 41.8374C192.751 41.0517 191.351 39.8231 190.323 38.151C189.316 36.4792 188.812 34.4445 188.812 32.0474C188.812 29.5695 189.376 27.4544 190.505 25.7018C191.653 23.9492 193.315 22.6097 195.492 21.6829C197.687 20.7563 200.358 20.293 203.5 20.293C203.923 20.293 204.568 20.3333 205.435 20.4139C206.301 20.4742 207.177 20.5549 208.064 20.6555C208.951 20.7361 209.636 20.8168 210.119 20.8972H222.057V26.6083L217.372 28.3306C217.695 28.9147 217.937 29.5492 218.098 30.234C218.259 30.9189 218.34 31.6443 218.34 32.4096C218.34 36.0961 217.04 38.9566 214.441 40.9913C211.862 43.0257 208.003 44.0431 202.866 44.0431C201.596 44.0431 200.589 43.9626 199.843 43.8013C199.703 44.0634 199.591 44.3251 199.511 44.587C199.45 44.8287 199.42 45.0604 199.42 45.282C199.42 45.7453 199.692 46.1181 200.236 46.4001C200.8 46.662 201.475 46.8433 202.261 46.9441C203.067 47.0449 203.832 47.0953 204.558 47.0953H210.239C214.088 47.0953 216.969 47.9009 218.883 49.5126C220.798 51.1241 221.755 53.5515 221.755 56.7948C221.755 60.9648 219.972 64.2083 216.405 66.5244C212.859 68.8411 207.872 69.9996 201.445 69.9996L201.445 69.9998ZM202.019 62.6267C203.45 62.6267 204.891 62.4958 206.341 62.2339C207.792 61.9924 209.011 61.5896 209.998 61.0255C210.985 60.4614 211.479 59.7158 211.479 58.7892C211.479 58.0844 211.187 57.5505 210.602 57.188C210.018 56.8454 209.262 56.6138 208.335 56.4928C207.409 56.3721 206.432 56.3118 205.404 56.3118H200.81C199.964 56.3118 199.188 56.4426 198.483 56.7045C197.798 56.9866 197.254 57.3594 196.851 57.8227C196.448 58.2858 196.247 58.8096 196.247 59.3942C196.247 60.361 196.77 61.1366 197.818 61.7208C198.865 62.3251 200.266 62.6271 202.019 62.6271L202.019 62.6267ZM203.621 37.3655C204.749 37.3655 205.616 36.9324 206.22 36.0663C206.845 35.2 207.157 33.9008 207.157 32.1681C207.157 30.3956 206.865 29.0659 206.281 28.1796C205.696 27.2931 204.81 26.8502 203.621 26.8502C202.392 26.8502 201.476 27.2933 200.871 28.1796C200.266 29.0458 199.964 30.3552 199.964 32.1076C199.964 33.8602 200.266 35.1798 200.871 36.0663C201.476 36.9324 202.392 37.3655 203.621 37.3655H203.621Z" fill="white"/>
<path d="M274.264 20.8801C278.596 20.8801 281.981 21.9579 284.419 24.1134C286.857 26.2489 288.076 29.3005 288.076 33.269V55.7199H279.886L277.619 51.1875H277.377C276.41 52.3959 275.413 53.3832 274.385 54.1485C273.377 54.8939 272.219 55.4378 270.91 55.7804C269.6 56.1429 267.998 56.3243 266.104 56.3243C264.129 56.3243 262.356 55.9215 260.785 55.1157C259.213 54.31 257.974 53.0911 257.067 51.4596C256.16 49.8278 255.707 47.7631 255.707 45.2651C255.707 41.5988 256.977 38.8795 259.515 37.1067C262.054 35.3339 265.731 34.3367 270.547 34.1152L276.258 33.9339V33.4502C276.258 31.9192 275.876 30.8315 275.11 30.1869C274.365 29.5424 273.357 29.22 272.088 29.22C270.738 29.22 269.227 29.4617 267.555 29.9452C265.902 30.4085 264.241 31.013 262.568 31.7583L259.153 23.9624C261.127 22.9551 263.364 22.1898 265.862 21.666C268.361 21.1424 271.161 20.8803 274.264 20.8803L274.264 20.8801ZM276.319 40.4302L273.599 40.5512C271.423 40.6317 269.892 41.0145 269.005 41.6994C268.139 42.3641 267.705 43.3212 267.705 44.5697C267.705 45.7383 268.018 46.6044 268.643 47.1685C269.267 47.7125 270.093 47.9842 271.121 47.9842C272.551 47.9842 273.77 47.531 274.777 46.6246C275.805 45.7179 276.319 44.5395 276.319 43.0893V40.43V40.4302Z" fill="white"/>
<path d="M250.602 20.9558C251.247 20.9558 251.921 21.0062 252.627 21.107C253.332 21.1875 253.856 21.2582 254.199 21.3185L253.14 32.4685C252.758 32.3677 252.264 32.2872 251.66 32.2267C251.055 32.1463 250.209 32.106 249.121 32.106C248.376 32.106 247.58 32.1765 246.733 32.3175C245.887 32.4584 245.081 32.7608 244.316 33.2241C243.57 33.6673 242.955 34.3521 242.472 35.2787C241.988 36.1852 241.747 37.4142 241.747 38.9652V55.7958H229.93V21.5605H238.725L240.568 27.0296H241.142C241.767 25.9016 242.563 24.8842 243.53 23.9778C244.517 23.0512 245.615 22.3159 246.824 21.7719C248.054 21.2278 249.313 20.956 250.602 20.956L250.602 20.9558Z" fill="white"/>
</svg>
