<svg width="12" height="12" viewBox="0 0 12 12" fill="none" xmlns="http://www.w3.org/2000/svg">
<path d="M2.66211 0.862305C3.39583 0.862305 3.95182 1.13574 4.33008 1.68262C4.70833 2.22493 4.89746 2.99284 4.89746 3.98633C4.89746 4.97526 4.71517 5.74772 4.35059 6.30371C3.99056 6.8597 3.42773 7.1377 2.66211 7.1377C1.94661 7.1377 1.40202 6.8597 1.02832 6.30371C0.654622 5.74772 0.467773 4.97526 0.467773 3.98633C0.467773 2.99284 0.643229 2.22493 0.994141 1.68262C1.34961 1.13574 1.9056 0.862305 2.66211 0.862305ZM2.66895 1.9834C2.37272 1.9834 2.15397 2.14974 2.0127 2.48242C1.87598 2.8151 1.80762 3.31868 1.80762 3.99316C1.80762 4.66309 1.87598 5.16895 2.0127 5.51074C2.15397 5.84798 2.37272 6.0166 2.66895 6.0166C2.96973 6.0166 3.19303 5.84798 3.33887 5.51074C3.48926 5.1735 3.56445 4.66764 3.56445 3.99316C3.56445 3.32324 3.49154 2.82194 3.3457 2.48926C3.19987 2.15202 2.97428 1.9834 2.66895 1.9834ZM9.375 1.00586L3.83105 11H2.51172L8.05566 1.00586H9.375ZM9.19043 4.86133C9.92415 4.86133 10.4801 5.13477 10.8584 5.68164C11.2412 6.22396 11.4326 6.99186 11.4326 7.98535C11.4326 8.96973 11.2503 9.73991 10.8857 10.2959C10.5257 10.8519 9.96061 11.1299 9.19043 11.1299C8.47493 11.1299 7.93034 10.8519 7.55664 10.2959C7.18294 9.73991 6.99609 8.96973 6.99609 7.98535C6.99609 6.99186 7.17155 6.22396 7.52246 5.68164C7.87793 5.13477 8.43392 4.86133 9.19043 4.86133ZM9.19727 5.98242C8.90104 5.98242 8.68229 6.14876 8.54102 6.48145C8.4043 6.81413 8.33594 7.31771 8.33594 7.99219C8.33594 8.66211 8.4043 9.16797 8.54102 9.50977C8.68229 9.84701 8.90104 10.0156 9.19727 10.0156C9.5026 10.0156 9.72819 9.84928 9.87402 9.5166C10.0199 9.17936 10.0928 8.67122 10.0928 7.99219C10.0928 7.32227 10.0199 6.82096 9.87402 6.48828C9.72819 6.15104 9.5026 5.98242 9.19727 5.98242Z" fill="#BEBEBE"/>
</svg>
