<svg width="100" height="100" viewBox="0 0 100 100" fill="none" xmlns="http://www.w3.org/2000/svg">
<g clip-path="url(#clip0_620_86825)">
<path d="M32.0054 46.0895C29.5424 45.3804 27.0795 45.0206 24.6837 45.0206C20.984 45.0206 17.8969 45.866 15.5032 46.9014C17.8109 38.4531 23.3546 23.8758 34.398 22.2342C35.4207 22.0821 36.2589 21.3426 36.5379 20.3471L38.9515 11.7142C39.155 10.9842 39.0344 10.2027 38.618 9.56911C38.2015 8.93555 37.5323 8.51282 36.7823 8.41002C35.9673 8.29883 35.1365 8.24219 34.3131 8.24219C21.0574 8.24219 7.92979 22.0779 2.39027 41.8884C-0.861485 53.5108 -1.81498 70.9843 6.19482 81.9825C10.677 88.1367 17.2162 91.4231 25.6309 91.7514C25.6655 91.7525 25.6991 91.7535 25.7337 91.7535C36.1162 91.7535 45.3229 84.7612 48.1236 74.7511C49.7966 68.7668 49.0404 62.4909 45.9921 57.0752C42.9764 51.7202 38.0096 47.8171 32.0054 46.0895Z" fill="#E7E7F0" fill-opacity="0.4"/>
<path d="M96.9965 57.0762C93.9808 51.7202 89.014 47.8171 83.0098 46.0895C80.5468 45.3804 78.0839 45.0206 75.6891 45.0206C71.9895 45.0206 68.9014 45.866 66.5077 46.9014C68.8153 38.4531 74.3591 23.8758 85.4035 22.2342C86.4262 22.0821 87.2633 21.3426 87.5434 20.3471L89.957 11.7142C90.1605 10.9842 90.0399 10.2027 89.6234 9.56911C89.208 8.93555 88.5388 8.51282 87.7878 8.41002C86.9738 8.29883 86.143 8.24219 85.3185 8.24219C72.0629 8.24219 58.9353 22.0779 53.3947 41.8884C50.144 53.5108 49.1905 70.9843 57.2013 81.9846C61.6825 88.1378 68.2227 91.4252 76.6363 91.7525C76.671 91.7535 76.7045 91.7546 76.7402 91.7546C87.1217 91.7546 96.3294 84.7623 99.1301 74.7521C100.801 68.7678 100.044 62.4909 96.9965 57.0762Z" fill="#E7E7F0" fill-opacity="0.4"/>
</g>
<defs>
<clipPath id="clip0_620_86825">
<rect width="99.9998" height="99.9988" fill="white"/>
</clipPath>
</defs>
</svg>
