<svg width="9" height="10" viewBox="0 0 9 10" fill="none" xmlns="http://www.w3.org/2000/svg">
<path d="M1.86547 10V0.00399935H5.05747C6.34547 0.00399935 7.28347 0.265333 7.87147 0.787999C8.4688 1.31067 8.76747 2.02933 8.76747 2.944C8.76747 3.48533 8.64614 3.994 8.40347 4.47C8.1608 4.946 7.7548 5.32867 7.18547 5.618C6.62547 5.90733 5.86014 6.052 4.88947 6.052H3.97947V10H1.86547ZM0.745469 8.502V7.144H6.13547V8.502H0.745469ZM0.745469 6.052V4.316H4.84747V6.052H0.745469ZM4.67947 4.316C5.0808 4.316 5.42614 4.274 5.71547 4.19C6.0048 4.09667 6.2288 3.952 6.38747 3.756C6.54614 3.56 6.62547 3.31267 6.62547 3.014C6.62547 2.58467 6.49014 2.26733 6.21947 2.062C5.9488 1.84733 5.52414 1.74 4.94547 1.74H3.97947V4.316H4.67947Z" fill="#BEBEBE"/>
</svg>
