<svg width="10" height="11" viewBox="0 0 10 11" fill="none" xmlns="http://www.w3.org/2000/svg">
<g clip-path="url(#clip0_501_40499)">
<path d="M9.97385 4.33574C9.90801 4.13325 9.72841 3.98989 9.51677 3.97074L6.63006 3.70867L5.48922 1.03773C5.40499 0.841494 5.21334 0.714844 5.00001 0.714844C4.78669 0.714844 4.59496 0.841494 4.51127 1.03773L3.37042 3.70867L0.48326 3.97074C0.271617 3.99027 0.0923996 4.13363 0.0261753 4.33574C-0.0396675 4.53823 0.0211398 4.76032 0.181207 4.9007L2.36333 6.81411L1.71993 9.64787C1.67286 9.85623 1.75373 10.0717 1.92661 10.1967C2.01954 10.2642 2.12872 10.2979 2.23828 10.2979C2.33243 10.2979 2.42665 10.2729 2.51081 10.2225L5.00001 8.73416L7.48876 10.2225C7.67134 10.3316 7.90091 10.3216 8.07341 10.1967C8.2463 10.0717 8.32717 9.85623 8.2801 9.64787L7.6367 6.81411L9.81882 4.9007C9.97881 4.76032 10.0397 4.53868 9.97385 4.33574Z" fill="#FF5500"/>
</g>
<defs>
<clipPath id="clip0_501_40499">
<rect width="10" height="10" fill="white" transform="translate(0 0.5)"/>
</clipPath>
</defs>
</svg>
