<svg width="20" height="21" viewBox="0 0 20 21" fill="none" xmlns="http://www.w3.org/2000/svg">
<g clip-path="url(#clip0_882_109482)">
<path d="M19.6004 10.5004C19.6004 15.7938 15.2938 20.1004 10.0004 20.1004C4.70699 20.1004 0.400391 15.7938 0.400391 10.5004C0.400391 10.1688 0.668791 9.90039 1.00039 9.90039C1.33199 9.90039 1.60039 10.1688 1.60039 10.5004C1.60039 15.1322 5.36859 18.9004 10.0004 18.9004C14.6322 18.9004 18.4004 15.1322 18.4004 10.5004C18.4004 5.86859 14.6322 2.10039 10.0004 2.10039C7.76779 2.10039 5.69519 2.96819 4.13599 4.50039H6.40039C6.73199 4.50039 7.00039 4.76879 7.00039 5.10039C7.00039 5.43199 6.73199 5.70039 6.40039 5.70039H2.80039C2.46879 5.70039 2.20039 5.43199 2.20039 5.10039V1.50039C2.20039 1.16879 2.46879 0.900391 2.80039 0.900391C3.13199 0.900391 3.40039 1.16879 3.40039 1.50039V3.54719C5.17059 1.85759 7.49659 0.900391 10.0004 0.900391C15.2938 0.900391 19.6004 5.20699 19.6004 10.5004ZM15.4004 8.10039V13.5004C15.4004 13.7506 15.2452 13.9744 15.0114 14.0624L10.2114 15.8624C10.1434 15.8876 10.0718 15.9004 10.0004 15.9004C9.92899 15.9004 9.85739 15.8876 9.78939 15.8624L4.98939 14.0624C4.75559 13.9744 4.60039 13.7506 4.60039 13.5004V8.10039C4.60039 7.85019 4.75559 7.62639 4.98939 7.53839L9.78939 5.73839C9.92539 5.68799 10.0754 5.68799 10.2112 5.73839L15.0112 7.53839C15.2452 7.62639 15.4004 7.85019 15.4004 8.10039ZM6.90899 8.10039L10.0004 9.25939L13.0918 8.10039L10.0004 6.94139L6.90899 8.10039ZM5.80039 13.0844L9.40039 14.4344V10.3164L5.80039 8.96639V13.0844ZM14.2004 13.0844V8.96639L10.6004 10.3164V14.4344L14.2004 13.0844Z" fill="#C8C8C8"/>
</g>
<defs>
<clipPath id="clip0_882_109482">
<rect width="20" height="20" fill="white" transform="translate(0 0.5)"/>
</clipPath>
</defs>
</svg>
