<svg width="20" height="21" viewBox="0 0 20 21" fill="none" xmlns="http://www.w3.org/2000/svg">
<g clip-path="url(#clip0_882_109572)">
<path d="M14.9935 7.21286C14.6856 6.88825 14.1724 6.87395 13.8473 7.18258L8.67105 12.0915L6.20215 9.55665C5.88945 9.23583 5.37676 9.22879 5.05566 9.54153C4.73484 9.85395 4.72808 10.3672 5.04051 10.688L8.06754 13.7959C8.22617 13.9588 8.43699 14.041 8.64836 14.041C8.8489 14.041 9.04945 13.9669 9.20648 13.8186L14.9632 8.35911C15.2881 8.05098 15.3018 7.53774 14.9935 7.21286Z" fill="#068923"/>
<path d="M10 0.5C4.48594 0.5 0 4.98594 0 10.5C0 16.0141 4.48594 20.5 10 20.5C15.5141 20.5 20 16.0141 20 10.5C20 4.98594 15.5141 0.5 10 0.5ZM10 18.8784C5.38027 18.8784 1.6216 15.12 1.6216 10.5C1.6216 5.88027 5.38023 2.1216 10 2.1216C14.62 2.1216 18.3784 5.88023 18.3784 10.5C18.3784 15.12 14.62 18.8784 10 18.8784Z" fill="#068923"/>
</g>
<defs>
<clipPath id="clip0_882_109572">
<rect width="20" height="20" fill="white" transform="translate(0 0.5)"/>
</clipPath>
</defs>
</svg>
