<svg width="20" height="21" viewBox="0 0 20 21" fill="none" xmlns="http://www.w3.org/2000/svg">
<g clip-path="url(#clip0_1312_11837)">
<path d="M13.5631 12.2661L10.7746 10.1747V5.9145C10.7746 5.48614 10.4283 5.13989 9.99995 5.13989C9.57159 5.13989 9.22534 5.48614 9.22534 5.9145V10.5621C9.22534 10.8061 9.33999 11.0361 9.53519 11.1818L12.6335 13.5056C12.773 13.6101 12.9357 13.6605 13.0975 13.6605C13.3338 13.6605 13.5662 13.5543 13.718 13.3499C13.9752 13.0082 13.9055 12.5225 13.5631 12.2661Z" fill="#15A6F8"/>
<path d="M10 0.5C4.48566 0.5 0 4.98566 0 10.5C0 16.0143 4.48566 20.5 10 20.5C15.5143 20.5 20 16.0143 20 10.5C20 4.98566 15.5143 0.5 10 0.5ZM10 18.9508C5.34082 18.9508 1.54918 15.1592 1.54918 10.5C1.54918 5.84082 5.34082 2.04918 10 2.04918C14.66 2.04918 18.4508 5.84082 18.4508 10.5C18.4508 15.1592 14.6592 18.9508 10 18.9508Z" fill="#15A6F8"/>
</g>
<defs>
<clipPath id="clip0_1312_11837">
<rect width="20" height="20" fill="white" transform="translate(0 0.5)"/>
</clipPath>
</defs>
</svg>
