<svg width="20" height="21" viewBox="0 0 20 21" fill="none" xmlns="http://www.w3.org/2000/svg">
<path d="M17.5 9.5625H13.125C12.462 9.5625 11.8261 9.82589 11.3572 10.2947C10.8884 10.7636 10.625 11.3995 10.625 12.0625C10.625 12.7255 10.8884 13.3614 11.3572 13.8303C11.8261 14.2991 12.462 14.5625 13.125 14.5625H15.625V16.4375C15.6248 16.6032 15.5589 16.762 15.4417 16.8792C15.3245 16.9964 15.1657 17.0623 15 17.0625H5C4.50276 17.0624 4.02592 16.8648 3.67432 16.5132C3.32272 16.1616 3.12513 15.6847 3.125 15.1875V5.8125C3.12513 5.31526 3.32272 4.83842 3.67432 4.48682C4.02592 4.13522 4.50276 3.93763 5 3.9375H13.75C13.9158 3.9375 14.0747 4.00335 14.1919 4.12056C14.3092 4.23777 14.375 4.39674 14.375 4.5625V5.1875H5C4.83424 5.1875 4.67527 5.25335 4.55806 5.37056C4.44085 5.48777 4.375 5.64674 4.375 5.8125C4.375 5.97826 4.44085 6.13723 4.55806 6.25444C4.67527 6.37165 4.83424 6.4375 5 6.4375H15C15.1657 6.43771 15.3245 6.50363 15.4417 6.6208C15.5589 6.73796 15.6248 6.89681 15.625 7.0625V7.70062C15.625 7.86639 15.6908 8.02536 15.8081 8.14257C15.9253 8.25978 16.0842 8.32562 16.25 8.32562C16.4158 8.32562 16.5747 8.25978 16.6919 8.14257C16.8092 8.02536 16.875 7.86639 16.875 7.70062V7.0625C16.903 6.66878 16.7937 6.27752 16.5659 5.95523C16.338 5.63295 16.0055 5.39952 15.625 5.29463V4.5625C15.6249 4.06526 15.4273 3.58842 15.0757 3.23682C14.7241 2.88522 14.2472 2.68763 13.75 2.6875H5C4.17126 2.68772 3.37653 3.01702 2.79053 3.60303C2.20452 4.18903 1.87522 4.98376 1.875 5.8125V15.1875C1.87522 16.0162 2.20452 16.811 2.79053 17.397C3.37653 17.983 4.17126 18.3123 5 18.3125H15C15.4971 18.312 15.9737 18.1142 16.3252 17.7627C16.6767 17.4112 16.8745 16.9346 16.875 16.4375V14.5625H17.5C17.6658 14.5625 17.8247 14.4967 17.9419 14.3794C18.0592 14.2622 18.125 14.1033 18.125 13.9375V10.1875C18.125 10.0217 18.0592 9.86277 17.9419 9.74556C17.8247 9.62835 17.6658 9.5625 17.5 9.5625ZM16.875 13.3125H13.125C12.7935 13.3125 12.4755 13.1808 12.2411 12.9464C12.0067 12.712 11.875 12.394 11.875 12.0625C11.875 11.731 12.0067 11.413 12.2411 11.1786C12.4755 10.9442 12.7935 10.8125 13.125 10.8125H16.875V13.3125Z" fill="#068923"/>
</svg>
