<svg width="20" height="21" viewBox="0 0 20 21" fill="none" xmlns="http://www.w3.org/2000/svg">
<g clip-path="url(#clip0_882_109473)">
<path d="M9.98177 20.0615C8.72404 20.0638 7.4783 19.8176 6.31606 19.3369C5.15382 18.8563 4.09805 18.1507 3.20935 17.2607C-0.525513 13.5259 -0.525513 7.44922 3.20935 3.71437C4.0967 2.82203 5.15226 2.11454 6.31489 1.63287C7.47747 1.1512 8.72409 0.904899 9.98255 0.908237C12.5411 0.908237 14.9465 1.9044 16.7549 3.71437C18.5641 5.52357 19.5611 7.9289 19.5611 10.4875C19.5611 13.0462 18.5649 15.4515 16.7549 17.2607C15.8661 18.1507 14.8102 18.8563 13.6478 19.3369C12.4855 19.8176 11.2396 20.0638 9.98177 20.0615ZM9.98255 2.4408C8.92539 2.4378 7.87817 2.64459 6.90152 3.0492C5.92487 3.4538 5.03819 4.04818 4.29288 4.79787C2.77334 6.31745 1.93655 8.33811 1.93655 10.4875C1.93655 12.637 2.77334 14.6569 4.29288 16.1772C7.43003 19.3144 12.535 19.3151 15.6714 16.1772C17.191 14.6577 18.0285 12.637 18.0285 10.4875C18.0285 8.33811 17.1917 6.31818 15.6714 4.79787C14.9261 4.04839 14.0395 3.45417 13.0631 3.04958C12.0865 2.64499 11.0395 2.43807 9.98255 2.4408Z" fill="#B21628"/>
<path d="M6.73108 14.505C6.57938 14.5054 6.43099 14.4606 6.30477 14.3765C6.17856 14.2924 6.08017 14.1726 6.02214 14.0325C5.96406 13.8923 5.949 13.7381 5.97873 13.5893C6.00851 13.4406 6.08182 13.304 6.18932 13.197L12.6912 6.6951C12.7624 6.62396 12.8468 6.56753 12.9398 6.52899C13.0327 6.49049 13.1324 6.4707 13.233 6.4707C13.3336 6.4707 13.4332 6.49049 13.5262 6.52899C13.6191 6.56753 13.7036 6.62396 13.7747 6.6951C13.8459 6.76623 13.9023 6.85069 13.9408 6.94366C13.9793 7.03663 13.9992 7.13624 13.9992 7.23685C13.9992 7.33746 13.9793 7.43711 13.9408 7.53008C13.9023 7.623 13.8459 7.70746 13.7747 7.7786L7.27283 14.2806C7.20187 14.352 7.11745 14.4086 7.02444 14.4471C6.93147 14.4856 6.83173 14.5053 6.73108 14.505Z" fill="#B21628"/>
<path d="M13.2329 14.505C13.1323 14.5052 13.0326 14.4854 12.9397 14.4468C12.8467 14.4083 12.7622 14.3518 12.6912 14.2806L6.18924 7.7786C6.1181 7.70746 6.06168 7.623 6.02318 7.53008C5.98468 7.43711 5.96484 7.33746 5.96484 7.23685C5.96484 7.13624 5.98468 7.03663 6.02318 6.94366C6.06168 6.85069 6.1181 6.76623 6.18924 6.6951C6.26042 6.62396 6.34488 6.56753 6.4378 6.52899C6.53077 6.49049 6.63043 6.4707 6.73103 6.4707C6.83164 6.4707 6.93125 6.49049 7.02422 6.52899C7.11719 6.56753 7.20165 6.62396 7.27279 6.6951L13.7747 13.197C13.8822 13.304 13.9555 13.4406 13.9852 13.5893C14.015 13.7381 13.9999 13.8923 13.9419 14.0325C13.8838 14.1726 13.7855 14.2924 13.6592 14.3765C13.533 14.4606 13.3846 14.5054 13.2329 14.505Z" fill="#B21628"/>
</g>
<defs>
<clipPath id="clip0_882_109473">
<rect width="20" height="20" fill="white" transform="translate(0 0.5)"/>
</clipPath>
</defs>
</svg>
