<svg width="20" height="21" viewBox="0 0 20 21" fill="none" xmlns="http://www.w3.org/2000/svg">
<g clip-path="url(#clip0_882_109367)">
<path d="M13.5634 12.2659L10.7748 10.1745V5.91426C10.7748 5.4859 10.4286 5.13965 10.0002 5.13965C9.57184 5.13965 9.22559 5.4859 9.22559 5.91426V10.5618C9.22559 10.8058 9.34023 11.0359 9.53543 11.1815L12.6338 13.5053C12.7732 13.6099 12.9359 13.6602 13.0978 13.6602C13.334 13.6602 13.5664 13.5541 13.7182 13.3496C13.9755 13.008 13.9057 12.5223 13.5634 12.2659Z" fill="#F7A609"/>
<path d="M10 0.5C4.48566 0.5 0 4.98566 0 10.5C0 16.0143 4.48566 20.5 10 20.5C15.5143 20.5 20 16.0143 20 10.5C20 4.98566 15.5143 0.5 10 0.5ZM10 18.9508C5.34082 18.9508 1.54918 15.1592 1.54918 10.5C1.54918 5.84082 5.34082 2.04918 10 2.04918C14.66 2.04918 18.4508 5.84082 18.4508 10.5C18.4508 15.1592 14.6592 18.9508 10 18.9508Z" fill="#F7A609"/>
</g>
<defs>
<clipPath id="clip0_882_109367">
<rect width="20" height="20" fill="white" transform="translate(0 0.5)"/>
</clipPath>
</defs>
</svg>
