<svg width="20" height="21" viewBox="0 0 20 21" fill="none" xmlns="http://www.w3.org/2000/svg">
<g clip-path="url(#clip0_882_109485)">
<path d="M19.2391 5.12149L10.4075 0.646604L10.4039 0.644768C10.0106 0.448987 9.54336 0.453362 9.15379 0.656487L5.36594 2.6668C5.33516 2.67985 5.30559 2.69567 5.27727 2.71387L0.738125 5.12293C0.282812 5.36133 0 5.82844 0 6.34254V14.6582C0 15.1723 0.282812 15.6394 0.738125 15.8778L9.15004 20.3423L9.15383 20.3443C9.3525 20.4479 9.57145 20.4998 9.79043 20.4998C10.0008 20.4998 10.2112 20.4519 10.4039 20.356L19.2391 15.8793C19.7085 15.6445 20 15.173 20 14.648V6.35274C20 5.82778 19.7085 5.35617 19.2391 5.12149ZM9.69676 1.69449C9.75414 1.66504 9.82266 1.66446 9.88055 1.69285L18.1473 5.88153L14.93 7.48328L6.84797 3.20645L9.69676 1.69449ZM9.19625 19.0406L1.28555 14.8421L1.28176 14.8401C1.21375 14.8046 1.17145 14.7349 1.17145 14.6582V6.87114L9.19625 11.0557V19.0406ZM9.78816 10.0432L1.8075 5.88164L5.5975 3.8702L13.6395 8.12578L9.78816 10.0432ZM18.8285 14.648C18.8285 14.7264 18.7849 14.7968 18.7148 14.8317L10.3677 19.061V11.0632L14.2109 9.14985V11.1559C14.2109 11.4794 14.4732 11.7416 14.7967 11.7416C15.1202 11.7416 15.3824 11.4794 15.3824 11.1559V8.5666L18.8285 6.85098V14.648Z" fill="#72008E"/>
</g>
<defs>
<clipPath id="clip0_882_109485">
<rect width="20" height="20" fill="white" transform="translate(0 0.5)"/>
</clipPath>
</defs>
</svg>
