<svg width="20" height="21" viewBox="0 0 20 21" fill="none" xmlns="http://www.w3.org/2000/svg">
<g clip-path="url(#clip0_882_109511)">
<path d="M15.105 12.3906C13.7149 12.3906 12.584 13.5215 12.584 14.9116C12.584 16.3018 13.7149 17.4327 15.105 17.4327C16.4954 17.4327 17.626 16.3018 17.626 14.9116C17.626 13.5215 16.4951 12.3906 15.105 12.3906ZM15.105 16.1721C14.4098 16.1721 13.8445 15.6068 13.8445 14.9116C13.8445 14.2165 14.4098 13.6511 15.105 13.6511C15.8002 13.6511 16.3655 14.2165 16.3655 14.9116C16.3655 15.6068 15.8002 16.1721 15.105 16.1721Z" fill="#0446AA"/>
<path d="M6.49172 12.3906C5.1016 12.3906 3.9707 13.5215 3.9707 14.9116C3.9707 16.3018 5.1016 17.4327 6.49172 17.4327C7.88184 17.4327 9.01273 16.3018 9.01273 14.9116C9.01273 13.5215 7.88184 12.3906 6.49172 12.3906ZM6.49172 16.1721C5.79656 16.1721 5.23121 15.6068 5.23121 14.9116C5.23121 14.2165 5.79656 13.6511 6.49172 13.6511C7.18668 13.6511 7.75223 14.2165 7.75223 14.9116C7.75223 15.6068 7.18687 16.1721 6.49172 16.1721Z" fill="#0446AA"/>
<path d="M16.8025 5.1752C16.6954 4.96238 16.4775 4.82812 16.2393 4.82812H12.9199V6.08863H15.8506L17.5668 9.50207L18.6932 8.93566L16.8025 5.1752Z" fill="#0446AA"/>
<path d="M13.2142 14.3027H8.44531V15.5632H13.2142V14.3027Z" fill="#0446AA"/>
<path d="M4.60121 14.3027H2.41637C2.06824 14.3027 1.78613 14.5849 1.78613 14.933C1.78613 15.2811 2.06828 15.5632 2.41637 15.5632H4.60125C4.94938 15.5632 5.23148 15.2811 5.23148 14.933C5.23148 14.5848 4.94934 14.3027 4.60121 14.3027Z" fill="#0446AA"/>
<path d="M19.868 10.4497L18.6284 8.85309C18.5093 8.6993 18.3254 8.60937 18.1307 8.60937H13.5508V4.19762C13.5508 3.84949 13.2687 3.56738 12.9206 3.56738H2.41637C2.06824 3.56738 1.78613 3.84953 1.78613 4.19762C1.78613 4.5457 2.06828 4.82785 2.41637 4.82785H12.2903V9.23961C12.2903 9.58773 12.5725 9.86984 12.9205 9.86984H17.822L18.7399 11.0522V14.3026H16.9962C16.648 14.3026 16.3659 14.5848 16.3659 14.9329C16.3659 15.281 16.6481 15.5631 16.9962 15.5631H19.3701C19.7182 15.5631 20.0004 15.2809 20.0004 14.9329V10.8363C20.0004 10.6964 19.9538 10.5602 19.868 10.4497Z" fill="#0446AA"/>
<path d="M4.55871 11.1094H1.65953C1.31141 11.1094 1.0293 11.3915 1.0293 11.7396C1.0293 12.0877 1.31145 12.3698 1.65953 12.3698H4.55867C4.9068 12.3698 5.18891 12.0877 5.18891 11.7396C5.18895 11.3915 4.9068 11.1094 4.55871 11.1094Z" fill="#0446AA"/>
<path d="M6.0084 8.62988H0.630234C0.282148 8.62988 0 8.91203 0 9.26016C0 9.60828 0.282148 9.89039 0.630234 9.89039H6.0084C6.35652 9.89039 6.63863 9.60824 6.63863 9.26016C6.63863 8.91207 6.35652 8.62988 6.0084 8.62988Z" fill="#0446AA"/>
<path d="M7.0377 6.15137H1.65953C1.31141 6.15137 1.0293 6.43352 1.0293 6.7816C1.0293 7.12973 1.31145 7.41184 1.65953 7.41184H7.0377C7.38582 7.41184 7.66793 7.12969 7.66793 6.7816C7.66797 6.43352 7.38582 6.15137 7.0377 6.15137Z" fill="#0446AA"/>
</g>
<defs>
<clipPath id="clip0_882_109511">
<rect width="20" height="20" fill="white" transform="translate(0 0.5)"/>
</clipPath>
</defs>
</svg>
