<svg width="20" height="20" viewBox="0 0 20 20" fill="none" xmlns="http://www.w3.org/2000/svg">
<path d="M18.75 13.4375V18.4375C18.75 18.6033 18.6842 18.7622 18.5669 18.8794C18.4497 18.9967 18.2908 19.0625 18.125 19.0625H11.875C11.7092 19.0625 11.5503 18.9967 11.4331 18.8794C11.3158 18.7622 11.25 18.6033 11.25 18.4375V13.4375C11.25 10.9375 12.1875 9.6875 12.1875 9.6875C12.8125 8.4375 14.0625 7.1875 14.0625 4.6875V4.375C13.8967 4.375 13.7378 4.30915 13.6206 4.19194C13.5033 4.07473 13.4375 3.91576 13.4375 3.75C13.4375 3.58424 13.5033 3.42527 13.6206 3.30806C13.7378 3.19085 13.8967 3.125 14.0625 3.125V1.875H15.9375V3.125C16.1033 3.125 16.2622 3.19085 16.3794 3.30806C16.4967 3.42527 16.5625 3.58424 16.5625 3.75C16.5625 3.91576 16.4967 4.07473 16.3794 4.19194C16.2622 4.30915 16.1033 4.375 15.9375 4.375V4.6875C15.9375 7.1875 17.1875 8.4375 17.8125 9.6875C17.8125 9.6875 18.75 10.9375 18.75 13.4375Z" fill="#464C4F"/>
<path d="M17.0938 8.46562C16.1457 9.0625 15 9.0625 15 9.0625C15 9.0625 13.8543 9.0625 12.9062 8.46562C13.4766 7.525 14.0625 6.39922 14.0625 4.6875V4.375C13.8967 4.375 13.7378 4.30915 13.6206 4.19194C13.5033 4.07473 13.4375 3.91576 13.4375 3.75C13.4375 3.58424 13.5033 3.42527 13.6206 3.30806C13.7378 3.19085 13.8967 3.125 14.0625 3.125V1.875H15.9375V3.125C16.1033 3.125 16.2622 3.19085 16.3794 3.30806C16.4967 3.42527 16.5625 3.58424 16.5625 3.75C16.5625 3.91576 16.4967 4.07473 16.3794 4.19194C16.2622 4.30915 16.1033 4.375 15.9375 4.375V4.6875C15.9375 6.39922 16.5234 7.525 17.0938 8.46562Z" fill="#931237"/>
<path d="M17.0938 8.46558C16.1457 9.06245 15 9.06245 15 9.06245C15 9.06245 13.8543 9.06245 12.9062 8.46558C12.6437 8.89917 12.3848 9.29331 12.1875 9.68745C13.125 10.9375 15 10.9375 15 10.9375C15 10.9375 16.875 10.9375 17.8125 9.68745C17.6152 9.29331 17.3563 8.89917 17.0938 8.46558Z" fill="#6A7073"/>
<path d="M8.75 13.4375V18.4375C8.75 18.6033 8.68415 18.7622 8.56694 18.8794C8.44973 18.9967 8.29076 19.0625 8.125 19.0625H1.875C1.70924 19.0625 1.55027 18.9967 1.43306 18.8794C1.31585 18.7622 1.25 18.6033 1.25 18.4375V13.4375C1.25 12.8125 1.5625 12.1875 2.5 10.3125C3.4375 8.4375 4.0625 5.625 4.0625 5.625V3.4375C3.89674 3.4375 3.73777 3.37165 3.62056 3.25444C3.50335 3.13723 3.4375 2.97826 3.4375 2.8125C3.4375 2.64674 3.50335 2.48777 3.62056 2.37056C3.73777 2.25335 3.89674 2.1875 4.0625 2.1875V0.9375H5.9375V2.1875C6.10326 2.1875 6.26223 2.25335 6.37944 2.37056C6.49665 2.48777 6.5625 2.64674 6.5625 2.8125C6.5625 2.97826 6.49665 3.13723 6.37944 3.25444C6.26223 3.37165 6.10326 3.4375 5.9375 3.4375V5.625C5.9375 5.625 6.5625 8.4375 7.5 10.3125C8.4375 12.1875 8.75 12.8125 8.75 13.4375Z" fill="#464C4F"/>
<path d="M6.5625 2.8125C6.5625 2.97826 6.49665 3.13723 6.37944 3.25444C6.26223 3.37165 6.10326 3.4375 5.9375 3.4375V5.3125H4.0625V3.4375C3.89674 3.4375 3.73777 3.37165 3.62056 3.25444C3.50335 3.13723 3.4375 2.97826 3.4375 2.8125C3.4375 2.64674 3.50335 2.48777 3.62056 2.37056C3.73777 2.25335 3.89674 2.1875 4.0625 2.1875V0.9375H5.9375V2.1875C6.10326 2.1875 6.26223 2.25335 6.37944 2.37056C6.49665 2.48777 6.5625 2.64674 6.5625 2.8125Z" fill="#931237"/>
<path d="M2.96709 12.5001C2.91427 12.5 2.86232 12.4866 2.8161 12.461C2.76987 12.4355 2.73088 12.3986 2.70276 12.3539C2.67464 12.3092 2.65831 12.2581 2.65529 12.2054C2.65228 12.1527 2.66268 12.1 2.68552 12.0524C2.85666 11.6954 3.06834 11.2718 3.33662 10.7355L3.33849 10.7316C3.35685 10.6949 3.38225 10.6621 3.41326 10.6353C3.44426 10.6084 3.48026 10.5878 3.51919 10.5749C3.55812 10.5619 3.59923 10.5567 3.64017 10.5596C3.6811 10.5625 3.72106 10.5735 3.75777 10.5918C3.79448 10.6102 3.82721 10.6356 3.8541 10.6666C3.88098 10.6976 3.9015 10.7336 3.91448 10.7725C3.92746 10.8115 3.93264 10.8526 3.92973 10.8935C3.92682 10.9344 3.91587 10.9744 3.89752 11.0111L3.89564 11.0148C3.62888 11.5488 3.41795 11.9704 3.24912 12.3226C3.22363 12.3758 3.18363 12.4207 3.13372 12.4521C3.08382 12.4835 3.02605 12.5001 2.96709 12.5001Z" fill="#6A7073"/>
<path d="M6.17159 6.5625H3.82941C3.98019 5.99766 4.063 5.625 4.063 5.625V5.3125H5.938V5.625C5.938 5.625 6.02081 5.99766 6.17159 6.5625Z" fill="#6A7073"/>
<path d="M1.25 13.4375H8.75V17.8125H1.25V13.4375Z" fill="#6A7073"/>
<path d="M17.4539 13.125C17.3765 13.1249 17.3018 13.0961 17.2445 13.0441C17.1871 12.9922 17.151 12.9208 17.1433 12.8438C17.1037 12.4384 17.0318 12.0368 16.9285 11.6428C16.9179 11.6032 16.9153 11.5618 16.9207 11.5211C16.9262 11.4805 16.9395 11.4412 16.9601 11.4057C16.9807 11.3702 17.0081 11.3391 17.0407 11.3142C17.0733 11.2893 17.1105 11.271 17.1502 11.2605C17.2303 11.2392 17.3155 11.2506 17.3872 11.2922C17.4227 11.3128 17.4538 11.3401 17.4788 11.3727C17.5037 11.4053 17.5219 11.4425 17.5325 11.4822C17.6445 11.9083 17.7224 12.3427 17.7654 12.7813C17.7695 12.8221 17.7655 12.8633 17.7537 12.9026C17.7418 12.9419 17.7224 12.9785 17.6964 13.0103C17.6704 13.0421 17.6385 13.0684 17.6023 13.0878C17.5661 13.1072 17.5265 13.1193 17.4857 13.1234C17.4749 13.1245 17.4643 13.125 17.4539 13.125Z" fill="#6A7073"/>
<path d="M11.25 14.0625H18.75V17.8125H11.25V14.0625Z" fill="#6A7073"/>
<path d="M15 10.9375C15.5178 10.9375 15.9375 10.5178 15.9375 10C15.9375 9.48223 15.5178 9.0625 15 9.0625C14.4822 9.0625 14.0625 9.48223 14.0625 10C14.0625 10.5178 14.4822 10.9375 15 10.9375Z" fill="#464C4F"/>
<path d="M12.8125 9.6875V18.4375C12.8125 18.6033 12.7467 18.7622 12.6294 18.8794C12.5122 18.9967 12.3533 19.0625 12.1875 19.0625H7.8125C7.64674 19.0625 7.48777 18.9967 7.37056 18.8794C7.25335 18.7622 7.1875 18.6033 7.1875 18.4375V9.66797C7.1875 7.8125 9.0625 7.16797 9.0625 7.16797V4.04297H8.75V2.16797H11.25V4.04297H10.9375V7.16797C10.9375 7.16797 12.8125 7.8125 12.8125 9.6875Z" fill="#4F5659"/>
<path d="M11.25 2.16797V4.04297H10.9375V5.3125H9.0625V4.04297H8.75V2.16797H11.25Z" fill="#931237"/>
<path d="M8.4375 10.3125C8.35462 10.3125 8.27513 10.2796 8.21653 10.221C8.15792 10.1624 8.125 10.0829 8.125 10V9.66799C8.125 9.20358 8.30469 8.8169 8.675 8.48592C8.84497 8.33575 9.0348 8.20969 9.23914 8.11128C9.31378 8.07524 9.39969 8.07034 9.47794 8.09764C9.5562 8.12494 9.62041 8.18222 9.65645 8.25686C9.69248 8.33151 9.69738 8.41741 9.67008 8.49567C9.64278 8.57393 9.5855 8.63813 9.51086 8.67417C9.35924 8.74738 9.21822 8.84076 9.09164 8.95178C8.79059 9.22104 8.75 9.46487 8.75 9.66799V10C8.75 10.0829 8.71708 10.1624 8.65847 10.221C8.59987 10.2796 8.52038 10.3125 8.4375 10.3125Z" fill="#6A7073"/>
<path d="M9.0625 5.3125H10.9375V6.5625H9.0625V5.3125Z" fill="#6A7073"/>
<path d="M8.4375 11.25H11.5625V16.25H8.4375V11.25Z" fill="#6A7073"/>
</svg>
