<svg width="26" height="26" viewBox="0 0 26 26" fill="none" xmlns="http://www.w3.org/2000/svg">
<g clip-path="url(#clip0_381_82984)">
<path d="M21.8389 16.6611C20.4774 15.2997 18.8569 14.2918 17.0888 13.6817C18.9825 12.3775 20.2266 10.1947 20.2266 7.72656C20.2266 3.74185 16.9847 0.5 13 0.5C9.01528 0.5 5.77344 3.74185 5.77344 7.72656C5.77344 10.1947 7.01753 12.3775 8.91123 13.6817C7.14316 14.2918 5.52266 15.2997 4.16118 16.6611C1.80024 19.0221 0.5 22.1611 0.5 25.5H2.45312C2.45312 19.6844 7.18442 14.9531 13 14.9531C18.8156 14.9531 23.5469 19.6844 23.5469 25.5H25.5C25.5 22.1611 24.1998 19.0221 21.8389 16.6611ZM13 13C10.0922 13 7.72656 10.6344 7.72656 7.72656C7.72656 4.81875 10.0922 2.45312 13 2.45312C15.9078 2.45312 18.2734 4.81875 18.2734 7.72656C18.2734 10.6344 15.9078 13 13 13Z" fill="#FF5500"/>
</g>
<defs>
<clipPath id="clip0_381_82984">
<rect width="25" height="25" fill="white" transform="translate(0.5 0.5)"/>
</clipPath>
</defs>
</svg>
