<svg width="20" height="20" viewBox="0 0 20 20" fill="none" xmlns="http://www.w3.org/2000/svg">
<path d="M13 18.3334H6.99998C6.63179 18.3334 6.33331 18.6319 6.33331 19C6.33331 19.3682 6.63179 19.6667 6.99998 19.6667H13C13.3682 19.6667 13.6666 19.3682 13.6666 19C13.6666 18.6319 13.3682 18.3334 13 18.3334Z" fill="#67B9CC"/>
<path d="M11.5137 11.5801C10.9796 12.1448 10.6774 12.8896 10.667 13.6667V18.3334H9.33367V13.6667C9.32325 12.8896 9.02103 12.1448 8.487 11.5801H11.5137Z" fill="#2FA8CC"/>
<path d="M10 11.6667H10.604C11.3186 11.6667 12.0237 11.5026 12.6649 11.187C13.3061 10.8714 13.8662 10.4128 14.3021 9.8465C14.738 9.28019 15.038 8.62134 15.179 7.92075C15.32 7.22016 15.2982 6.49655 15.1153 5.80571L13.798 0.829374C13.7604 0.687206 13.6767 0.561477 13.5602 0.471767C13.4437 0.382057 13.3007 0.3334 13.1537 0.333374H6.84633C6.69927 0.3334 6.55633 0.382057 6.43979 0.471767C6.32326 0.561477 6.23965 0.687206 6.202 0.829374L4.88467 5.80571C4.70177 6.49655 4.67998 7.22016 4.82098 7.92075C4.96197 8.62134 5.26198 9.28019 5.69788 9.8465C6.13378 10.4128 6.69391 10.8714 7.33509 11.187C7.97627 11.5026 8.68136 11.6667 9.396 11.6667H10Z" fill="#67B9CC"/>
<path d="M10.6031 11.6666H9.39643C8.19783 11.6665 7.0452 11.2054 6.17713 10.3789C5.30907 9.55241 4.79204 8.42377 4.73309 7.22663C5.15309 6.49329 5.99643 5.66663 7.66643 5.66663C8.44285 5.72002 9.1956 5.95647 9.86309 6.35663C11.5264 7.20663 13.2098 8.36329 15.2631 6.70329C15.3034 7.33999 15.2127 7.97819 14.9967 8.57849C14.7807 9.17879 14.444 9.72846 14.0073 10.1936C13.5707 10.6587 13.0433 11.0293 12.4578 11.2827C11.8723 11.536 11.2411 11.6667 10.6031 11.6666Z" fill="#CC4B4C"/>
<path d="M15.2633 6.70328C13.21 8.36328 11.5267 7.20661 9.86334 6.35661C10.37 5.63994 11.9167 4.00994 14.91 5.03328L15.1167 5.80661C15.1944 6.10006 15.2435 6.40035 15.2633 6.70328Z" fill="#802F34"/>
</svg>
