<svg width="25" height="25" viewBox="0 0 25 25" fill="none" xmlns="http://www.w3.org/2000/svg">
<g clip-path="url(#clip0_2330_88071)">
<path d="M9.88594 24.0935C8.51328 24.0935 7.39648 22.9767 7.39648 21.6041C7.39648 20.2314 8.51328 19.115 9.88594 19.115C11.2586 19.115 12.3754 20.2314 12.3754 21.6041C12.3754 22.9767 11.2586 24.0935 9.88594 24.0935ZM9.88594 20.6775C9.375 20.6775 8.95898 21.0931 8.95898 21.6041C8.95898 22.1154 9.37461 22.531 9.88594 22.531C10.3973 22.531 10.8129 22.1154 10.8129 21.6041C10.8129 21.0931 10.3973 20.6775 9.88594 20.6775Z" fill="#1E3D65"/>
<path d="M18.5398 24.0935C17.1672 24.0935 16.0508 22.9767 16.0508 21.6041C16.0508 20.2314 17.1672 19.115 18.5398 19.115C19.9125 19.115 21.0293 20.2314 21.0293 21.6041C21.0293 22.9767 19.9121 24.0935 18.5398 24.0935ZM18.5398 20.6775C18.0289 20.6775 17.6133 21.0931 17.6133 21.6041C17.6133 22.1154 18.0289 22.531 18.5398 22.531C19.0512 22.531 19.4668 22.1154 19.4668 21.6041C19.4668 21.0931 19.0508 20.6775 18.5398 20.6775Z" fill="#1E3D65"/>
<path d="M20.3625 17.1853H8.08948C6.89534 17.1853 5.87541 16.3724 5.60901 15.2083L3.06174 4.08447C3.02815 3.9376 2.92659 3.81182 2.78987 3.74853L0.676976 2.76924C0.187914 2.54267 -0.0249769 1.96221 0.201586 1.47275C0.428148 0.98369 1.00901 0.770799 1.49807 0.997362L3.61096 1.97666C4.29182 2.29189 4.79846 2.91689 4.96565 3.64853L7.51291 14.7731C7.57463 15.0435 7.81174 15.2325 8.08948 15.2325H20.3625C20.6391 15.2325 20.8758 15.0446 20.9391 14.7751L22.9196 6.25439C22.9762 6.01221 22.8731 5.83603 22.8071 5.75283C22.7406 5.66924 22.5922 5.52939 22.3438 5.52939H7.89065C7.35119 5.52939 6.91409 5.09228 6.91409 4.55283C6.91409 4.01338 7.35119 3.57627 7.89065 3.57627H22.3438C23.1246 3.57627 23.8504 3.92666 24.3363 4.53799C24.8223 5.14931 24.9988 5.93603 24.8223 6.69658L22.8414 15.2177C22.5715 16.3759 21.5524 17.1853 20.3625 17.1853Z" fill="#1E3D65"/>
</g>
<defs>
<clipPath id="clip0_2330_88071">
<rect width="25" height="25" fill="white"/>
</clipPath>
</defs>
</svg>
