<svg width="24" height="24" viewBox="0 0 24 24" fill="none" xmlns="http://www.w3.org/2000/svg">
<path d="M12 4.5C11.586 4.5 11.25 4.164 11.25 3.75V3C11.25 2.586 11.586 2.25 12 2.25C12.414 2.25 12.75 2.586 12.75 3V3.75C12.75 4.164 12.414 4.5 12 4.5Z" fill="#1E3D65"/>
<path d="M18.546 11.0452C18.132 11.0452 17.796 10.7092 17.796 10.2952C17.796 7.24721 15.321 4.64996 12.279 4.50596C9.23321 4.36533 6.51783 6.71096 6.23095 9.74133C6.2137 9.92246 6.20508 10.1085 6.20508 10.2952C6.20508 10.7092 5.86908 11.0452 5.45508 11.0452C5.04108 11.0452 4.70508 10.7092 4.70508 10.2952C4.70508 10.0612 4.71595 9.82721 4.7377 9.59996C5.09883 5.78396 8.51771 2.82746 12.3498 3.00783C16.1801 3.18896 19.296 6.45821 19.296 10.2952C19.296 10.7096 18.96 11.0452 18.546 11.0452Z" fill="#1E3D65"/>
<path d="M19.9512 16.1613C19.7663 16.1613 19.5807 16.0931 19.4355 15.9562C18.393 14.9692 17.7949 13.5794 17.7949 12.1436C17.7949 11.7296 18.1309 11.3936 18.5449 11.3936C18.9589 11.3936 19.2949 11.7296 19.2949 12.1436C19.2949 13.1692 19.722 14.1622 20.4668 14.8668C20.7675 15.1514 20.7807 15.6262 20.496 15.9273C20.3487 16.0826 20.1499 16.1613 19.9512 16.1613Z" fill="#1E3D65"/>
<path d="M4.04888 16.1613C3.84976 16.1613 3.65138 16.0829 3.50401 15.9269C3.21938 15.6262 3.23251 15.1514 3.53326 14.8668C4.27801 14.1622 4.70513 13.1696 4.70513 12.1436C4.70513 11.7296 5.04113 11.3936 5.45513 11.3936C5.86913 11.3936 6.20513 11.7296 6.20513 12.1436C6.20513 13.5802 5.607 14.9699 4.5645 15.9562C4.41901 16.0931 4.23376 16.1613 4.04888 16.1613Z" fill="#1E3D65"/>
<path d="M12 21.75C9.9675 21.75 8.25 20.0325 8.25 18C8.25 17.586 8.586 17.25 9 17.25C9.414 17.25 9.75 17.586 9.75 18C9.75 19.2195 10.7805 20.25 12 20.25C13.2195 20.25 14.25 19.2195 14.25 18C14.25 17.586 14.586 17.25 15 17.25C15.414 17.25 15.75 17.586 15.75 18C15.75 20.0325 14.0325 21.75 12 21.75Z" fill="#1E3D65"/>
<path d="M5.07832 18.7501C4.16445 18.7501 3.35145 18.1914 3.00682 17.3266C2.66182 16.4608 2.8677 15.4951 3.53145 14.8666C3.8322 14.5816 4.30657 14.5948 4.59195 14.8955C4.87657 15.1963 4.86382 15.671 4.56307 15.956C4.23457 16.2673 4.35532 16.6591 4.40032 16.7716C4.44495 16.8834 4.62607 17.2501 5.07832 17.2501C5.49232 17.2501 5.82832 17.5861 5.82832 18.0001C5.82832 18.4141 5.4927 18.7501 5.07832 18.7501Z" fill="#1E3D65"/>
<path d="M18.9199 18.7496C18.5059 18.7496 18.1699 18.4136 18.1699 17.9996C18.1699 17.5856 18.5059 17.2496 18.9199 17.2496C19.3725 17.2496 19.554 16.8813 19.599 16.7685C19.6437 16.6563 19.764 16.266 19.4355 15.9551C19.1348 15.6701 19.1217 15.1957 19.4063 14.8946C19.6913 14.5938 20.1657 14.5807 20.4668 14.8653C21.1305 15.4938 21.3368 16.4587 20.9925 17.3231C20.6475 18.1897 19.8338 18.7496 18.9199 18.7496Z" fill="#1E3D65"/>
<path d="M5.45313 12.8931C5.03913 12.8931 4.70312 12.5571 4.70312 12.1431V10.2959C4.70312 9.8819 5.03913 9.5459 5.45313 9.5459C5.86713 9.5459 6.20313 9.8819 6.20313 10.2959V12.1431C6.20313 12.5571 5.8675 12.8931 5.45313 12.8931Z" fill="#1E3D65"/>
<path d="M18.5449 12.8931C18.1309 12.8931 17.7949 12.5571 17.7949 12.1431V10.2959C17.7949 9.8819 18.1309 9.5459 18.5449 9.5459C18.9589 9.5459 19.2949 9.8819 19.2949 10.2959V12.1431C19.2949 12.5571 18.9589 12.8931 18.5449 12.8931Z" fill="#1E3D65"/>
<path d="M18.9194 18.75H5.07813C4.66413 18.75 4.32812 18.414 4.32812 18C4.32812 17.586 4.66413 17.25 5.07813 17.25H18.919C19.333 17.25 19.669 17.586 19.669 18C19.669 18.414 19.3334 18.75 18.9194 18.75Z" fill="#1E3D65"/>
</svg>
