<svg width="27" height="27" viewBox="0 0 27 27" fill="none" xmlns="http://www.w3.org/2000/svg">
<path d="M12 4.5C11.586 4.5 11.25 4.164 11.25 3.75V3C11.25 2.586 11.586 2.25 12 2.25C12.414 2.25 12.75 2.586 12.75 3V3.75C12.75 4.164 12.414 4.5 12 4.5Z" fill="#1E3D65"/>
<path d="M18.546 11.0457C18.132 11.0457 17.796 10.7097 17.796 10.2957C17.796 7.2477 15.321 4.65045 12.279 4.50645C9.23321 4.36582 6.51783 6.71145 6.23095 9.74182C6.2137 9.92295 6.20508 10.1089 6.20508 10.2957C6.20508 10.7097 5.86908 11.0457 5.45508 11.0457C5.04108 11.0457 4.70508 10.7097 4.70508 10.2957C4.70508 10.0617 4.71595 9.8277 4.7377 9.60045C5.09883 5.78445 8.51771 2.82795 12.3498 3.00832C16.1801 3.18945 19.296 6.4587 19.296 10.2957C19.296 10.7101 18.96 11.0457 18.546 11.0457Z" fill="#1E3D65"/>
<path d="M19.9512 16.1611C19.7663 16.1611 19.5807 16.0928 19.4355 15.9559C18.393 14.9689 17.7949 13.5792 17.7949 12.1433C17.7949 11.7293 18.1309 11.3933 18.5449 11.3933C18.9589 11.3933 19.2949 11.7293 19.2949 12.1433C19.2949 13.1689 19.722 14.1619 20.4668 14.8666C20.7675 15.1512 20.7807 15.6259 20.496 15.9271C20.3487 16.0823 20.1499 16.1611 19.9512 16.1611Z" fill="#1E3D65"/>
<path d="M4.04888 16.1611C3.84976 16.1611 3.65138 16.0827 3.50401 15.9267C3.21938 15.6259 3.23251 15.1512 3.53326 14.8666C4.27801 14.1619 4.70513 13.1693 4.70513 12.1433C4.70513 11.7293 5.04113 11.3933 5.45513 11.3933C5.86913 11.3933 6.20513 11.7293 6.20513 12.1433C6.20513 13.5799 5.607 14.9697 4.5645 15.9559C4.41901 16.0928 4.23376 16.1611 4.04888 16.1611Z" fill="#1E3D65"/>
<path d="M12 21.75C9.9675 21.75 8.25 20.0325 8.25 18C8.25 17.586 8.586 17.25 9 17.25C9.414 17.25 9.75 17.586 9.75 18C9.75 19.2195 10.7805 20.25 12 20.25C13.2195 20.25 14.25 19.2195 14.25 18C14.25 17.586 14.586 17.25 15 17.25C15.414 17.25 15.75 17.586 15.75 18C15.75 20.0325 14.0325 21.75 12 21.75Z" fill="#1E3D65"/>
<path d="M5.07832 18.75C4.16445 18.75 3.35145 18.1913 3.00682 17.3265C2.66182 16.4606 2.8677 15.495 3.53145 14.8665C3.8322 14.5815 4.30657 14.5946 4.59195 14.8954C4.87657 15.1961 4.86382 15.6709 4.56307 15.9559C4.23457 16.2671 4.35532 16.659 4.40032 16.7715C4.44495 16.8833 4.62607 17.25 5.07832 17.25C5.49232 17.25 5.82832 17.586 5.82832 18C5.82832 18.414 5.4927 18.75 5.07832 18.75Z" fill="#1E3D65"/>
<path d="M18.9199 18.7501C18.5059 18.7501 18.1699 18.4141 18.1699 18.0001C18.1699 17.5861 18.5059 17.2501 18.9199 17.2501C19.3725 17.2501 19.554 16.8818 19.599 16.7689C19.6437 16.6568 19.764 16.2664 19.4355 15.9556C19.1348 15.6706 19.1217 15.1962 19.4063 14.8951C19.6913 14.5943 20.1657 14.5812 20.4668 14.8658C21.1305 15.4943 21.3368 16.4592 20.9925 17.3236C20.6475 18.1902 19.8338 18.7501 18.9199 18.7501Z" fill="#1E3D65"/>
<path d="M5.45313 12.8929C5.03913 12.8929 4.70312 12.5569 4.70312 12.1429V10.2957C4.70312 9.88165 5.03913 9.54565 5.45313 9.54565C5.86713 9.54565 6.20313 9.88165 6.20313 10.2957V12.1429C6.20313 12.5569 5.8675 12.8929 5.45313 12.8929Z" fill="#1E3D65"/>
<path d="M18.5449 12.8929C18.1309 12.8929 17.7949 12.5569 17.7949 12.1429V10.2957C17.7949 9.88165 18.1309 9.54565 18.5449 9.54565C18.9589 9.54565 19.2949 9.88165 19.2949 10.2957V12.1429C19.2949 12.5569 18.9589 12.8929 18.5449 12.8929Z" fill="#1E3D65"/>
<path d="M18.9194 18.75H5.07813C4.66413 18.75 4.32812 18.414 4.32812 18C4.32812 17.586 4.66413 17.25 5.07813 17.25H18.919C19.333 17.25 19.669 17.586 19.669 18C19.669 18.414 19.3334 18.75 18.9194 18.75Z" fill="#1E3D65"/>
<circle cx="21" cy="21" r="5.5" fill="#FF5500" stroke="#F6F8F9"/>
</svg>
