<svg width="24" height="24" viewBox="0 0 24 24" fill="none" xmlns="http://www.w3.org/2000/svg">
<g clip-path="url(#clip0_456_73703)">
<path d="M12 0L17.8411 3.00611L23.7067 5.98778L17.8411 8.99389L12 12L6.15885 8.99389L0.293274 5.98778L6.15885 3.00611L12 0Z" fill="#D9AC80"/>
<path d="M19.3075 10.9735V8.2607L16.3748 9.75153V12.4644L17.9878 10.4847L19.3075 10.9735Z" fill="#D7BAA4"/>
<path d="M12 12V24L23.7067 18.0122V5.98778L19.3075 8.26069L19.2098 8.30957V10.9491L17.9878 10.4847L16.3747 12.4644V9.75153L12 12Z" fill="#A67E4F"/>
<path d="M12 24V12L6.15885 8.99389L0.293274 5.98778V18.0122L12 24Z" fill="#926E43"/>
<path d="M4.69244 3.73931L16.3747 9.75153L19.2098 8.30957L19.3075 8.26069L7.62523 2.24847L6.15884 3.00611L4.69244 3.73931Z" fill="#F2D3BA"/>
</g>
<defs>
<clipPath id="clip0_456_73703">
<rect width="24" height="24" fill="white"/>
</clipPath>
</defs>
</svg>
