<svg width="36" height="36" viewBox="0 0 36 36" fill="none" xmlns="http://www.w3.org/2000/svg">
<path d="M18.0008 21.3334C17.8911 21.334 17.7824 21.313 17.6809 21.2716C17.5794 21.2301 17.487 21.169 17.4091 21.0917L12.4091 16.0917C12.2522 15.9348 12.1641 15.722 12.1641 15.5001C12.1641 15.2782 12.2522 15.0653 12.4091 14.9084C12.5661 14.7515 12.7789 14.6633 13.0008 14.6633C13.2227 14.6633 13.4356 14.7515 13.5925 14.9084L18.0008 19.3251L22.4091 14.9167C22.5686 14.7802 22.7736 14.7089 22.9833 14.717C23.1931 14.7251 23.392 14.812 23.5404 14.9604C23.6889 15.1089 23.7758 15.3078 23.7839 15.5175C23.792 15.7273 23.7207 15.9323 23.5841 16.0917L18.5841 21.0917C18.4289 21.2457 18.2194 21.3325 18.0008 21.3334Z" fill="#E8E8E8"/>
<circle cx="18" cy="18" r="17.5" transform="rotate(90 18 18)" stroke="#E8E8E8"/>
</svg>
