<svg width="25" height="25" viewBox="0 0 25 25" fill="none" xmlns="http://www.w3.org/2000/svg">
<g clip-path="url(#clip0_1283_117103)">
<path d="M21.2985 8.28253C21.0296 8.05133 20.7595 7.83048 20.4885 7.61896L17.3293 10.7782C17.5218 11.3166 17.627 11.8963 17.627 12.5C17.627 15.327 15.3271 17.627 12.5 17.627C11.8963 17.627 11.3167 17.5217 10.7782 17.3292L8.40723 19.7002C9.7918 20.2682 11.1651 20.5567 12.5 20.5567C14.0946 20.5567 15.7438 20.1467 17.4016 19.3381C18.7035 18.7031 20.0146 17.8214 21.2985 16.7175C23.4692 14.851 24.8064 13.0054 24.8622 12.9277C25.046 12.6722 25.046 12.3278 24.8622 12.0723C24.8063 11.9946 23.4692 10.149 21.2985 8.28253Z" fill="#C8C8C8"/>
<path d="M12.4999 16.1621C14.5192 16.1621 16.162 14.5193 16.162 12.5C16.162 12.3243 16.1488 12.1517 16.1248 11.9825L11.9824 16.1249C12.1516 16.149 12.3242 16.1621 12.4999 16.1621Z" fill="#C8C8C8"/>
<path d="M24.7855 0.214551C24.4995 -0.0714356 24.0358 -0.0714356 23.7497 0.214551L17.9954 5.96885C17.7974 5.86103 17.5994 5.75835 17.4016 5.66191C15.7438 4.85332 14.0946 4.44336 12.5 4.44336C10.9055 4.44336 9.25629 4.85332 7.59847 5.66187C6.29662 6.29688 4.98549 7.17861 3.70155 8.28252C1.53094 10.149 0.193738 11.9946 0.137878 12.0723C-0.0459595 12.3278 -0.0459595 12.6722 0.137878 12.9277C0.193738 13.0054 1.5309 14.851 3.70155 16.7175C4.36674 17.2894 5.03925 17.8011 5.71395 18.2502L0.214587 23.7497C-0.0714477 24.0357 -0.0714477 24.4995 0.214587 24.7855C0.357605 24.9285 0.545007 25 0.732459 25C0.91991 25 1.10736 24.9285 1.25033 24.7854L24.7855 1.25029C25.0716 0.964307 25.0716 0.500537 24.7855 0.214551ZM7.37308 12.5C7.37308 9.673 9.67304 7.37305 12.5 7.37305C13.65 7.37305 14.7127 7.75361 15.5689 8.39541L14.5181 9.44619C13.9391 9.06221 13.2454 8.83789 12.5 8.83789C10.4808 8.83789 8.83793 10.4807 8.83793 12.5C8.83793 13.2453 9.06224 13.939 9.44623 14.5181L8.39545 15.5688C7.75365 14.7126 7.37308 13.65 7.37308 12.5Z" fill="#C8C8C8"/>
</g>
<defs>
<clipPath id="clip0_1283_117103">
<rect width="25" height="25" fill="white"/>
</clipPath>
</defs>
</svg>
