<svg width="25" height="25" viewBox="0 0 25 25" fill="none" xmlns="http://www.w3.org/2000/svg">
<path d="M12.5002 16.3509C14.6258 16.3509 16.349 14.6278 16.349 12.5021C16.349 10.3765 14.6258 8.65335 12.5002 8.65335C10.3745 8.65335 8.65137 10.3765 8.65137 12.5021C8.65137 14.6278 10.3745 16.3509 12.5002 16.3509Z" fill="#C8C8C8"/>
<path d="M24.6165 11.436C21.6581 7.86097 17.1798 4.41966 12.5 4.41966C7.81943 4.41966 3.34006 7.86337 0.383557 11.436C-0.127852 12.0538 -0.127852 12.9505 0.383557 13.5683C1.12686 14.4665 2.68514 16.2003 4.76637 17.7153C10.0079 21.531 14.9806 21.5394 20.2337 17.7153C22.315 16.2003 23.8732 14.4665 24.6165 13.5683C25.1265 12.9517 25.1291 12.0558 24.6165 11.436ZM12.5 7.11382C15.4713 7.11382 17.8884 9.53086 17.8884 12.5021C17.8884 15.4734 15.4713 17.8905 12.5 17.8905C9.52878 17.8905 7.11173 15.4734 7.11173 12.5021C7.11173 9.53086 9.52878 7.11382 12.5 7.11382Z" fill="#C8C8C8"/>
</svg>
