<svg width="16" height="16" viewBox="0 0 16 16" fill="none" xmlns="http://www.w3.org/2000/svg">
<path d="M12.3013 1.00308L10.2323 1C7.90782 1 6.40564 2.42842 6.40564 4.63927V6.31722H4.32533C4.14557 6.31722 4 6.45229 4 6.6189V9.05006C4 9.21667 4.14574 9.35159 4.32533 9.35159H6.40564V15.4862C6.40564 15.6528 6.55121 15.7877 6.73098 15.7877H9.44519C9.62495 15.7877 9.77052 15.6526 9.77052 15.4862V9.35159H12.2029C12.3827 9.35159 12.5282 9.21667 12.5282 9.05006L12.5292 6.6189C12.5292 6.5389 12.4949 6.46229 12.4339 6.40568C12.373 6.34906 12.29 6.31722 12.2037 6.31722H9.77052V4.8948C9.77052 4.21113 9.9463 3.86406 10.9072 3.86406L12.301 3.8636C12.4806 3.8636 12.6262 3.72853 12.6262 3.56207V1.30461C12.6262 1.1383 12.4808 1.00338 12.3013 1.00308Z" fill="#1E3D65"/>
</svg>
