<svg width="16" height="16" viewBox="0 0 16 16" fill="none" xmlns="http://www.w3.org/2000/svg">
<path d="M15.8574 11.6908C15.8144 11.6139 15.5484 10.997 14.2683 9.72892C12.9282 8.40109 13.1082 8.6167 14.7223 6.32074C15.7054 4.92246 16.0984 4.06855 15.9754 3.7035C15.8584 3.35553 15.1353 3.44733 15.1353 3.44733L12.7312 3.46227C12.7312 3.46227 12.5531 3.43665 12.4201 3.52098C12.2911 3.60423 12.2081 3.79636 12.2081 3.79636C12.2081 3.79636 11.8271 4.8787 11.3191 5.79879C10.248 7.74037 9.81894 7.84284 9.64393 7.72223C9.2369 7.4415 9.33891 6.59293 9.33891 5.99092C9.33891 4.10911 9.60593 3.32458 8.81787 3.12177C8.55585 3.05453 8.36384 3.0097 7.69479 3.00223C6.83672 2.99262 6.10967 3.00543 5.69864 3.21997C5.42462 3.363 5.21361 3.68215 5.34262 3.7003C5.50163 3.72271 5.86165 3.80384 6.05267 4.08136C6.29969 4.43893 6.29069 5.24374 6.29069 5.24374C6.29069 5.24374 6.4327 7.45858 5.95966 7.73397C5.63464 7.92289 5.1896 7.53757 4.23453 5.77531C3.7455 4.87336 3.37547 3.87535 3.37547 3.87535C3.37547 3.87535 3.30447 3.68962 3.17746 3.59036C3.02345 3.46974 2.80743 3.43132 2.80743 3.43132L0.521262 3.44626C0.521262 3.44626 0.178236 3.45693 0.0522271 3.61597C-0.0597811 3.75794 0.0432264 4.0504 0.0432264 4.0504C0.0432264 4.0504 1.83336 8.51957 3.85951 10.7728C5.71864 12.8382 7.8288 12.7027 7.8288 12.7027H8.78487C8.78487 12.7027 9.07389 12.6685 9.2209 12.4988C9.35691 12.343 9.35191 12.0505 9.35191 12.0505C9.35191 12.0505 9.33291 10.681 9.92895 10.4793C10.516 10.2808 11.2701 11.8029 12.0691 12.3889C12.6732 12.8318 13.1322 12.7347 13.1322 12.7347L15.2693 12.7027C15.2693 12.7027 16.3874 12.629 15.8574 11.6908Z" fill="#1E3D65"/>
</svg>
