<svg width="24" height="24" viewBox="0 0 24 24" fill="none" xmlns="http://www.w3.org/2000/svg">
<path d="M22.5 16.125V22.125C22.5 22.3239 22.421 22.5147 22.2803 22.6553C22.1397 22.796 21.9489 22.875 21.75 22.875H14.25C14.0511 22.875 13.8603 22.796 13.7197 22.6553C13.579 22.5147 13.5 22.3239 13.5 22.125V16.125C13.5 13.125 14.625 11.625 14.625 11.625C15.375 10.125 16.875 8.625 16.875 5.625V5.25C16.6761 5.25 16.4853 5.17098 16.3447 5.03033C16.204 4.88968 16.125 4.69891 16.125 4.5C16.125 4.30109 16.204 4.11032 16.3447 3.96967C16.4853 3.82902 16.6761 3.75 16.875 3.75V2.25H19.125V3.75C19.3239 3.75 19.5147 3.82902 19.6553 3.96967C19.796 4.11032 19.875 4.30109 19.875 4.5C19.875 4.69891 19.796 4.88968 19.6553 5.03033C19.5147 5.17098 19.3239 5.25 19.125 5.25V5.625C19.125 8.625 20.625 10.125 21.375 11.625C21.375 11.625 22.5 13.125 22.5 16.125Z" fill="#464C4F"/>
<path d="M20.5125 10.1588C19.3748 10.875 18 10.875 18 10.875C18 10.875 16.6251 10.875 15.4875 10.1588C16.1719 9.03 16.875 7.67906 16.875 5.625V5.25C16.6761 5.25 16.4853 5.17098 16.3447 5.03033C16.204 4.88968 16.125 4.69891 16.125 4.5C16.125 4.30109 16.204 4.11032 16.3447 3.96967C16.4853 3.82902 16.6761 3.75 16.875 3.75V2.25H19.125V3.75C19.3239 3.75 19.5147 3.82902 19.6553 3.96967C19.796 4.11032 19.875 4.30109 19.875 4.5C19.875 4.69891 19.796 4.88968 19.6553 5.03033C19.5147 5.17098 19.3239 5.25 19.125 5.25V5.625C19.125 7.67906 19.8281 9.03 20.5125 10.1588Z" fill="#931237"/>
<path d="M20.5125 10.1588C19.3748 10.875 18 10.875 18 10.875C18 10.875 16.6252 10.875 15.4875 10.1588C15.1725 10.6791 14.8617 11.152 14.625 11.625C15.75 13.125 18 13.125 18 13.125C18 13.125 20.25 13.125 21.375 11.625C21.1383 11.152 20.8275 10.6791 20.5125 10.1588Z" fill="#6A7073"/>
<path d="M10.5 16.125V22.125C10.5 22.3239 10.421 22.5147 10.2803 22.6553C10.1397 22.796 9.94891 22.875 9.75 22.875H2.25C2.05109 22.875 1.86032 22.796 1.71967 22.6553C1.57902 22.5147 1.5 22.3239 1.5 22.125V16.125C1.5 15.375 1.875 14.625 3 12.375C4.125 10.125 4.875 6.75 4.875 6.75V4.125C4.67609 4.125 4.48532 4.04598 4.34467 3.90533C4.20402 3.76468 4.125 3.57391 4.125 3.375C4.125 3.17609 4.20402 2.98532 4.34467 2.84467C4.48532 2.70402 4.67609 2.625 4.875 2.625V1.125H7.125V2.625C7.32391 2.625 7.51468 2.70402 7.65533 2.84467C7.79598 2.98532 7.875 3.17609 7.875 3.375C7.875 3.57391 7.79598 3.76468 7.65533 3.90533C7.51468 4.04598 7.32391 4.125 7.125 4.125V6.75C7.125 6.75 7.875 10.125 9 12.375C10.125 14.625 10.5 15.375 10.5 16.125Z" fill="#464C4F"/>
<path d="M7.875 3.375C7.875 3.57391 7.79598 3.76468 7.65533 3.90533C7.51468 4.04598 7.32391 4.125 7.125 4.125V6.375H4.875V4.125C4.67609 4.125 4.48532 4.04598 4.34467 3.90533C4.20402 3.76468 4.125 3.57391 4.125 3.375C4.125 3.17609 4.20402 2.98532 4.34467 2.84467C4.48532 2.70402 4.67609 2.625 4.875 2.625V1.125H7.125V2.625C7.32391 2.625 7.51468 2.70402 7.65533 2.84467C7.79598 2.98532 7.875 3.17609 7.875 3.375Z" fill="#931237"/>
<path d="M3.56055 15C3.49717 15 3.43484 14.9839 3.37937 14.9532C3.3239 14.9225 3.2771 14.8783 3.24336 14.8247C3.20961 14.771 3.19002 14.7097 3.1864 14.6464C3.18279 14.5831 3.19527 14.52 3.22268 14.4628C3.42804 14.0345 3.68205 13.5261 4.00399 12.8825L4.00624 12.8778C4.02827 12.8338 4.05875 12.7945 4.09596 12.7622C4.13316 12.73 4.17636 12.7054 4.22308 12.6898C4.2698 12.6742 4.31913 12.668 4.36825 12.6715C4.41737 12.675 4.46533 12.6881 4.50937 12.7101C4.55342 12.7322 4.5927 12.7626 4.62496 12.7998C4.65723 12.8371 4.68185 12.8803 4.69742 12.927C4.713 12.9737 4.71921 13.023 4.71572 13.0721C4.71223 13.1213 4.69909 13.1692 4.67707 13.2133L4.67482 13.2177C4.35471 13.8585 4.10158 14.3644 3.89899 14.7871C3.86841 14.8509 3.8204 14.9047 3.76051 14.9424C3.70063 14.9801 3.6313 15.0001 3.56055 15Z" fill="#6A7073"/>
<path d="M7.40596 7.875H4.59534C4.77627 7.19719 4.87565 6.75 4.87565 6.75V6.375H7.12565V6.75C7.12565 6.75 7.22502 7.19719 7.40596 7.875Z" fill="#6A7073"/>
<path d="M1.5 16.125H10.5V21.375H1.5V16.125Z" fill="#6A7073"/>
<path d="M20.9446 15.75C20.8518 15.7499 20.7622 15.7153 20.6934 15.653C20.6245 15.5906 20.5813 15.5049 20.572 15.4125C20.5244 14.9261 20.4382 14.4442 20.3142 13.9714C20.3015 13.9238 20.2984 13.8742 20.3049 13.8254C20.3114 13.7765 20.3275 13.7295 20.3522 13.6869C20.3769 13.6443 20.4097 13.607 20.4489 13.5771C20.488 13.5472 20.5326 13.5253 20.5802 13.5126C20.6763 13.487 20.7787 13.5007 20.8647 13.5506C20.9073 13.5753 20.9446 13.6082 20.9745 13.6473C21.0044 13.6864 21.0263 13.731 21.039 13.7786C21.1734 14.29 21.2668 14.8113 21.3185 15.3375C21.3234 15.3865 21.3186 15.436 21.3044 15.4832C21.2902 15.5303 21.2669 15.5742 21.2357 15.6123C21.2045 15.6505 21.1662 15.6821 21.1228 15.7054C21.0794 15.7287 21.0318 15.7432 20.9828 15.7481C20.9699 15.7494 20.9572 15.75 20.9446 15.75Z" fill="#6A7073"/>
<path d="M13.5 16.875H22.5V21.375H13.5V16.875Z" fill="#6A7073"/>
<path d="M18 13.125C18.6213 13.125 19.125 12.6213 19.125 12C19.125 11.3787 18.6213 10.875 18 10.875C17.3787 10.875 16.875 11.3787 16.875 12C16.875 12.6213 17.3787 13.125 18 13.125Z" fill="#464C4F"/>
<path d="M15.375 11.625V22.125C15.375 22.3239 15.296 22.5147 15.1553 22.6553C15.0147 22.796 14.8239 22.875 14.625 22.875H9.375C9.17609 22.875 8.98532 22.796 8.84467 22.6553C8.70402 22.5147 8.625 22.3239 8.625 22.125V11.6016C8.625 9.375 10.875 8.60156 10.875 8.60156V4.85156H10.5V2.60156H13.5V4.85156H13.125V8.60156C13.125 8.60156 15.375 9.375 15.375 11.625Z" fill="#4F5659"/>
<path d="M13.5 2.60156V4.85156H13.125V6.375H10.875V4.85156H10.5V2.60156H13.5Z" fill="#931237"/>
<path d="M10.125 12.375C10.0255 12.375 9.93016 12.3355 9.85983 12.2652C9.78951 12.1948 9.75 12.0995 9.75 12V11.6016C9.75 11.0443 9.96563 10.5803 10.41 10.1831C10.614 10.0029 10.8418 9.8516 11.087 9.7335C11.1765 9.69026 11.2796 9.68438 11.3735 9.71714C11.4674 9.74991 11.5445 9.81863 11.5877 9.90821C11.631 9.99778 11.6369 10.1009 11.6041 10.1948C11.5713 10.2887 11.5026 10.3657 11.413 10.409C11.2311 10.4968 11.0619 10.6089 10.91 10.7421C10.5487 11.0652 10.5 11.3578 10.5 11.6016V12C10.5 12.0995 10.4605 12.1948 10.3902 12.2652C10.3198 12.3355 10.2245 12.375 10.125 12.375Z" fill="#6A7073"/>
<path d="M10.875 6.375H13.125V7.875H10.875V6.375Z" fill="#6A7073"/>
<path d="M10.125 13.5H13.875V19.5H10.125V13.5Z" fill="#6A7073"/>
</svg>
