<svg width="16" height="16" viewBox="0 0 16 16" fill="none" xmlns="http://www.w3.org/2000/svg">
<path d="M11.3753 2H9.42671C7.45258 2 5.46067 3.45774 5.46067 6.71446C5.46067 8.40136 6.17565 9.71519 7.48622 10.4624L5.08743 14.8041C4.97373 15.0094 4.97077 15.2421 5.0795 15.4266C5.18565 15.6067 5.37971 15.7143 5.59858 15.7143H6.81191C7.08757 15.7143 7.30254 15.581 7.40557 15.3476L9.65467 10.9486H9.81881V15.166C9.81881 15.4632 10.0696 15.7143 10.3664 15.7143H11.4265C11.7594 15.7143 11.9918 15.4818 11.9918 15.149V2.60009C11.9919 2.24677 11.7383 2 11.3753 2ZM9.81885 8.99446H9.52931C8.40658 8.99446 7.7363 8.078 7.7363 6.54294C7.7363 4.63421 8.58302 3.95416 9.37545 3.95416H9.81885V8.99446Z" fill="#1E3D65"/>
</svg>
