<svg width="16" height="16" viewBox="0 0 16 16" fill="none" xmlns="http://www.w3.org/2000/svg">
<path d="M15.1831 4.25079C15.0103 3.60818 14.5036 3.10162 13.8611 2.92859C12.6873 2.60742 7.992 2.60742 7.992 2.60742C7.992 2.60742 3.29691 2.60742 2.12311 2.91641C1.49295 3.08926 0.973938 3.60828 0.801086 4.25079C0.492188 5.4245 0.492188 7.85861 0.492188 7.85861C0.492188 7.85861 0.492188 10.305 0.801086 11.4664C0.974121 12.1089 1.48059 12.6155 2.1232 12.7885C3.30926 13.1098 7.99219 13.1098 7.99219 13.1098C7.99219 13.1098 12.6873 13.1098 13.8611 12.8008C14.5037 12.6279 15.0103 12.1213 15.1833 11.4788C15.4921 10.305 15.4921 7.87097 15.4921 7.87097C15.4921 7.87097 15.5045 5.4245 15.1831 4.25079ZM6.49713 10.1073V5.60989L10.4015 7.85861L6.49713 10.1073Z" fill="#1E3D65"/>
</svg>
